<mxfile host="app.diagrams.net" modified="2023-03-27T10:35:22.388Z" agent="Mozilla/5.0 (X11; Linux x86_64) AppleWebKit/537.36 (KHTML, like Gecko) Chrome/111.0.0.0 Safari/537.36" etag="PVhZSM53l3K8RVgwuifo" version="21.1.1" type="github">
  <diagram name="第 1 页" id="bvpk-J_PeVPjt8j2hCXw">
    <mxGraphModel dx="7906" dy="4688" grid="1" gridSize="10" guides="1" tooltips="1" connect="1" arrows="1" fold="1" page="1" pageScale="1" pageWidth="827" pageHeight="1169" math="1" shadow="0">
      <root>
        <mxCell id="0" />
        <mxCell id="1" parent="0" />
        <mxCell id="2hgS4Xu8RybX3Xi1nfF--1" value="" style="shape=image;verticalLabelPosition=bottom;labelBackgroundColor=default;verticalAlign=top;aspect=fixed;imageAspect=0;image=https://upload.wikimedia.org/wikipedia/commons/thumb/b/bc/Neuron_Hand-tuned.svg/2560px-Neuron_Hand-tuned.svg.png;fillColor=default;strokeColor=default;" parent="1" vertex="1">
          <mxGeometry x="208" y="220" width="802" height="431.85" as="geometry" />
        </mxCell>
        <mxCell id="2hgS4Xu8RybX3Xi1nfF--2" value="&lt;font size=&quot;1&quot; style=&quot;&quot;&gt;&lt;b style=&quot;font-size: 24px;&quot;&gt;树突&lt;/b&gt;&lt;/font&gt;" style="text;html=1;strokeColor=none;fillColor=none;align=center;verticalAlign=middle;whiteSpace=wrap;rounded=0;" parent="1" vertex="1">
          <mxGeometry x="325" y="216" width="60" height="30" as="geometry" />
        </mxCell>
        <mxCell id="2hgS4Xu8RybX3Xi1nfF--3" value="&lt;b&gt;&lt;font style=&quot;font-size: 24px;&quot;&gt;神经细胞细胞核&lt;/font&gt;&lt;/b&gt;" style="text;html=1;strokeColor=none;fillColor=none;align=center;verticalAlign=middle;whiteSpace=wrap;rounded=0;" parent="1" vertex="1">
          <mxGeometry x="224" y="647" width="104" height="30" as="geometry" />
        </mxCell>
        <mxCell id="2hgS4Xu8RybX3Xi1nfF--4" value="&lt;font size=&quot;1&quot; style=&quot;&quot;&gt;&lt;b style=&quot;font-size: 24px;&quot;&gt;神经末梢&lt;/b&gt;&lt;/font&gt;" style="text;html=1;strokeColor=none;fillColor=none;align=center;verticalAlign=middle;whiteSpace=wrap;rounded=0;" parent="1" vertex="1">
          <mxGeometry x="863" y="246" width="116" height="30" as="geometry" />
        </mxCell>
        <mxCell id="2hgS4Xu8RybX3Xi1nfF--5" value="" style="rounded=0;whiteSpace=wrap;html=1;rotation=-45;strokeWidth=0;strokeColor=#FFFFFF;" parent="1" vertex="1">
          <mxGeometry x="425.26" y="402.28" width="88" height="23" as="geometry" />
        </mxCell>
        <mxCell id="2hgS4Xu8RybX3Xi1nfF--6" value="" style="ellipse;whiteSpace=wrap;html=1;aspect=fixed;strokeWidth=0;strokeColor=#FFFFFF;" parent="1" vertex="1">
          <mxGeometry x="430" y="443" width="15" height="15" as="geometry" />
        </mxCell>
        <mxCell id="2hgS4Xu8RybX3Xi1nfF--7" value="" style="rounded=0;whiteSpace=wrap;html=1;rotation=85;strokeWidth=0;strokeColor=#FFFFFF;" parent="1" vertex="1">
          <mxGeometry x="610" y="570" width="120" height="47.54" as="geometry" />
        </mxCell>
        <mxCell id="2hgS4Xu8RybX3Xi1nfF--8" value="" style="ellipse;whiteSpace=wrap;html=1;aspect=fixed;strokeWidth=0;strokeColor=#FFFFFF;" parent="1" vertex="1">
          <mxGeometry x="500" y="423" width="9" height="9" as="geometry" />
        </mxCell>
        <mxCell id="2hgS4Xu8RybX3Xi1nfF--9" value="" style="ellipse;whiteSpace=wrap;html=1;rotation=45;strokeWidth=0;strokeColor=#FFFFFF;" parent="1" vertex="1">
          <mxGeometry x="720" y="505" width="120" height="80" as="geometry" />
        </mxCell>
        <mxCell id="2hgS4Xu8RybX3Xi1nfF--10" value="" style="rounded=1;whiteSpace=wrap;html=1;rotation=-105;strokeColor=#FFFFFF;strokeWidth=0;" parent="1" vertex="1">
          <mxGeometry x="664" y="396" width="118" height="30" as="geometry" />
        </mxCell>
        <mxCell id="2hgS4Xu8RybX3Xi1nfF--11" value="" style="shape=flexArrow;endArrow=classic;html=1;rounded=0;width=29;endSize=40.64;fillColor=#647687;strokeColor=#314354;endWidth=29;" parent="1" edge="1">
          <mxGeometry width="50" height="50" relative="1" as="geometry">
            <mxPoint x="248.5" y="188" as="sourcePoint" />
            <mxPoint x="912" y="188" as="targetPoint" />
          </mxGeometry>
        </mxCell>
        <mxCell id="2hgS4Xu8RybX3Xi1nfF--12" value="&lt;font size=&quot;1&quot; style=&quot;&quot;&gt;&lt;b style=&quot;font-size: 24px;&quot;&gt;信息传递方向&lt;/b&gt;&lt;/font&gt;" style="text;html=1;strokeColor=none;fillColor=none;align=center;verticalAlign=middle;whiteSpace=wrap;rounded=0;" parent="1" vertex="1">
          <mxGeometry x="500" y="132" width="225" height="30" as="geometry" />
        </mxCell>
        <mxCell id="EqWKjFn6qsOwukivwEJe-5" value="" style="shape=image;verticalLabelPosition=bottom;labelBackgroundColor=default;verticalAlign=top;aspect=fixed;imageAspect=0;image=data:image/png,iVBORw0KGgoAAAANSUhEUgAABU0AAAFsCAYAAAD42ZjVAAAgAElEQVR4AezBDXxWdf34/9emv65o7svn0nAVAgdmSl+QnQGagLmzLcWk2LkKUkjlmhqJldtlmUY3F7OyL/bQ61qZFhm7kL54g7ozA7/ehDuQ3HgDOxAUacBhQIkk+yhfvnR58z//HXHIrdzEgG3v5zMnaIUQQgghhBBCCCGEEEKId+UihBBCCCGEEEIIIYQQYpdchBBCCCGEEEIIIYQQQuySixBCCCGEEEIIIYQQQohdchFCCCGEEEIIIYQQQgixSy5CCCGEEEIIIYQQQgghdslFCCGEEEIIIYQQQgghxC65CCGEEEIIIYQQQgghhNglFyGEEEIIIYQQQgghhBC75CKEEEIIIYQQQgghhBBil1yEEEIIIYQQQgghhBBC7JKLEEIIIYQQQgghhBBCiF1yEUIIIYQQQgghhBBCCLFLLkIIIYQQQgghhBBCCCF2yUUIIYQQQgghhBBCCCHELrkIIYQQQgghhBBCCCGE2CUXIYQQQgghhBBCCCGEELvkIoQQQgghhBBCCCGEEGKXXIQQQgghhBBCCCGEEELskosQQgghhBBCCCGEEEKIXXIRQgghhBBCCCGEEEIIsUsuQgghhBBCCCGEEEIIIXbJRQghhBBCCCGEEEIIIcQuJyOEEEKIdqW1xvM8PM9j/fr1+L6P1pqQ1hqtNYZhoJQipJSiT58+mKaJYRiYpokQQgghhBBCiGMnJ2iFEEIIIY4az/PwfZ+GhgY8z8PzPP5dtm1TVFSEZVlYloUQQgghhBBCiPaTE7RCCCGEEP8WrTXpdJqGhgY8z2N/DMPAMAwMw0ApRffu3VFKEdJaE3r99dfRWuP7Pq7rciDV1dVUVFRgWRZCCCGEEEIIIY6unKAVQgghhDgirusyY8YMHMdBa00bpRSmaVJSUoJt2xiGgVKKw+X7Pp7nMX/+fFzXxfM8dmcYBslkkng8jhAdndYarTWe5+H7PqH169cT0lqjlKJ79+6EDMPAMAwsy0KIrkRrjdYaz/PwfZ/Q+vXrCWmtUUrRvXt3QoZhYBgGlmUhhBBCiMOTE7RCCCGEEIfF931qa2vJZDJorQkppbBtm6qqKgzDQCnF0aa1JpPJMGPGDDzPo41pmlRVVRGPxxGiI/E8D8dxaGhowPd9tNYcLsMwsCyLkpIS4vE4QnQ2nufhOA4NDQ34vo/WmsNlGAaWZVFSUkI8HkcIIYQQHywnaIUQQgghDonWmpqaGjKZDFprQpZlUVFRQTweRynFseJ5HrW1tWQyGdqYpklVVRXxeBwhTkRaazzPw3VdGhoa8DyPvSmlMAyDkFIKpRQhrTUhrTWe53Egtm1TUlJCPB5HKYUQHY3WGs/zcF2XhoYGPM9jb0opDMMgpJRCKUVIa01Ia43neRyIbduUlJQQj8dRSiGEEEKIPeUErRBCCCHEB9Jak06nqa2tRWtNSClFMpkkHo+jlOJ48TyP2tpaMpkMbWzbJpVKYRgGQpwItNbU1NSQyWTQWrM7wzCwbZuKigqUUhiGgVKKg9Fa47ouvu/T0NCA67rszbIsJkyYQDweR4gTndaampoaMpkMWmt2ZxgGtm1TUVGBUgrDMFBKcSgcx8H3fRoaGnBdl71ZlsWECROIx+MIIYQQYqecoBVCCCGEOCDP84jFYvi+T0gpRTKZJB6Po5TiROF5HpWVlXieR5tkMsmUKVMQ4njRWlNTU0Mmk0FrTRvLsigpKcG2bUzT5GhxHIeGhgYymQy7M02Turo6TNNEiBON1pqamhoymQxaa9pYlkVJSQm2bWOaJkeL4zg0NDSQyWTYnWma1NXVYZomQgghRFeXE7RCCCGEEPvlui6xWAytNUopqqqqqK6uRinFicpxHBKJBL7vE7Isi8bGRoQ4lrTWZDIZamtr8X2fkFKKqqoqbNvGNE3am+M4NDQ0kMlkaGPbNqlUCsMwEOJ401rjOA41NTX4vk9IKUVVVRW2bWOaJu3NcRwaGhrIZDK0sW2bVCqFYRgIIYQQXVVO0AohhBBC7COdTlNTU4PWGqUUdXV12LZNR5FIJEin04RM06S+vh7DMBCivbmuSyKRwPM8Qkopkskk8XgcpRTHmuu6VFZW4vs+baqrq0kmkyilEOJ4cF2XRCKB53mElFJUVVVRXV2NUopjzfM8YrEYvu/Tprq6mmQyiVIKIYQQoqvJCVohhBBCiF201iQSCTKZDCHLsqirq8MwDDqadDpNIpEgpJSisbER0zQRoj1orampqSGdThNSSmHbNslkEsMwON4ymQw1NTX4vk9IKUVjYyOmaSLEsaK1pqamhnQ6TUgphWVZpFIpDMPgeMtkMtTU1OD7PiGlFI2NjZimiRBCCNGV5AStOAjP8xBCtC/TNBFCHH9aayorK3Ech1B1dTXJZBKlFB2V67qUlpbSJpVKUV1djRBHk9aayspKHMchZFkWqVQK0zQ50aTTaRKJBG3q6+uxbRsh2pvWmsrKShzHIWRZFqlUCtM0OdGk02kSiQRt6uvrsW0bIYQQoqvICVpxELFYDMdxEEK0nyAIEEIcX1prSktL8TwPpRTJZJLq6mo6A8/zqKysxPM8QnV1dcTjcYQ4GjzPIxaL4fs+oerqapLJJEopTlSe5xGLxfB9n1AymWTKlCkI0V48zyMWi+H7PqHq6mqSySRKKU5UnucRi8XwfZ9QMplkypQpCCGEEF1BTtCKg0in08yfPx8hRPupr69HCHH8aK2prKzEcRyUUtTV1WHbNp2J1ppYLIbruoQaGxuxLAsh/h2u6xKLxdBao5QilUoRj8fpCLTWxGIxXNclZFkWjY2NCHG0ua5LLBZDa41SilQqRTwepyPQWhOLxXBdl5BlWTQ2NiKEEEJ0djlBK4QQQoguLpFIkE6nCdXV1RGPx+mMtNaUlpbieR5KKZqamjAMAyGORDqdpqamBq01Sinq6uqwbZuOJpFIkE6nCZmmSVNTE0IcLel0mpqaGrTWKKWoq6vDtm06mkQiQTqdJmSaJk1NTQghhBCdWU7QCiGEEKILS6fTJBIJQtXV1aRSKToz3/cpLi5Ga41hGKxbtw4hDpfneZSWlqK1xjRN6uvrMQyDjiqdTpNIJAhZlkVjYyNC/Ls8z6O0tBStNaZpUl9fj2EYdFTpdJpEIkHIsiwaGxsRQgghOqucoBVCCCFEF+W6LrFYDK018XicVCqFUorOznVdSktLCVmWRWNjI0IcKt/3KS4uRmuNaZo0NjailKKjcxyHWCxGqLq6mlQqhRBHyvd9iouL0VpjmiaNjY0opejoHMchFosRqq6uJpVKIYQQQnRGJ01phRBCCNEF+b5PaWkpWmtM0+T+++9HKUVXYBgGhmHQ0NCA7/u8/vrrXHLJJQhxMFprxo0bx+rVq1FKUV9fj2EYdAb9+/dn/fr1eJ7HkiVLME2T/v37I8Th0lozbtw4Vq9ejVKK+vp6DMOgM+jfvz/r16/H8zyWLFmCYRiYpokQQgjR2eQErRBCCCG6oNLSUlzXRSlFY2MjpmnS1VRWVpLJZAg1NTVhmiZCfJBYLIbjOCilqKurw7ZtOpvS0lJc1yXU1NSEaZoIcTgqKyvJZDIopairq8O2bTqb0tJSXNcl1NTUhGmaCCGEEJ1JLkIIIUQX5DgOrusSqqurwzRNuqK6ujpM0yRUWVmJEB8knU7jOA6hZDKJbdt0RvX19ZimSai0tBTf9xHiUKXTaTKZDKFkMolt23RG9fX1mKZJqLS0FN/3EUIIITqTnKAVQgghRBeitaa0tBTP87Btm/r6eroy13UpLS0lVF9fj23bCLE3z/MoLS1Fa011dTWpVIrOzPd9+vbtS8i2berr6xHiYHzfp7i4GK011dXVpFIpOjPf9+nbty8h27apr69HCCGE6CxyEUIIIbqYTCaD53mEqqqq6Oosy8K2bUKJRAIh9ieRSKC1xjAMkskknZ1hGNTV1RFyHAfP8xDiYGpqatBaYxgGyWSSzs4wDOrr6wk5joPneQghhBCdRU7QCiGEEKKL0FpTXFyM7/vYtk19fT0CfN+nb9++hOrq6ojH4wjRxnEcYrEYobq6OuLxOF1F37598X0f0zRpampCiANxXZfS0lJCdXV1xONxuori4mI8z8M0TZqamhBCCCE6g1yEEEKILiSdTuP7PkopkskkYifDMIjH44QSiQRC7K62tpaQZVnE43G6klQqRcjzPBzHQYgDqampIWRZFvF4nK4klUoR8jwPx3EQQgghOoNchBBCiC5Ca01tbS2hqqoqTNNEvC+VShHSWjNlyhSECDmOg+u6hJLJJF2NbdtYlkUokUggxP44joPruoSSySRdjWVZ2LZNKJFIIIQQQnQGuQghhBBdRDqdRmuNUorq6mrEnpRSxONxQrW1tQihtaampoaQbdtYlkVXVFdXR8j3fTKZDELsTmtNTU0NIdu2sSyLriiVShHyfZ9MJoMQQgjR0eUi2t/2LTQ3N9PcvImWLF1WtmUTzc3NNG9qIYsQQhx7DQ0NhOLxOEopxL5SqRQhrTWZTAbRtbmui+d5hJLJJF2VYRjE43FCiUQCIXbnui6e5xGqqqqiqzIMg3g8TiiRSCCEEEJ0dLm0lw1zuXXiRCqGKj6ck0NOzukMGz+RiRMnMnHiRCZOHE/5wNM5JSeHnByT21fRSb3IvYlr+fx/9qFPn1H85m8c1Ia5tzJx4niGnZ5DTk4OH+5/KRMnTmTixIlMnDie8n6nc/qwK/nl/I1kOQyrphMbaDDslmdo4Rh78V6++fUxDO3Thz6jfsPfOJgN/Losh5ycHE453WBg+XgmTqxg0Ck55OTkkHNKP8rHT2R8+UCM008hJyeHHPN2ViGEEPvneR6e5xGqqKhA7J9SCtu2CTU0NCC6thkzZhCybRvTNOnKUqkUIa01vu8jRJsZM2YQsm0by7LoylKpFCGtNb7vI4QQQnRkJ9Neeo3ih9NGwaozMQfezHIu4ZZZ06hgT9uX3YY1/FZeWg8MoBMayrXTGhjYozfDbuOQ9Br1Q6aNgiU9nmXYbRvof/XPmPadAbwvy4rbL+A860wyU5/n2e8MIsLBbXjuQf5n1Xqy/1rA2v8qYwjH0NBrmTZrGGf+eSA3cyje4PWtEYZOfZ5nvzOICDutOtNk4M3LGTDZYd7kQeyUZcXtF3DefW/zDkIIsX+O4xAyTRPLshAHVlFRgeM4OI6D1hqlFKLr0Vrjui6hCRMm0NUppTAMA9/3cRyH6upqhNBa47ouoYqKCro6pRSGYeD7Po7jUF1djRBCCNFR5XKc5Q2ezNSJH2Hthg10ZvndT+Vw5Xc/lf2LMKjqFmyyvHjzF/npUg5Jr6sfZfWiRfzphe8yhBPdel5aPZKqrw4iwr5OPvkk3hdhUNUt2KtWsw4hhNi/GTNmEKqoqEB8MNu2aeM4DqJrcl0XrTUh0zQRYNs2odraWoQIua6L1pqQZVkIsG2bUE1NDUIIIURHlssJYETJxbz6WgviMET6M7iIVmtY8dLrHJo8jGHDGBiNcOJ7izfP/DSDohyaSH8GF73J21mEEGIfnufh+z4h0zT5t2xfzUPJCoYZw6hIPsLLWfaRffkRJpWXk3x6Mx2RUgrLsgjNnz8f0TU1NDQQsiwLwzAQUFJSQsj3fXzfR4j58+cTMk0TwzAQUFFRQUhrje/7CCGEEB3VyRwnq243mXq2x30VELngO0z9eD7v2r6Fpufms2YrrU6lf/kIBkYj7LSdLc2vsYPX+Nvzr/LRcoteW5exqGkHfcpHMPBDb9D82g7e1438/DfZtu0ddul2Gr17wJbm19jBe7qdRu8eeZBtYeXCeazeSqtu9BxqMczIY5ftW2h+bQe89jeef/WjlFu92LpsEU07+lA+YiDRCLtkWzbx56bFrNnRk+Lhgzn61vPSaloVMuis7rB9C82v7YDX/sbzr36UcqsXW5ctomlHH8pHDCRKC5s2b+Od1/7G869+lPKRg4iSpWXTZra9839s+tNKgv8cw/DTt9D03HzWbD2VwpJPU9wjD8jSsmYZi5o2Qc9ihg8uJBphT9kWVi6cx+qttOpGz6EWw4w8jlhLX75yR196cajOZNRPRrPxpWZW/++fWBn8J2OKTqHpufn8vdtQrGEGeey03V+M++ImdtDq1P6UjxhINMK+si2sWbaIpk07CJ3av5wRA6NEeF+2ZQ3LFjWxaQdwaiElny6mRx6d3/bVPDP7MeYs2s6Zl49l3IiBRCO8K7vxBf7w2Bzm/W9fyks/y2fPPYMIQhxfnucRUkphWRZHLLuC2y+7jR7/lcGt+Su39h7GWd5MtjZcQZQ2G8h8bQy/agReqOGCN+7mIjoe0zRxXRfHcairq0N0Pa7rEiopKaG9ZDe+wGOz7mcxwxg3fjTnnhFhT1k2zr+XWWuHMaFyMAUcX7Zto5RCa43jOFRXVyO6NsdxCFVUVNBeshtf4LFZ97OYYYwbP5pzz4iwpywb59/LrLXDmFA5mAKOL8uyMAwD3/dxHIfq6mqEEEKIjiiX42Izzz+znF0KBjNqeF82PzuFET0/Q932Ysq/8AXK+/+TdEkvrNuXsZ3Qq7z8/BxuvXgY5WO/xW03jSQ2fSGzv1HOOWdPZsGrL/PM9K8ytE8f+vQp4/tzXmbDhpXMufVizurThz5l1Tyw/FXgVZZP/ypD+/ThrOHXM335q7C5gWsLP8Ovdwzlc2O+wPk9FnFD/wJGTHmWzbzn1Zd5fs6tXDysnLHfuo2bRsaYvnA23yg/h7MnL+Bd2Zd5ZNIgCoYl8boN5LxCWHDTRYyb3szRtPmR+3g0G6HnNXcwaQjw6ss8P+dWLh5Wzthv3cZNI2NMXzibb5Sfw9mTF8D/bWDlnFu5eFg5Y29+gr8T+j82rJxD7WUXMvzzY7n1Z9+i/Io6tn7iPAZ++BHGnl7AiLuepWHSpUxe+mHOOa+Qv//XuXy8cBKPt/C+zQ1cW/gZfr1jKJ8b8wXO77GIG/oXMGLKs2zmCEUHMXLkIKIcqgif6HUa/3jkq1w4/POMvTXJtSXf5I+N9/D54f354vQNQJYVqRH0veZFPlH+BcZ8biDb7irj44WX87uXs+wu+/LvuLywFyW1r1JYUk75sP74P+hDr6sa2Ewoy8u/u5zCXpcz58ND+dwXzqfHvIn06vtFHlhHJ5Zl4//cwNCSWtafPZrq79t0u6uMjxffhNsCmxuuZcR1cwmGXUP1mJ68MMmkeMoSsghxfDU0NBCyLAulFEcmyzM3TeKft/yWyoFRInyEvP8AHpvDM1l2czrDLhlKhFbbtvJGlg6ppKSEkNYa3/cRXYvnefi+Tygej9Mesitu50vXzaXbRdVckVPLef3LuGsVe1r6UyzrG9x89XAm1G3kRGDbNqH58+cjujbP8/B9n1A8Hqc9ZFfczpeum0u3i6q5IqeW8/qXcdcq9rT0p1jWN7j56uFMqNvIicCyLELz589HCCGE6LCC9rZyalAEAfQIBpSUBEMH9An69MgLgOBKJ3jfyjuDoRGCEXetCfaw5q5gBJGg9FdrgjYrpxYFQBAZPTN4JXgleOqHZUHZFbOClUFoazBzNAGMDmZuDd6zOJjci4DRM4OtQZvlwU8GjAjuWhO8S8+KBUAQuWZu0Gbx5F4BFAbJF4PdrAymFhFAJBg985UgeOWp4IdlZcEVs1YGQfBK4FzZIyAyOpj5SrCbV4LpIwmgKJi6MjhkK6cWBUDQa9zPg9mzZwezZ88OZtdNDSaW9Q169C0LbnzwL8H/BrtbGUwtIoBIMHrmK0HwylPBD8vKgitmrQx2WhlMLSKgaGqwMtiNc2UABBRODhb/K3jP8uAnAwggEoye+Uqwi3NlAASjZ24N2uhZsQAIItfMDdosntwrgMIg+WKwm5XB1CICiqYGK4Mjs3JqUQAERVNXBvvnBFdCAIXB5MX/Cv61fEZwRVlZUDNvaxAELwQ/LCSAocGdq4Odts4MRkMQid0fbA3e8695wTd7EFA4OVj8r+A9TnAlBHBl4ARB8K/Fk4NCCIqmrgze92KQLCSIxO4Ptgad09a51wTnxO4P1ga7af5VUApBQeyy4OLhPw5efCNotSb4VWkkAAIKk8GLgRDHl2maARBUV1cHR2zNXUHp6JnBK8F71twVjICAyJWB869gL68EM0dHAiJXBs6/gnb3yh+nB798ZHmwNTh6WlpaAiAAgsbGxkB0LalUKgAC0zSDdrF1bnDNxZODxVuDnZwrAyD41I+9YA8r7wyGRgiAoDD5YnAiqK+vD4AACETXlkqlAiAwTTNoF1vnBtdcPDlYvDXYybkyAIJP/dgL9rDyzmBohAAICpMvBieC+vr6AAiAoKWlJRBCCCE6olyOmUv4ievywkoff90CphSxmywNU7/Li9kiRlv92EO/z3DpgCyN303zDHsafmkJBRRwUc085s0cxwBCUUaNixHhMaY/tIF3tfj85VXgsek8tIGdVj3BQ4XXMb4f7+pe9n2mT52Kc3M5bc4/zwLWsHYj+zGcS0sKoOAiaubNY+a4AbD0Hr41cwuRL1/N2AJ2U8Cpp3PE/qNfEeeddx7nnXce5130VX4+by2vrp3HHV/uTx77M5xLSwqg4CJq5s1j5rgBHIoBV1/G+RHecxInn0wrm6vGFrC39X//O226l32f6VOn4txcTpvzz7OANazdyPERvZTy8yNEBl3FzHnz+GFZFDiHK+6aytTpv2b82ewULWZEEWTXNvN3dmqpv4tpW6Bo4njOj/CeS7jt+TnMef42LqGF+tvvYA0D+PIlA3jfEC68NEq2/nEW0AllnyH5k3x+/tvL6ctuen2MM4DN9U9R8J3rGZJPq428tDJLqId1Hv04sOzGlTStaSGLEO1Ha02opKSEI7Xh6cfIH3sRBey09n/uZyEQvWIcn42wlwLGXmXD0E9zToR2kW3ZRHPTM9w9aRCFn7mar9/5LJqjRymFYRiEPM9DdC3z588nZJom7WFpbZI3r/8250d515LnXUJvvvU2exiQYM5/X0aUD5Jl48om1rRkORYsy6KN53mIrmv+/PmETNOkPSytTfLm9d/m/CjvWvK8S+jNt95mDwMSzPnvy4hyCLIruO/Gu3h2O+3Ksiza+L6PEEII0RHlcjzkDSb25QG876+sWpYF+lN4Jns5iZNPBloW8OIq9nDGx3qxP9HYBL4cgcaZj7EWaJl7P2uvnsQIGpn52FpCS2dn6DduFFHeUzCYyq9/me7P3sb48nM597JvMnn6Ig7sDD7Wiz38dcFc1gD9B55JhKPn5P84jd69e9O7d29694wS4WDO4GO9OGwnn3wS+/oQJ0f4YAWDqfz6l+n+7G2MLz+Xcy/7JpOnL+K46n0GBewtwicvqeKr5/6dGTdWcIE5kmu+laK+mT0s/sPjZIFBZw/gfRHOOHcUo849gwgbWPtSFthIZpKFZVlYloVlWfxgwUfp02cHegOdzobMj1k85jqsKHtasYpltIp+kcvLoux0Ibf99W8sW7aOdfdeSpT92L6FpocmcW7/cxg8YRabEOLAPM/DcRyOhO/7+L5PyDRNjtSHzp3C1FgBOy3lvtRCIMrll5WRx74iJ3+IXsOL6MnRt2HurXzz5hrSTzfTv/BsttM+DMMgtH79ekTHk8lkOFKe5xFSSnH0LeFRp4jLy6LstITfz9wAFBL77FnsreBL1UzqFWHoOWext+1bmnho0rn0P2cwE2Zt4lhQSqGUIuT7PqJjy2QyHCnf9wkppTj6lvCoU8TlZVF2WsLvZ24ACol99iz2VvClaib1ijD0nLM4sCwr7riKCanJzFpEu1JKoZQi5HkeQgghREeUy3Fy9qQnueOztI/IJVx5dRQW/oaHV61l1q9e46vf/jbjRsDC3zzMKpbw6O+GMiEWpU12xa8Z2bcvF92bw9dmPMsLD/6C264ezuF4+6236IqyK37NyL59uejeHL4241leePAX3Hb1cE48m3n6hiI+PvQ6lp0zlSe9J/ntHQlivdnDW29mOTQl/HCOi+u6uK6L67os9F7C92czoRedzhv/8QVqxp7N3lpWPMcqWpnnMSifXSLRQoqLDfLY09r/vpYR5lkMHF2FM+dP/Gk7QhyU1ppYLEZpaSmu63I4fN/naCgYPIz+eey09Pf8bg3Q61rGXxhhf1b99S8M/3QxEY6+XqN+yLRp07jzO3HKPtmN9mKaJiHf9xEdT2VlJcXFxWQyGQ6X1ppQSUkJR922Nym8YRKfyedd2afv454NQOEVXH5BPvvKp/up5/DpgfnstJb/vnYE5lkDGV3lMOdPf2I7x5ZhGIR830d0bJWVlRQXF5PJZDhcWmtCJSUlHHXb3qTwhkl8Jp93ZZ++j3s2AIVXcPkF+ewrn+6nnsOnB+ZzINklt/LF7y3nWDEMg5Dv+wghhBAdUS7HSSTakx55vOdsBgyOACv561/ZyzZe3wpEL2ToAA5RhAtjlxNlOdOmTuF+xvG5fv0YfWUpLJ/GrNvv48GLr+SSCO9ZRe1V1/HUlpH84tEplJwRIZR9+03abJh7K/e+yAcacOEoegHNGzfTdayi9qrreGrLSH7x6BRKzogQyr79Jm02zL2Ve1/kuMs23MQXfvFXTr/hAWZU9ieP0Du8/TbveZF7b51L4aUxIsCyVSvY2+Zlz7Bs89kMGBwBmvjLX9lLlpcXLODlLJ3OgHEJLj2DfTQ9/0dCnyr/NGdwcP2+ci8LvZdYOW8WNV/qhxCHw3VdSktLicViZDIZDoXv+4SUUhiGwdGw9Pe/Yw3Q6/LRnBthPzbw7LxP8PkL8ujIunfvTsj3fUTH5HkelZWVFBcXk06nORS+76O1JmQYBkdd/oVcffUQ8gllWVD/AC1A0cSxDGF/NrORCyj+BO/px1fuXYj30krmzarhS/045gzDILR+/XpEx+d5HpWVlRQXF5NOpzkUWmt83yeklOKoy7+Qq68eQj6hLAvqH6AFKJo4liHsz2Y2cgHFn2D/shbQ7ZIAACAASURBVM9w0xUzeTPKMWMYBqH169cjhBBCdES5nBAiVNz8U4ZGVjH9wSVkeV92ye95cEOE0p9WU8ahi1x0FZN6wZqZMzntuvH0A3p9eSKxyBpuu/kBLh1zERHarOel1UCvIXyqgPdkeeG5RYTefDtLy/KHWLCJD3b+NXyvNELL7x7m6Szvy65g1QoO2ztvv82Jbz0vrQZ6DeFTBbwnywvPLSL05ttZWpY/xIJNHHf+2r+QBYoHDSDCezYvZcEq4O23eSe7nj88uoqc2DeY2ANWTX+QJVnel13Cz6+4i5c+FKHi5p8yNLKB38x6hiy72Tybb1/3DG9E6CKWMM9pAXoxckQ/hDhWHMehsrKSnJwcEokEvu9zMEopjo5VzHPWAFE+f9G5RNiPtY/x4IfHclEBHZphGIS01oiOzfM8EokEOTk5JBIJXNflUCilaFfZBdQ/0AIUMX7UAPZryTwWDL2IIfmcMJRShLTWiM7D8zwSiQQ5OTkkEglc1+VAtNa0MQyDdpVdQP0DLUAR40cNYL+WzGPB0IsYks9+tPD4169nZSLFdb05ZpRShLTWCCGEEB3RybSXlhU8Oe8l/tH0BM2EnuDuKRneGngK+WeVM3JQlD0MSDDnD69z2efHMLr7DGov/yQ7VvyCb1xxP/3vWsSDX+sHrGPRw0uZv7CZ0KJH7ubhtwo5q3wkg6Ls5Xy+eHUht/3XIMaNivKu6Ei+fGmE+hcnMb6M3ZRzw0+H88CNd/DN75XxwPX9eeOpW7hp21iu7HEnc+67ldP+OZCKSxfx8MPzWdhMq0U8cvfDvFV4FuUjBxEl1I+v/X4Rb182mrFlp/PIb6/mk7zMA9++mbv/TqvVzL43Q7+xJYwZ3pcDaVnxJPNeWsNj01cRWj37XjL9RvDxs8oZOSjKfq1bxMNL57OwmVaLeOTuh3mr8CzKRw4iSqt1i3h4/lyeaAZaZnF3poivVZwHz8/jyRlPEGpe+BgPP/w6Q4bA0vlzeaKZVot45O6H+fAFQ/j4P5ay7KkVhJqfmEWm3yhKxpRzw0+H88CNd/DN75XxwPX9eeOpW7hp21iu7HEnc+67ldP+OZCKSxfxcGYuTzQDLbO4O9OPr5SMYXhfDm7dIh5e+nf437XMnr6a0PJpP+D208fT7xT4xJAxDO8LLSueZN6yp1hBq+YnmJXpR/FZQxgzvC+hs8d/n2vuuIzf3ngNdQN+wcX/sZrfXDeLAd8sxf3FQ/z61n5sGPs9BkSG8LNlj/P/Lh3LZ8ve5IG7vsmgbi/zwLdvZvNP5/KTKBBN4C76EJeN/iLnvjWNGd89n26b5jBlwkNYDz/JELqIDctZvAGIDOeCIfkcT1prPM9DdE6e53Eg6XSadDqNZVmUlJQQj8cxDIM2WmtCSimOjr+xcjmtyrGGR9ifpfdl6HedSwEdm1KKkNYa13URnUM6nSadTqOUIh6PU1FRgWVZtNFac8ws/D0PtACFNuUD2K+lTzzF0C/eQj4nDqUUoS1btuC6LqLzSafTpNNplFLE43EqKiqwLIs2WmuOmYW/54EWoNCmfAD7tfSJpxj6xVvIZ18tj9/EjWu/yUO/7M8Tv+GYUUohhBBCdGQ5QSvaQ7aFTZu38Q77Oim/gJ7RCPuVbWHNskU0bdoB3XpSPHwwhdEIO21nS/Nr7GB3J5Ff0JNohH1tXsbcv+bz2Qs/SYSdsi8v4A/bzmbU4AL2lm1Zw7JFTWzaAaf2L2fEwCiR7T6Ln/sHpxcPpvBDb9D82g72cFI+BT2jRNhdlpY1y1jUtIkdnEr/8hHk/eX3LP07nFp4HmeecRq9e+RxINmWTWze9g57Oym/gJ7RCPu1fQvNr+1gDyflU9AzSoRW27fQ/NoO3ncS+QUfhX9uZts77KYbp50Gr722g92dlH8aH/m/19j2Drvpxmm9e5AHZFvWsGxRE5t2wKn9yxkxMEpku8/i5/7B6cWDKfzQGzS/toPddTutNz3yOLjtW2h+bQcH0u203vTIg2zLJjZve4c9dDuN3j3yeN92tjQ9x/w1W6FbT4ZawzDysrSsXEjTW+fw6eIe5NFmO1uanmP+mq3QrSfFwwdTGI2wh2wLa5YtomnTDji1kJJPF9Mjjy6j5XcVnHrlY1D6azY8M5Ez2F0Lz0yfR8+rx3A2B9BwFTn2TBhxF2ue/Tr9OHKe51FcXIwQIcMwsG2bkpIS/vKXvzB58mRM06SpqYl/219TnNv/Rl4cMIWlS5MMjrCnlgau+tIqvv0/kxkUof01XEWOPRNG/JK1z15PX44ex3GIxWIopdBaIzovpRSWZVFSUsLHPvYxxo0bR6ilpQWlFO1l1e0mA29eTq/qRlalLPLZS/Zprr/gKcY/8zMuyGe/Gq7KwZ4JI+5aw7Nf78exkEgkSKfTmKaJ53mIrkEphWVZlJSUcNZZZzFq1ChCLS0tKKVoL6tuNxl483J6VTeyKmWRz16yT3P9BU8x/pmfcUE+e9rcwFUltYx45Bm+NmAVt5sDuXl5PpOeeoO7L6JdTZkyhZqaGizLorGxESGEEKKjOZn2EonSs3eUwxaJUjhsFIXsTx49eudxyAoGM6qAPUQ+eSGj2L9ItJBhowrZQ57BsDKDnXrQO49DECFaOIxRhbxv+Bj6cmgi0Z70jnJ48nrQO48Dy+tB7zz21bM3UfaVl8e+onlE2b9ItJBhowrZQ57BsDKDnXrQO48jk9eD3nkcVCTak95RDiKPHsVljClmNxGiA8soY2959CguY0wxBxaJUjhsFIV0ftu3rGbDGwX0LYwSIZRlwVNPEvpU+ac5g72sncWPH/oI912NEMeUUgrTNCkqKsIwDDzP46g6+2yKIvDiP7fzfxH2kuWZ5A845buLGRRBiA5BKYVpmhQVFWFZFtu2beNY2byxmdCZnzqTfPa1efY9LB//I+7OR4jjSimFaZoUFRVhWRbbtm3jWNm8sZnQmZ86k3z2tXn2PSwf/yPuzmcvm2m46Wa2Tn6crw1ACCGEEIfpZIQQ4iCyz9xA3/JfsIUCvv3HV/jZBUB2AU/OyRLqX9iPPWV5Jv1r+t0wnzM4NkzTJAgCROfkui6lpaUciFKKeDzOhAkTMAwDpRRtXNclpLXm6Chn/MQe/PYXD/DYsz/iggsi7JTl5d9N4M6PZXjwojz2sep+bqxt5H85fKeUVnHnuAEca1prQkopWlpaEB1LTk4OB6KUwrIsJkyYgGVZKKVo4/s+x8pHP/YJoIX8j+Sxj5bH+d49ffjJnAGcaLTWhEzTpKmpCdFx5eTkcCBKKSzLoqKiAtu2UUrRxvd92mitUUrRXj76sU8ALeR/JI99tDzO9+7pw0/mDGBvmx+p4ltbJ/PUVf04HtavX09IKYUQQgjREZ2MEEIcxJ/mP84WWkVM/tOgVZYVd0xm9cUxejxYj37jdSCfNpsbvs6dp05j5qVRhGgvSilM0ySZTGKaJkop9kcpRUhrzdERoexnf+BXay+lavQI/vXjW7jw9FdZfM9M1n4xzcxvDSaP/fjo2ZRf/P/YweHr1u+jHA9aa0JKKUTnYFkWFRUVxONxlFLsj1KKNr7vY5om7WXQyDEUfm8VTz61gOwVFUR4T3Yjj9x0N2fcMRMryglHa43ovCzLoqKigng8jlKK/VFK0UZrTXsaNHIMhd9bxZNPLSB7RQUR3pPdyCM33c0Zd8zEirKnzb9j4iSY+qer6MfxpZRCCCGE6IhORgghDuKckgp6njaXcb+9m/L/bzXzbv82NWu/z4wHzudvp/+ZL9x4LXefO43Pd9vEvNobmcYtzLrnfKIIcfQppaiqqsK2bUzT5GCUUhx1kUF8bc5G4i2b+HPTYlqin+fGh6+hZzTCARUMZtSYwQhxrCmlsCyLZDKJaZqcUIZ8l0fvfJrhN36FinOeJn1ZT9g0j9obZ3HKj6bxs/OjnMiUUojOQSmFaZqkUilM0+RwaK1pV0O+y6N3Ps3wG79CxTlPk76sJ2yaR+2NszjlR9P42flR9rSWX4+bQo8ZC/lSAceN1pqQUgohhBCiIzoZIYQ4iEjZHazxLucPj83gx8sKuLg8xdPf+SQRoO/Pl/OPiQtpeDxNmkGUf9Vh8eAChDjalFJUVVVRXV2NUopDpZQipLVGa41SiqMlEu1JcdkYOqvly5cTMgwD0fEopTBNk1QqhWmaHCqlFEoptNa4rotpmrSfCIMSC9l8RRPPzX2aaWkYNHwoVX94mv55nLA8zyNUVFSE6NiUUpimSSqVwjRNDpVSCqUUWms8z8OyLNpPhEGJhWy+oonn5j7NtDQMGj6Uqj88Tf889vX4bVS9+BE+V/8DJtazmxaWNdNqG0/dPpGJs+EU6wbuHD+Q9uB5HqE+ffoghBBCdEQnI4QQhyByxrmMuv5cRrG3CNGBZcQHliFEezFNk3Xr1qGU4nCZpkkb3/cxTRNxaLTWhAzDQHQ8jY2NmKbJkTAMA8/z0FpzLOT1KKYsXkwZHYPv+4SUUoiOrbGxEdM0ORKmaeK6LlprjoW8HsWUxYsp4yAuvZd/vcF+rOL25x9maUs+F39nGndfRLvyfZ+QYRgIIYQQHVEuQgghxAlOKYVSiiOhlEIpRch1XTqF7Vtobm6muXk18xau4F3Nz7K4qZnm5maaN7WQ5d/neR6hoqIiRMdjmiZHyrIsQsuXL0fsyfM82pimiejYTNPkSJmmSWj58uWIPXmeRxvTNBFCCCE6opMRQojjIsvGV1/lXfofbNkO/fIQol2Yponrumit6RT+0sCPpz3PTufx1a+eR8i958e4tDr7cqZ+q4wIR05rje/7hJRSiK6le/fuhFzX5YSW3cirr/Iu/Y8tbKcfebQv13UJKaUwDAPRdfXp04eQ67p0CNtX8cJyWm1jS8t2II/24rouIaUUhmEghBBCdEQ5QSuEEOJYeepGjImPckDn1vDH2RPohRBHTyKRIJ1OY9s29fX1iINzHIdYLEZo3bp1GIaB6Dq01kSjUULr1q3DMAxOJE/daDDxUQ7o3Jo/MntCL9pDLBbDcRxs26a+vh7RdWmtiUajhNatW4dhGJyQnroRY+Kj7M8pV97Hyh9dyNEWi8VwHAfbtqmvr0cIIYToiHKCVgghhBCdmOM4xGIxQi0tLSilEB9sypQp1NTUYJomTU1NiK6nb9+++L5PMplkypQpCNBa07dvX7TW1NfXY9s2omvr27cvvu+TTCaZMmUKArTW9O3bF6019fX12LaNEEII0RHlIoQQQnRylmXRxvM8xMHNmDGDkGVZiK7Jtm1CtbW1iJ1c10VrjVIK0zQRwrZtQrW1tYidXNdFa03INE2EEEKIjioXIYQQopNTSmEYBqEZM2YgPpjv+/i+T6ikpATRNU2YMIGQ1hrf9xEwY8YMQpZlYRgGQlRVVRHSWuP7PgJmzJhByLZtDMNACCGE6KhyEUIIIboA27YJOY6D+GCZTIaQUgrLshBdk2maGIZByHEcBHieR6ioqAghQoZhYBgGIcdxEOB5HqGioiKEEEKIjiwXIYQQogtIJpOEtNZkMhnEgTU0NBCKx+MopRBdl23bhGbMmEFX5zgOvu8TisfjCNHGtm1CM2bMoKtzHAff9wnF43GEEEKIjiwXIYQQogtQSmEYBqH58+cj9s/zPDzPI1RRUYHo2ioqKgh5nofjOHRltbW1hCzLwjAMhGgzYcIEQp7n4TgOXVltbS0hy7IwDAMhhBCiI8ulnbiui+M4CCGEECeKZDJJKJPJ4Ps+Yl+1tbWETNPEsixE12ZZFqZpEkokEnRVjuPgui6hZDKJELszTRPbtgklEgm6KsdxcF2XUDKZRAghhOjocmknNTU1xGIxhBBCiBNFPB7HMAxCiUQCsSfXdclkMoSqqqoQIlRfX0/I930ymQxdjdaampoaQrZtY1kWQuwtlUoR8n2fTCZDV6O1pqamhpBt21iWhRBCCNHR5SKEEEJ0IalUipDjOHieh3hfTU0NIcuyiMfjCBEyDAPbtgklEgm6mkwmg+d5hKqqqhBifwzDIB6PE0okEnQ1mUwGz/MIVVVVIYQQQnQGuQghhBBdiG3bmKZJqLKyErGT4zi4rksomUwixO7q6uoIaa3JZDJ0FVpramtrCcXjcSzLQogDSaVShLTWTJkyha5Ca01tbS2h8ePH09DQgBBCCNEZ5NJZZDfyP7dcwiUVw+jXbxINm9mp5XGuPT2HU0ZOZy2dyPZl/HJsGRXx8Vx41lAmPbKa1Y9Morx8PPGLBjH0W0+zGSGEEPuTSqUIeZ6H4zgIqKmpIWTbNpZlIcTulFLE43FCiUQCrTVdQTqdxvd9lFIkk0mE2B+tNa7r4vs+8XicUG1tLb7v0xWk02l830cpRU5ODul0muLiYjKZDEIIIURHlhO0oh2Ulpbiui5BEHAsrEqN4Ac9HuXREoey3texdepKvO8MgJbHufbsUfx2y5U4wX1UcGxtmHsrP2rYyGE5pZSqO8cxgAPIruD2sklwzzN8Z1CE7COX8+ExDxIp/RV/fuZT/PL0Eu7cEuP+Nx7l8nyEEELsRywWw3EcDMNg3bp1dGXpdJpEIkHo61//Otu3byeZTGIYBkK00VoTjUYJmaZJU1MTnVkmkyGRSKC1JplMMmXKFIQIaa3xPA/P82hoaMDzPGzbJpVKEYpGo4RM06SpqYnOLJPJkEgk0FqTTCYJ1dTU0Ma2bVKpFIZhIIQQQnQ0OUEr2kFpaSmu6xIEAe0u+zTXD6gntupuhs6u4NQrn+RK53Xuq4gQyjZcRffv9ef5lZMZxJHI0rLmWX7z7SpembSSOy/m0G3fQvNrOzgsJ+VT0DNKhP1reeCLjFj9Pf48ZQihlv+fPbiBtuQsCz3/7xbtixmXb4dBFGhObZTxozH9bo3CAJdTG13EMS66tnJBWDRdBRIIfpwqdCWLKNTZeNHVuSNVQRAEpCqBZRADe58r8V64wK7WIIx8VCWrcxfggl19EhgiQ9ebgUg3o/eZ3uQe0oR06CR9us/H8/u9cz8XHng/ByZ3ct1+x6eKa/ngjwxZ+qUnsIu7neg+x01v/T2WvnQ5R173TJRSartr25Zer8dclmXEccx25Jyj1+vhnOPSSy/lIx/5CM455tI0ZXl5GaXWVFXFYDBgLggCxuMxW1HTNAwGA5xzWGuZTqcYY1Dbh3OOubZtaduWtm05evQoVVXRti3OOdaEYUiWZRhjmKuqisFgwFwQBIzHY7aipmkYDAY457DWMp1OMcbQNA2j0YjJZMKaOI7JsgyllFJqU5F14vu+AHJufE3++Z+/JiKr8uYBwu7L5QPH5R4f+m155IGJHJcHYfV9MnrJq+WNr3+e7AE5MJHz7vix2+Wfvybf8qHf3i3wLHnHMbkPq/K+0Uvk1W98vTxvD8KBiSillLpbGIYCCCDT6VS2m67rJAgCAcQYI3VdS5ZlYowRQACx1kpRFKLUmizLBBBAiqKQrabrOvE8TwDxPE+6rhO1fYzHYzHGCCCAAAIIIIAAAggggFhrpes6ubcsywQQQIqikK2m6zqx1gognufJbDaTeyuKQjzPE0AAsdZKURSilFJKbRbIOvF9XwA5p1bfLAOQ3Zd/QI7LPY4culiG1x+Th+TIIdkHcmAiG8xH5ao9CPsOyRG5P0fk0D6EAxNRSil1D2utAGKMkbquZTuJ41gAAWQ8Hsup4jgWQAABJAxDmc1motRcEAQCCCDT6VS2iq7rJAgCAcQYI9PpVNT2Y60VQAABBBBAAAEEEECstdJ1nZxOEAQCCCDT6VS2iq7rJAgCAcQYI9PpVO5PHMcCCCCABEEgs9lMlFJKqY1uh5zEOhgMBlRVhYhwrpx4z6/z7579Vzz3huO869d2cbdPsvxTr+UnPvJefn03D96tV2OfeCUXTYTr9nPGbrvxNfzhyu08MD/PZW/5DS7mDNz25zzjcS+j+e0Pcez1z+CbZv/A+7/6k1xy0W7ucStX2ydy5UUT5Lr9KKWUuptzjl6vh3MOz/OYzWZsB3mekyQJc3Eck2UZ99Y0DVEU0TQNa9I0ZXl5GaX6/T5N02CMYTqdYq1ls0uShDzPmSuKgjAMUdtP27b0ej3ujzGG6XSKtZb70+/3aZoGYwzT6RRrLZtdkiTkec5cURSEYch30zQNo9GIyWTCmjiOybIMpZRSasOSdeL7vgByLh05tE9gnxw6It/ypRueKxdf9VE5Lg/RkUOyD+TARB6Y48fk9qNH5ejRo3L06FE5evSoHD16VI4ePSpHjx6Vo0ePytGjR+Xo0aNy9OhROXr0qBz956/J6X1J/v4Nibwk+Us5IiLH3vEsAeS5NxyXux2XD1z+o3L5B47Ltzsih/YhHJiIUkqpbzedTgUQQHzfl61uPB6LMUYACcNQvpssy8QYI4AAYq2VoihEbW9d14kxRgAxxsh0OpXNqus6CcNQAAEkjmNR29vzn/98AQQQQAABBBBAxuOxnImu68TzPAHEGCPT6VQ2q67rJAxDAQSQOI7lgSqKQjzPE0AAsdZKURSilFJKbUTIOvF9XwA5pz6Ryo+yS4bXH5O54599uwyfeUhuPi73+Mer5alPWJCFhQVZWFiQhYUFWVhYkIWFBVlYWJCFhQVZeMKzpficfLsjh2QfyIGJnF/uL2UIsusn/6N84vjN8tqLL5ALdiHPescxmfvS5ID89IGJfEnu7Ygc2odwYCJKKaW+03g8FkAAieNYtqq6rsUYI4BYa6XrOjlTcRwLIIAAEoahzGYzUdtXXddijBFAAMmyTDab2Wwmvu8LIIDEcSxqeyuKQn7wB39QAAEEEEAAASSOY3kg6roWY4wAAkiWZbLZdF0nQRAIIIDEcSwPRRzHAggggARBILPZTJRSSqmNBFknvu8LIOfWcbmteoO84Kn75JmXPlMuOfgG+fsvydlx5JDsAzkwkfPsuNx87UG55CmL8pRLDsob/v5L8qW/f4O8YDCQSy+9VF7yhkpuOy734Ygc2odwYCJKKaXuWxiGAgggaZrKVlPXtXieJ4AYY2Q2m8kDVde1WGsFEEAASdNU1PbVdZ1YawUQQOI4ls1iOp2K53kCiDFGsiwTtX1Np1Ox1goggFxwwQUCCCCAAOL7vnRdJw9U13VirRVAAInjWDaL6XQqnucJIMYYybJMzoa6riUIAgEEEEDiOBallFJqo0DWie/7AsiWceSQ7AM5MJFN6ogc2odwYCJKKaVOz/d9AQQQ3/dlqxiPx2KMEUCMMTIej+WhyLJMjDECCCDWWimKQtT2FQSBAAKItVa6rpONLMsyMcYIIMYYGY/HoranruskjmMxxggggPi+L7PZTKy1Agggxhip61oeiiAIBBBArLXSdZ1sZFmWiTFGADHGyHg8lrOtKArxPE8AAcRaK0VRiFJKKXW+IevE930BZPM7LK9dXJTFp+yTJywsyN6LF2Vx8cXyzs/JpnH4tYuyuPgU2feEBVnYe7EsLi7Ki9/5OVFKKXXf4jgWQACx1spsNpPNLE1TAQQQa63UdS1nSxzHAggggIRhKLPZTNT2lKapAAKIMUaKopCNpq5rieNYAAHEWiuz2UzU9lQUhRhjBBBArLUyHo9lzWw2E0AASdNUzoY0TQUQQIwxUhSFbDR1XUscxwIIINZamc1msp7iOBZAAAEkCAKZzWailFJKnS/IOvF9XwBRSimlNqMsywQQQIwxMp1OZbPpuk7CMBRAAPF9X7quk7Otrmux1goggACSpqmo7Wk6nQoggABirZWiKOR867pO4jgWY4wAAojv+9J1najtZzqdirVWAAHEGCNZlknXdXJvYRiKtVa6rpOzZTqdCiCAAGKtlaIo5Hzruk7iOBZjjAACiO/70nWdnAt1XUsQBAIIIIDEcSxKKaXU+YCsE9/3BRCllFJqs6rrWowxAgggWZbJZlHXtfi+L4AAEsexdF0n6ynLMjHGCCCAWGulKApR289sNpMwDAUQQACx1kpd13KudV0ncRyLMUYAAcTzPMmyTLquE7W9dF0ncRyLMUYAAcT3fZnNZnI6XddJXddyts1mMwnDUAABBBBrrdR1Leda13USx7EYYwQQQDzPkyzLpOs6OdeKohDP8wQQQKy1UhSFKKWUUucSsk583xdAlFJKqc1sNpuJtVYAAcRaK0VRyEbVdZ3EcSzGGAHEGCNZlsm5FMexAAIIIGEYymw2E7X91HUtYRgKIIAAEgSBFEUh6206nUqapuJ5ngACiDFGsiyTrutEbT9FUYgxRgABxFor4/FYzre6riUMQwEEEECCIJCiKGS9TadTSdNUPM8TQAAxxkiWZdJ1nZxvcRwLIIAAEgSBzGYzUUoppc6FHXIS62AwGFBVFSKCUkoptdlFUURZlqwJgoAsy/A8j43AOUee51xzzTU455gzxlAUBUEQcK41TUMURTRNw5o0TVleXkZtP1VVEUURbdtyqiAIWFxcJAgCPM/joXDO0TQNKysrVFVF0zSsMcawtLREHMcYY1DbS1VVJElC0zTMGWNI05QwDDHGsFFUVUUURbRty6mCIGBxcZEgCPA8j4fCOUfTNKysrFBVFU3TsMYYw9LSEnEcY4xho2iahtFoxGQyYU0cx2RZhlJKKbWedshJrIPBYEBVVYgISiml1FbQNA1RFNE0DWviOGZpaQnP8zgfnHNUVUWSJLRty5wxhjRNCcMQYwznU57njEYjnHPMWWtZWloiDEPU9lOWJSsrK0wmE+7N932stSwsLGCtxfM8PM/jvjjnaNuWtm1p25abb76ZyWSCc45TWWvZv38/YRjieR5qe3HOMRqNKMsS5xxzvu9TFAWe57FRTSYTrr32WiaTCffm+z7WWhYWFrDW4nkenudxX5xztG1L27a0bcvNN9/MZDLBOceprLXs37+fMAzxPI+NqixLRqMRbdsyZ61laWmJMAxRSiml1sMOOYl1MBgMqKoKEUEppZTaSiaTCUmS0LYta+I4Zv/+/fi+z7ngIx6iVQAAIABJREFUnKMsS6699lqapmHOGEMYhqRpijGGjSRJEvI8Z00YhqRpiud5qO1pMpmwsrJCWZZ8N8YYjDE453DOcX9832dxcZEgCLDWoransixJkgTnHHPWWtI0JQgCNpPJZMLKygqTyQTnHPfHGIMxBucczjnuj+/7LC4uEgQB1lo2kyRJyPOcNUEQkGUZnuehlFJKnU075CTWwWAwoKoqRASllFJqK8rznGuuuYa2bVljrWX//v34vo/v+5xNzjmqquLaa6+lqiqcc6zxfZ8sy7DWslE1TUMURTRNw5o0TVleXkZtb5PJhKZpOHz4MG3b0rYtZ8IYg+d5eJ7H4uIiQRDgeR5q+6qqiiRJaJqGOWMMaZoShiHGGDazyWRC0zQcPnyYtm1p25YzYYzB8zw8z2NxcZEgCPA8j82saRpGoxGTyYQ1cRyTZRlKKaXU2bJDTmIdDAYDqqpCRFBKKaW2sjzPueaaa2jblnsLgoB9+/bh+z6e5+F5HmfCOUfbtrRtS9M0rKys0DQNpzLG4Ps+aZpirWWzyPOc0WiEc445ay1LS0uEYYhSa5qmwTmHc4455xzGGIwxGGOY8zwPYwxKOecYjUaUZYlzjjnf9ymKAs/z2KqapsE5h3OOOeccxhiMMRhjmPM8D2MMW1FZloxGI9q2Zc5ay9LSEmEYopRSSj1UO+Qk1sFgMKCqKkQEpZRSajuoqoqVlRXKssQ5x+l4nofneRhjWOOcY845h3OOtm25L8YYrLXs37+fMAwxxrBZJUlCnuesCcOQNE3xPA+llDpTZVmSJAnOOeastaRpShAEqO0hSRLyPGdNEARkWYbneSillFIP1g45iXUwGAyoqgoRQSmllNpu2rZlMplw+PBhmqahbVseDGMM1loWFxcJggDP8zDGsFU0TUMURTRNw5o0TVleXkYppe5PVVUkSULTNMwZY0jTlDAMMcagtpemaRiNRkwmE9bEcUyWZSillFIPxg45iXUwGAyoqgoRQSmllFLQti1N09C2Lc455u68806ccxhjmFtYWGDO9308z8MYw3aQ5zmj0QjnHHPWWpaWlgjDEKWUOpVzjtFoRFmWOOeY832foijwPA+1vZVlyWg0om1b5qy1LC0tEYYhSiml1AOxQ05iHQwGA6qqQkRQSimllDoTSZKQ5zlrwjAkTVM8z0MppcqyJEkSnHPMWWtJ05QgCFDqVEmSkOc5a4IgIMsyPM9DKaWUOhM7UUoppZTaILIso65rrLXMlWVJr9djeXkZpdT2VVUV/X6fKIpwzmGMIcsyptMpQRCg1L1lWUZd1wRBwNxkMqHX65EkCUoppdSZ2IlSSiml1AZiraWua7IswxjD3Gg0ot/vU5YlSqntwzlHkiQMh0OapmHO933quiaOY4wxKHU61lrG4zFFUeB5HnN5ntPv9ynLEqWUUur+7EQppZRSagOK45iu64jjmLmmaYiiiCiKaNsWpdTWVpYlvV6PPM9xzmGtZTweM51O8TwPpc5UGIbMZjPiOGauaRqiKGI4HNK2LUoppdR92YlSSiml1AaWZRl1XWOtZa4sS3q9HsvLyyiltp6qquj3+0RRhHMOYwxZljGdTgmCAKUerCzLqOuaIAiYm0wm9Ho9kiRBKaWUuredKKWUUkptcNZa6romyzKMMcyNRiP6/T5lWaKU2vyccyRJwnA4pGka5nzfp65r4jjGGINSD5W1lvF4TFEUeJ7HXJ7n9Pt9yrJEKaWUWrOTLeSuT7+b9LLLSItPcQdr7uC/HbqM9D3/xAm2khPc/vG/5upXXMYrrn4fn74LuOvTvDu9jMtecTXv+/RdKKWUUltNHMd0XUccx8w1TUMURURRRNu2KKU2p7Is6fV65HmOcw5rLePxmOl0iud5KHW2hWHIbDYjjmPmmqYhiiKGwyFt26KUUkrtkJNYB4PBgKqqEBHOhRMfW+aSt/007/xP/0Zy4Qv5f//in3j/i/bAZzJ+7idewSd2vZgbj7+NX+bcOtF9gTu++m88IN/zAzzqMbvZxemc4JbsEn7n/xnxzlc/mWN/8iT25f+Dn76wR/I3b+TCP/wZgnc/gxu+/C5+7QdQSimltqSmaYiiiKZpWJOmKcvLyyilNoeqqkiShKZpmDPGkKYpYRhijEGpc6FpGkajEZPJhDVxHJNlGUoppbavHXIS62AwGFBVFSLC+vs8b3zaC+G6m/jN9ne48Bf+FPvmVT780j3ACW75oyex7/98Oh869nqeAZzoPsen/qHmC1+/kB9dfBL9R17Aeuk+/Cdc+a7P8ID8LwOWXvc89nIan1zmp17zY0xXXsCjOGnlhewI3sFT3/A5bvrN23nV45/Fnz7uP/KR6rfYy9xdfLn+vzj8uWNw4Y+y+KQ+j7wApZRSakvI85zRaIRzjjlrLUtLS4RhiFJqY3LOMRqNKMsS5xxzvu9TFAWe56HU+VCWJaPRiLZtmbPWsrS0RBiGKKWU2n52yEmsg8FgQFVViAjr7qt/x5++5V95we8+lU+8/Ed45pt+ijd87iZ+8/Hc7VMj/rff+2E+9OGX8kO3XM3TfvljvPy//gXPecxnueaZv8bhy9/P+1+0l83ithtfw42PuJKXPXkXc7f80RPZ9/sP49CRhiv28u1O3EJ2yYu49eVv5dVPfjj/9OcHuPSa7+NVH3wfv//k3SillFJbRZIk5HnOmjAMSdMUz/NQSm0cZVmSJAnOOeastaRpShAEKLURJElCnuesCYKALMvwPA+llFLbx062gh94Or/9u89g94m/Y/yuDgYHeNbj+Zbuv3+K7/+lp7GHz/O2l1/J//c7f0j0xN1csPtJXHXoV/n4y1/Fuzo2jT2XvpqXPXkXd7uNj37wVtj9dC7ey3f60Ot55X9/BE/Z2+dxj/sJfuG1f8Wf2H/gD172Vm5FKaWU2jqyLKOua6y1zJVlSa/XY3l5GaXU+VdVFf1+nyiKcM5hjCHLMqbTKUEQoNRGkWUZdV0TBAFzk8mEXq9HkiQopZTaPnaylXzkb3hXB4Pn/jJ7WNPx/vd+kedfuhdu+2+85yNw0Y/v5Vse9Vged+Jv+eBHWRcnui+wurrK6uoqq6urrK6usrq6yurqKqurq6yurrK6usrq6iqrq6usrq6yuvpl7uIMnfhHplPgmYs8lfuw8Au8PHgGe/5X/qfd/OAjgGN38lWUUkqprcVaS13XZFmGMYa50WhEv9+nLEuUUueec44kSRgOhzRNw5zv+9R1TRzHGGNQaqOx1jIejymKAs/zmMvznH6/T1mWKKWU2voexhbymZs/Ssce/vd9e/iWz/8lb3G/wdv2ArfeyTHgsdzbCT5/223AHs62f/nM+8jf/km+xgPwI5fyytF+ety3E90XuONfvp9HPWY3uz5ymA8Ag8HPs4u7ff6NT+M3HnY9H37pHtj7PF73Fu7x+Xfz9vfv4uI/fj5PRimllNqa4jgmjmOSJCHPc5qmIYoiDh8+TJqmeJ6HUmr9lWVJkiQ455iz1pKmKUEQoNRmEIYhYRiSJAl5ntM0DVEUsbKyQpZleJ6HUkqprelhbCE/9CN72MUd3OPz/Pnlf8kv5R/m8dy/r/7Lv7Aedj/5pbzuyZw9J1Z4yY8EvIMXc+PxN/K9N7yTDnjsD+/hm+5YYfnPf4LfO7yH73DiFq5+7u/yxcv+hsPJXpRSSqmtLssyDh48SBRFNE1DWZaUZUmapiwvL6OUWh9VVZEkCU3TMGeMIU1TwjDEGINSm02WZRw8eJDRaMRkMmEymTCZTIjjmCzLUEoptfXsZAvZPVzmmkv/B2+96vf56xv/muVfeQ4ff/l7ueKiXXzTw76X7+W+/eTjf5xNYdeP0f/pR/CzL+rzxeVf45Xf+BPe/uLH8F/f/npuvPHPuPz5JU995xv55d18uztu4vef8QJuf82nufn1T+f7vvBl7kIppZTa+qy11HVNlmUYY5gbjUb0+33KskQpdfY450iShOFwSNM0zPm+T13XxHGMMQalNitrLePxmKIo8DyPuTzP6ff7lGWJUkqprWWHnMQ6GAwGVFWFiHCu3fXlVb7ydXj4Ix7HIy/gFJ9k+ccu5oYX3cyRqy7imz78O1z4y7fzZ//3e/n13WwSd/Hl1a/w9Yc/gsc98gLm7vryKl/5+sN5xOMeyQV8uxO3v4f4P0x46nVv4wVP2AUnVnjh0z7DlR+/gr0opZRS20uSJOR5zpowDEnTFM/zUEo9eGVZkiQJzjnmrLWkaUoQBCi1FSVJQp7nrAmCgCzL8DwPpZRSm98OOYl1MBgMqKoKEWEj6f72cn76sru45mNv5dd238of+U9n/B/+gZuuuIhdbEG3vp1LBi/mA1/m2x2YINftRymllNqOmqYhiiKapmFNmqYsLy+jlHpgqqoiSRKapmHOGEOapoRhiDEGpbaypmkYjUZMJhPWxHFMlmUopZTa3HbISayDwWBAVVWICBvNXe1HqT7xBb4OXPgTv8BTn7ibXWxRd32Z1a98nXv7nh94FI/ZvQullFJqO8vznNFohHOOOWstS0tLhGGIUur+OecYjUaUZYlzjjnf9ymKAs/zUGo7KcuS0WhE27bMWWtZWloiDEOUUkptTjvkJNbBYDCgqipEBKWUUkqpjSxJEvI8Z00YhqRpiud5KKW+U1mWJEmCc445ay1pmhIEAUptZ0mSkOc5a4IgIMsyPM9DKaXU5rITpZRSSqltLssy6rrGWstcWZb0ej2Wl5dRSt2jqir6/T5RFOGcwxhDlmVMp1OCIECp7S7LMuq6JggC5iaTCb1ejyRJUEoptbnsRCmllFJKYa2lrmuyLMMYw9xoNKLf71OWJUptZ845kiRhOBzSNA1zvu9T1zVxHGOMQSl1N2st4/GYoijwPI+5PM/p9/uUZYlSSqnNYSdKKaWUUupb4jim6zriOGauaRqiKCKKItq2RantpixLer0eeZ7jnMNay3g8Zjqd4nkeSqn7FoYhs9mMOI6Za5qGKIoYDoe0bYtSSqmNbSdKKaWUUuo7ZFlGXddYa5kry5Jer8fy8jJKbQdVVdHv94miCOccxhiyLGM6nRIEAUqpM5NlGXVdEwQBc5PJhF6vR5IkKKWU2rh2opRSSiml7pO1lrquybIMYwxzo9GIfr9PWZYotRU550iShOFwSNM0zPm+T13XxHGMMQal1ANjrWU8HlMUBZ7nMZfnOf1+n7IsUUoptfHsRCmllFJK3a84jum6jjiOmWuahiiKiKKItm1Raqsoy5Jer0ee5zjnsNYyHo+ZTqd4nodS6qEJw5DZbEYcx8w1TUMURQyHQ9q2RSml1MaxE6WUUkopdUayLKOua6y1zJVlSa/XY3l5GaU2s6qq6Pf7RFGEcw5jDFmWMZ1OCYIApdTZlWUZdV0TBAFzk8mEXq9HkiQopZTaGHailFJKKaXOmLWWuq7JsgxjDHOj0Yh+v09Zlii1mTjnSJKE4XBI0zTM+b5PXdfEcYwxBqXU+rDWMh6PKYoCz/OYy/Ocfr9PWZYopZQ6v3bISayDwWBAVVWICA/EZDKhaRqU2m6Wl5dRSim1+SRJQp7nrAnDkDRN8TwPpTaysixJkgTnHHPWWtI0JQgClFLnXpIk5HnOmiAIyLIMz/NQSil17u1EKaWUUko9aFmWUdc11lrmyrKk1+uxvLyMUhtRVVX0+32iKMI5hzGGLMuYTqcEQYBS6vzIsoy6rgmCgLnJZEKv1yNJEpRSSp17O+Qk1sFgMKCqKkQEpZRSSqntIM9zRqMRzjnmrLUsLS0RhiFKnW/OOUajEWVZ4pxjzvd9iqLA8zyUUhtHWZaMRiPatmXOWsvS0hJhGKKUUurc2IlSSimllDor4jim6zriOGauaRqiKCKKItq2RanzpSxLer0eeZ7jnMNay3g8Zjqd4nkeSqmNJQxDZrMZcRwz1zQNURQxHA5p2xallFLrbydKKaWUUuqsyrKMuq6x1jJXliW9Xo/l5WWUOpeqqqLf7xNFEc45jDFkWcZ0OiUIApRSG1uWZdR1TRAEzE0mE3q9HkmSoJRSan3tRCmllFJKnXXWWuq6JssyjDHMjUYj+v0+ZVmi1HpyzpEkCcPhkKZpmPN9n7quieMYYwxKqc3BWst4PKYoCjzPYy7Pc/r9PmVZopRSan3sRCmllFJKrZs4jum6jjiOmWuahiiKiKKItm1R6mwry5Jer0ee5zjnsNYyHo+ZTqd4nodSanMKw5DZbEYcx8w1TUMURQyHQ9q2RSml1Nm1E6WUUkopte6yLKOua6y1zJVlSa/XY3l5GaXOhqqq6Pf7RFGEcw5jDFmWMZ1OCYIApdTWkGUZdV0TBAFzk8mEXq9HkiQopZQ6e3ailFJKKaXOCWstdV2TZRnGGOZGoxH9fp+yLFHqwXDOkSQJw+GQpmmY832fuq6J4xhjDEqprcVay3g8pigKPM9jLs9z+v0+ZVmilFLqoduJUkoppZQ6p+I4pus64jhmrmkaoigiiiLatkWpM1WWJb1ejzzPcc5hrWU8HjOdTvE8D6XU1haGIbPZjDiOmWuahiiKGA6HtG2LUkqpB28nSimllFLqvMiyjLqusdYyV5YlvV6P5eVllLo/VVXR7/eJogjnHMYYsixjOp0SBAFKqe0lyzLquiYIAuYmkwm9Xo8kSVBKKfXg7EQppZRSSp031lrquibLMowxzI1GI/r9PmVZotSpnHMkScJwOKRpGuZ836eua+I4xhiDUmp7stYyHo8pigLP85jL85x+v09ZliillHpgdqKUUkoppc67OI7puo44jplrmoYoioiiiLZtUaosS3q9Hnme45zDWst4PGY6neJ5HkopNReGIbPZjDiOmWuahiiKGA6HtG2LUkqpM7MTpZRSSim1YWRZRl3XWGuZK8uSXq/H8vIyanuqqop+v08URTjnMMaQZRnT6ZQgCFBKqfuSZRl1XRMEAXOTyYRer0eSJCillPrudqI2mRn/UF7NKy67jMsuew033oZSSimlthhrLXVdk2UZxhjmRqMR/X6fsixR24NzjiRJGA6HNE3DnO/71HVNHMcYY1BKqftjrWU8HlMUBZ7nMZfnOf1+n7IsUUopdXo75CTWwWAwoKoqRAR1Nt3Fl1dv4wNXPIUX/NXjOHSk4Yq9KKWUUmoLS5KEPM9ZE4YhaZrieR5bkXOOtm1p25Y55xxrPM9jzvM8PM9jqyrLkiRJcM4xZ60lTVOCIEAppR6sJEnI85w1QRCQZRme57EVOedo25a2bZlzzrHG8zzmPM/D8zyUUuredshJrIPBYEBVVYgI6uy79WrLE6+EQ0cartiLUkoppba4pmmIooimaViTpinLy8tsZs45mqahqipWVlZo2xbnHGfK8zystSwuLhIEAZ7nsZlVVUWSJDRNw5wxhjRNCcMQYwxKKfVQNU3DaDRiMpmwJo5jsixjM3PO0TQNVVWxsrJC27Y45zhTnudhrWXfvn2EYYjneSiltrcdchLrYDAYUFUVIoI6+2692vLEK+HQkYYr9qKUUkqpbSLPc0ajEc455qy1LC0tEYYhm4VzjqqqWFlZYTKZ4JzjdIwxzBljcM7hnOP++L7P4uIiQRBgrWWzcM4xGo0oyxLnHHO+71MUBZ7noZRSZ1tZloxGI9q2Zc5ay9LSEmEYslk456iqipWVFSaTCc45TscYw5wxBucczjnuj+/7WGs5ePAg1lqUUtvPDjmJdTAYDKiqChFBnX23Xm154pVw6EjDFXtRSiml1DaTJAl5nrMmDEPSNMXzPDYi5xxVVTEajWjbFuccp/J9H2stCwsL+L6P53kYYzidtm1pmoamabj55puZTCbcmzGGMAxZWlrC8zw2qrIsSZIE5xxz1lrSNCUIApRSar0lSUKe56wJgoAsy/A8j42qqipGoxFN0+Cc41S+72OtZWFhAd/38TwPYwyn07YtTdPQti0333wzk8kE5xynMsYQhiFLS0t4nodSapuQdeL7vgBy7hyXz97wW3LJxfvkqS+4Vm4+Lnc7frO87hcX5MlXfkiOydZx5NA+gX1y6Ijc7eNvlZe85CXykmc9WRb+jzfJkdsqeUPyXLl08WK5+BmXyRuq2+S4nM5x+ewNvyWXXLxPnvqCa+Xm43K34zfL635xQZ585YfkmCillFJqo6nrWqy1AggggKRpKhvNdDoVa60AAgggxhjxfV+yLJPZbCZnw3g8ljRNxfM8AQQQQACJ41g2mul0KtZaAQQQY4xkWSZd14lSSp1LdV1LEAQCCCCAxHEsG810OhVrrQACCCDGGPF9X7Isk7qu5WwYj8eSpql4nieAAAIIIHEcS9d1opTa+nbISayDwWBAVVWICOfCHe/5dZ73mav4L5ffwnMuPMAXX/dpPp78ONz2di55wov5wIkDTOQ69nNudbe8nw999qs8IA9/PP/+0p/hUZzerVdbnnglHDrScMVevulE9yFeue8Xyb72GHoXvZwbbryKn7ngBDdd8QT+/X+6kENHGq7Yy3e44z2/zvM+cxX/5fJbeM6FB/ji6z7Nx5Mfh9veziVPeDEfOHGAiVzHfpRSSim1EeV5zmg0wjnHnLWWpaUlwjDkfKqqitFoRFVVrPF9n4MHDxIEAcYY1ktVVTRNwzXXXEPbtqyJ45gsyzifnHOMRiPKssQ5x5zv+xRFged5KKXU+VKWJaPRiLZtmbPWsrS0RBiGnE9VVTEajaiqijW+73Pw4EGCIMAYw3qpqoqmabjmmmto25Y1cRyTZRlKqa1rJ1vCJ3nTq77BZZdfBH/3Ad4PPPqRP8Q37XkR173pEtizh0dxjxO3H+aNr3gbn2B9ff/DH865smv3D/PDFwLdv+OFf3IVP3MBJ+3iaU/1gZv5SN3xnT7Jm171DS67/CL4uw/wfuDRj/whvmnPi7juTZfAnj08iofiLj797pTX3HgbSimllDr74jim6zriOGauaRqiKCKKItq25XScczRNw9nWNA1JkjAYDKiqijnf96nrmul0ShiGGGNYT77vE8cxs9mMLMtYk+c5u3fvpixLzoeyLOn1euR5jnMOay3j8ZjpdIrneSil1PkUhiGz2Yw4jplrmoYoihgOh7Rty+k456iqirOtaRqSJGE4HFJVFXO+71PXNdPplDAMMcawnnzfJ45jZrMZWZaxJs9zdu/eTVmWKKW2KFknvu8LIOfE8c/K4cOfleNyTK4f7hJ2DeX6Y3KPj14le571DjkmIp9754tlcXhAnvezuwUOyEQ2pyOH9gnsk0NH5BRH5NA+BA7IRE4xOSCA7Dt0RL7D8c/K4cOfleNyTK4f7hJ2DeX6Y3KPj14le571DjkmD8Zhee3ipfLcF/+i/CjIvkNHRCmllFLrq65rsdYKIIAAkqap3Jc4jsXzPDmbsiwTY4wAAojv+zIej2UjiONYAAEEEGutdF0n58J0OhVrrQACiDFGsiyTrutEKaU2orquJQgCAQQQQOI4lvsSx7F4nidn03g8FmOMAAKI7/syHo9lI0jTVAABBBBrrXRdJ0qprQVZJ77vCyDn1LHrZbgL2TW8Xo7JPVbfPJDBm1flVEcO7RM4IBPZnI4c2iewTw4dkVMckUP7EDggEznF5IAAsu/QETmtY9fLcBeya3i9HJN7rL55IIM3r8pDM5EDIPsOHRGllFJKnRtZlokxRgABxForRVHImul0KoAAkmWZPFRd10kcxwIIIJ7nSZZl0nWdbCSz2UzCMBRAAPE8T+q6lvXSdZ3EcSzGGAEEEN/3ZTabiVJKbQZFUYjneQIIINZaKYpC1kynUzHGCCBpmsrZkKapAAKIMUayLJOu62Qjmc1mEoahAAKIMUbquhal1NbxMLaSj36Qvz0Bl/zqJexmzef5z++A516/h/Ohu+X9fOizX+WBeTQ/++yn0OMc+ugH+dsTcMmvXsJu1nye//wOeO71e1BKKaXU5hLHMXEckyQJeZ7TNA1RFHH48GHSNGU0GrFmNBoRBAGe5/FgOOeIoojJZMKc7/uMx2OMMWw0nudRFAUHDx5kMBjQti39fp/xeEwQBJxNZVmSJAnOOeastaRpShAEKKXUZhGGIWEYkiQJeZ7TNA1RFLGyskKWZYxGI5xzzI1GI8IwxPM8HgznHEmSUJYlc77vMx6PMcaw0XieR1EUHDx4kMFggHOOfr/PeDwmCAKUUpvfTraQW498ghPs5UkX7WbNiY/9BeXjl3jOHs6L77/wQh7OA3ThhfwQ59atRz7BCfbypIt2s+bEx/6C8vFLPGcPSimllNqksiyjrmustcyVZUmv16OqKtY454iiiAejaRoGgwGTyYS5OI4Zj8cYY9jIfN+nrmuMMcwNh0PyPOdsqKqKfr9PFEU45zDGkGUZ0+mUIAhQSqnNKMsy6romCALmJpMJvV6Pqqo41XA45MFo25bhcEhZlszFccx4PMYYw0bm+z51XeN5HnPD4ZDl5WWUUpvfw9hCfqz/FHbzLm6/4wSwC+66iVf97m38wXtfy27Oj12P/TkuffbPsT6OcedXOcW/8a//ync48a/f4Lv5sf5T2M27uP2OE8AuuOsmXvW7t/EH730tu/mfbr2eV1wz5Wvcn8ey/1Wv5tI9KKWUUmqDsNZS1zV5nrO8vMydd97JvVVVRZIkZFnGmWqahsFggHMOYwxpmhLHMZuFtZbZbMZgMKBpGpIk4fDhw4zHYx4M5xyj0YiyLHHOMef7PkVR4HkeSim12VlrGY/HlGVJmqasrq5yb03TEEURRVFwppqmYTAY4JzDGEOapsRxzGZhraWuawaDAU3TMBqNOHz4MNPpFKXU5rVDTmIdDAYDqqpCRDh37uCmq1/Gi972FQa/8pMc/cdjDP/snbz0ol3c261XW5545UVM5Dr2s5n8HX/kv5J3f/ELuG/A95nH8Ojn/DHV027Cf+W7+eIXHN/g+zCPeTQXv/w1DKavJv9Yy5e/Bnyf4TGPfg5/XF3F07m3O7jp6pfxord9hcF2tArbAAAgAElEQVSv/CRH//EYwz97Jy+9aBf3OEH3hTv46r9xet/zAzzqMbvZxalWeOGOgFsOHaG5Yi9KKaWUOn+SJCHPc05nPB4TBAHfTdu29Pt9nHMYYyiKgiAI2KyiKKIsS+biOCbLMh6IsixJkgTnHHPWWtI0JQgClFJqK0qShDzPOZ3xeEwQBHw3bdsyGAxo2xZjDEVREAQBm1WSJOR5zlwcx2RZhlJqc9ohJ7EOBoMBVVUhImxEt15teeKVFzGR69iPWl8rvHBHwC2HjtBcsRellFJKnR9VVTEYDLg/xhim0ynWWk7HOcdwOKSqKowxTKdTrLVsdlEUUZYlc+PxmCAI+G6qqiJJEpqmYc4YQ5qmhGGIMQallNqKqqpiOBzinON0jDFMp1OstZyOc47hcEhVVRhjmE6nWGvZ7KIooixL5oqiIAxDlFKbzw45iXUwGAyoqgoRYUP5xNu47C3/SPepG7jhkxfyiy95Br3H7udVr76UPaiz6zZufM0fsnL7jA+/9YMc+9ln8+yf2c3PX/YWfuNilFJKKXWODQYDqqriu/E8j7quMcZwX4bDIZPJBGMMRVEQBAFbxWAwoKoq5uq6xlrLfXHOMRqNKMsS5xxzvu9TFAWe56GUUlvZYDCgqiq+G2MMs9kMYwz3JYoiyrLEGENRFARBwFYxGAyoqoq5uq6x1qKU2lx2yEmsg8FgQFVViAhKKaWUUur8mkwmRFGEc44zYa2lrmvuLc9zkiRhLssy4jhmK3HOMRgMaJoGYwx1XeN5Hqcqy5IkSXDOMWetJU1TgiBAKaW2uslkQhRFOOc4E9Za6rrm3vI8J0kS5rIsI45jthLnHIPBgKZpMMZQ1zWe56GU2jx2yEmsg8FgQFVViAhKKaWUUmrjcM7hnKNpGpqm4c4776RpGqqq4lS+7zOdTllTliVRFDEXxzFZlrEVtW37/7MHJ4BR1HfDx79S2m0blf+2YOoBDlEEn0AywaNchVkQvM2shKJUYKOCCtZkFaX1WlZfUVHMpvVEJYtSTzQbFRQsZFAUikAGJC2IwGDw0Yh1BzXqvm3ffTNSVI5AQIIk/D4fOnbsiEfXdaqqqvBYlkU4HMa2bTxKKSKRCKFQCKUUQghxsHFdF9d1sW0bx3HYsGEDtm1jWRbfZRgGlZWVbBWPxwmHw7iuS3FxMSUlJbREjuOQl5eH67rouk5VVRVCiObjkHQ9mkAgEMCyLNLpNEIIIYQQonmwLAvbtpk/fz6JRALDMKisrMRxHPLy8nBdF8MwKC8vRylFS2VZFoFAAE8oFEIpRTwex3VdPIZhUFZWhqZpCCGE2JFlWdi2zfz580kkEhiGQWVlJa7r0rFjR1zXRdd1KisrUUrRUlmWRSAQwBMKhSgrK0MI0Twckq5HEwgEAliWRTqdRgghhBBCNE+JRALP/PnzicViKKVYv349SilaunA4TCwWw1NQUMCMGTPQdZ1IJIJpmgghhGi8RCKBx7ZtotEoSinWr1+PUoqWLhaLEQ6H8axfvx5N0xBCHPhaIYQQQgghRANM00TXdeLxOJ6ioiKUUhwMIpEImqbh+clPfkJZWRmVlZWYpokQQog9Y5omuq5TWlqKp6ioCKUUB4Pi4mI0TcMTDocRQjQPrRBCCCGEEGIXotEoruuiaRrFxcUcLJRSRCIRPE888QSGYaCUQgghxN6JRqO4roumaRQXF3MwiUQieBKJBLZtI4Q48LVCCCGEEEKIBliWRTwexxOJRFBKcTAJhUJomoansLAQIYQQe8eyLOLxOJ6ioiKUUhxMQqEQmqbhKSwsRAhx4GuFEEIIIYQQDYhGo3gMwyAUCnEwKikpwWNZFpZlIYQQYs9Fo1E8uq4TCoU4GJWUlOCxbZtEIoEQDapdwLOvrCGF2FvJRa8w16nj+2iFEEIIIYQQO5FIJLAsC08kEuFgZZomuq7jKSwsRAghxJ5JJBJYloWnpKQEpRQHI9M0MQwDTzgcRhwEUkne31THnkitmc75/e7C1Y7Ch9hb/o4ppvUxmLisjr3VCiGEEEIIIXZi2rRpeEzTxDAMDmaRSASP4zg4joMQQojGs20bj67rGIbBwaykpASP4zg4joNooeqWcV8wiyxjLNGi8+jadThlq+rYrdoKRvW+m+MfmcKoLhmI7yEzn4dnDaG87zDKNqbYG60QQgghhBBiJ2zbxpObm8vBzjRNlFJ4EokEQgghGm/atGl48vPzOdjpuo6maXgSiQSiBUqtYJLRiyu/vImFC5/gj0NP4LCPyrn40jjr2IXUCiadM5QVox7kj30yEd+fL+c6Xpr2M64xbmJBHXusFUIIIYQQQmzHsiwcx8ETCoUQYJomnvnz5yOEEKJxbNvGcRw8oVAIAaZp4qmoqEC0POvixdy8JMXpQ88ik1ncNvRBFm2qY3eq77+Em7+8invH9cCP2FcyB0/k9g5/wgy/Qh17phVCCCGEEEJsx7IsPLquo2kaAvLz8/EkEglc10UIIcTuJRIJPLquo2kaAvr164fHsiwcx0G0JOt4+fFKUnSiZ24m0IUBQ7I5NtvkwfsvJYsGrHuI3/9xNefefA19/Ih9KovQxGtQD48muiDFnmiFEEIIIYQQ25k2bRqe/Px8mkwqydqFM5m5cC3JFDuV2vgWC1cmSfHDMwyDrRKJBEIIIXavoqICj2EYNJlUkrULZzJz4VqSKXYqtfEtFq5MkuKHZxgGSik8iUQC0YIk32TOG9Trgd6dellc+PhKnJXlXJbjY+dSzIvdROURw7lsYCZi3/P1uIRw7xru+sOjrKfxWiGEEEIIIcR32LaN4zh4DMOgSdRWcIVRwP1VX7LhodM5MvcyZtawrXUPcebxp9KrW2fGzPyYH5pSilAohKeiogIhhBC7Zts2tm3jyc/Pp0nUVnCFUcD9VV+y4aHTOTL3MmbWsK11D3Hm8afSq1tnxsz8mB+aUgrTNPHMnz8f0YJULeZ16uV25XgaKVnOvVM20f6CC/mNH9Ekshh2+Xnwxv08tixFY7VCCCGEEEKI77AsC4+u6xiGwT6XWsGkS56g71/mMnlMAWOCvUitnkLkmVVsY+M7rExRbxPzFzscCPr164fHsiyEEELsmmVZeJRSGIbBPpdawaRLnqDvX+YyeUwBY4K9SK2eQuSZVWxj4zusTFFvE/MXOxwI+vXrh8eyLETLsXr5QpLAYb3yyKZxkjOfpDzVngvOOwUfoqn4+51FgGqefbGaFI3TCiH2ifW8OeM11qRoWO0yZs5eQRIhhBBCHMiWL1+OR9d1msK6+LXMPfd2Lszia9WrV+BxP/2cbfSdyF/vPBkfu1BXRx37j2maeFzXxXEchBBCNGz58uV4DMOgKayLX8vcc2/nwiy+Vr16BR7308/ZRt+J/PXOk/Gxnbo66ti5VF0dKZqOaZp4XNfFtm1ES5Bi5d+W4MnJPo7GSTLz2RfgsF78OtuHaELte3JaNlQ/+wqraZxWtCR1q5g3YwbzViZJsVWKNa/NYN6qOlqUulXMmzGDeSuTpNgqxZrXZjBvVR3738/Z9EIBeSf+gXkpdlRbwYhuvbhmzsfsXoqNb81kxsyFOHV8q3YZM2e+xcYUQgghhGhCjuPgUUqx71Uz45EMQoOz2KKamU8sB/z07K6xLR85RRO52A9djtP4RmoNz10zgK5aVwaMGsZpRxzKIYceQc8rprMiyX7jOA5CCCEa5rouHk3T2PeqmfFIBqHBWWxRzcwnlgN+enbX2JaPnKKJXOyHLsdpbFV9X28OPfQIeuZfzaT4DGbMmEF80tUMG5BF5tEX8VQNTUYphVIKj+M4iL3nOA4/nFpevXM0o0ePZvToi7h9Dl/7MHEHo0ePZvTo0Vz92ApSNGQh1mzglAH82k/jpNbwyoQgp3TtiqZpdB1wDc+squNrdat45oo+dO16Al11nT5XPMOqOg4AtSwru4I+Xbtygqah9RzOffM3kqJeaiPzJwU5pWtXTtB1TglOYv7GFPteDnoPH1S/iLWGRmlFS7HuSYYOfZz0cR8xqVtnxs5K8rXV9zOs3xAG9Poj82gh1j3J0KGPkz7uIyZ168zYWUm+tvp+hvUbwoBef2Qe+1sm+Y+9zV/6TOW8E//AvBTfqq1gRLehLB4+i4WT++NnV1Isigxk3MqjOGzuULoYJVSzxawbenHOOacyIl6DEEIIIZqO4zh4+vXrxz63eQ0f9riEgW3ZYumzTFkO+C+iML8tO/AdhdahM6d2a8vXUiuY1OcU7sm8i785K5n7RAULP/on7zzYh7UPDie38wU8t5Emo5RC0zQ8tm0jhBCiYbZt48nNzWWf27yGD3tcwsC2bLH0WaYsB/wXUZjflh34jkLr0JlTu7VlG3WbWPRCCeMLhzBkyBAKx9/PrM2n8+hbTzGyPU1K0zQ8juMg9l5eXh7BYBDHcdj/FFrPQQwaNIhBgfb8OEm9Hpx38SAGDRrEoEGDOOfU4/DRgBU2i1KQmXsC7WiE2le5yriSZYE/s2DlShxnNU8MmMvQk4cz3VnGpHPHsGHUbFaufJvym3ry6eND6fvHeaT4AaVW8NDpJrGMImavXMk7jsPfxv2Lm04fxC0LHCpGmTx+4p9ZsHIlr987jMy3bub0EXHWse8de0IXYBFvrkjRGK1pEZI8Ne5WToz+nQGpGyhkE/9c/RGc5YfOw7hx+O2Yz3zBV2xVx6b3/smX/IxfdmhHBk2nZtoQfhN5iz3yi4t5ctnN9GRnkjw17lZOjP6dAakbKGQT/1z9EZzlh87DuHH47ZjPfMFXfE91m3j//x7O0X4fjZdJ/mNv85cR3TjvRHjhH3fQ361gRLehLB4+i4WT++NnN5bezsVvj+GNqMbM/BpSb1ezAcgGBlx1CydPH89nX3zBN+o28d4/v+RHh2VytN+HEEIIIb4f13VxHAePUop9ro3JPX/mG4uen8paoF1hAf3Zmc/YTG96ZfG1dY+MYfwvS/jwuu5ksJWPThc9wD3PzmL4C0/zu8vPpNdLIzmSpqFpGo7jsGHDBoQQQjTMcRw8Sin2uTYm9/yZbyx6fiprgXaFBfRnZz5jM73plcU2jht5Hzf+z7u8+e7nHKkPol/fAfTu6sdH01NK4Vm+fDni+0kkEiQSCUzTpKioCMMw2D98dOpbQCfqLariaup1OoOLLiygO42wfhXVQA/tKHzsTi3TR1/Prx5awPU5PrbwkXPOb8m+4QauPnUB3e98m1e6Z0DNQ1xW8CBvU8/9DB8/lBSLbrmEytEv8dTgTLbKPGcIg1JPM/n8U+kSep6/nXsMPuZx23njmZkE2m7mS/a97M45wHI2vP8e0IndaUVLsHk+89LjGHESLH3laWo4jrP7dmaLTPLHjKJ9t2yOA2pfvYaePcfx7OLFzJt6ER0PzeGalzeSomm0H/ksjuPgOA6O4+A4Do7j4DgOjuPgOA6O4+A4Do7j4DgOzrKb6UkDNs9nXnocI06Cpa88TQ3HcXbfzmyRSf6YUbTvls1x7I31vDljBvdH8snJPIKzH36XPZdJ/mNv85c+UznvxJ7kdBvK4uGzWDi5P352r6pyEeddGcSfnM3zs8F31mn0ZAtfziiKTveR27kzkGJFSW+yzr+PFf/8J1W39CfrgumsSSGEEEKI78F1XbbSNI2mtYgXH68B2jE8vy87Vf0ac7JO49dtqJfkzTlvwOyLOfacaXzAd2Vy9pDT8aRmPsHLH9BkNE3D47ouQgghds5xHLbSNI2mtYgXH68B2jE8vy87Vf0ac7JO49dt2IY/dwCh6+5hypQpRMcU0L+rHx/7h6ZpeFzXRewbiUSCQCBAXl4esViM/Sn57kpqqJd7Ip1pnOrVK/C0OexwdidZcS0P/vpRrs/xsY0v6vgU2PTVeRQNy+RrR/Tk3NPa0a6jyYPjzqBBqY28fE0++Y8soUlUlzJu7R94YHAm2/jiS74EUpuOJXRpH3x4shkwtBPt2p3E1XeNJJttpZIreWnS1Ywelk/+sNGMvnoSz761kRR74DCFH1i/sZbGaE1L0MZkSjn1FnHD1LWQeydDTuIbqffXwqBz6cw8rho6m57lcxnTLxMKzqXLv7LpGbyE7DWzubg9B742JlPKqbeIG6auhdw7GXIS30i9vxYGnUtn9sYRdDq1Jyee+2MW3fICK9hbmeTfdS9ndhrKjNZXMGdif/w0Tt64V8gDktOfpDzlY/jIIH62quG9tadj9ASW3s75V7fllk8mcI4fyJvC3/WTuCzei3mXZSGEEEKIveO6LvvNohd5vAbwX8DZfdmpddYrtB/yDG3ZovWPfECK1v/6D1+yLf9hbdjiEzZ/ChxJk1BK4XFdFyGEELunlKJJLXqRx2sA/wWc3ZedWme9Qvshz9CWA4dSCs+//vUvXNdF7J10Os32bNvGtm3C4TCmaZKfn08oFKIpVS1+HU/uKdlksGd8P/4Ju5Zk5tR/UHBXDturWb6QGuqdPoi+Prbw5RB+9SPC7Khu03u88/Zili95lal/msbr76c47IoraQqLnniMLiOX4mc7VYt5nXqdzqHvCfxXJvkPvEP+A+yg9tWr6Fe4mounlXLb2I60/nAZT94whOGnjueY4DSef3IEOT52L/MYOgDLVzsk6YOfXWtNS7LoRR6vgdwrzyabrVK8NncVw0f0AF6jzVGfs+jtj6FfJuAjr/vJkJqDvQZoT/Ox6EUer4HcK88mm61SvDZ3FcNH9GDvZNCuQwawhO+ltoIR3UbwduhpprpXEjzxcF74xx3099FISWY++wL4hjP4DB/fWPc6s44bwot+WPT8VNbmXkmen//KpnNOivFPv0rNZZfRHiGEEEJ8X0opmtLqhXOoAfzB0zmJnVnKY/GjGflyW7bwc8GTH/Cb2s/4yS870I5tVa9ewdcycumsIYQQ4gfkui77y+qFc6gB/MHTOYmdWcpj8aMZ+XJbdqbOWYi1pIrFb35OxwG/wTB6omXQ5Nq0aYOntrYWv9+PaBqJRIJEIkFhYSGmaZKbm4thGBiGwb6zmuULk3hyOmfTWP/597+BTDprfnbNTzA+h9Z+dvD2W2/i6W2cTAa799Gaxaz9BDoMvJm7/v03etywnKaSN+51Sv0+trd6+UKSwGGn9aI7u7HuIS4MruT3y15m7Ak+vnZcT8Y89Ro/+uh/uLx8JOeMbcdbj5xJJo2U+hf/l91rTQtSs3whNfgxT87mG8lyHrBMbrifen25daXDt5K8UjEH2l2E2ZsmUTMjxJnjLD5nDxx5OTMW/oGTaVjN8oXU4Mc8OZtvJMt5wDK54X5+OLUVjOg2lMXDZ7Fwcn/8qV4cPqo7550IL/zjDvr7aIQqFr8O9OpNdx/fWPrYfRxx4Rv4gdqaGnbq3fd4H2iPEEIIIfaG67rsL8mPa/Fk/c9xtGFHqVcf5am+o5jQlm/5/Bzdwc+Oqpn5xHLAx9GXDWOAjybTpk0bPK7rIoQQYveUUjSl5Me1eLL+5zjasKPUq4/yVN9RTGjLDtbefiZ5r43gnpsv5pJT/8mKktF0GfwBFz29lEfyMxEti2VZeJRSKKXQdZ19Yy3Vb1OvN7/uRpPI8PvZ0SLemJMCMumVm0VjdOxVQEe2qH6VJuXz+/GxvSRvWUvw9Dolh91ZXfEIlT9J88vy1ygYP5BMtsoiVPRbiiofp+aZUmZdfyaFWexTrWlxjuJXbfmvJLOuncgv7p7PSeyotqKIUc+fyD1v3kV/H02ifUGclQU0kaP4VVv+K8msayfyi7vncxJb1bHpvX/yJbv2s192oF0G319tBSO6DWXx8FksnNwfP/V8xzD44WUwqjvnnQgv/OMO+vtonCPacgT/VV3CVa+OYsoEP7tUU0MtQgghhNhbSin2tw5HHckOUiuYfPuHRKb1pTFqp1/Pzcsho9ftzJrYHx9NZ8OGDXiUUgghhNg5pRRbua6LUoqm1uGoI9lBagWTb/+QyLS+bK/14Udx1OAocx/IJxNPBzqUvMQj645luNmNNvM/YnJfmszmzZvxHHrooVRWViL2zrnnnsvnn39OQzRNY+TIkZimia7rNInqlSxJAYflcEIWjfaj1q2BWlY7SejjZ4+tXsicGuCw8xnYh2ZiIdZs6vXm3H6Z7M7a6rchmWLGbY9x0eUDyW/DN3zHd6ULsPyzN3lrLRRmsU+1pgVp/9txXH7r+Ux96CWGXn8izsOXMOmE6cw+y8+2Umx8biz9/5zFs6sept8xPpqb9r8dx+W3ns/Uh15i6PUn4jx8CZNOmM7ss/x8I7mW2Y/ey2sfsAtHcvYfo+R35Ht6jWu6DWXx8FksnNwfP9/hO4bBDy+DUd05r3dbXl8yjjx2pT+X3dKLqePu46GVPRj8rzlcM6qa62Y+Qja7kduV4xFCCCHE3lJKsZXjOOi6TlPJM87BP/EBrIVL4cL+fCvFitLrWT7qT1zfnt1KrZjEOZe+QOteEV55PkyOj/1CKYUQQoidU0qxleu6NKU84xz8Ex/AWrgULuzPt1KsKL2e5aP+xPXt2UHny2exku1lcvaQ0+GFF7hnwkMUz7uM9jQN13XxaJqGYRiIvdO6dWu2p5TCNE2KiorQdZ2mllq1jOXU63UKOey51L/+L3sj+ZbFEur1OoUcmolFbzAnBWT2IjeL3Row/i/c3Go2/+/0cZzRhm19tplP8CjUYexe7UbeAzJzOpHJ7rWmJfGfxQNrP2DlG3OpWljFLwrKmd3Vj4/vSrHiocFcWT2WebPP5BgfzLuqD4suXcD1OTQf/rN4YO0HrHxjLlULq/hFQTmzu/rx8R3+HC6KTuEi9odfc2P1B0xs58fHTviOYfBj6+m7Cdqxe9lXvkHtOQuxlixk4c+6cMf8QrQMvtG9dwCeeYcNQDaeJJ9tBn+vPI5HCCGEEHtLKcX+4hsYoWz4DMwpY7j+/IVEDD8kV1Jx7RjuPXESr16Yxe6kNj7HqNNu5oPT7uW1p8fSPYMm57ouHqUUQgghds91XZqSb2CEsuEzMKeM4frzFxIx/JBcScW1Y7j3xEm8emEWe8J/WBu+Vvk8r35wGRcfSZNwXRexb+m6zsiRIwmFQiil2F+qlr2Jp1PPXDJpvOzOOcByNn/2KZDJnknx2pzZeHqf249MtpN8ivMv+TePPn8Rfg4c1a/NpAY47PyB9GF7S5nQ/3nOmHcbPdjC12kw0SmD2Znq12ZSQ732Qzkrj937zCUJ9Dgmk8ZoRUvj89O1fwEFBQX07+rHx3fVsuCGPpxatIB1L1xBn84amnYM5085hs6daX58frr2L6CgoID+Xf34+L5SJN9/j/feS/Il8O9P/8l7773HpjoawYe/nR8fu5JBu3YZNFaG1pOzCwooOLsnWgbbaB+6kd8f/jyPPVeLJ7XiYUrnnsxNYwfiQwghhBB7SymFUgqPbds0rUzyH1vPP2ZdxY+nFHBS1wEUjn8Wxr3Ma9f0wMdu1FYwqvtI7OEvsvSlsXTPYL+wbRshhBC7ppRCKYXHtm2aVib5j63nH7Ou4sdTCjip6wAKxz8L417mtWt64GNH1VODdNW6MmTaahr2CZs/pcm4rotHKYX4fnRdp6SkhMrKSoqLi1FKsf8keXdlDZ7cEzuzRzp2IRtY7/wvKXahdgH3XTaMYXe+zMYU//UGc19KAZn0ys1ie+ueuJf/nH82fvaVWpbNnMGMeStJpti91Bqeiwxj2GVlLKvjv2pY8MpyPL1OyWF7qVcfJdHzXHrQCMkK7rxjOdCOKx6dQB8fu7V63T+Awzj26LY0RmsOKl/QKm8806ezrZ9l0ceH4AtqVi7mnc8OZeizzwIfsXjxRxx1UgfadeTA4uvPn97+K2X338H11Yfzr7oMIksszumCEEIIIb4nTdOwbRvXdWl6GXTpP4Zo/zFE2QO1FVzacxTvjXuNhdd1J4OtZnHpoY9wWs3zXOCnSbiui6dfv34IIYRomKZp2LaN67o0vQy69B9DtP8YouzOauY8kKB6A7xbUUVyZGf87ISvPUceQZNxHAdPv379EHuvpKQE0zRRSvHDqGLx69TL5ZTsDPZIjk4PHzy6/B020Y9j2Ll5t53HlVOSwIf0G3Yml7WHZEWc6UnqtUUdzrZqn+P6587i1pf97CtLJ/Tm5OhawMfJdy5mwXU5+GhYTfwyCm6pBF6h7dBCuvcHqp/kgUq+pg5XbCO1gsm3f8JNT/Zg92qpKBrF48kMBj24gJKBGTTG2uq3gTx65fhpjNYcVDrSq6AjoiF+ck4vIIdmIrM7hdHuCCGEEGLf0nUd27aZP38+xcXFHHBqX+WqgWE+v+UNZl/UCR/fsegN5vy8IyP8NAnbtnFdF4+u6wghhGiYYRjYts3y5cs5sHQmt6ef9p0m8dykIH62Vb16BZ4M83ec7qdJOI6D4zh4NE1D7L1QKMQPqmYNK5PAYb3Iy2YP9cQ4HR59YS5/S43iGB87keIz9wvAR+erb+S37YHaCorGw8OvXs/4gZP529KNpHKOwQekNs7nlksqGPLkY+T42Gc2f/IJW6RY8sRLrC7KIcdHgz7d/AmedoPu5rL+QGoFk0LPMuz1xzn2tOEs+dtb1A3uQwb16lZRNvxaiL3A4Ex2I8WKSecw9HEITlvGkyNOwEdjVLNySQqyz8XoRKO0RgghhBBCiO849thj8ViWxQGndgE3nHMuf153OMfeOJDON/Ktf7t8+P5mGPQoHWkajuPgUUqhaRpCCCEa1qZNGzyWZXGg6V98O8f3eJHV/7qUU/iO2gruvHs5vqMv4S+lg/HTNGzbZiulFKIZe/st3qRer1PIYU/56XdWAF54k7+9lWJwHx878nHGTX/h8jUR3vngKcaPLmXZsmO59a8Pc+Yx8OtZX2GO7MvAV0+jS90yrP/8locffZh+mexT/W94mpurwzx3eAH9Nq1gDZBDw7JH3sudCy+n/P8tonT0X1m17FOGTrEY2z2Dujc3c1HB+fRcbdIjYy3WOx35PzdWTqEAACAASURBVNOf5/ouPnYtxYqS/vS6GW5eup7ru2fQaDULeGU5ZE84g840ziHpejSBQCCAZVmk02mEEEIIIUTzYds2eXl5eNavX4+maRwYaph6eicumZNiV9pdPZ+PJvelKQSDQRKJBKZpUl5ejhBCiIa5rovf78ezfv16NE3jQFK7YALnn/88WeNuYsx5v+an707lpsvvZsGvhvPokzEGd/LRVILBIIlEAtM0KS8vRzRf1ZN0uo5fTu9717JgbBZ7LPkU5x95Ie/8cSlLI93x0bBU8n0+pi1H+31sr27Te3zx8w60y6DRqifpdB2/nMOumMOn9w+kcZJMzy/isIrHyKcR6jbx3hc/p0O7DLaXSr7Px7TlaL+P3UuxZvqF9L4a7l7wJCNO8LFFknmTb+S9/vcRyqNBNQ/1p8PlHzFh6VIi3X00RiuEEEIIIYT4Dl3X0TQNTyKR4MDRnotnf0U6nSadTpNOp0mn06TTadLpNOl0mnQ6zUeT+9IUXNfFtm08/fr1QwghxK4ppdA0DU8ikeBAk9lnAm/UzGf8yYfw/srFrP3qFG6YX0PtkgcY3MlHU7JtG09ubi6iOUuxatly4GQKBmaxV/xBrrjYT/WfH+X1FLvk8x/N0X4fO5PRrgPtMtgPqlj8n1/TjUbKaEeHdhnsjM9/NEf7fexeio3PjSLwh2OYtvpJRpzg41tVJG5bTl0bdmEdLzxeCb3HMKK7j8ZqhRBCCCGEENsxTRNPRUUFYgvLsnAcB49pmgghhNg90zTxlJaWckDy+enav4CCggIKCs6m53F+fDQty7JwHAdPKBRCNCO1C5gwUKNr8D6W1VHvDebPAU7+HWedwF7yMXDc7QQ+v5+HKuo44C2aywenDSSL/ae2YhTdC99jxMS+1M19kRkzZjBjxgxmzLifyJDrmP7vHE7IomFLH6PkjWyuveNCOtJ4rRFCCCGEEGI7/fr1IxaLYVkWjuOgaRoHO9u28ei6jqZpCCGE2L1+/foRi8VwHAfHcdA0jYOdZVl4dF1H0zRE8zHvtvOI/jUJPMxfnbF0/2wuiaSfKyZewQl8D1khYjc/QO7EUlbkX0+OjyaTXDGbue98BnzEK1NX4flszgNMim8m61DgqJMo6NWRnatl+u3/ID9+AvtLbcUIupmPswm4feR8dqp3IcfRkFqm33IHnwz9C9f08bMnWiOEEEIIIcR2DMNAKYXruiQSCYqLiznYTZs2DU9+fj5CCCEaxzRNlFK4rksikaC4uJiD3bRp0/Dk5+cjmiFfG04aexcjs2t57oIH+Hzow0QG+vh+fORc8xh3lp/KmIeGMPeqTvhoakdwxv+Zzhls62c//Tk7l2Jj2WhKe0/kLT/7zRftzuP+Z89jV36W9Ruy2Lna54q4qmoET7w1mEz2zCHpejSBQCCAZVmk02mEEEIIIUTzU1hYSDwexzRNysvLOZjZtk1eXh6eqqoqdF1HCCFE4xQWFhKPxzEMg8rKSg5mtm2Tl5eHp7KyEsMwEM1I7atcY97Mu926kblxEYuOivDcfYPp5GPfqK1gRLdr+NXzy5nUJ4MDygdPcPXd7Rg/eSCZNBO108k/9m46/3U2k/pksqcOSdejCQQCASzLIp1OI4QQQgghmp94PE5hYSGe9evXo2kaB6vCwkLi8Ti6rlNVVYUQQojGSyQSBINBPFVVVei6zsGqsLCQeDyOrutUVVUhmqe6Te/hts7kaL+PfS214iHOO2sWFyx6hsJjfIi9VFvBpT0nkfnY89zWJ5O90QohhBBCCCF2IhQKoWkannA4zMHKsizi8TieoqIihBBC7BnTNNE0DU84HOZgZVkW8Xgcz8iRIxHNV0a7Dhzt99EUfDmX8cKiq2HBSj5D7K2aJR8yaNYcbuuTyd46JF2PJhAIBLAsi3Q6jRBCCCGEaJ4SiQTBYBBPZWUlhmFwsAkEAliWhWEYVFZWIoQQYs8lEgmCwSCe8vJyTNPkYBMIBLAsC03TqKqqQimFEOLA1QohhBBCCCEaYJomuq7jKSws5GCTSCSwLAtPJBJBCCHE3jFNE8Mw8ITDYQ42iUQCy7LwRCIRlFIIIQ5srRAtUIqNb81kxrxV1CGEEEII8f2UlZXhcRyHRCLBwaS0tBSPaZoYhoEQQoi9V1ZWhsdxHOLxOAeT0tJSPIZhEAqFEEIc+FohWp6aOCNOPYchA/py82sIIYQQQuw113XxmKaJp7CwkINFLBbDsiw8RUVFCCGE2Huu6+K6LqZp4gmHwxws4vE4lmXhiUQiCCGah1aIlqe9yR9v7k//i+5m5K8RQgghhGg013WxLIsJEyaQl5dHMBhE0zRKSkrwuK5LMBikpbNtm2g0isc0TQzDQAghROO5rotlWcRiMfLy8ggGgyilKCsrw+O6LsFgkJbOtm3C4TAe0zQxDAMhRPNwSLoeTSAQCGBZFul0GiGEEEIIceBxHAfHcbBtmw0bNmBZFo7j4LouHl3XqaysRCmFJxaLEQ6H8ZSVlREKhWiJXNclLy8Px3HQNI2qqiqUUgghhNg513WxbRvbttmwYQOWZeE4Dq7r4tF1nfLycjRNwxOLxQiHw3hKSkooLi6mJXJdl0AggG3baJpGZWUlmqYhhGgeDknXowkEAgEsyyKdTiOEEEIIIX5YiUSC0tJSXNfFdV1c18V1XRqiaRqVlZVomsZ3BYNBEokEnsrKSgzDoCVxXZfCwkISiQRKKcrLyzEMAyGEEFskEglKS0txXRfXdXFdF9d1aYimaVRWVqJpGt9VWFhIPB7HU15ejmmatCSu61JYWEgikUApRXl5OYZhIIRoPlrRUqQ28vIfzuCM/J5kZV1BRS1bJGdx6RGHcOjpU1lHy5Ba8xxX9OnD7++fwYwZcSYM6Y6mfsqICuqt4y+XnkJX7QgOPURnUjVfW/eXSzmlq8Yx6qccMuI51jz3e84//1JGD+tJ1hE9ueK5NaRoQN0y7htyBkPOyuEIo4QVKbaoLuGUn/6UY66ZRwohhBBCHMgMw8BxHGzbxnEcXNelIUopysvL0TSN7ZWXl6PrOp5gMIht27Qk0WiURCKBp6ysDMMwEEII8S3TNHEcB9u2cRwH13VpiFKKsrIyNE1je2VlZei6jqewsBDbtmlJotEoiUQCT0lJCYZhIIRoXlrTQlTfP5SHuz7PK2MT9O9wOZFpV5J/XTZb1c2xeJuLyWL/qpl5C7dWbGSPHBqg6J4LyWZnqikdUkDypq94arAPT0FBX9r1OY6/4cnid4+8RbeJXcm9gW9k/e4R3ip4jgt+WsDTz4wk1PVN5j2fg48UFSPaYP7uSk45dTYXt2c7SWYV/Z7/vWYez35xLb8YcDV3vxLmsXz+K8X7c5fwLv3JRgghhBAHKqUUJSUlBINBdkUpRVlZGbqu05DKyko6duyI67oEg0GqqqpQStHcxWIxYrEYnuLiYkzTRAghxI5KSkoIBoPsilKKsrIyDMOgIZWVleTl5eE4DoFAgPXr16OUormLxWLEYjE8xcXFhEIhhBDNT2tagtSr3HdfLldUZ5J8dhaV+Bje+Xi+5j+L+x4ezvQbutCRenWreGbyRF7ccBQqafOhdi5F48fSJ5Mm0d64ghu7fcke+dFhZNKQDbyzCuZVvMTGcwZzjI96WRgXnMban/GNH7VuzQ58rfkJ9X4+gglFOfjw+Di+axd4/C3sNUB7trXuCSauGsZjPXwsuiFBkly6Hs8W2WHit0yj67LjOJ56qTU8N/F6Hn77V3TKeB96XM2NY/uQiRBCCCEOBKZpYpomiUSChkQiEUzTZFeUUlRWVpKXl4fjOAQCAcrLy9E0jeYqFosRjUbxhEIhSkpKEEIIsXOmaWKaJolEgoYUFRVhmia7opSivLycvLw8XNclEAhQXl6Opmk0V7FYjGg0iicUChGJRBBCNE+taQl8vYgu7EU7Xw0PTX0B/Fcw/AwfW/kOUxzePZvOpKi4QmfcT8p569EzyaSWsjN+xW96b2LJuxM4iSaQ0Y4OGexDAxg29mim31NA++fbcWy3npwfvIgLh73EPcfQOB00jvKxnSTuZ+zo6GGUv/hz2jGP2AM10Hs8Bdl84/A2vyC3exd8JJk1tjfjM1+g+vke+KjluQtOpPf/zqL6th74EEIIIcQPzbIs3nnnHRoSCoUoLi6mMXRdp7KykkAggG3b5OXlUV5ejmEYNCeu6xIOh4nH43h0XaekpAQhhBANsyyLjz/+mIaYpsmECRNoDF3XqaysJBAIYNs2eXl5lJeXYxgGzYnrukSjUWKxGB5d1ykpKUEphRCieWpFi5BBu3YZUDOLpyvBf0GQvj6+Ub1kIX3O6osPH8efOYYzTvTxEzw/4cc+4JNP2Exz4aP/5NXYL95JeMBxsHYuJeN/y6nH92HSihT7nM9PO78P5iWYnoTeF55JFlulWPbGh5gDsqHmGe5+9KcMPbcHPjyZnDNkEGsn388rKYQQQgjxA3Jdl3A4TDAY5O9//zs7o2kaJSUl7AnDMKiqqkIpheu6BAIBYrEYzYXruhQWFhKPx/EUFxdTWVmJUgohhBA7cl2XcDhMMBhkwYIF7IymaZSVlbEnDMOgqqoKpRSu6xIIBIjFYjQXrutSWFhILBbDY5omlZWVKKUQQjRfrWlBUosrqQSGDuiLj62W8my8Pb99w48n+8J7mIInRfJvf+Lu2UdzydM30J+mUTPzFm6t2MieOZXRUy7lZHZmCY9cvYae91zHPedcxz1A3aoyhve9mPHFcS6cdxnt2fdWLJpHkmzO+k0W30iWM23Jb7nhJKDiDSr5BWccxjd8rX8CqRWsfhfIRgghhBA/gHg8TjgcxnVdPLquM27cOG688UYcx2GrsrIylFLsKV3XqaqqIhgMYts24XCYDRs2UFJSwoHMtm2CwSCO4+ApKSmhuLgYIYQQO5dIJAiHwziOg0fXdSKRCOFwGMdx2KqsrAylFHtK13XWr19PIBDAtm3C4TAbNmygpKSEA5lt2wSDQRzHwROJRJgwYQJCiOavNS3Iu2tXAbl07+Jjq9rn7mJm8Dr+6OdbG2dxyy0JNtYu4qvTxjH8JEVTaX/a74l0+4z/sAd+9ks60JD3ea3kTj655EKys/laRpdCbh1XSvmzX/AFTWP9qmpgONk5/FeKFQ9M5j/Xv8RJ7MpyVr4LZCOEEEKI/ciyLMLhMLZt41FKEYlECIVCKKXIyMggGAziKS4uxjAM9pamaVRVVREMBkkkEsRiMSzLory8HE3TOJC4rkssFqO0tBTXdVFKUVZWhmmaCCGE2JFlWUSjUSzLwqOUIhKJEAqFUEqhlCIQCOApLi7GMAz2llKKqqoqgsEgiUSCWCyGZVmUl5ejaRoHEtd1icVilJaW4rouSilKSkoIhUIIIVqIdBMxDCMNpPerJZH0cfjSwSc/SXu+emdqOjjozvTyr9IN+Co95wp/moxg+skP081EIj0c0v6hT6drvkpv8VVNeup5GenAg2vTW3yVXjohOw3+9BVzvkp/48Op6dMhTfZt6eXprb5Kv35t+zSQLnj683RDPnkymPZxXDqyJP21D1+/Nj1oeCL9Yfq/EsPTkJu+c2X6W4nhaWifvn5hWgghhBD7STKZTBcXF6eVUmkgDaQNw0ivX78+vT3TNNOapqWTyWR6XykuLk4DaSANpEOhUHr9+vXpH1oymUyXl5enNU1LA2kgret6uqqqKi2EEGJHyWQyXVxcnFZKpYE0kDYMI71+/fr09kzTTCul0slkMr2vRCKRNJAG0kA6FAql169fnz4QVFZWpjVNSwNpIK1pWrqysjIthGhZDknXowkEAgEsyyKdTrP/pNg4/xH+eMPDfKQyOaTtedx451j6ZLJFch6Txz/Fv4fcyviBmXytYgSHmI8zPJHmsXyagTlc3bWcbnd0Zf69T/Dl0V1w3/+UHhffynW/7UIGS3hk9BQW861j8m+ikDJurdjId506ejRMmcJivuOYfG66+Wzas706Vj1zM2PvquJnmfCjzmO5e+JgOvnYYtENdOj5OMMXvsdtPdiiYgSHmBt58L15XNYeIYQQQjSxeDxOOBzGdV08uq4TiUQwTZOdcRwHy7IIhULsS5ZlUVhYiOM4bFVcXExJSQk/BMuyCIfD2LaNRylFKBQiEomglEIIIcS2EokE4XAYx3Hw6LpOJBLBNE12xnVd4vE4xcXF7Eu2bRMMBnEch62Ki4uJRCIopdjfLMsiHA5j2zYepRSmaRKJRNA0DSFEy3JIuh5NIBAIYFkW6XSaA0bNQ/TvcBPqiUU8f2EWnqUTjufkOzrw4N/ncVkWYq9VM0nvyguj1rJgbBaQYsF1nTjt3Ul88PwF+BFCCCFEU7Esi3A4jG3beJRSRCIRQqEQSil+KLFYjNLSUhzHYavi4mKKiorQNI2m5Loutm0TjUaxLIutDMOgpKQEXdcRQgixLcuyiEajWJaFRylFJBIhFAqhlOKHEovFKC0txXEctiouLmbkyJHouk5Tcl0X27YpLS0lkUiwlWEYlJSUoOs6QoiW6ZB0PZpAIBDAsizS6TQHjhRrniumsORjBgwbSseP4kx84sdcOvVBruuTifh+Umumc+nZMXzFf6DPR3EmvtSZ+2ZOZmAmQgghhGgCrusSjUaJx+O4rovHMAzKysrQNI0DRSwWIxwO812GYaDrOvn5+RiGwb7gui6WZVFaWopt27iuy1aGYVBSUoKu6wghhNiW67pEo1Hi8Tiu6+IxDIOysjI0TeNAEYvFCIfDfJemaZimSX5+PoZhsC+4rotlWUybNg3LsnBdl60Mw6CkpARd1xFCtGyHpOvRBAKBAJZlkU6nEUIIIYQQ+1Y8HiccDuO6Lh5d14lEIpimyYFqwoQJlJaW4rou36WUIhQKkZubi6ZpGIZBYziOg+M42LbNtGnTcBwH13XZSimFrusUFRVhmiZCCCF2lEgkCIfDOI6DR9d1IpEIpmlyoIrFYkSjUVzXZXvFxcXk5uaiaRqGYdAYruti2za2bTNt2jQcx8F1XbZSSqHrOkVFRZimiRDi4HBIuh5NIBAIYFkW6XQaIYQQQgixb1iWRTgcxrZtPEopIpEIoVAIpRTNgWVZWJZFRUUFtm2zM5qmoZRCKYVSCo/ruriui8dxHFzXZXtKKXRdZ+TIkZimiVIKIYQQO7Isi2g0imVZeJRSRCIRQqEQSimaA8uysCyLiooKbNtmZzRNQymFUgqlFB7XdXFdF4/jOLiuy/aUUui6zsiRIzFNE6UUQoiDyyHpejSBQCCAZVmk02mEEEIIIcT347ou0WiUeDyO67p4DMOgrKwMTdNorhzHIZFIUFFRgWVZ7CmlFEopDMNg5MiR6LqOUgohhBA757ou0WiUeDyO67p4DMOgrKwMTdNorhzHIZFIUFFRgWVZ7A1N09B1naKiInRdRymFEOLgdUi6Hk0gEAhgWRbpdBohhBBCCLH34vE44XAY13Xx6LpOJBLBNE1aGsdxsG0b13VxXRfXdfFs3rwZz7HHHotH13WUUmiahlIKIYQQu5dIJAiHwziOg0fXdSKRCKZp0tI4joNt27iui+u6uK6LZ/PmzXiOPfZYPJqmoWkamqahlEIIIbZqjRBCCCGEOCBZlkU4HMa2bTxKKSKRCKFQCKUULZGmaWiahhBCiH3Hsiyi0SiWZeFRShGJRAiFQiilaIk0TUPTNIQQYm+1RgghhBBCHFBc1yUajRKPx3FdF49hGJSVlaFpGkIIIURjuK5LNBolHo/jui4ewzAoKytD0zSEEEI0rDVCCCGEEOKAEY/HCYfDuK6LR9d1IpEIpmkihBBCNFYikSAcDuM4Dh5d14lEIpimiRBCiN1rjRBCCCGE+MFZlkU4HMa2bTxKKSKRCKFQCKUUQgghRGNYlkU0GsWyLDxKKSKRCKFQCKUUQgghGqc1QgghhBDiB+O6LtFolHg8juu6eAzDoKysDE3TEEIIIRrDdV2i0SjxeBzXdfEYhsH/Zw9uAKwq68SPf2En7xa+PGMSqYAHqMA/KGcEN0UXzsV8WSznTL7mhpwxrEiNe0wxtfZwLN2Fynup0PUl70FdX9G5Y8n6BvfgRvjanEEpNGCODWyOut3H1Snv9nL+HHFMFHVQBmaG3+dTLBYxDAMhhBDbpgYhhBBCCLFTBEGA67porUmZponnedi2jRBCCNFdpVIJ13WJ45iUaZp4nodt2wghhHh/ahBCCCGEEDtUGIa4rksURaSUUnieh+M4KKUQQgghuiMMQ3zfJwxDUkopPM/DcRyUUgghhHj/ahBCCCGEEDuE1hrf9wmCAK01KcuyKBaLGIaBEEII0R1aa3zfJwgCtNakLMuiWCxiGAZCCCE+uBqEEEIIIUSPC4IA13XRWpMyTRPP87BtGyGEEKK7SqUSrusSxzEp0zTxPA/bthFCCLH91CCEEEIIIXpMGIa4rksURaSUUnieh+M4KKUQQgghuiMMQ3zfJwxDUkopPM/DcRyUUgghhNi+ahCiO6oVNnb8GTV8MIMQQgghxHvRWuP7PkEQoLUmZVkWxWIRwzAQQgghukNrje/7BEGA1pqUZVkUi0UMw0AIIUTPGIgQ3bH2Wo4/4Bs8iBBCCCHeSxAEjBgxgkKhgNYa0zRpamqiXC5jGAZCCCFEd5RKJerq6igUCmitMU2TpqYmyuUyhmEghBCi59QghBBCCCG2izAMcV2XKIpIKaXwPA/HcVBKIYQQQnRHGIb4vk8YhqSUUnieh+M4KKUQQgjR8wbSn3SuYdnixSx7qkKVLlV+89Bilq3ppF/pXMOyxYtZ9lSFKl2q/OahxSxb00mv0rmGZYsXs+ypClW6VPnNQ4tZtqYTIYQQoq/TWuO6Lg0NDURRRMqyLFpaWsjlciilEEIIId6L1hrXdWloaCAMQ1KWZdHS0kIul0MphRBCiB1jIP3F+ls49dQbSUY9z/yDRnP2kgqvefpKTp9yMkdNuohl9BPrb+HUU28kGfU88w8azdlLKrzm6Ss5fcrJHDXpIpbRS6y/hVNPvZFk1PPMP2g0Zy+p8Jqnr+T0KSdz1KSLWIYQQgjRdwVBwIgRIygUCmitMU2TpqYmyuUyhmEghBBCdEepVKKuro5CoYDWGtM0aWpqolwuYxgGQgghdqyB9AsVbj3/OxzoX8ZR1Y38ihdoffp5XjP6dL41fTD84Q+8yltUf8Od3g9YVqHHtC86GcMwMAwDwzAwDAPDMDAMA8MwMAwDwzAwDAPDMDAMA+OQS1nJO6lw6/nf4UD/Mo6qbuRXvEDr08/zmtGn863pg+EPf+BV3qyTNcvuY1WFHazCred/hwP9yziqupFf8QKtTz/Pa0afzremD4Y//IFX2axaWcfKexazePE9rFxXoYoQQgjRe4VhSF1dHY2NjWitUUqRz+cpl8vYto0QQgjRHWEYks1maWhoII5jlFLk83nK5TK2bSOEEGLnqKE/eGk5y5Lz+eYEeGLubbQzijMnj2azIdR/7SyG/XofRvFmVVYtOJ1/vvRPXHrKN5haS48YNuMO4hlsPy8tZ1lyPt+cAE/MvY12RnHm5NFsNoT6r53FsF/vwyg2efw6vlx8iBeX30vT6v2Y99SxHFzLjvPScpYl5/PNCfDE3NtoZxRnTh7NZkOo/9pZDPv1PowCOppncvy1n2Le90/jH/64lNzh+/Lo1ID/uvU0RiCEEEL0HlprfN8nCAK01qQsy6JYLGIYBkIIIUR3aK3xfZ8gCNBak7Isi2KxiGEYCCGE2Llq6A/2srmmiU0e5pLr18H4eZw8gTdUN66DYz7HaP6mo/ksZl1Tocru9Cl72VzTxCYPc8n162D8PE6ewBuqG9fBMZ9jNJtMnMk1E2dC8xkMsFfRLQ99m3Fn3MgrvMWfNc/xZ84yHmI2b3Uo/n/dwYxhbGkvm2ua2ORhLrl+HYyfx8kTeEN14zo45nOM5mny372JVyYv4ZAxw6mlkVv+4zH2PcbB+0IDN9RnEEIIIXqDIAhwXRetNSnTNPE8D9u2EUIIIbqrVCrhui5xHJMyTRPP87BtGyGEEL1DDf3Jwz/lxnYYf87xjKVLlYeWrmH6GYfxho6bmDV/HFfNg/EnraJPevin3NgO4885nrF0qfLQ0jVMP+Mw3rfJ3+Gp+Du8zer5mOOewo9voJ5t9PBPubEdxp9zPGPpUuWhpWuYfsZhQIXxp53BtMH78BE2y+xRy+5UeenlPwAZhBBCiJ0pDENc1yWKIlJKKTzPw3EclFIIIYQQ3RGGIb7vE4YhKaUUnufhOA5KKYQQQvQeNfQj7a0raacWe+JY3lBp4qrQ5pIr2ay6ivln3M8/33UDBz98Bj2tfbHDP50f8grbYN+vsnjlN5nIO2tvXUk7tdgTx/KGShNXhTaXXEmv0t66knZqsSeO5Q2VJq4KbS65kk1qmfqNa5hKlyrLbr6W9sFf4t+Pr0UIIYTYWbTW+L5PEARorUlZlkWxWMQwDIQQQoju0Frj+z5BEKC1JmVZFsViEcMwEEII0fvU0O/sx8f34XUVllxwOXt/fzkTSFVZdsEXeeprDzBnCDvEsJMCnjqJHrIfH9+H11VYcsHl7P395UygN9qPj+/D6yosueBy9v7+cibwdh3NZ3HarXX8+4MLmVaLEEIIsVMEQYDrumitSZmmied52LaNEEII0V2lUgnXdYnjmJRpmnieh23bCCGE6L0G0o8MO+V8vrr/Wq6/+mes27iOpXMbmP+pm1g4rZbXPHQxX/51A//0p/9i8eLFLP7FeuD3RMsWs/gXbfQlw045n6/uv5brr/4Z6zauY+ncBuZ/6iYWTqultxl2yvl8df+1XH/1z1i3cR1L5zYw/1M3sXBaLVuq8pubPs/RV36ae9vu4yuj/peNlSpCCCHEjhSGIXV1dTQ2NqK1RilFPp+nXC5j2zZCCCFEd4RhSDabpaGhgTiOUUqRz+cpl8vYto0QQojerYb+pHYaV637HU+tLq1SIAAAIABJREFUWErLyhb2PqmJ+8bVkuF1k3/A2gf4mw/dDbyCOfUkThpL31I7javW/Y6nViylZWULe5/UxH3jasnQC9VO46p1v+OpFUtpWdnC3ic1cd+4WjK8WSe/nG9z4R88HrjvSIYAq+cfzbzRETfUI4QQQvQ4rTW+7xMEAVprUpZlUSwWMQwDIYQQoju01vi+TxAEaK1JWZZFsVjEMAyEEEL0DTX0N5laxk09iXG8mwqr7lvKL+9fBfyeaNli7vvLURx7cC19SqaWcVNPYhzvoLKK+5Y+w8uPrQd+T7RsMYt/vR8TTprECLZRzYf4UGY3PsT7lKll3NSTGMfWVFj2jcOZdsXTVHmQj/u8bjzznkIIIYTocUEQ4LouWmtSpmnieR62bSOEEEJ0V6lUwnVd4jgmZZomnudh2zZCCCH6lgHJJvSAbDZLGIYkSULvU6WysYOX/8Ib/m6PIexfm6FfqVbY2PEyf+HNPsxHhw9mEL1JlcrGDl7+C2/xYT46fDCDEEIIIXpGGIa4rksURaSUUnieh+M4KKUQQgghuiMMQ3zfJwxDUkopPM/DcRyUUgghhOh7atglZajdfzi19HOZWvYfXkvvl6F2/+HUIoQQQuwYWmt83ycIArTWpCzLolgsYhgGQgghRHdorfF9nyAI0FqTsiyLYrGIYRgIIYTou2oQQgghhNiFBEGA67porUmZponnedi2jRBCCNFdpVIJ13WJ45iUaZp4nodt2wghhOj7ahBCCCGE2AWEYYjrukRRREophed5OI6DUgohhBCiO8IwxPd9wjAkpZTC8zwcx0EphRBCiP6hBiGEEEKIfkxrje/7BEGA1pqUZVkUi0UMw0AIIYToDq01vu8TBAFaa1KWZVEsFjEMAyGEEP1LDUIIIYQQ/VQQBLiui9aalGmaeJ6HbdsIIYQQ3VUqlXBdlziOSZmmied52LaNEEKI/qkGIYQQQoh+JgxDXNcliiJSSik8z8NxHJRSCCGEEN0RhiG+7xOGISmlFJ7n4TgOSimEEEL0XzUIIYQQQvQTWmt83ycIArTWpCzLolgsYhgGQgghRHdorfF9nyAI0FqTsiyLYrGIYRgIIYTo/2oQQgghhOgHgiDAdV201qRM08TzPGzbRgghhOiuUqmE67rEcUzKNE08z8O2bYQQQuw6ahBCCCGE6MPCMMR1XaIoIqWUwvM8HMdBKYUQQgjRHWEY4vs+YRiSUkrheR6O46CUQgghxK6lBiGEEEKIPkhrje/7BEGA1pqUZVkUi0UMw0AIIYToDq01vu8TBAFaa1KWZVEsFjEMAyGEELumGoQQQggh+pggCHBdF601KdM08TwP27YRQgghuqtUKuG6LnEckzJNE8/zsG0bIYQQu7YahBBCCCH6iDAMcV2XKIpIKaXwPA/HcVBKIYQQQnRHGIb4vk8YhqSUUnieh+M4KKUQQgghahBCCCGE6OW01vi+TxAEaK1JWZZFsVjEMAyEEEKI7tBa4/s+QRCgtSZlWRbFYhHDMBBCCCG61CCEEEII0YsFQYDrumitSZmmied52LaNEEII0V2lUgnXdYnjmJRpmnieh23bCCGEEG9VgxBCCCFELxSGIa7rEkURKaUUnufhOA5KKYQQQojuCMMQ3/cJw5CUUgrP83AcB6UUQgghxNbUIIQQQgjRi2it8X2fIAjQWpOyLItisYhhGAghhBDdobXG932CIEBrTcqyLIrFIoZhIIQQQrybGoQQQggheokgCHBdF601KdM08TwP27YRQgghuqtUKuG6LnEckzJNE8/zsG0bIYQQojsG0l9UN/Cf3zyO4+oPZ+TIWTR3sFllCTM/NoDdj72e9fQT1Q385zeP47j6wxk5chbNHWxWWcLMjw1g92OvZz29RHUD//nN4ziu/nBGjpxFcwebVZYw82MD2P3Y61mPEEKIXV0YhtTV1dHY2IjWGqUU+XyecrmMbdsIIYQQ3RGGIdlsloaGBuI4RilFPp+nXC5j2zZCCCFEd9XQT6y+8lSuHXcX955dYurwr+ItOof6OWPp0nl/yJOcyUh2rPZ7LuU7zRvYJrtnmX3FFxjL1q2+8lSuHXcX955dYurwr+ItOof6OWPp0nl/yJOcyUh2vtVXnsq14+7i3rNLTB3+VbxF51A/ZyxdOu8PeZIzGYkQQohdkdYa3/cJggCtNSnLsigWixiGgRBCCNEdWmt83ycIArTWpCzLolgsYhgGQgghxLaqoT+oPsDCheOZtXoIlTuWUCbD9NGf4DW101h47XRuumQMI9jk/vMYN6+TM6YfzcjdX2H9Azdyr/FvLLvoUHrCMGsW3zroj2yTv9uDIbyD6gMsXDieWauHULljCWUyTB/9CV5TO42F107npkvGMIK3qC7jG6NO4KVrXuG6aewY1QdYuHA8s1YPoXLHEspkmD76E7ymdhoLr53OTZeMYQSbVDew/LoruOqXf8KgjV//cQJn+Bdz4iczCCGE6J+CIMB1XbTWpEzTxPM8bNtGCCGE6K5SqYTrusRxTMo0TTzPw7ZthBBCiPerhv4gMwl/5SQGZ9q5+vq7oXYW04/L0CWzh2LPQ8Yymk3++CJrn1jGlevug33HM8NdyE9PGUOPGTSY4YPYfjKT8FdOYnCmnauvvxtqZzH9uAxdMnso9jxkLKN5sw6azzqNKzZ2Mv1PvId27rn0OzRvoNt2n3Am3/7KYdTyFplJ+CsnMTjTztXX3w21s5h+XIYumT0Uex4yltHA6gWf5XN3O/x8aY6DM1V+PueT/ONBT3LL7+7itFqEEKLf0VqjtUZrTUophVIKpRT9XRiGuK5LFEWklFJ4nofjOCilEEII0X1aa7TWaK1JKaVQSqGUor8LwxDf9wnDkJRSCs/zcBwHpRRCCCHEB1FDvzCIwYOB9pu4rQy1sxqYnOENqx9fyZHTfDJsNubi+4jmjKVvGsTgwUD7TdxWhtpZDUzO8IbVj6/kyGk+GbpUWTX/88zf7TjGcyPvbRjWrG9x0B/ptg9/dDi1bM0gBg8G2m/itjLUzmpgcoY3rH58JUdO88kA+02czmnPDeHvMmySoeZDQFXz0itALUII0WdprQnDkOXLlxNFEVpr4jhGa827sW0bpRQHHHAAlmVhWRZ9ndYa3/cJggCtNSnLsigWixiGgRBCiHemtSYMQ5YvX04URWitieMYrTXvxrZtlFIccMABWJaFZVn0dVprfN8nCAK01qQsy6JYLGIYBkIIIcT2UEM/Un20TBk49ajJZOjyBHcEwzhlRS1d/rx2KfO/9R+8+teB/P2kL3L2Z8cwiJ7Rfs+lfKd5A9vmH/jyNTOZyDurPlqmDJx61GQydHmCO4JhnLKili7VVQu4+Jk53OU+zbE/oVsGDR7OILaf6qNlysCpR00mQ5cnuCMYxikraknVTv0G10zlNZ3xf1C46vdMuqKAMwwhhOhzoiiiVCrR3NxMHMdordlWpVKJLr7vo5TCcRzq6+uxLIu+JggCXNdFa03KNE08z8O2bYQQQmxdFEWEYciiRYuI4xitNduqVCrRxfd9lFI4jkN9fT2WZdHXlEolXNcljmNSpmnieR62bSOEEEJsTzX0I2vXrQHGc8iYDF067vwe9zTM4aJaNvvwPvB3+3P6t7/O0EwHN9UfwIjbb+PJG+oZwvY37DPn4h30Mn9hG3z4owzn3a1dtwYYzyFjMnTpuPN73NMwh4tq2ayjmbO+uIHzHpvDkLXz2VnWrlsDjOeQMRm6dNz5Pe5pmMNFtfzNy09wvXc1Dz+3hmjkGVz6T6PIIIQQfUMYhoRhSHNzM1EU8WZKKUzTxDRNDjjgAEzTRClFSimFUgqtNVprtNbEcUwcxzz77LNEUUQURWitKRQKFAoFUrZtU19fj+M49GZhGOK6LlEUkVJK4XkejuOglEIIIcSWwjAkDEOam5uJoog3U0phmiamaXLAAQdgmiZKKVJKKZRSaK3RWqO1Jo5j4jjm2WefJYoioihCa02hUKBQKJCybZv6+nocx6E3C8MQ3/cJw5CUUgrP83AcB6UUQgghxHaX9BDLshIg2aEe95JRZJKGW36fpF595vqk4Zh5SeuryTt6dfGpCYxP5j2V9C2Pe8koMknDLb9PUq8+c33ScMy8pPXV5HXPJYunH5PMa301ec1T85LxkEwvJTve414yikzScMvvk9Srz1yfNBwzL2l9NXlH6358RELmwMRb+WoihBC9WVtbW5LL5RKlVAIkQAIkSqnEcZykXC4nlUol+SDa2tqSfD6fWJaVAAmQAAmQmKaZFIvFpLepVCpJLpdLlFIJkACJZVlJW1tbIoQQ4u0qlUqSy+USpVQCJEACJEqpxHGcpFwuJ5VKJfkg2traknw+n1iWlQAJkAAJkBiGkRSLxaS3qVQqSS6XS5RSCZAAiWVZSVtbWyKEEEL0pAHJJvSAbDZLGIYkScKOU2XD8uu46JJreV4NYcA+J/CteWdz5BBedz+zdj+BFd9+hFUXjuc1zWcwwP4Z5y79PT+cSh9SZcPy67jokmt5Xg1hwD4n8K15Z3PkEDZrv4dLr1gBtX/Pa15czo9/tIyPn+pzUnYKZ31lCvuyo1TZsPw6LrrkWp5XQxiwzwl8a97ZHDmE163mlvMW8Jh5Dv96xsFk2GT1fMxxF8K8p4jmjEUIIXobrTW+7xMEAVprUoZhMGPGDGzbxjAMlFL0hEKhwPLlyymVSnQxTZPZs2fjOA47WxAEuK6L1pqUaZp4nodt2wghhNiS1hrf9wmCAK01KcMwmDFjBrZtYxgGSil6QqFQYPny5ZRKJbqYpsns2bNxHIedrVQq4boucRyTMk0Tz/OwbRshhBCixyU9xLKsBEh6l8cTb9TUZGHbq8lmryb/dcGwhMHnJktfTfq3p+Yl4yGZXkp6oaXJubWZZPS/rExeTTb7/S0NSYbByblLX02EEKI3qVQqied5iVIqARIgUUol+Xw+qVQqyY7U0tKSOI6TAAmQAIlt20lbW1uyM5TL5cQ0zQRIgEQpleTz+aRSqSRCCCG2VKlUEs/zEqVUAiRAopRK8vl8UqlUkh2ppaUlcRwnARIgARLLspK2trZkZyiXy4llWQmQAIlSKsnn80mlUkmEEEKIHWVAsgk9IJvNEoYhSZLQm1RXXc0Xv9bE8NNnMurJf+Pyx6Zwbely/mlohv7qocst/qXpReIXXmH3wQb7NFxKePFkepOOn8/nnG8uY+8TTuPo3R/h3y5/jEMX3ELhxE+SQQgheocoimhoaCCOY1JKKTzPw3EclFLsLFEU0djYSBRFdPE8j7lz57IjaK3xfZ8gCNBak7Isi2KxiGEYCCGE2FIURTQ0NBDHMSmlFJ7n4TgOSil2liiKcF2XMAzpksvlyOfz7Ahaa3zfJwgCtNakLMuiWCxiGAZCCCHEjjQg2YQekM1mCcOQJEkQQggh+rogCHBdF601Sikcx8HzPJRS9BalUgnXdYnjmJRlWZTLZXpSEAS4rovWmpRpmnieh23bCCGEeLtSqURjYyNaa5RSOI7D7NmzMQyD3qJUKuG6LnEck7Isi3K5TE8qlUq4rkscx6RM08TzPGzbRgghhNgZBiKEEEKId+W6Lo2NjWitMU2TcrlMPp9HKUVvYts2bW1t5HI5UmEYUldXRxzHbG9hGFJXV0djYyNaa5RS5PN5yuUytm0jhBDi7ebOnUtjYyNaawzDoKmpiXw+j2EY9Ca2bdPW1kYulyMVhiF1dXVEUcT2FoYh2WyWhoYG4jhGKUU+n6dcLmPbNkIIIcTOMiDZhB6QzWYJw5AkSRBCCCH6Iq01rusSBAEpy7JoampCKUVvVygUcF2XlFKKpqYmLMvig9Ja4/s+QRCgtSZlWRbFYhHDMBBCCPF2Wmtc1yUIAlKWZVEsFjEMg96uVCrR0NBASilFU1MTlmXxQWmt8X2fIAjQWpOyLItisYhhGAghhBA720CEEEII8TZxHNPQ0EAQBKRyuRxNTU0opegLcrkcLS0tKKXQWpPNZikUCnwQQRAwYsQICoUCWmtM06SpqYlyuYxhGAghhHi7OI5paGggCAJSuVyOpqYmDMOgL7Btm5aWFpRSaK3JZrMUCgU+iFKpRF1dHYVCAa01pmnS1NREuVzGMAyEEEKI3mAgQgghhNiC1pqGhgbCMEQpRT6fJ5/Po5SiLzFNk7a2NkzTJOW6LqVSiW0VhiF1dXU0NjaitUYpRT6fp1wuY9s2Qgghtk5rTWNjI2EYopQin8+Tz+dRStGXmKZJW1sbpmmScl2XIAjYVmEYks1maWhoII5jlFLk83nK5TK2bSOEEEL0JgOSTegB2WyWMAxJkgQhhBCiL2loaKBUKqGUolgsYts2fV02myUMQ1ItLS2Ypsl70Vrj+z5BEKC1JmVZFsViEcMwEEII8e4aGxsJggClFMViEdu26euy2SxhGJJqaWnBNE3ei9Ya3/cJggCtNSnLsigWixiGgRBCCNEbDUQIIYQQbygUCpRKJVKe52HbNv1BU1MThmGQymazaK15N0EQMGLECAqFAlprTNOkqamJcrmMYRgIIYR4d4VCgSAISHmeh23b9AdNTU2Ypkkqm80SxzHvplQqUVdXR6FQQGuNaZo0NTVRLpcxDAMhhBCitxqIEEIIIV5TKBRwXZdULpcjl8vRXyilKJfLpLTWZLNZtiYMQ+rq6mhsbERrjVKKfD5PuVzGtm2EEEK8tyAIcF2XVC6XI5fL0V8opWhqaiKltaahoYGtCcOQbDZLQ0MDcRyjlCKfz1Mul7FtGyGEEKK3G5BsQg/IZrOEYUiSJAghhBC9XRRFZLNZtNZYlkVTUxNKKfqbMAzJZrOkbNumqamJlNYa3/cJggCtNSnLsigWixiGgRBCiO6JoohsNovWGtM0KZfLKKXob8IwJJvNkrIsi3K5TEprje/7BEGA1pqUZVkUi0UMw0AIIYToKwYkm9ADstksYRiSJAlCCCFEb6a1JpvNEkURhmHQ0tKCUor+qlAo4LouqaamJrTWuK6L1pqUaZp4nodt2wghhOg+rTXZbJYoijAMg5aWFpRS9FdBENDY2EiqWCyilMJ1XeI4JmWaJp7nYds2QgghRF9TQy/T2NhIEAQIsatJkgQhxM5RKBSIogilFE1NTSil6M9yuRzLly+nVCrR2NiIZVlorVFK4XkejuOglEIIIcS2KRQKRFGEUopisYhSiv7McRyam5splUq4rotlWcRxjFIKz/NwHAelFEIIIURfNCDZhB6QzWYJw5AkSRBCCCF6K601I0aMQGuN53nMnTuXXYHWmtraWlKzZ8+mtbWVYrGIYRgIIYTYdlprRowYgdaaXC5HPp9nV6C1pra2ltSFF17II488QrFYxDAMhBBCiL5sIEIIIcQurFAooLVGKUUul2NXoZTC8zxSixYtolgsYhgGQggh3p9CoYDWGqUUnuexq1BK4XkeqauvvppisYhhGAghhBB93UCEEEKIXVQcxyxYsIDU7NmzUUqxK8nlchiGgdYa3/cRQgjx/sRxzIIFC0jNnj0bpRS7klwuh2EYaK3xfR8hhBCiPxiIEEIIsYvyfR+tNYZhkMvl2NUopfA8j1QQBMRxjBBCiG3n+z5aawzDIJfLsatRSuF5HqkgCIjjGCGEEKKvG4gQQgixCwrDkCAISHmeh1KKXZHjOBiGQcr3fYQQQmybKIoIgoDU7NmzUUqxK3IcB8MwSPm+jxBCCNHXDUQIIYTYBYVhSMo0TRzHYVfmeR6pIAjQWiOEEKL7SqUSKcMwcByHXZnneaSCICCOY4QQQoi+bCBCCCHELmjRokWk6uvr2dXZtk2XUqmEEEKI7lu0aBGpGTNmoJRiV2bbNl3CMEQIIYToywYihBBC7GKiKCKOY1K2bbOrU0ph2zap5uZmhBBCdE8URcRxTMqyLHZ1SikcxyHV3NyMEEII0ZcNRAghhNjFlEolUqZpYpomAurr60mFYYgQQojuCcOQlGEYWJaFgClTppAKwxAhhBCiLxuIEEK8H9UKG3/7Ap1sRecLbKxUEaK3Wr58OSnLsuhJ1cpGNlaqvKNqhUonvYJt26S01oRhiBBCiPfW3NxMyrZtelK1spGNlSrvqFqh0kmvYNs2Ka01QRAghBBC9FUDEUKIbdH5S4rTD2fctLPxvzuTwz82kob8w1TYpOPnzG8Yx+GnX4J/4SkcPq6B/MMVhOhNoigiDENSU6ZMoUdUV3F1wzgsxyd39DCGnnYNqypsqbKEWaP2Ze+PHsplT7zMzqaUwjAMUosWLUIIIcS701oThiGpKVOm0COqq7i6YRyW45M7ehhDT7uGVRW2VFnCrFH7svdHD+WyJ15mZ1NKYVkWqeXLlyOEEEL0VTW8T1prGhoa0FqzNWvXriVVV1fHO2lqasIwDIQQfURHMzP/8VoOuftBnhoziFT1jDl88h+n8aXBt3PYVXMZcNUTrDwYVl19ItNuuJvzzpzI1F9dwniE6B3CMCSllMK2bba/DprP/jq/u/AJVh6WgeZXGWB/nTnHTuPexqG8YeVdFDdWgccp/vQZLpkwgZ1txowZ+L5PqVSiWCwihBDinQVBQEophWVZbH8dNJ/9dX534ROsPCwDza8ywP46c46dxr2NQ3nDyrsobqwCj1P86TNcMmECO1t9fT1hGFIqlSgWiwghhBB90UDeJ6UUM2bMIIoiWltbaW1tpbW1ldbWVlpbW3nllVdItba20traSmtrK62trURRRBRFmKaJYRgIIfqKDu68YD5Db7iTr40ZRJfMkUdgUaFp5me5o/5qLjg4Ayzlh7PvYWMVGPQR/h4heo/W1lZSlmXREyrNF/DdoT9g7mEZUu3PbQCqrH22gy1Mu4zbpg+mN7Ftm5TWGq01Qggh3llraysp0zRRSrG9VZov4LtDf8DcwzKk2p/bAFRZ+2wHW5h2GbdNH0xvYts2Ka01cRwjhBBC9EUD+QAcx8EwDJIkIUkSkiQhSRKSJKFLkiQkSUKSJCRJwsCBA9lzzz3xPA8hRN9RXXYZ397D56LDMmyh/Tk2sEl1EmedPpbNjuLr13yZE044j8U3f43RbKlzzc+YP/1wPmWajDMMDONw6r3beapSRYieprUmZRgG2187ty/YwFkzJ7BZO0tuKwMZPnHAELY0hPoFP6QhA8P3G8Kbda65Ha/+cMYdeiiHHnoo4w6vx7t9DZ30LMMw6BJFEUIIId6Z1pqUaZpsf+3cvmADZ82cwGbtLLmtDGT4xAFD2NIQ6hf8kIYMDN9vCH/TyZqfzWf6kSZHHHscx009lHHjjuIrC5cSd9KjlFJ0ieMYIYQQoi8ayAdULBbZFn/9619xXRfDMBBC9B2P3BNy/Bc+Q4a3ePIxfsEmBx7Fp4fyugwHn3E1zc0/4MRPZnizjuaZjP7M9Qy+5EGeiSKeilcT/uhQnp53KhNHHMv8X3YixLvRWjNgwADmzp3L+xFFEanx48ez3b28gvJu05k2lM3W382NZSBzCrNOH8rb1B7EYWOGcfjBQ+nS0TyT0eYZLDniap547DEee+wxHinaPHmOyeiZzXTQc5RSKKVIRVGEEEL0dwMGDMB1Xd6PKIpIjR8/nu3u5RWUd5vOtKFstv5ubiwDmVOYdfpQ3qb2IA4bM4zDDx7KZh00zzyIU+4/iH9dGrHivnu5d9ljLL1sf5rO+QzjDppFcwc9RimFYRikoihCCCGE6IsG8gFZloVt23THwIEDGT58OLlcDiFE3zL5B6v43pG8zaroYarAR489gvG8h8qtzDr1cb5+3100jhnEZoMwPvdD7rx0PNWXlvMvJ5zPkgpCvCff96mtraVQKNBdWmviOCZlGAbb3R6nceu9jQxls9WLr2UFkDnlRI7LsBV/4c9M4pCxbFZp5oLGn7Bx0gLumnMwGTYbNKaRq+ZZbPzJPzP7zgo9yTRNUlprhBBiV1AoFBgwYACu67It4jgmpZRiu9vjNG69t5GhbLZ68bWsADKnnMhxGbbiL/yZSRwyls2euIpv/KSN9bdew/0becOQ+q9x1jDobCty0XVP0JMMwyCltUYIIYToiwayHRSLRbrjr3/9K77vo5RCCNEftLPywdVAhsmfHs97qS4r0VRdy/dPPZclFbYw9guzyALVjTdyw7IKQnSH1hrXdRkwYACu6xJFEe9Ga00XwzDoWau55+ZWIMMXT6snw1a0r+TBvafy6T14zfqbv8eNFRh/3JEMY0tDJh3LRDopLbyd9fQcpRSpZ599FiGE2JUUCgUGDBiA67qEYci7ieOYLoZh0LNWc8/NrUCGL55WT4ataF/Jg3tP5dN7sFnny/wv0PnCClZv4E32YK+92aTK+rYOepJhGKSeffZZhBBCiL5oINuBUopcLsd7sW0bx3HoOZ288Nvf8kInu4BOXvjtb3mhky10vvBbXuhEiB2j+ijlMptM4rgja3kvz7/4PNDJC6uX8+RGtjTs4wwl1cm63z6PENuqUChQV1dHNptl7ty5xHHMW2mt2WFW38PNrUDmi3x+GltVWb4ETpvGUFLtPHDnCiDDxHFjeZvRIzkQqP7iLsJ2eoxSipTWGiGE2BUVCgWy2Sx1dXXMnTuXOI55N0opetTqe7i5Fch8kc9PY6sqy5fAadMYyusmX87TTy5l6a/b+MFk/qb638S/5TVTJtXRk5RSpLTWCCGEEH1RDduJ53ncddddbNiwgb/+9a9szezZs+kxlYe57Mx5/Ono/Sid9yinP/pz5hyc4TWrf8wRnz6f2oVt/GzGvvR5lYe57Mx5/Ono/Sid9yinP/pz5hycgfbr+fwnv8T9Qz0eXzuXCQjRw1Ys5342GTWZCUN5m85KhZraWjJsNsy5gUeHPsyztRM4aRxban+ODWw2bN/92FZRFNHY2Ijo//7yl7/wbsIwJAxDfN/HsiymTJmCZVlYlsWbKaXoSe0/v5dWIDPtMxzO1qzn5uurTL9hKJv9htUR7626nF9oHL6eAAAgAElEQVQ8CWcOo0copUi9+OKL1NXVIYQQu6ooioiiCN/3sSyLKVOmYFkWlmWhtWZHaf/5vbQCmWmf4XC2Zj03X19l+g1D+ZsMteOmMpUtddzxY66vQGbiFVxx5r4IIYQQ4p3VsJ0opfB9n8bGRrYml8thWRY9o8oyz2Hj11q5cr8FlKpXcvO9a5lz8FhST9+/iF90foRzh+3Ljrb+unqmfreVbbL3mdzyy3/hcLamyjLPYePXWrlyvwWUqldy871rmXPwWPjYRI46KMP9j69nAzChWmHj/+7G/oMHsVknL2z8P/bcv5YMQnxwDy8tUQE++jmLCbxF9QEuOGYFX3psLhN4XWYohx5/Eofydh0PNlFmk8yp/PPxe/B+RFGEEG8WhiFhGNLc3IxlWXz605+mi1KKnlT5n+dJjZxwILVsxRM3sHDoLFqG8rqX0RW65f/+VAUy9KRXXnmFKIoQQggBYRgShiHNzc1YlsXRRx9NF6UUPanyP8+TGjnhQGrZiiduYOHQWbQM5R11vvBbnnkkz5dn3sc+x1/B4htdxtKz9tprL1Jaa4QQQoi+qIbtyHEcFixYQBRFdBkwYAB77rknnufRY17+Gdc8eBoX/DDD+oV300ot504cy2YVHgsfh8x0jjqCHW7kzGbimWw/L/+Max48jQt+mGH9wrtppZZzJ47lNZmDmTPvy/zbeUP5BJusvZbjx13I2sEHsM9H4A/6z/zDvCXc+ZVahNgmHQ/wDbuR2/7nWBYs+wknDmWT1Tx0TzupIyaM56067vgxj518OVfSDdVlXHbhfcBgvnTXVZy4B9vMMAzy+Tyi//vjH//IxRdfzLtRSmGaJvX19TiOg1KKVBRFdNFao5Sip7z43H+TGjNqJG/XwU2XPcBZ35lLhu4awrBhQHuVX6+PgdH0BK01qf33358ZM2YghBD9meu6vBulFKZpUl9fj+M4KKVIxXHMjvLic/9NasyokbxdBzdd9gBnfWcuGbZmNbect4DyK/DKugf59Z51/PPkT6J2o8e99NJLCCGEEH1ZDdtZsVikrq6OLkmSkMvlUErRY/Y4kVt/dSKwmvnXroBhF3P6VF63kvA+YNIRHJKh79vjRG791YnAauZfuwKGXczpU/mbV/9AzeSJjOV1R8whyB0KH96fukmHMKo2gxDbavWiC7ji4Y3APTwcw4lDobrsav597SCgk7+rqWELHc1ccl0dP7pvLO+tg+azTuNHLwzmmJ+UuW5aLe+HUopcLofo/7TWXHzxxWyNZVnU19fjOA5KKd5KKUUXrTVKKXpK3SSLzI+aWLXmGWACb9Zx5wVcdfAPWDaWbfARBu3JDjN48GByuRxCCNGfua7L1liWRX19PY7joJTirZRSdInjGNM06Sl1kywyP2pi1ZpngAm8WcedF3DVwT9g2VjewVi+cMU1fIHNOn95Odakz2H+8FSuKy/ii5/M0FO01qQMw0AIIYToiwaynZmmiW3bdBk+fDi5XI4dYvU93NwKw6Z/jsN43cMruL8K4487kmH0I6vv4eZWGDb9cxzG3zy84nFO+twRvGHkJE466SROOv5wRtVmEOL92HOvvSGzF1O8xZx/JFQ33MlZMzdw+Zq7OXcwhLc008ZmnWtuZ+bxt/CZ2+ZyWIb3UGXV/M9y6u27ceotj3DfmWMRYlsppXAch5aWFsrlMrlcDqUUW6OUoovWmp5U2zCXSydmWHflZdzaxus6WVOczlGladw19zAybIs21qzmNQeOHE1P0VqTUkohhBC7EqUUjuPQ0tJCuVwml8uhlGJnq22Yy6UTM6y78jJubeN1nawpTueo0jTumnsYGbpn0CHf4PIza6luvI2Z9d/nCXqO1hohhBCiL6uhBxSLRUqlEqlFixahlGJHqLSsoJUMXzriMLo8vfJ+2qnFnjiWnWF9cDLHzX2M/2Mb7P5Fbnjqu0zmnVVaVtBKhi8dcRhvqD7ADbdNouFfMrzh3kuo//LTNEz6A81Xt3L49/6dOUcOQYhtMcy5gfClczn/hq/y6cU1qOE2P155F0cOgdOe/C9Gn38Bx37qUthtN3av+wY3L7+VMYN4D1VWzT+Sf7h0N/710XW4B2cQYlsopZg9eza5XA6lFNtKa02PyhzMnDDCmH8h+azBN3dTDP7I7ky8+DoeuXEMg3irIQwbBrTzHgYx6MP0mCiKEEKIXYlSitmzZ+M4DoZh0B1KKbporelRmYOZE0YY8y8knzX45m6KwR/ZnYkXX8cjN45hEFtRrbCx48+o4YMZxJtlmHzUMXDVbVR/vYCbH7qECZPpEVprUkophBBCiL6ohh6glMLzPFpbW7Esix3l+Rf+GxjDpw7gdR384r7HITOdo45gpxjp3MEzDtvd8y/8NzCGTx3A66qsWjCXdRfcyNEZNtvvOOYtbsCa/EkyQP3ff559P/MF9vrVMr4yEiG6LzOUKXOaeGwObzfkSM6+cSVnsy2qrLr6BD7z/WEET97FaSN4w0PfHse/H/gAN5++L0K8E8/zcBwHwzDYFkopDMMgjmOiKMKyLHrUoDGc4jdzik83jObAOqAd2p9rB4axheqf+T9SR3DoQfS4KVOmIIQQ/V0ul2P27NkYhsG2Mk2TKIqIogjLsuhRg8Zwit/MKT7dsJr8kRM473HY/6t38eRV06jlbzI1u7HZ//LSK/SYOI5JjR8/HiGEEKIvGkgPyeVy5PN5dqTRx5zMeNawoqUD6OSXl3+WWfcBxx7D5Az9yuj6mWQzrdz9wDNUqbLhPy/gnGfmcMNXRrJZlQ1r2/nQx/Yjw2a1Bx3GmGqZ2x5oR4idp8pvbvoC0/LjuPXpuzhtBG+ymod/GrPXPvsixDtRSjF37lwMw+D9MAyD1LPPPkvvUsvxJ58AVGlZ3cbbtPySX7BJ9vMcvS89Io5j4jgmZZomQgjR3+XzeQzD4P0wDIPU8uXL6V2eZfWTVaDKi+0v8Cpban9uA5sdxNhR9Ig4jonjmJRhGAghhBB9UQ09RCmFUoodauwcVvz6/7Hwmks5e+U+TDxoLIrH+fgRddTSz4z8Cv+59hBuvvb7nHf2h9hnosPNCw9lCF3WcvNZn+XSg0r87sZ69mCTl1/i92Q4+OMfQ4ido8qGO8/iiOmP8/9m7MOtF36ZW+nyCut+8SCPrB7Pv30CIXqMaZqEYUgcx/Q2tSfP5tzz7uZHNy5m2eWTmZrhdVWW3Xwt7QzmvLlfYRg9I4oiuiilEEII8c4MwyAVhiG9y1Gc/uXB3N5xJetuO4nBvNl67r6xTGrwVy9j5mh6RBRFdDEMAyGEEKIvqqG/6Pg5C+fdRc0p32bOFZ8FqjzwtX3pyGTxTxpLf5QZeiiN/qH8//bgNrjN8z7w9e8GQJAASODhiyhSbwRp03Il2QIkVWni1gJVpc14kwi03WmS2RwB7qbT6dlW5Oxuz0dZH3bPzOnskprMbjvNC1G7Wbd76hAaH9tJY5uQ7ThSZJmwa0s2bYmQWIlvIvGABAGCIHAfP+3Qy6iURFtWYkn/64qykq38mwO/w/Hqzdj4UOGfePp/fIfpL/zf/McvVSLEr0L6uf+THY8+ySRw7K+/wzFW4HmEe9oQ4qbZs2cPvb29xONxUqkUfr+fz4zKvfz5C3/Je/sO8n88spmnn/x3fM6d4+3/+Qd87dvwO98b4L8+yE1z7NgxLIFAAMMwEEIIcXV79uyht7cX0zRJpVL4/X4+GyrZ++cv8OePPMoDnW/zn//sm+zbcRfu3Nsc/U+P8h9+Wsn634/xyl/8DjXcHMlkEksgEMDv9yOEEELcipT+ELeBd/6fANv+r3f5ne+9z48f20jhrf/C57b/Fzz/7TVe6r6fSu5Ec7z7//13+o7NUcVl2BLhW9/4dTZUIsSvRCF9kfHZEtfkqmfTGg9C3CymaVJbW4ulr6+PSCTCZ85cip/9rz76fjbKP2v+PN/61jf49Q2V3Eytra2kUikOHTrE448/jhBCiGurra3FNE16enro6uris6VA+u2f8tT/+7ckR/kXzQG+9vUD7L3Xw83U2tpKKpXi0KFDPP744wghhBC3IqU/xG0g/dy/49f/63b+tm8/9re+zb9/7Gna/tuP+e6/bacSIYQQ4n+LRqPEYjHC4TD9/f0ISCaTBINBLMPDw/j9foQQQlxbNBolFosRDofp7+9HQDKZJBgMYhkcHCQQCCCEEELcimzcJmof+i5vfm8X4z//OWfd3yA+fI4n/207lQghhBC/aM+ePVgSiQTiX8TjcSyBQAC/348QQojr279/P5ZEIoFpmgiIx+NYAoEAgUAAIYQQ4lZl4zbi8X+ef/Poozy6N8gaD0IIIcSKwuEwFtM0icViCPjrv/5rLKFQCCGEEKsTCoWwmKZJPB5HwLFjx7CEQiGEEEKIW5kNIYQQ4g5jGAahUAjLsWPHuNMlk0lSqRSW/fv3I4QQYnUMwyAcDmM5duwYd7pkMkkikcCyZ88ehBBCiFuZDSGEEOIOdODAASzxeJxUKsWdLB6PYzEMg1AohBBCiNXbv38/lng8TiqV4k4Wj8exGIZBOBxGCCGEuJXZEEIIIe5A4XAYv9+PaZocPnyYO1UqleLIkSNYDh48iBBCiI8nHA7j9/sxTZPDhw9zp0qlUhw5cgTLwYMHEUIIIW51Sn8IIYQQ4g4Ui8WIRqNYhoeH8fv93Gmi0SixWAy/38/g4CCGYSCEEOLjicViRKNRLMPDw/j9fu400WiUWCyG3+9ncHAQwzAQQgghbmU2hBBCiDtUJBLB7/dj6e7u5k6TSCSIxWJYDh06hGEYCCGE+PgikQh+vx9Ld3c3d5pEIkEsFsNy8OBBDMNACCGEuNUp/SGEEEKIO1QsFiMajWIZHBwkEAhwp+jo6CCRSBAKhRgYGEAIIcQnF4/H6ezsxDI4OEggEOBO0dHRQSKRwO/3Mzg4iGEYCCGEELc6pT/EdZimiRDi5jIMAyHEr0YwGCSZTBIIBBgcHOROEI/H6ezsxDIwMEAoFEIIIcSNCQaDJJNJAoEAg4OD3Ani8TidnZ1Y+vr6iEQiCCGEELcDpT/EdXR2dhKPxxFC3Dxaa4QQvxqJRIKOjg4sfX19RCIRbmemaRIMBkmlUoTDYfr7+xFCCHHjkskkwWAQS19fH5FIhNuZaZp0dHSQTCYJhUIMDAwghBBC3C4crILf78fv9yOEEELcjkKhEOFwmHg8TjQaxe/3EwqFuB2Zpkk0GiWVSmEYBgcPHkQIIcSnIxAIEA6HicfjRKNRDMMgHA5zOzJNk2g0SjKZxDAMDh06hBBCCHE7UfpDCCGEEIJgMEgymcQwDAYGBggEAtxuotEosVgMS39/P+FwGCGEEJ+uYDBIMpnEMAwGBgYIBALcbrq7u+nt7cXS19dHJBJBCCGEuJ0o/SGEEEIIgWmatLa2Ypomfr+f4eFhbie9vb10d3dj6erqoqenByGEEJ8+0zQJBoOkUikMw2B4eBjDMLhd9Pb20t3djaWrq4uenh6EEEKI240NIYQQQvwzwzAYGBjAkkql6Ojo4HYRi8U4fPgwlq6uLnp6ehBCCHFzGIZBf38/FtM06ezs5HaRSCQ4fPgwlkgkQk9PD0IIIcTtSOkPIYQQQoiPxONxOjs7sYRCIQYGBriVJRIJOjs7MU2TQCDAwMAAhmEghBDi5kokEnR0dGAJhUIMDAxwK0skEnR2dmKaJoFAgIGBAQzDQAghhLgd2RBCCCHELwiHw3R1dWFJJBIEg0FM0+RW1NvbS2dnJ6Zp4vf76e/vxzAMhBBC3HyhUIhDhw5hSSQSBINBUqkUt6Le3l46OzsxTRPDMOjv78cwDIQQQojblQ0hhBBC/Cs9PT0cOnQISzKZpLW1lWQyya3CNE2i0Sjd3d2YpkkgEGBgYAC/348QQohfnscff5yenh4syWSSYDBIMpnkVmGaJt3d3XR3d2OaJoFAgMHBQfx+P0IIIcTtTOkPIYQQQogVJRIJOjo6WNLf3084HOazzDRNotEo8XgcSzgcpq+vD8MwEEII8auRSCTo6OhgSU9PD11dXXyWmaZJNBolHo9jCYVC9Pf3YxgGQgghxO3OhhBCCCGuKhQKMTg4iN/vx9LZ2Ul3dzefVYlEgmAwSDwex3Lo0CH6+/sxDAMhhBC/OqFQiMHBQQKBAJbu7m66u7v5rEokEgSDQeLxOJauri76+/sxDAMhhBDiTqD0hxBCCCHENZmmSWdnJ4lEAothGPT09BCJRPgsSCQSHDlyhHg8jsUwDHp6eohEIgghhPjsME2Tzs5OEokES3p6eujq6uKzIJFIcOTIEeLxOBbDMOjp6SESiSCEAK01SimuRWuNUgqtNUuUUmitUUqxRGvNlZRSXI/WGqUUV6O1RinFjdJao5TiWrTWKKW4Gq01SiluBVprliilEP9Ca80SpRSrobXGopRiJVprlFJcjdYapRSfhNYai1KKG6X0hxBCCCHEqvT29tLd3c2SQCDAwYMHiUQi/CqkUimOHDlCLBbDNE0soVCInp4eAoEAQgghPpt6e3vp7u5mid/v59ChQ0QiEX4VTNPk8OHDxGIxTNPEEgqF6OnpIRAIIMSdTGtNqVRieHiYkZERnE4n69evx+l0YhgGHo+H5bTWTE9PMzQ0RDqdxjAM1q9fT0VFBWvWrKGiooIl+XyekZER5ufnsSilqK6uxu12U1FRgc/nw263s0RrTT6fZ3p6mpGREXbu3InT6eRKqVSKDz74gH379rFaWmsmJiY4c+YM4+Pj2O121q9fT0tLC1VVVdTW1qKUYonWmnw+z/T0NCMjI+zcuROn08mVUqkUH3zwAfv27eOzTGtNNpvl5ZdfZufOnTQ1NXEn01pjGR0d5ezZsywsLNDc3IzP58Nut9PU1MRKtNZks1nS6TRDQ0Ps27eP5bTW5PN5pqenGRkZYefOnTidTq6USqX44IMP2LdvHx9HoVBgcnKSY8eO8cgjj1BVVcUnZUMIIYQQq9bV1UU6nSYSiWBJJpNEo1GCwSDxeJxfFtM06e7uJhgM0tvbi2maBAIB+vv7GRgYIBAIIIQQ4rOrq6uLdDpNJBLBkkqliEajBINBYrEYvyymadLd3U1rayu9vb2YpkkgEKCnp4eBgQECgQBC3Km01ljm5+fp6+vjqaee4vLly8zPz/Pee+8xOzvLO++8g2maWLTWaK155513+Pa3v82bb76Jy+WiVCpx+vRpZmZmOHnyJPl8niWlUomTJ0/y8ssv89Zbb/Hmm2/yyiuv8NJLLzE6OsrQ0BCTk5Mst7i4yLlz5/D5fJw4cYKVZLNZLl26xGrlcjmeeOIJvve975HL5bjvvvsIBoM4nU5OnTrF2bNnGRoaIpPJsNzi4iLnzp3D5/Nx4sQJVpLNZrl06RKfdUop3n77bV5//XVyuRx3unK5zLPPPstf/dVfcfbsWUqlEufOnePChQtkMhlOnjzJlbTWWM6fP08+n+fSpUvMz89zpcXFRc6dO4fP5+PEiROsJJvNcunSJT4OrTUW0zR5//33cTqd3AgHQgghhPhYDMOgr6+PgwcPcuTIEWKxGMlkks7OTiyRSIT9+/cTDof5NCWTSeLxOEePHiWZTLLEMAwOHTpEJBLBMAyEEELcGgzDoK+vj4MHD3LkyBFisRjJZJJoNEo0GiUSibBnzx4ikQifpmQySTwe5+jRo6RSKUzTxGIYBocOHSISiWAYBkLc6ZRSlEolXnjhBSYnJ3nsscfYsGEDSyYmJrDZbLz00ks8/PDDKKXI5/McO3aM+++/n87OTpRSLBkdHeWDDz7g+eef5+GHH2a53bt3s3v3bpZorUmlUiwuLvLmm2/ywAMP4HK5WDI4OMj+/fsZGxsjnU5TW1vLJ5XJZPjLv/xL1q5dy5/+6Z/i8XiwKKXQWrNz507Gx8e5fPkyb775Jjt37sTj8bBkcHCQ/fv3MzY2Rjqdpra2luvRWmNRSqG1xqKUYjW01liUUizRWqOU4mq01iiluJ7du3ezc+dOHA4HS7TWKKVYorXGopTiarTWKKX4tGitUUqxRGuNRSnFSrTWWJRSaK2xKKVYLa01yWSS119/nUcffZRt27axpFAoMD4+zsWLF0mlUvj9fpYrl8v85Cc/4ZFHHmH9+vUMDQ1x//33c6XBwUH279/P2NgY6XSa2tpaVkNrjVKKlSilsNlsFAoFqqqqsNls3AgbQgghhPhEAoEAfX19DA4OEgqFWBKLxejs7EQpRWdnJ7FYjFQqxcdlmiaJRILHH3+cYDBIMBjk8OHDJJNJLIZh0NPTw/DwMF1dXRiGgRBCiFtPIBCgr6+PwcFBwuEwS2KxGNFoFKUUnZ2d9Pb2kkql+LhM0ySRSPD4448TDAYJBoMcPnyYZDKJaZoYhkFPTw/Dw8N0dXVhGAZCiH9hmibvvPMOv/Vbv8WGDRtYrrGxkcXFRS5dusTFixex5PN5Ghsb2blzJ0oplmtubqaqqoqqqiq01lyLUorW1lbq6upYt24dAwMDLJfP5/F6vWzcuJETJ07wSWitKRaL9PX1sX79er75zW/i8XjQWjM5OcnExATZbJZyuYzH4+Guu+5i/fr1vPDCCyyXz+fxer1s3LiREydOcD1aa5RSlMtlTNPENE1mZmYoFousVrlcZnp6Gku5XCabzWKaJjMzM6xEKcXi4iLpdJrJyUkymQyzs7Msp7XGks1mKZfLLFlcXGRmZgZLqVRiZmaGTCbD7OwsK9FaMz8/z9TUFJlMhpmZGcrlMjdicXGRmZkZLKVSiZmZGTKZDLOzs1xJa41SinK5jGmamKbJzMwMxWKR1crn8/z0pz9lx44dbNu2jeUqKyupr6/n1KlT/OxnP2M5pRSTk5Nks1nWrFlDc3Mz7777LivJ5/N4vV42btzIiRMnWA2tNfPz80xNTZHJZJiZmaFcLrOc3W6nUCjgcrm4UQ6EEEIIcUMCgQADAwOYpkksFuPo0aMkEgks8XiceDzOEr/fTyAQwDAMDMPA5/NhyWQyWEzTJJlMkkqlME2TK/n9fsLhMAcOHMDv92MYBkIIIW4PgUCA/v5+TNMkFotx9OhREokElng8Tjwep7u7G4vf7ycQCGAYBoZh4PP5sGQyGSymaZJMJjFNk1QqxZUMwyASiXDgwAH8fj+GYSCE+NfGx8eZn58nGAyykvr6epqamiiXy1iUUtx///0Ui0VWsm/fPj6O+vp6stks//RP/8TCwgIVFRUscTqd1NTUUFdXx/DwMK2trayW1hqlFG+++SaLi4s8+uij2O128vk83/3udykUCmzdupW7776b2dlZXn75Zbq6umhsbGR0dJRcLofL5WKJ0+mkpqaGuro6hoeHaW1t5WqUUoyOjvLEE09QLBZpbGxkx44duN1uDMNg3bp1XE8mk2FoaIh77rmHvr4+FhcX+dznPkdzczOnT5/mN37jN7BorbG8/fbbHD16lIqKCnw+H2vWrGHbtm1cvHiRPXv2YLfbsWSzWZ544gm+9rWv0dTUhGVsbIxMJkNtbS1PPvkkSil2795Nc3MzhUKB7du3s6RUKvHcc89x6tQpvF4vPp+PXbt2US6XaW1txTAMPomxsTEymQy1tbU8+eSTKKXYvXs3zc3NFAoFtm/fzhKlFKOjozzxxBMUi0UaGxvZsWMHbrcbwzBYt24d16K1Znp6mnQ6zSOPPMJKPB4PDz/8MGvWrOFKp0+fprW1FZfLRXV1NblcjoWFBZxOJ1dyOp3U1NRQV1fH8PAwra2tXE2pVOK5557j1KlTeL1efD4fu3btolwu09raimEYWJRSFItF3G43N8qBEEIIIT4VhmHQ1dVFV1cXllgsxrFjx4jFYixJpVKkUik+jlAoxJ49ewiHwwQCAYQQQtzeDMOgq6uLrq4uLPF4nKNHjxKLxViSSqVIpVJ8HIFAgP379xMOhwkEAgghrq1cLjM9PY1hGFRXV7OStWvX8uijj7KksrKSQqFAZWUlY2NjeL1eqqqqsNlsaK1RSvFxeTweKisruXjxIn6/n+UaGhrI5XKcPn2alpYWbDYbq1Uulzl+/Dif//znqaqqolwu89RTT+Hz+fjGN76B3W5ndnaWH/3oR2zZsgVLdXU15XKZ8fFx/H4/yzU0NJDL5Th9+jQtLS3YbDaupLVmbm6O73//+9x777189atfpaKignQ6TTqd5tSpU9TW1uJyubgWpRQXL17krbfeYu/evWzfvp18Ps/ly5cpl8u88847bN26FaUUIyMjPP300+zbt48HHngApRSWqakphoeHeeuttwgGg1xNRUUFQ0NDjIyM8PDDD9Pe3s7CwgKXL1/mtddeo62tjZqaGixjY2MMDg4SjUZpaWnBMj4+zvPPP8/g4CCPPfYYn0RFRQVDQ0OMjIzw8MMP097ezsLCApcvX+a1116jra2NmpoatNbMzc3x/e9/n3vvvZevfvWrVFRUkE6nSafTnDp1itraWlwuF1ejlGJ6ehqHw0FzczNXc9ddd7Gc1ppyuczrr7/Ovn37sFRXV7N+/Xref/99tm7dykoaGhrI5XKcPn2alpYWbDYbKxkbG2NwcJBoNEpLSwuW8fFxnn/+eQYHB3nsscewKKXQWuNyubhRDoQQQghxU0QiESKRCH19faRSKZLJJMlkkvPnz2NJpVJYTNPEMAwMw8AwDAzDoKWlhVAohN/vxzAMhBBC3LnC4TDhcJi+vj5SqRTJZJJkMsn58+expFIpLKZpYhgGhmFgGAaGYdDS0kIoFMLv92MYBkKI1SuVSpTLZbxeL6vldruprq7mZz/7GdXV1axdu5a6ujpcLhculwuXy4XH4+HjcDqd2Gw2MpkMV3I4HHi9XjZt2sQbb7zBrl27WA2lFPPz86TTae655x4sU1NTXLhwgT/5kz/B4XBgsdlsTE1NsWXLFpbMzc1hs9m4ksPhwOv1smnTJt544w127drFclprlFKcOXMGu93OV77yFSoqKoLTtGoAAA9ESURBVLDU1tZSUVHB6OgoJ0+e5MEHH+R6UqkUu3btIhgMYvF4PDidThYWFnj11VfZunUrFq01HR0d/OZv/iYWrTWWuro6vF4vqVSKYDDItbz33nvs3buXe+65B4vT6aSurg6n08nIyAhbtmxBa025XGbPnj20tLSwZO3atXzxi1+kWCxyI9577z327t3LPffcg8XpdFJXV4fT6WRkZIRf+7VfQynFmTNnsNvtfOUrX6GiogJLbW0tFRUVjI6OcvLkSR588EFWorXGUigUqKmpwWazsURrzZWUUiw3NTXF/Pw89957LxaPx8O6det499132bp1KytxOBx4vV42bdrEG2+8wa5du7iS1ppyucyePXtoaWlhydq1a/niF79IsVhkidYarTVut5sb5UAIIYQQN53f78fv9xMOhxFCCCE+Kb/fj9/vJxwOI4S4ubTWVFZWYrfb+Tja2tpoaWnh3LlznD17ltOnT+P1etm2bRtKKRYXF9m6dSurobVGKcX8/DzlcpmVNDQ0kMvlOHPmDPl8HpfLxWqUSiVcLhc+nw9LNpulvr6e+vp6LFprJiYmMAyDDRs2YMlms+TzedauXctKGhoayOVynDlzhnw+j8vlYolSilKpxOjoKK2trTidTpbzeDx4vV5OnDjBgw8+yPWUy2W2bdvGchUVFbhcLqanpykUClRWVrJx40Y2btyI1prFxUUKhQKlUgmbzYbD4WBubo5r0VpTKBTYtm0by9ntdpRS5HI5LEopCoUCTU1NjI6O4vP5qKysxG63s27dOpRSfFJaawqFAtu2bWM5u92OUopcLodSilKpxOjoKK2trTidTpbzeDx4vV5OnDjBgw8+yEqUUpTLZZxOJ3a7neVmZmZ45ZVXsLS0tOByufjhD3/In/3Zn7Hk0qVL7NixA7fbjcXpdOLxeJidnWVxcRGHw8FKGhoayOVynDlzhnw+j8vlYjmlFIVCgaamJkZHR/H5fFRWVmK321m3bh1KKZZTSuF2u7lRDoQQQgghhBBCCCHEL7Db7Xi9Xubn57kWrTVKKZaz2+20t7fT3t6OJZvNcv78eSoqKnjnnXdYu3YtDQ0NXI9SimKxyPT0NB6Ph6upra3F7/dz/PhxOjo6uB6tNUop1q9fTzabpa6uDpfLRWtrK8uNjo5y3333YdFa8w//8A/cd999VFVVobVmJbW1tfj9fo4fP05HRwfLLS4uYrfb8fl8XEkphc1mwzRNVstut7Oc1hqHw0G5XGZ2dhan04lldHSUH/3oR1y4cAGHw4Hb7aajo4NCoUC5XOZatNY4HA48Hg8rKZfLLGlqauKZZ56hXC5TX19PY2MjtbW1VFRU4PV68Xq9fBJaaxwOBx6Ph5WUy2Usi4uL2O12fD4fV1JKYbPZME2Ta1FK4XK50FqznN1ux+12Y/H5fBSLRXK5HEu01ng8Hnbu3Ek2m2WJ0+mkqamJs2fPsnnzZq6mtrYWv9/P8ePH6ejo4EpNTU0888wzlMtl6uvraWxspLa2loqKCrxeL16vF4tSCqUUbrebG+VACCGEEEIIIYQQQvwCu91OVVUVbrebYrFIRUUFy2mtKZVKDA4O0traSn19PUoptNYopViuurqarVu3MjU1hc1m47333qOhoYFr0VqjlGJ0dJR8Ps+6deu4murqampqanA4HGSzWa5HKYXT6WTr1q2cPXuWuro6yuUyGzZsYHx8HI/Hwz/+4z/i9XrZtGkTs7OzvPLKK5w/f54//MM/5Fqqq6upqanB4XCQzWZZorXGUlNTw8zMDMtprVFKkc1mcTgcrEZFRQUr0VqTz+dxOBxY0uk03/nOd2hvb+eP/uiPWLt2LUoptNa88cYbrIbNZmM1qqur+frXv87ExASpVIrz588zPj5OW1sbx48f56GHHsLtdvNJ2Gw2rkVrjaWmpoaZmRmW01qjlCKbzeJwOLgWpRSVlZWsWbOG2dlZampqsFRXV7N371601iilOH/+PMtNTU3xgx/8gCt9+ctfZv369Zw5c4bNmzdzNdXV1dTU1OBwOMhms1ypurqar3/960xMTJBKpTh//jzj4+O0tbVx/PhxHnroIdxuN5ZisYhhGNwoB0IIIYQQQgghhBDiF2itcbvdbNu2jTNnznD//feznFKKqakpnn32WQ4cOEBtbS0XLlzgwoUL7Nmzh5VUVlYyNTVFQ0MD16OUolAocOzYMfx+PzU1NWitWYlSioaGBnK5HJOTk6yGw+HA5/MxNTXF3Nwc69atY3h4mB/84AfYbDY6OjooFAo89dRTLC4ucvfdd/MHf/AHVFdXcy1KKRoaGsjlckxOTrJEKYXD4aCxsZGxsTGWU0pRLpcZGhqioaGB1bj77ruZn59nidYay9jYGDabjZqaGpRSXLp0CY/Hw+///u9jt9tZrlAo8GnRWqOUwtLY2EhjYyMWrTXT09MUCgXeffddduzYwc2glMLhcNDY2MjY2BjLKaUol8sMDQ3R0NDAtWitcbvdbNu2jTNnzrB7926WU0qhtWZhYQGL1hrL0NAQd911F9/85jdZTmvN8PAw6XSaUqmEzWZjJUopGhoayOVyTE5OspzWGqUUlsbGRhobG7ForZmenqZQKPDuu++yY8cOLC0tLXg8Hm6UAyGEEEIIIYQQQgjxC5RSVFdX4/F4KBQKzM/PU1VVhUVrzeLiIs8++ywNDQ34/X6UUmitaWpqYmJigjVr1qCUQmvNkgsXLjA6Ospv//Zvs6S5uZna2losWmssSimKxSI/+clPmJycJBqNcj1Op5OamhpM0ySTyXA9Sinq6+uZnp5mdHSU5uZmHnjgAR544AGWaK3ZuXMnSik+DqfTSU1NDaZpkslkWGK32/F4PLS1tTEzM4PX68WitWZiYoJz584RDodZjebmZiYmJli7di0WpRTFYpFXX32VtrY27HY7FrfbzdatW7HZbFi01iilmJycpFQq8WlZXFxkZGSE+fl5tmzZgtYapRRKKVwuFxcvXqS9vZ0l2WyWyclJGhsb8Xg8fBrsdjsej4e2tjZmZmbwer1YtNZMTExw7tw5wuEw16KUwuv1kk6ncbvdzMzM4PV60VqjlMIyOjpKuVzGopRCa83Jkyf5whe+wJWUUni9XtauXcvw8DB33XUXV+N0OqmpqcE0TTKZDEsWFxcZGRlhfn6eLVu2oLVGKYVSCpfLxcWLF2lvb0drjWXTpk1ks1lulA0hhBBCCCGEEEII8a94PB4shUKBS5cuYZomuVyO8fFx/uZv/oZLly6xf/9+lFJY1q1bx6VLlxgfH2d0dJSZmRlyuRzpdJpXXnmFv//7v6e9vZ277rqLJevXr8ftdjM9Pc309DTj4+O89dZbfOc73+HUqVM89NBDbNq0idVobGyksrKSUqnEalRXV7Nx40bef/99hoaGmJycJJ/PUy6X0VqzsLDA0NAQMzMzfFyNjY1UVlZSKpVYzu12Y7PZmJqaYm5ujmKxyMWLF3nyySfx+/3cd999rMZrr71GoVDg8uXLLCwsMDc3x7PPPks6nSYUCmHRWlMoFGhtbWV6eppSqcTi4iKDg4MMDQ1RW1tLuVzm01BRUYFpmpTLZSYmJigUChSLRTKZDM888wzFYpHNmzezZHR0lOeff57x8XE+TW63G5vNxtTUFHNzcxSLRS5evMiTTz6J3+/nvvvu43oqKytxOp3Mzs4yMTHB9PQ08/PzzMzM8Nprr/HDH/6QqqoqlpimiWmabN68mZW43W42bNjA6dOnuZ7GxkYqKysplUosqaiowDRNyuUyExMTFAoFisUimUyGZ555hmKxyObNm7EUi0XOnTvHX/zFX3CjHAghhBBCCCGEEEKIFd1zzz289957vPjii8zNzZHP5ykUCmzYsIFIJMKGDRtYUlVVxRe+8AUGBgZIJBKUy2UKhQK5XI6amhpCoRAPPPAASiksly5d4qmnnuJKHo+HTZs2sX//ftavX88SpRSpVIr5+XlWopTCZrPx0ksv0dbWxmo0NDSwb98+fv7zn/P000+Tz+fRWpPL5VhcXKSxsZHf/d3fxev1spxSilQqxfz8PCtRSmGz2XjppZdoa2tjSX19PZlMhhdffJHZ2Vmy2SyW7du386UvfQmbzcZqzM/P09zczAsvvMDo6Cizs7O43W5+7/d+j3Xr1mFRSnH33Xfz3HPP8eMf/5hCoUAul6OpqYnOzk6OHTtGNpvFopRieHgY0zRZ7vXXX+dKSimy2Szvv/8+7e3tLAkEAiQSCQYGBiiVSuRyORYWFtiwYQMHDhzA5/Nh0VozMzPD5OQkNpuN63n99de5klKKbDbL+++/T3t7O0vq6+vJZDK8+OKLzM7Oks1msWzfvp0vfelL2Gw2VsPv92Oz2RgYGCCdTlMsFpmbm8MwDPbu3YvdbmfJsWPHaGpqwufzsRK3282rr75KNpvly1/+MqlUivn5eVailMJms/HSSy/R1tbGkkAgQCKRYGBggFKpRC6XY2FhgQ0bNnDgwAF8Ph+WbDbL3/3d3+FwOLhRSn8IIYQQQgghhBBCCHFNmUyGfD5PTU0NHo+Ha9Fak06nKRQKuN1ufD4ft4K5uTmy2Sw2mw2v10tlZSU3g9aadDpNsViktrYWp9PJamitMU2T7373u3zrW9/CMAwymQwLCwvU19djs9lYST6fJ5PJUFVVhWEY3EzlchnTNCkWi3i9XlwuF8tprZmdneWJJ57gj//4j7HZbHzatNak02mKxSK1tbU4nU4+qbm5OWZnZ6mqqsLn86GUQmvN3Nwc1dXV/DKVy2VM06RYLOL1enG5XNwsDoQQQgghhBBCCCHEdfl8Pnw+H6uhlKKuro5bjcfjwePxcLMppairq+PT4PP5uB6Xy4XL5eKXwWazUVdXx9UopUgkEuzduxebzcbNoJSirq6OT4PH48Hj8bCcUorq6mp+2Ww2G3V1dfwy2BBCCCGEEEIIIYQQ4hZx8eJF5ufnuVWVy2V8Ph9btmxBfHYp/SGEEEIIIYQQQgghhLgFTE9PMzY2Rnt7OxUVFQhxMyj9IYQQQgghhBBCCCGEEEL8MxtCCCGEEEIIIYQQQgghPmJDCCGEEEIIIYQQQgghxEdsCCGEEEIIIYQQQgghhPiIDSGEEEIIIYQQQgghhBAfsSGEEEIIIYQQQgghhBDiIzaEEEIIIYQQQgghhBBCfMSGEEIIIYQQQgghhBBCiI/YEEIIIYQQQgghhBBCCPGR/x9nYMU3ipLO2AAAAABJRU5ErkJggg==;" parent="1" vertex="1">
          <mxGeometry x="2380" y="710" width="2177.16" height="584" as="geometry" />
        </mxCell>
        <mxCell id="EqWKjFn6qsOwukivwEJe-7" value="" style="rounded=0;whiteSpace=wrap;html=1;strokeColor=#FFFFFF;strokeWidth=0;" parent="1" vertex="1">
          <mxGeometry x="4120" y="1210" width="430" height="80" as="geometry" />
        </mxCell>
        <mxCell id="WQMchoXEDYEWIl_12VHQ-2" value="" style="rounded=0;whiteSpace=wrap;html=1;strokeColor=#FFFFFF;strokeWidth=0;rotation=-90;" parent="1" vertex="1">
          <mxGeometry x="2325" y="795" width="500" height="400" as="geometry" />
        </mxCell>
        <mxCell id="WQMchoXEDYEWIl_12VHQ-3" value="" style="endArrow=classic;html=1;rounded=0;strokeWidth=3;dashed=1;" parent="1" edge="1">
          <mxGeometry width="50" height="50" relative="1" as="geometry">
            <mxPoint x="4097" y="928" as="sourcePoint" />
            <mxPoint x="3878" y="797" as="targetPoint" />
          </mxGeometry>
        </mxCell>
        <mxCell id="WQMchoXEDYEWIl_12VHQ-4" value="&lt;span style=&quot;font-size: 32px;&quot;&gt;&lt;b&gt;$$y$$&lt;/b&gt;&lt;/span&gt;" style="text;html=1;strokeColor=none;fillColor=none;align=center;verticalAlign=middle;whiteSpace=wrap;rounded=0;" parent="1" vertex="1">
          <mxGeometry x="4315" y="921" width="235" height="68" as="geometry" />
        </mxCell>
        <mxCell id="WQMchoXEDYEWIl_12VHQ-5" value="&lt;span style=&quot;font-size: 32px;&quot;&gt;&lt;b&gt;$$\frac{\partial y}{\partial v_{4}}=\frac{\partial y}{\partial v_{5}}\frac{\partial v_{5}}{\partial v_{4}}$$&lt;/b&gt;&lt;/span&gt;" style="text;html=1;strokeColor=none;fillColor=none;align=center;verticalAlign=middle;whiteSpace=wrap;rounded=0;" parent="1" vertex="1">
          <mxGeometry x="3887" y="733" width="434" height="161" as="geometry" />
        </mxCell>
        <mxCell id="WQMchoXEDYEWIl_12VHQ-6" value="&lt;span style=&quot;font-size: 32px;&quot;&gt;&lt;b&gt;$$\frac{\partial y}{\partial v_{3}}=\frac{\partial y}{\partial v_{5}}&amp;nbsp; \frac{\partial v_{5}}{\partial v_{3}}$$&lt;/b&gt;&lt;/span&gt;" style="text;html=1;strokeColor=none;fillColor=none;align=center;verticalAlign=middle;whiteSpace=wrap;rounded=0;" parent="1" vertex="1">
          <mxGeometry x="3793" y="1069" width="587" height="250" as="geometry" />
        </mxCell>
        <mxCell id="WQMchoXEDYEWIl_12VHQ-7" value="" style="endArrow=classic;html=1;rounded=0;strokeWidth=3;dashed=1;" parent="1" edge="1">
          <mxGeometry width="50" height="50" relative="1" as="geometry">
            <mxPoint x="4095" y="1064" as="sourcePoint" />
            <mxPoint x="3867" y="1203" as="targetPoint" />
          </mxGeometry>
        </mxCell>
        <mxCell id="WQMchoXEDYEWIl_12VHQ-8" value="" style="endArrow=classic;html=1;rounded=0;strokeWidth=3;dashed=1;" parent="1" edge="1">
          <mxGeometry width="50" height="50" relative="1" as="geometry">
            <mxPoint x="3717" y="1236" as="sourcePoint" />
            <mxPoint x="3212" y="1233" as="targetPoint" />
          </mxGeometry>
        </mxCell>
        <mxCell id="WQMchoXEDYEWIl_12VHQ-9" value="&lt;span style=&quot;font-size: 32px;&quot;&gt;&lt;b&gt;$$\frac{\partial y}{\partial v_{0}}=\frac{\partial y}{\partial v_{3}}\frac{\partial v_{3}}{\partial v_{0}}$$&lt;/b&gt;&lt;/span&gt;" style="text;html=1;strokeColor=none;fillColor=none;align=center;verticalAlign=middle;whiteSpace=wrap;rounded=0;" parent="1" vertex="1">
          <mxGeometry x="3323" y="1284" width="235" height="68" as="geometry" />
        </mxCell>
        <mxCell id="WQMchoXEDYEWIl_12VHQ-10" value="&lt;span style=&quot;font-size: 32px;&quot;&gt;&lt;b&gt;$$\frac{\partial y}{\partial v_{1}}=\frac{\partial y}{\partial v_{4}}\frac{\partial v_{4}}{\partial v_{1}}$$&lt;/b&gt;&lt;/span&gt;" style="text;html=1;strokeColor=none;fillColor=none;align=center;verticalAlign=middle;whiteSpace=wrap;rounded=0;" parent="1" vertex="1">
          <mxGeometry x="3421" y="627" width="434" height="161" as="geometry" />
        </mxCell>
        <mxCell id="WQMchoXEDYEWIl_12VHQ-11" value="&lt;span style=&quot;font-size: 32px;&quot;&gt;&lt;b&gt;$$\frac{\partial y}{\partial v_{2}}=\frac{\partial y}{\partial v_{4}}\frac{\partial v_{4}}{\partial v_{2}}$$&lt;/b&gt;&lt;/span&gt;" style="text;html=1;strokeColor=none;fillColor=none;align=center;verticalAlign=middle;whiteSpace=wrap;rounded=0;" parent="1" vertex="1">
          <mxGeometry x="3523" y="896" width="434" height="161" as="geometry" />
        </mxCell>
        <mxCell id="WQMchoXEDYEWIl_12VHQ-12" value="&lt;span style=&quot;font-size: 32px;&quot;&gt;&lt;b&gt;$$\frac{\partial y}{\partial v_{-1}}=\frac{\partial y}{\partial v_{1}}\frac{\partial v_{1}}{\partial v_{-1}}$$&lt;/b&gt;&lt;/span&gt;" style="text;html=1;strokeColor=none;fillColor=none;align=center;verticalAlign=middle;whiteSpace=wrap;rounded=0;" parent="1" vertex="1">
          <mxGeometry x="3089" y="627" width="434" height="161" as="geometry" />
        </mxCell>
        <mxCell id="WQMchoXEDYEWIl_12VHQ-13" value="&lt;span style=&quot;font-size: 32px;&quot;&gt;&lt;b&gt;$$\frac{\partial y}{\partial v_{-1}}=\frac{\partial y}{\partial v_{2}}\frac{\partial v_{2}}{\partial v_{-1}}$$&lt;/b&gt;&lt;/span&gt;" style="text;html=1;strokeColor=none;fillColor=none;align=center;verticalAlign=middle;whiteSpace=wrap;rounded=0;" parent="1" vertex="1">
          <mxGeometry x="2911" y="851" width="434" height="161" as="geometry" />
        </mxCell>
        <mxCell id="WQMchoXEDYEWIl_12VHQ-14" value="&lt;span style=&quot;font-size: 32px;&quot;&gt;&lt;b&gt;$$\frac{\partial y}{\partial v_{0}}=\frac{\partial y}{\partial v_{2}}\frac{\partial v_{2}}{\partial v_{0}}$$&lt;/b&gt;&lt;/span&gt;" style="text;html=1;strokeColor=none;fillColor=none;align=center;verticalAlign=middle;whiteSpace=wrap;rounded=0;" parent="1" vertex="1">
          <mxGeometry x="2905" y="989" width="434" height="161" as="geometry" />
        </mxCell>
        <mxCell id="WQMchoXEDYEWIl_12VHQ-15" value="" style="endArrow=classic;html=1;rounded=0;strokeWidth=3;dashed=1;" parent="1" edge="1">
          <mxGeometry width="50" height="50" relative="1" as="geometry">
            <mxPoint x="3722" y="795" as="sourcePoint" />
            <mxPoint x="3543" y="795.27" as="targetPoint" />
          </mxGeometry>
        </mxCell>
        <mxCell id="WQMchoXEDYEWIl_12VHQ-16" value="" style="endArrow=classic;html=1;rounded=0;strokeWidth=3;dashed=1;" parent="1" edge="1">
          <mxGeometry width="50" height="50" relative="1" as="geometry">
            <mxPoint x="3719" y="833" as="sourcePoint" />
            <mxPoint x="3523" y="950.27" as="targetPoint" />
          </mxGeometry>
        </mxCell>
        <mxCell id="WQMchoXEDYEWIl_12VHQ-17" value="" style="endArrow=classic;html=1;rounded=0;strokeWidth=3;dashed=1;" parent="1" edge="1">
          <mxGeometry width="50" height="50" relative="1" as="geometry">
            <mxPoint x="3413" y="1069" as="sourcePoint" />
            <mxPoint x="3217" y="1186.27" as="targetPoint" />
          </mxGeometry>
        </mxCell>
        <mxCell id="WQMchoXEDYEWIl_12VHQ-18" value="" style="endArrow=classic;html=1;rounded=0;strokeWidth=3;dashed=1;" parent="1" edge="1">
          <mxGeometry width="50" height="50" relative="1" as="geometry">
            <mxPoint x="3406" y="795" as="sourcePoint" />
            <mxPoint x="3227" y="795.27" as="targetPoint" />
          </mxGeometry>
        </mxCell>
        <mxCell id="WQMchoXEDYEWIl_12VHQ-21" value="" style="endArrow=classic;html=1;rounded=0;strokeWidth=3;dashed=1;" parent="1" edge="1">
          <mxGeometry width="50" height="50" relative="1" as="geometry">
            <mxPoint x="3238" y="835" as="sourcePoint" />
            <mxPoint x="3428" y="943" as="targetPoint" />
          </mxGeometry>
        </mxCell>
        <mxCell id="t_xqc5CSao28ozECztfn-1" value="" style="ellipse;whiteSpace=wrap;html=1;aspect=fixed;" parent="1" vertex="1">
          <mxGeometry x="-1000" y="2130" width="330" height="330" as="geometry" />
        </mxCell>
        <mxCell id="t_xqc5CSao28ozECztfn-2" value="" style="ellipse;whiteSpace=wrap;html=1;aspect=fixed;" parent="1" vertex="1">
          <mxGeometry x="-1000" y="2560" width="330" height="330" as="geometry" />
        </mxCell>
        <mxCell id="t_xqc5CSao28ozECztfn-4" value="" style="ellipse;whiteSpace=wrap;html=1;aspect=fixed;" parent="1" vertex="1">
          <mxGeometry x="-260" y="1610" width="330" height="330" as="geometry" />
        </mxCell>
        <mxCell id="t_xqc5CSao28ozECztfn-5" value="" style="ellipse;whiteSpace=wrap;html=1;aspect=fixed;" parent="1" vertex="1">
          <mxGeometry x="-270" y="2090" width="330" height="330" as="geometry" />
        </mxCell>
        <mxCell id="t_xqc5CSao28ozECztfn-7" value="" style="ellipse;whiteSpace=wrap;html=1;aspect=fixed;" parent="1" vertex="1">
          <mxGeometry x="-250" y="3100" width="330" height="330" as="geometry" />
        </mxCell>
        <mxCell id="t_xqc5CSao28ozECztfn-8" value="" style="ellipse;whiteSpace=wrap;html=1;aspect=fixed;" parent="1" vertex="1">
          <mxGeometry x="533" y="2310" width="330" height="330" as="geometry" />
        </mxCell>
        <mxCell id="t_xqc5CSao28ozECztfn-10" value="" style="endArrow=classic;html=1;rounded=0;strokeWidth=10;" parent="1" edge="1">
          <mxGeometry width="50" height="50" relative="1" as="geometry">
            <mxPoint x="-660" y="2300" as="sourcePoint" />
            <mxPoint x="-290" y="1830" as="targetPoint" />
          </mxGeometry>
        </mxCell>
        <mxCell id="t_xqc5CSao28ozECztfn-11" value="" style="endArrow=classic;html=1;rounded=0;strokeWidth=10;" parent="1" edge="1">
          <mxGeometry width="50" height="50" relative="1" as="geometry">
            <mxPoint x="-650" y="2310" as="sourcePoint" />
            <mxPoint x="-300" y="2210" as="targetPoint" />
          </mxGeometry>
        </mxCell>
        <mxCell id="t_xqc5CSao28ozECztfn-12" value="" style="endArrow=classic;html=1;rounded=0;strokeWidth=10;" parent="1" edge="1">
          <mxGeometry width="50" height="50" relative="1" as="geometry">
            <mxPoint x="-650" y="2338" as="sourcePoint" />
            <mxPoint x="-280" y="3278" as="targetPoint" />
          </mxGeometry>
        </mxCell>
        <mxCell id="t_xqc5CSao28ozECztfn-13" value="" style="endArrow=classic;html=1;rounded=0;strokeWidth=10;strokeColor=#CC0000;" parent="1" edge="1">
          <mxGeometry width="50" height="50" relative="1" as="geometry">
            <mxPoint x="-670" y="2760" as="sourcePoint" />
            <mxPoint x="-280" y="1860" as="targetPoint" />
          </mxGeometry>
        </mxCell>
        <mxCell id="t_xqc5CSao28ozECztfn-14" value="" style="endArrow=classic;html=1;rounded=0;strokeWidth=10;strokeColor=#CC0000;" parent="1" edge="1">
          <mxGeometry width="50" height="50" relative="1" as="geometry">
            <mxPoint x="-650" y="2773" as="sourcePoint" />
            <mxPoint x="-270" y="2290" as="targetPoint" />
          </mxGeometry>
        </mxCell>
        <mxCell id="t_xqc5CSao28ozECztfn-15" value="" style="endArrow=classic;html=1;rounded=0;strokeWidth=10;strokeColor=#CC0000;" parent="1" edge="1">
          <mxGeometry width="50" height="50" relative="1" as="geometry">
            <mxPoint x="-670" y="2790" as="sourcePoint" />
            <mxPoint x="-340" y="3280" as="targetPoint" />
          </mxGeometry>
        </mxCell>
        <mxCell id="t_xqc5CSao28ozECztfn-17" value="" style="endArrow=classic;html=1;rounded=0;strokeWidth=10;" parent="1" edge="1">
          <mxGeometry width="50" height="50" relative="1" as="geometry">
            <mxPoint x="100" y="1810" as="sourcePoint" />
            <mxPoint x="500" y="2380" as="targetPoint" />
          </mxGeometry>
        </mxCell>
        <mxCell id="t_xqc5CSao28ozECztfn-19" value="" style="endArrow=classic;html=1;rounded=0;strokeWidth=10;strokeColor=#CC0000;" parent="1" edge="1">
          <mxGeometry width="50" height="50" relative="1" as="geometry">
            <mxPoint x="70" y="2273.75" as="sourcePoint" />
            <mxPoint x="460" y="2450" as="targetPoint" />
          </mxGeometry>
        </mxCell>
        <mxCell id="t_xqc5CSao28ozECztfn-21" value="" style="endArrow=classic;html=1;rounded=0;strokeWidth=10;strokeColor=#0000FF;" parent="1" edge="1">
          <mxGeometry width="50" height="50" relative="1" as="geometry">
            <mxPoint x="111" y="3280" as="sourcePoint" />
            <mxPoint x="470" y="2540" as="targetPoint" />
          </mxGeometry>
        </mxCell>
        <mxCell id="t_xqc5CSao28ozECztfn-23" value="&lt;font size=&quot;1&quot; style=&quot;&quot;&gt;&lt;b style=&quot;font-size: 200px;&quot;&gt;$$\vdots$$&lt;/b&gt;&lt;/font&gt;" style="text;html=1;strokeColor=none;fillColor=none;align=center;verticalAlign=middle;whiteSpace=wrap;rounded=0;" parent="1" vertex="1">
          <mxGeometry x="-170" y="2490" width="125" height="470" as="geometry" />
        </mxCell>
        <mxCell id="t_xqc5CSao28ozECztfn-24" value="&lt;font size=&quot;1&quot; style=&quot;&quot;&gt;&lt;b style=&quot;font-size: 200px;&quot;&gt;$$x_{1}$$&lt;/b&gt;&lt;/font&gt;" style="text;html=1;strokeColor=none;fillColor=none;align=center;verticalAlign=middle;whiteSpace=wrap;rounded=0;" parent="1" vertex="1">
          <mxGeometry x="-870" y="2040" width="125" height="470" as="geometry" />
        </mxCell>
        <mxCell id="t_xqc5CSao28ozECztfn-25" value="&lt;font size=&quot;1&quot; style=&quot;&quot;&gt;&lt;b style=&quot;font-size: 200px;&quot;&gt;$$x_{2}$$&lt;/b&gt;&lt;/font&gt;" style="text;html=1;strokeColor=none;fillColor=none;align=center;verticalAlign=middle;whiteSpace=wrap;rounded=0;" parent="1" vertex="1">
          <mxGeometry x="-890" y="2460" width="125" height="470" as="geometry" />
        </mxCell>
        <mxCell id="t_xqc5CSao28ozECztfn-26" value="&lt;font size=&quot;1&quot; style=&quot;&quot;&gt;&lt;b style=&quot;font-size: 200px;&quot;&gt;$$h_{1}$$&lt;/b&gt;&lt;/font&gt;" style="text;html=1;strokeColor=none;fillColor=none;align=center;verticalAlign=middle;whiteSpace=wrap;rounded=0;" parent="1" vertex="1">
          <mxGeometry x="-157.5" y="1520" width="125" height="470" as="geometry" />
        </mxCell>
        <mxCell id="t_xqc5CSao28ozECztfn-27" value="&lt;font size=&quot;1&quot; style=&quot;&quot;&gt;&lt;b style=&quot;font-size: 200px;&quot;&gt;$$h_{2}$$&lt;/b&gt;&lt;/font&gt;" style="text;html=1;strokeColor=none;fillColor=none;align=center;verticalAlign=middle;whiteSpace=wrap;rounded=0;" parent="1" vertex="1">
          <mxGeometry x="-170" y="2000" width="125" height="470" as="geometry" />
        </mxCell>
        <mxCell id="t_xqc5CSao28ozECztfn-28" value="&lt;font size=&quot;1&quot; style=&quot;&quot;&gt;&lt;b style=&quot;font-size: 200px;&quot;&gt;$$h_{N}$$&lt;/b&gt;&lt;/font&gt;" style="text;html=1;strokeColor=none;fillColor=none;align=center;verticalAlign=middle;whiteSpace=wrap;rounded=0;" parent="1" vertex="1">
          <mxGeometry x="-147.5" y="3030" width="125" height="470" as="geometry" />
        </mxCell>
        <mxCell id="t_xqc5CSao28ozECztfn-29" value="&lt;font size=&quot;1&quot; style=&quot;&quot;&gt;&lt;b style=&quot;font-size: 200px;&quot;&gt;$$O_{1}$$&lt;/b&gt;&lt;/font&gt;" style="text;html=1;strokeColor=none;fillColor=none;align=center;verticalAlign=middle;whiteSpace=wrap;rounded=0;" parent="1" vertex="1">
          <mxGeometry x="643" y="2240" width="125" height="470" as="geometry" />
        </mxCell>
        <mxCell id="rocCJiblD5CJ1fYKdtZ9-1" value="" style="shape=image;verticalLabelPosition=bottom;labelBackgroundColor=default;verticalAlign=top;aspect=fixed;imageAspect=0;image=data:image/png,UklGRlwKAQBXRUJQVlA4WAoAAAAgAAAAWwUA2QIASUNDUDQPAAAAAA80YXBwbAIQAABtbnRyUkdCIFhZWiAH4AAGAAEAFwAgACNhY3NwQVBQTAAAAAAAAAAAAAAAAAAAAAAAAAAAAAAAAAAA9tYAAQAAAADTLWFwcGwAAAAAAAAAAAAAAAAAAAAAAAAAAAAAAAAAAAAAAAAAAAAAAAAAAAAAAAAAAAAAABFkZXNjAAABUAAAAGJkc2NtAAABtAAABBpjcHJ0AAAF0AAAACN3dHB0AAAF9AAAABRyWFlaAAAGCAAAABRnWFlaAAAGHAAAABRiWFlaAAAGMAAAABRyVFJDAAAGRAAACAxhYXJnAAAOUAAAACB2Y2d0AAAOcAAAADBuZGluAAAOoAAAAD5jaGFkAAAO4AAAACxtbW9kAAAPDAAAAChiVFJDAAAGRAAACAxnVFJDAAAGRAAACAxhYWJnAAAOUAAAACBhYWdnAAAOUAAAACBkZXNjAAAAAAAAAAhEaXNwbGF5AAAAAAAAAAAAAAAAAAAAAAAAAAAAAAAAAAAAAAAAAAAAAAAAAAAAAAAAAAAAAAAAAAAAAAAAAAAAAAAAAAAAAAAAAAAAAAAAAAAAAAAAAAAAbWx1YwAAAAAAAAAiAAAADGhySFIAAAAUAAABqGtvS1IAAAAMAAABvG5iTk8AAAASAAAByGlkAAAAAAASAAAB2mh1SFUAAAAUAAAB7GNzQ1oAAAAWAAACAGRhREsAAAAcAAACFnVrVUEAAAAcAAACMmFyAAAAAAAUAAACTml0SVQAAAAUAAACYnJvUk8AAAASAAACdmVzRVMAAAASAAACdmhlSUwAAAAWAAACiG5sTkwAAAAWAAACnmZpRkkAAAAQAAACtHpoVFcAAAAMAAACxHZpVk4AAAAOAAAC0HNrU0sAAAAWAAAC3npoQ04AAAAMAAACxHJ1UlUAAAAkAAAC9GZyRlIAAAAWAAADGG1zAAAAAAASAAADLmNhRVMAAAAYAAADQHRoVEgAAAAMAAADWGVzWEwAAAASAAACdmRlREUAAAAQAAADZGVuVVMAAAASAAADdHB0QlIAAAAYAAADhnBsUEwAAAASAAADnmVsR1IAAAAiAAADsHN2U0UAAAAQAAAD0nRyVFIAAAAUAAAD4mphSlAAAAAOAAAD9nB0UFQAAAAWAAAEBABMAEMARAAgAHUAIABiAG8AagBpzuy37AAgAEwAQwBEAEYAYQByAGcAZQAtAEwAQwBEAEwAQwBEACAAVwBhAHIAbgBhAFMAegDtAG4AZQBzACAATABDAEQAQgBhAHIAZQB2AG4A/QAgAEwAQwBEAEwAQwBEAC0AZgBhAHIAdgBlAHMAawDmAHIAbQQaBD4EOwRMBD4EQAQ+BDIEOAQ5ACAATABDAEQgDwBMAEMARAAgBkUGRAZIBkYGKQBMAEMARAAgAGMAbwBsAG8AcgBpAEwAQwBEACAAYwBvAGwAbwByIA8ATABDAEQAIAXmBdEF4gXVBeAF2QBLAGwAZQB1AHIAZQBuAC0ATABDAEQAVgDkAHIAaQAtAEwAQwBEX2mCcgAgAEwAQwBEAEwAQwBEACAATQDgAHUARgBhAHIAZQBiAG4A6QAgAEwAQwBEBCYEMgQ1BEIEPQQ+BDkAIAQWBBoALQQ0BDgEQQQ/BDsENQQ5AEwAQwBEACAAYwBvAHUAbABlAHUAcgBXAGEAcgBuAGEAIABMAEMARABMAEMARAAgAGUAbgAgAGMAbwBsAG8AcgBMAEMARAAgDioONQBGAGEAcgBiAC0ATABDAEQAQwBvAGwAbwByACAATABDAEQATABDAEQAIABDAG8AbABvAHIAaQBkAG8ASwBvAGwAbwByACAATABDAEQDiAOzA8cDwQPJA7wDtwAgA78DuAPMA70DtwAgAEwAQwBEAEYA5AByAGcALQBMAEMARABSAGUAbgBrAGwAaQAgAEwAQwBEMKsw6TD8ACAATABDAEQATABDAEQAIABhACAAQwBvAHIAZQBzAAB0ZXh0AAAAAENvcHlyaWdodCBBcHBsZSBJbmMuLCAyMDE2AABYWVogAAAAAAAA8xYAAQAAAAEWylhZWiAAAAAAAABxwAAAOYoAAAFnWFlaIAAAAAAAAGEjAAC55gAAE/ZYWVogAAAAAAAAI/IAAAyQAAC90GN1cnYAAAAAAAAEAAAAAAUACgAPABQAGQAeACMAKAAtADIANgA7AEAARQBKAE8AVABZAF4AYwBoAG0AcgB3AHwAgQCGAIsAkACVAJoAnwCjAKgArQCyALcAvADBAMYAywDQANUA2wDgAOUA6wDwAPYA+wEBAQcBDQETARkBHwElASsBMgE4AT4BRQFMAVIBWQFgAWcBbgF1AXwBgwGLAZIBmgGhAakBsQG5AcEByQHRAdkB4QHpAfIB+gIDAgwCFAIdAiYCLwI4AkECSwJUAl0CZwJxAnoChAKOApgCogKsArYCwQLLAtUC4ALrAvUDAAMLAxYDIQMtAzgDQwNPA1oDZgNyA34DigOWA6IDrgO6A8cD0wPgA+wD+QQGBBMEIAQtBDsESARVBGMEcQR+BIwEmgSoBLYExATTBOEE8AT+BQ0FHAUrBToFSQVYBWcFdwWGBZYFpgW1BcUF1QXlBfYGBgYWBicGNwZIBlkGagZ7BowGnQavBsAG0QbjBvUHBwcZBysHPQdPB2EHdAeGB5kHrAe/B9IH5Qf4CAsIHwgyCEYIWghuCIIIlgiqCL4I0gjnCPsJEAklCToJTwlkCXkJjwmkCboJzwnlCfsKEQonCj0KVApqCoEKmAquCsUK3ArzCwsLIgs5C1ELaQuAC5gLsAvIC+EL+QwSDCoMQwxcDHUMjgynDMAM2QzzDQ0NJg1ADVoNdA2ODakNww3eDfgOEw4uDkkOZA5/DpsOtg7SDu4PCQ8lD0EPXg96D5YPsw/PD+wQCRAmEEMQYRB+EJsQuRDXEPURExExEU8RbRGMEaoRyRHoEgcSJhJFEmQShBKjEsMS4xMDEyMTQxNjE4MTpBPFE+UUBhQnFEkUahSLFK0UzhTwFRIVNBVWFXgVmxW9FeAWAxYmFkkWbBaPFrIW1hb6Fx0XQRdlF4kXrhfSF/cYGxhAGGUYihivGNUY+hkgGUUZaxmRGbcZ3RoEGioaURp3Gp4axRrsGxQbOxtjG4obshvaHAIcKhxSHHscoxzMHPUdHh1HHXAdmR3DHeweFh5AHmoelB6+HukfEx8+H2kflB+/H+ogFSBBIGwgmCDEIPAhHCFIIXUhoSHOIfsiJyJVIoIiryLdIwojOCNmI5QjwiPwJB8kTSR8JKsk2iUJJTglaCWXJccl9yYnJlcmhya3JugnGCdJJ3onqyfcKA0oPyhxKKIo1CkGKTgpaymdKdAqAio1KmgqmyrPKwIrNitpK50r0SwFLDksbiyiLNctDC1BLXYtqy3hLhYuTC6CLrcu7i8kL1ovkS/HL/4wNTBsMKQw2zESMUoxgjG6MfIyKjJjMpsy1DMNM0YzfzO4M/E0KzRlNJ402DUTNU01hzXCNf02NzZyNq426TckN2A3nDfXOBQ4UDiMOMg5BTlCOX85vDn5OjY6dDqyOu87LTtrO6o76DwnPGU8pDzjPSI9YT2hPeA+ID5gPqA+4D8hP2E/oj/iQCNAZECmQOdBKUFqQaxB7kIwQnJCtUL3QzpDfUPARANER0SKRM5FEkVVRZpF3kYiRmdGq0bwRzVHe0fASAVIS0iRSNdJHUljSalJ8Eo3Sn1KxEsMS1NLmkviTCpMcky6TQJNSk2TTdxOJU5uTrdPAE9JT5NP3VAnUHFQu1EGUVBRm1HmUjFSfFLHUxNTX1OqU/ZUQlSPVNtVKFV1VcJWD1ZcVqlW91dEV5JX4FgvWH1Yy1kaWWlZuFoHWlZaplr1W0VblVvlXDVchlzWXSddeF3JXhpebF69Xw9fYV+zYAVgV2CqYPxhT2GiYfViSWKcYvBjQ2OXY+tkQGSUZOllPWWSZedmPWaSZuhnPWeTZ+loP2iWaOxpQ2maafFqSGqfavdrT2una/9sV2yvbQhtYG25bhJua27Ebx5veG/RcCtwhnDgcTpxlXHwcktypnMBc11zuHQUdHB0zHUodYV14XY+dpt2+HdWd7N4EXhueMx5KnmJeed6RnqlewR7Y3vCfCF8gXzhfUF9oX4BfmJ+wn8jf4R/5YBHgKiBCoFrgc2CMIKSgvSDV4O6hB2EgITjhUeFq4YOhnKG14c7h5+IBIhpiM6JM4mZif6KZIrKizCLlov8jGOMyo0xjZiN/45mjs6PNo+ekAaQbpDWkT+RqJIRknqS45NNk7aUIJSKlPSVX5XJljSWn5cKl3WX4JhMmLiZJJmQmfyaaJrVm0Kbr5wcnImc951kndKeQJ6unx2fi5/6oGmg2KFHobaiJqKWowajdqPmpFakx6U4pammGqaLpv2nbqfgqFKoxKk3qamqHKqPqwKrdavprFys0K1ErbiuLa6hrxavi7AAsHWw6rFgsdayS7LCszizrrQltJy1E7WKtgG2ebbwt2i34LhZuNG5SrnCuju6tbsuu6e8IbybvRW9j74KvoS+/796v/XAcMDswWfB48JfwtvDWMPUxFHEzsVLxcjGRsbDx0HHv8g9yLzJOsm5yjjKt8s2y7bMNcy1zTXNtc42zrbPN8+40DnQutE80b7SP9LB00TTxtRJ1MvVTtXR1lXW2Ndc1+DYZNjo2WzZ8dp22vvbgNwF3IrdEN2W3hzeot8p36/gNuC94UThzOJT4tvjY+Pr5HPk/OWE5g3mlucf56noMui86Ubp0Opb6uXrcOv77IbtEe2c7ijutO9A78zwWPDl8XLx//KM8xnzp/Q09ML1UPXe9m32+/eK+Bn4qPk4+cf6V/rn+3f8B/yY/Sn9uv5L/tz/bf//cGFyYQAAAAAAAwAAAAJmZgAA8qcAAA1ZAAAT0AAACg52Y2d0AAAAAAAAAAEAAQAAAAAAAAABAAAAAQAAAAAAAAABAAAAAQAAAAAAAAABAABuZGluAAAAAAAAADYAAKdAAABVgAAATMAAAJ7AAAAlgAAADMAAAFAAAABUQAACMzMAAjMzAAIzMwAAAAAAAAAAc2YzMgAAAAAAAQxyAAAF+P//8x0AAAe6AAD9cv//+53///2kAAAD2QAAwHFtbW9kAAAAAAAABhAAAKAZAAAAAMzXEAAAAAAAAAAAAAAAAAAAAAAAVlA4IAL7AABQSwOdASpcBdoCPpFCnEslo6MhpPMqOLASCWVu/HB1GjKfApjvcxDMcK5Tg7Zj7v389Nbun8f///2vV5/0dJ/b/lKw2ehL/2f//2Bf/b6ePQJ/9uhm/5f71e57+5+kB6T3/Z////m+Cf+5f+f///9T4Dv5n/pP///8ver9VP/M+rb/g/QA//ntR/wD/99bP4d/Mf6F/Y/11+Bfx39B/q395/y3+I/t/7Fe2/4x8u/Yf7P/lv8v/df2t+JH+c/xXkU9J/nP9f6Gfxn66fbf7b/iv9//ff3o+6f7p/n/8P+3n989Gfzn91/z/96/cr/HfIL+P/yT+9/2T9uf8B8l30f/D/yn+W/WLxg9a/2v+2/xH7h/v/9AvsB9E/zv93/zX/Y/w/oyf1X90/0f7K/Bv6F/bv9j/fvyB+wD+Rf0H/Vf2v/Mf/P/F//////aP+s/ZTyhPuH+8/aT4Af5n/bv/L/kf8/+8n0tfyn/b/xf+n/av2rfnf+L/7n+U/2H7Yf/////oR/L/6x/vv77/oP/v/mv/////u2///+s/+Hxz/cH///8P/w/KF+zv/+/4//cITa3OPUcZtT+NvG3jbxt428beNvG3jbxt428beNvG3jbxt428beNvG3jbxt428beNvG3jbxt428beNvG3jbxt428beNvG3jFfgCfEY+iEAph3LxGPohAKYdy8Rj6IQCmHcvEY+iEAph3LxGPohAKYdy8Rj6IQCmHcvEY+iEAph3LxGPohAKYdy8Rj6IQCmHcvEY+iEAph3LxGPohAKYdy8Rj6GebQwGHxNx3xWCJmCK9WMc0LMCUw1HDJUBrNMbbt3cGs8VREUnFYk/zVRCAIEezhl29Lu56GH5UMYpHm7J5DysnH9xGPAVVbvmp9UB7BkxGPmNPcswo+m6ZVnSw6gswYeIy/P8u9+YDNVTM8/QAuG1uVQRhpC/JUwe6/0W/aKcCsqk6xg09UFJZuV598fwPz3Ryya7hpTbdx/4AzOVmbv8rWWJkua6lGTIND9uHEb6cSPrZwtIIOFpCDuuqmR2FLzWrJTBgekisFW6UtljMh7EaM+6jsaebwS+/X1wssIs3mhquaJTMQstqEX3liQwphB+qdLlZLAp3Uc0ss5F2IvyUa9CFMQnL0t7B2ZObi4FmGGGhimcZhB8QfS9A0qOb+A9VFDnI8kT1SKgzikEccCb5XgG/UiRYUyaNY5607dhkc9pLMx9cqG+SJ13nwB3jHFb2UuOTpDplzGCtWNLR3EBdYzaYX3O9wSH2UBBPpzCizZLgjIyGjZ4TcUWAE+vSB9Hs+QHBF4aHbY8naaM9LrfZ8q7sS+AliAmsaYfDJzzvgthZ1m+a4rv0BziTda0u7lXl6zwlT1MutPjko10hw2rFl1llRgve8W7MxZdFvXM6n5nVngvVLt5W4iDZgJeD4mQ6PSOIyKdENS2MOlol/VL8P5TsB0NiJivhkIsEAOkG0GmbqdZ8ZyoAE6K3mqm7LhNcaElBIRAMJHVoPmFFo3D69NGF+1YwKOYBQMbEo6C3p55YNJuNCJI+vlAsEeVGF/xg47JMmAPgWMGgZwnrGSjmHTZKhWCs41txYtPZVil7RmCcXf0AjNOOtdOlx2oMYTEfUmSiZ2oF5Kv9yiJNJIvAGkJlra0kcXjuNFBTvApp1nhlTeRPFvQjghBk9DbpECUuiPXJYwxHXY6OSICBy5JcaA5IebLi7YY5coFO8vQ/NqBVkBKQvKnEsZeDtdE9jyktUAPS8wr/cZEheuODu+fw/SIAYPF5Byh9Av5hV4uFSnVFk3JyUSUf2SE8YnWW33KUx4KHrY+BjHuWr9vQVWYN6zHcuzOaasv6fz8xJyzMYE7ch+JZ0Y//VjecNRi3CzSeGEP4qU0LglWHpMQoO9J05SCH/c8hU51pndhrHKupC1Z7VtRe2DG/kX/gv9H1VnVzRZtV03rKio5xrBub23m8W7s5eujMDxk6G24ZthAIqjZpFm7rTps0tf5uy6eGxPm76q6Nkp7tDXosK05V8Wlqluxe8USx+voiKzArcafJZ3XzcOpIZhqkUNBuvVfy6//18RiiQRoy/1KnzRs38Lf+nlxIhvsKcUmk9zEVFTiITxZw1jiQy76R5yXU+kh4gEG0fE/9V2X+yv3bLq2c6dD1VimuzfB876do1hHmLK355xTgItPBGADgM23si02O0+Ric5qnO/wkvMLfVjRyUZMRl7JSMI47m7L+1gZLv1xdQvfYMYOT1n5sIWBP2iABUYG5bRm3dHtXQBV6JNCCbCMytUNLggPOi94B5eqDLtpQdiKQWFdmg5VvsSAiJ8XUDYI8TVkjt+j1WXU9Xd43fh2MSBcg5G5DCP+WaI4v3qXQhTcNH53EeUWL+5VJyQLFPEtJLJd4YBDNDzXnLfvVWJKKftQgkcOL+/SVb0eD4ek4SxADQaN6z+Lneb5HNpWcDACJAVrAGW9nQBw942yOQ8gxnizo56EObDd6witUtQfHjfMmjlFKrKjQWffTYgPzuTF7lpub8n7TqEEerFUqW6ggFMO5eIx9EIBTDuYKh3qKh3qLNBdSqomjKo6Rd8KiEKbkgqbkjLKLM+i06DJkggph3LxGPohAKYdy8RjxrBIsXqFFCihRQooUUKKFFCihRQooUUKKFFCihRQooUUKKFFCihRQooUUKKFFCihRQooUUKKFFCihRQooUUKKFFCihRQooURaNv/biMd9eWpnw7l4jH0QgFMOwQPY7/zk3w7l4jH0QgFMO5eIx9DBhzABNaF4HAs8YesfRBYEPZpy0QgFMO5clv9+sWGLjVCKF9FYtRkEDEcMkIBTDuXiMfRCAMcMn6lKUl1919ZGOR4ujuwvPUG+FRCAUw7l4jH0QgDHDJ+pSlJdmjS4h2XOFDSNTnBP68sjBeUDqBwt/xSr9g+RiIwQEoH3md9Dc0uTmH1zwv/gYRQknfX3SnilcPK5jOdZx7G6tYb8661TVEIBTDsXK2Y8jPT18hoU7TUheoiKSa4l1BAKYdy8Rj6FvyEDoOnthF7Y11eBC66mrzKm9tsKiEAph3LxGPohAKW2pwVqP4vGBZ5QKCCtgAqScJwgqFHOOA4asjEzCfZbCcs4lalPj5QhN+CgwTYeydbeCqpC0I3MyGI+gPEg6aVoRhg8DpjT0m0QCmHcvEY+iGrJiMfRCAUw7l4jHdVrzTvr3TDHsGTEY+iEAph3LxGPogdHWylECHWcA8juXiM+JjGmJh3LxGPoZ54VJUKKFFCihRQooUUKKFFCihRQooUUKKFFCihRQooUUKKFFCihRQooUUKKFFCihRQooUUKKFFCihRQooUUKKFFCihRQojks5xugnMV3wqIQCmHcvEY+iEAoAlk4Zd8KiEAph3LxGPohAKXGhyrTfCohAKYdy8Rj6IQCl1yPW5h1UeH4IpF7axcGTEY+iEAph3Lh19BbHaDJiMfRCAUw7l4jH0QfK3Gtij3cvEY+iEAph3LxGPogkVbXJr15hI1Jyz+TlrKkMz4dy8Rj6IQBFhfXOR6YjH0QgFMO5eIx9EIBQd3/6WlsmPohAKYdy8Rj6IQCmHcvEY+iEAph3LxGPohAKYdy8Rj6IQCmHcvEY+iEAph3LxGPohAKYdy8Rj6IP/GmrY48MaqFGFuwSdQFXwqIQCmHce6UKASY/zkBQhha1EIBTDuXiMfRBC/Ab892aRGPohAKYdy8Rj6IJFnSLNiL0B61y8GMHzhUsYhxvgTSaSqR866m2dy91Ppx7d9mE4R3sRsYziLzdDGutrFkoZnw7l4jCOWpAne7a0u7xFnGRCfbwj6/xkwlNgSAM7VunlRYtDBuYmLtC/bEhuiVRZxoiD0rW8S6ggFMO5cTMvjhVlr+RC+TeyOhnTZf2auY8eg7ONMkEsHoxofEY+iEAph3LxGPmdsOLV6ibkzAHK7dmQBx1PMSDozrfziTIYpJfg4d5vgAd42En3Kb3weKwKYdy8Rj5ueKjjcykaBpYFfX+Dhcs6a036NjqZAA4rjkzBSSu+FHLk1zDuXiMfRCAUQnI53LA0DmClZJzD0b96za3Lf54l1BAKYdy8Rj6IQCmHi6dHcvEY+iEAph3LxGPohAK4vhUQgFMO5eIx9EIU3EY+iEAph3LxGPohAKYdx5olymifBUQQwsu1K7a7aXJ3LieUvhAJIlhBHDEWDhrxXI7ZUBvBTDuXE8pfCohAKYZEWWRpyXqQy2XvjFcEAoZu/MetskwzUiVw4X+S3Dr8bdaXlmfE+ji0/k4vG2QnG/lGhqT1gk5lxSjSsfhI14QBik0OUXk5TTSMqj2U0gVaFetdG3lggUH9W+sfvmn4WGZpqapfYKw6EWPqdapAjGBywRvdw4ZltkagnXcTuDo3vmWepsv6FBTKOIzGvyLDV8L+p3WhUyAGLsJWokVkrR5QE0gD4Mx8qVsbvI+e1XkyPR9A8LMy0Uj5OeMxLCthKD8lKf4cbn0Vg/Mrjxw3NAOX0hg/+HYTVl/PqVcdZUdVuW2Hrw7dNiZfUWJ1jFrnu1NZQAI07kdml7UhB50CI5vizk0KOgVHlZhYDiXALrzQEnAReF+yW7memiLoqHFnybLnFRoSFGcgwVR9SAmPh2DUizA5yGW+2kuQBe8QJ6FfRCyEts6KgJ0u4KDt6os03zWYrIHJXAz4ze9zaDa8d/5smdR7dHVZqWvPb00QuAUGE+njb0GlmgnudzPT84SncBy/gJ7Ara6Zarl/T+w42uKVIuqekYCaNYFqNrsUoGNLCC/i5xoo3t3J+oSIZ3boqFv6uJFjVciCofWxVTP3ZEtexpWiObEWxAgAct7W1UD4Flhoyac4Yf2xOXx4ep+iAq2eXWC6aT/vPJ51FMCIMuBajJSt79rKqo4lAq1ysDsRHwQRAjBzD/VtjuSrlXF5TseEp+/u1ZjB8KItOo1r+jH0QgFNJD6IQCmHcvEY8FItZ3WwARKrZtttk0awX6JKh6pYy2KcWlMDvf/BoJVxqTbdWmN+bA7egxjrcuT8o5BPl3oZ/PtVu8oClJmpiZ5Z66+qEI9yVcfOrdgTUz4dzBT541xJ4l1BAKaSIQUdy8Rj6IQCmHcvEY+iEAoCPknODFodz3TXGBIgLjc5atxYxK6PXV3AVWtNsqxp9nrFw+IzEXaQO2M/baUJuKO/+RCX/MLndN3VPfO37QMEb14oo/ro9gXKr5sUa+eTuoqQLrm+yG4iVIBS7mwXH3WDM150W+Lnj6fo8eosbCUxVVWfTkBoAyAjcS6ggFMO5eIx9EIBTDuXiMfRCAUw7l4jH0QgFMO5eJT6ZS8AgaCAmxU34nmfH9yk/G9MyD2GQy7WI8gQy74VEIBTDuXiMfRCAUw7l4jH0QgFMO5eIx9EIBTDuXiMfRCAUw7l4jH0QgFMO5eIx9EIBTDuXiMfRCAUwzd+dVnCQlDdlLLLrKTFB4k9R6p00N5E8tL9A+hO2AexViTvS0iKUw3JiHztdQ/qnOThH85koKyIq/vNF6EDdCfNdr7txyHUL8nE68pQpHIx5KetGJrtrS61n9aRk3JNRdls504nOVKkmxzBgnV6BEk9rzvtxCAzozKR5w+Pw8YfOWJu0Q/TKuq5g6zbU4tuTswUuTKsCQdeTDfuzfk9ETT2I9uRmBP8XeO0CjLucRq9py2fc/8qMJ+uFr4/tUv+XCrujj3CcJ4d/Qif3KVhFRbhi9FMvda9EY2+wWrlvHY8+JEOjuND1D5ak5yQB3Zn7ALi8SfyzmpXcXVJGFvvtAZ2pmZnZ0gOzTi263z27eSPdUoyw74kVVFfx/3Wjb0JgyNIYr14Z5EI99V+tWjZxh9mZ6Tfd7uTTYAdvxaYaOlrYY3jQCWt3i8d1GXLfj0WhdP+Xp8q+Z9rop3R2QKj8XPEu8i723d4NSzgGekD0oVnUJHTckMLUSjfwL80D0v+0WAR+0ZW/UJY8wvuptS2qvZW64Ua2jtt+8JBGqZJuJVYRiATVwjffNUbM9F52HV/5lEgxYUZLSzvxiP9peOc+nSiS854J2Ql8TO++2tJTaTdpTNBAMO6KvrGSwH9gcEcSwvhF8xIxCfkVKeLeogrEya7gqFTo7I+dbhZYcTXmR8ZwGgvqhjnqhqI7bfBJ3IieI+o+ZHDOI5u0MFelUQwCkzAGxwg157V05QZXiin4XEji9S6VAydh64g2TZnq5qa666d5/upOeHk35ukR5TvKPLBXfiUlR4k2SmOUiXz/JdGvNECQouXTk98Q4BUghIkYUG0oZoLKnCL3dazQfW2Zuk1PFh9VFaGBSit9gEDLZPJmyHsErJpq179io8KyTtJ8y2rfdxPFJmuXWmVJMML0POLV3QLGtNy6PLOKQybnJXtCuzGn0YjuapxA71qkGZI+osUTt9BdfH8hH9iDVXqxQ0OTtsQwqcDYrMcGQ24K+ulI5sUhXEERMHHzSZ/bDDlTY28SBJ92iUUl7LHgLDmQ7iIIy74PUrt/7uvshzigr+C5pHDWo0QgwfHJaBojU4GrP0SdkpOenQ6k0hS46PL2z9NYRpfV8hStuQ4rWIMj/en3pXVbxumGu4gFMMv8gB+d7NNfzgoG6dXZOhOm2ionPlMEIGVlskPNQCyP7ODcoOLgfE1LKGFXqdcR/mGA76dkgWwGYvKXNEo4BHe/CFSrGXMiScgFOCBafnCCjGapOcwmvn8/53zFR6Qeg4PR/sBAkibe8xxMUNsEtaM54P4Ay6q26wfJrxThytZf/AUZOmII/thweGDsG3YoijlDo1rLHGIRsIl+TZlRjhQE7vkOt4BowqGiMPPDU2z3+Lo2DajHsdTe2UIv3l1jR7Vsh97PTQ0qEWdSAQ8LJVM9h8Ar1/LHxcUsxxDtDbk5l6a1p8KatCKgWPKmROvk0HB8GB7soINYOvQGSYD6npaKQD5N21pP2wqQnN33iUaRtkwcIdYc43NNc3w7QehMg0Uqjmw1KEEZSgyHhwcOwWiXUEAPlsqyJJ25FF6eLTg6v78oVu9Bxa+EKO5oYJNtaJjK1a3OtRV0VVqhPV5Ey4oS81GdPeE+eqIKXJ74CbpxSozwRbYw4nyO1hEt3uU4AJcP+LDvQxR6lZsCK/Sgu6DMgwyYQuo8gW0XYCkZO1L/i0KaNJkME/pLKGE5IP3boGadJWOcYCQzPh3LxGPohAKYdy8QyqJQrikiw5T4t89KbF9hKbK1LRXXAzj2LCEL2ybIW4ZxxvbJY8qXjThp+FdNU0jKNqHikXfn+dNV+Fr1MgpE+W4GVFYAdUIlwx4+AEwNwxq70ymi1lR2RYeh3csqxwO51zx13wyljSm1uingYkwGazljdwm3iENr5U048F5XEpkVmJvMT3lpga+nZ4y8L6B63Cu/2GGZqEEd5yzWinzsSVh8cdSoogFMO5eSCE0Ix9EIBTDuXiMfRCAUw7l4hrQ/TjWAxZkvANE0rxnQ8HwJByU15tTZ0h9Jy56m/cujAijhe9lTiPjMAtjag7l/Ml+gP87z4ofsdOfOyfXdh/3D0U7B1MdDV6L8prJMiS8hrH1hjpKamdixgAK5ja5zx739NtcCWyfA/w4exd9xhr6PaZi2DqaQtMoGzp9EIBTDuXiMfRCAUw7l4jH0QgFMO5eIwfJbE8y4nFBhB1NSpBOzfTvxjx7wtJCN2NdORmumj75yB6sht8G381wtWbn4pDBJxSiRL7qzdZ3twabtSXCcOazmWAftvlyXpJQPrnV5oSzi3myZWKgJ3RakdrAYXLqCAUw7l4jH0QgFMO5eIx9EIBTDuXiMJ/7blm4YZKB74FA7Sdp6MvbbaUUhcx9V5DQI1wjCjhSAF9eF0EVbSHRYShSHGgj5OZZyVTkRXMf4pO3jVOeKdeUJjWiIcKwbxyjMUAfVT3DXeiJjJNaRcYHgyEov3WtLAKWxEgwdzWFFZUX9YU+DI0LABVhFDDQlsdgk+4n7oYu7pAlPh3LxGPohAKYdy8Rj6IQCmHcvEY+iEAph3LxGPmGVgar9mY7fyw0+SOv+uXarNWFua78QvwYzmKuqKcMvPOJXPT3yQHfPYADiv0IgISwdT2O8Rj6IQCmHcvEY+iEAph3LxGPohAKYdy8Rj6IQCl0vrQQ9msbuBsAU9MbhrE/Kb4+ZzuKW91+Fap36cBXkWNiMuO2/yjp1VfIX8vHzj1P//phrA3bFekto9Vl2+gmtte4zEMMOO4j1SnDwCM1lRpfedDHrWNrJMYliUVcHc91ZKgLhnX9fC9KAdQFAx8l0NWCCO4qmxpTnp0OpvP2XiMfRCAUw7l4jH0QgFMO5eIx9EIBTDuXiMfRCAHy1Kl5x9dwuBzdQCXYICuq+KoehtsV9P6I1plrVt11iiYAbpJzDvIEwXTxxDy3GDrFBBKfSM4JuEOQ/5i3J0RleXeIx9EIBTDuXiMfRCAUw7l4jH0QgFMO5eIx9EIBQTx4GphjFo0hTjLdceic2g3jAeH0Km2aCV9YRa+SxZnpmsDfCohAK5VxU+6KgQCmHcvEY+iEAph3LxGPohAKYdy8Rj6IQCmHcvEY+Yx4BKJNRSosKHf0lEX+PCVPbhipcvEY+iEAph3LxGPohAKYdyU8t6DgtV8NwNBX6gw2JC6Rie69IfSUtIO9+APNcuvFWinBumQBMSyQX9Ge0i1hdFH5aQ9a9S8G2odIqQqMgFs1ZJOcWPTY9Nj02PTY9Nj02PTY9Nj02PTY9Nj02PTY9Nj02PTY9Nj02PTY9Nj02PTY9Nj02PTY9Nj02QqEGSNNz2BxCDkIOQg5CDkIOQg5CDkIOQg5CDkIOQg5CDkIOQg5CDkIOQg5CDkIOQg5CDkIOQg5CDkIOQg5CDkIOQg5CDkIzOLSZEQU1N3XBq2BZxLDwn9hkAwdsNWLL7SO5VSFgvkckmdog+QwLVDiQZtjxt664J1pE3wGTRfSI7D4rKcdKd1PqlxORnTCnuk0wk5DJWCXt8O5eIx9EIBTDuXiMfRCAUw7l4jH0QgFMO5eIx9EIBTDuXkghNCM+Hh4yKA1X4AD+i7APho/xmAgZ85pcAanuwAAAAAAlmXpeQISaUE5VSWE9AAAAAAAAAAAAAAAbSa7Y9U2TGMhHj95n4Hck/bmtQIIdErmRIcKjOjFrRVZ5ixrW4PK/J+xZg1WJFYJSaLKMHf0FnWmRFw4gR11Nn40UKbSv5eheB+v+Vn6/3Xt2Dl45SkR0yNCGVzsgzPHu+gL/1IuqcyQgtcda0tASbR7g4yGzULShk6WGe5fGJAxjTFTTlrGJj8hPf+BaAw0+/hcypWJxptOMMjwyA16LEhkbISZBMQNF9iOok6UXcvE4SAYiN4ew9va47ctgF+KSbg0Qt1VY83oGg34Wv+mwRFBdyX6D7CLexrHV1SbzNzoIOJBQ2Ve8TdCNV/DF60DZqynU8bh7dBu/i591UfCX/EGRCL3Sgmu6GlsWiykBFVdtdrvy9vqPws5c+iYzMLVld5oA9u1Kz6xcqMVkaQ5uAxUeTkj+sqf8WHgzn22rf4f1YNA10y+wKAoQfGoKiWTK5S2srbv6oy03UI8c+AQETyQcnIonGP+dIz/KGUSjX9/mIvNJonO+cQLS+qCAwkADB1rFCRpS1jYZkwsagdKSXhqnwfWoEdwQUMSM/dvvJFqvdwXEzPx3RJRZopfDAw98Pj3VYhX3UB3AN3cP8Gi9TUYaAvhB0tF7OqxLFvAWqe+gheor5Zdvot3mzs/y6IFQYkR05PmRmldp65SG5wWZAhndKxibxdXhHHcrM8Apmg980eXif0wc3p+YKbRlA3nHMTbntC1EhaZcIrOwbv4XtSgWqGrOQFujNP5l9tnvz8Yt6qkbJKGFvbSDzqyHSlAfhXlBXJMJNuCAhdag/SNYkjcWA7NVYkL5Ny9cVKBz4f8H361TLD/AwnMxnBXWayzknCQDERvD2HlE9DEpCBrhJi0RuCREZ3w8HgtVbAwdcmBgek7IRBUXG0Gq/vYPa/uySkaqJRxRPVJeapqD73x4VNHrKlCbEfD3IwqXDEgoCDrjydIdSkiU46POnZ5DBIc57rvptm7rdrqLRRKaUGrZ1gtClgnbnJgJO9GlQSEx/YVcovXlbiOZ+dsFrnFLEIRAxhgIeN/viurfO1w98Tgwhiaf5RHJLSn+Q8Bza/dvqu1BBhcnj/+3sXCfuw7fiKXxl5JYkmqejChcyQWRCYHYpNcLs2pAy2F4AEAeGiGBLc4JElXh2B9PVc5cncp8wuR1Wmyoc76W6btXB7Hz4vKnQkHlnrXBUT4Wd6lcrH1TDzm6bWSN2Lh0Rx3HPElZvQIqKB2ZKgRODtfhrp2HzE4XPC6FL4lAeeV/Bn1EsE8HDeZsymOtyDvum9TKPgtZnG1XNirKVs2pk0bsEt1gziJ7ClQ5z02YJ8T2n9uMcbCi0usF3qOX3cLW0okuhvNm953tS7EWk60Pt1YPc/yH8mni70U1RlKFm94LpyNU6AmO9+sra+mEIOMgQdxzSyZjp8G8oofl55XPJWKGeIsLJOTLMtN61F6dyYzywal8L7gXfw8F3q0YmKSRRbkwfw63/JXDJ3TRUNRjnf7eXI/HCII16Bz/RF/etXRmES9DbevqFh/Dx83JgMz7DLy7LYRC9Z/IgyGUweL5+EIflw0QDM9p5tpn9f/mk2DWSP8xEFNAO6Hu2FeUEh0VsH9g2FPgeceD8ni9qE3tOounFSOUPkKWqrDPNqqZPLeHc9oMwtUSAIRnc6la8bkFrJwn6alSh5Et+w8BPVrs9XFiGOZlDhSywbOLyesyjTFr+chVNzZaf3EyPom5c1nasDgypovaVj3TYaWg5NFzvCPfut/QODKIz1/onrMqW6EevKh5ZLxK8sX62GAZS9Kzmq1DuPjRUn1MlSTiuhxVJBasiueOR6sDYKnisuHGiBBlznf2OOmaKuFC2Pm3reCF4YHj7xrW7QydO6vvLSF/9c23Tw6akkng1AOqfihl8EoYyFULHxkWJpplmNwPZQP+X3a7ImHpWIWCem1dXg9y/p9wd1Vbs8TnRgdbzN0JPPQtgZeQMEnSjQjGRIzmK04PPLv4F+47VE5UzqwlidPtDe4l24ovwj554565BtJ/XJ9YS1W+/AV8uoZTp87l3ax/Ewq/uUYp4wyQ5DD2gJONy9w8jR2Q/YyhO4Pzm3ZCskgtUnkJG+BOMNjRWaF2w0X3jxbZPCv+/fADbsBKYC/cnB8hr9wOfmM1yQBmA5sb8bCUp+UEb4fuhv6V4B6F4zuA7tnxkh55u3RLOYVMAqeAAdZknh4CbvRNJQwZ5ArARmp7+BZIjjra6NB/Ht71NedSPpxmQN1qlsNeJjkB+0cjxtFqjkpFyolKPtNNVFdVr2OZxeTRNn/6DaUB3LtWsRBDmSci6dEQ//J4qrO7zz8ORpLQKnG9VJGVz0OgAm5LDSXXAJ3RlqsN3/N5GfykpqUrpYe4rmXDNT9QzIs9Xjap3IR3CV8QA5H5FIA8+YnJgeoKitSGIDgMNG1QhNwkm/0IF1WIsO+rp30Z/iZl4tBxOOfJUadbP5QCUfPWWThpa4zbZhPD5ZAu8MI6GsR5SLgywtNjTM4G+hpVKvju7SqAHQ1J1NyqLKmZYSWz3c2n/3Zi8A2yVyRi1hUyuC98UkQphuiDxXgbIoZbQ9dh+B9FNwuGiPkxGsqvUB+K4nWCgIW1A9k/ZwvM+c1YVxpfAJEBk/E+L+VL8x9IFOltqmiz4dgZ14K4t99Rs0/ijqs2FbdJZCpwcC7FpGdSkPo7azXP4AiU95AE7B96H7P9A0AM3VLxf2+cgYbTezeIuHAl/br5LwF5Uu8oX2th7xlT0axNhWrIlw0I3Pff7jUqXh6jS4DJflmvcb4ndvV1+vqA5zWeRfu7ZqVMUGQ4ysFxmY8wo5zST3zJ1U7iSpWKFWVycVjp48up5GFT9QwAJM+0GpaJazrWhjsMV5MzQ0ZJCYDKioi/zaMB70MSCsFOk8ZIlBzjO5vtXPHxPujjFqHoJCgTzA0ZaNG5e8oJnY47Uhydn5hs8qBv+yJKQlBemZWoQwjKg6+bekr6v/DazKqJQry06uxyQWERcbgv+zEyBz9bCdp6ztwSm5GToXqCuuvgsHoMcgmznxz4mjv+HZuJMkpe/nRHq/El2xcLsF/iuP0yUyuIlH/fUdszHEp+c28sfHteFd3aW5x5rxVvZgVC5hLYFnrFUvDknmSamasZRa70krG8C9K0V+o7nZLH1rHy5i0jIKOAkjS3T18UMrc0uD8FU5Ha2YnrXTWRjVNN7tAmyGm7i8jAyMgRrWb+R/C8RUhSFrPGAdteDauD+R6fCM44OnNxr2EpIYH07XunH8TmPAo2cXgR1TmK7t2YtrJnytH2IWq1NEKONt8apN1BmVMuGiybcaLZIz0qJwrbftjC/Qc9LWW3ljan5BJUCzDoQG2tCZpHsLiIr3nXp/xOlc8gx57lvwRrEJw6BGzAze9B19QXZCUkeHAfnKE300TrEfFbL5VTtfCOhTdaBfZzvkQgh7dXfnME/4d6V8pJuHHDjPSQnmyb3LSqS+D+qr3xJkUDinxlY+IVvfTXM7iieVxeyTMyvNtiyvjzIPBpjIz2X4bS6xU6rGf5wZDz+eKJNRt9JvnlgeqzNh8Vo3vTyN+PbpdtucFzxv456p/5oy9DBXB5HsWoWiO1Nn1/OfrXBzujDqjO1778iZ7nqL96e6vgFoeh2TkJTkeiohryiw0M0/Mdu8yC6Sst1VnYtECiaMLbRonnajwLzMTg36/I6RCo2XzNOUL2BKxZr9uVjoS/Ry9371SnCJV1+vHMSOy3EWJwyy8dHwVgPUt90D1lhDYiR8X8ct++BqBxClkefj3xVINXH/7l1iGYBsDTBjDEn9wkM4nTuB8AYV4aXNRTaYPq7PWDNMxjn1Vkqy5C00rOpAkZfH+9aLd3VrD58mbP1Z7+tpJFIFYg7IU/N0b+7PsConsqAQaK6FrIlKNwKnt5LZsJDzaYWWKWgzn1lQ5nDLVaFK3gAXaTY6nezHVFZx2jrK4rxVHcfHBtmkKi2eYEFKRKqdMQrFPo4XgkvbK5RSPUMA+e4NkE3NNwTVUrItAspMSX86AIYrinU05+r754m9QvaeQTrzqAMQJn71DYWGbQ383TINPSDSWVsKLuwvSGDiHhOfRGJWPxiXfJNfKiKFLaq/HPBwjbcy4yO7rVJNyqhkH8ilsqhZVUyZTRQaRUWJoDDNpVR+aXbh5CLIuiplxBjdb2i3O+qW2WceYo+2PjunJBqSC6/xcOTqCc1yc1oLjwOr74qkUDkN7q/XHdtFFJ/hEQf1l9OJO6ed27aTIV38dWEixtGggAh6QvzjBP1QSniii1L9DPuiLWk8Kj0WWBGHs47SJAi6d7Pqyfo/j0nz1W48obVvDrYpZvQUNeHYUfpwUgu+LGeAW8Vz8BqdxznFKDkQNfcGOtCM53Xb/EXZwFnkKQ/y++zTJQ0sjLdbq+5OUnC8kp9Jpds/p53nps8GoEknsXgPFpTrSANyesnCy6o8nV4RWc2p1mER9hoNZvdTjWh23nxcOh9ETQ6eSLVuFmwRTRs5NhCq27dDiH2eqyCOHOAgicvGbGRkT5qMV/RNYKETeHEvWoV54ubNNtv9hA7Bti9mt5nmH3eY7FBemE2Muwyg0jyr30pRTpODyI0ppkRD/wUarulvObr7bHdG+vJN4P8CdJdHh+4+mI1S7h4o+EhumS/g5F3/tUb2Y+OmDpgUlM8J7rZtMrfY66TpzcoEOKdUjGq0f8GrMwJiMNVb3jwxtsHvMMDXgKVezrtWi6EdZAJVXQLcx0B232Yxf7ZdMrVPlysM2xU5cUtqWkifryV/XrkWyGpRpi9fe455WixQCFE8W/a9+YWQ4EVJu6ZiQZ7YQi2K+enBzMRx/8cLeEmfeLxfN++FzUCmmzcQMe0PZiEHPYHfth1WdiYyB+SZzfts9OitAOgSSn8e2bBF2sD9jBbcO9BRYlWNl4xuWulsmKremIRJ4R4uwiJN/ELmx6Ctm5OqtqnPc6YAPxSMo7IBderpstzpAo/cMdQa/UNIBaMomxwWI0fJnFPFyPMriPykpqS8Nl1Ibo7QZDQVlwn/eFLdnFsa0eFx2i8C1j4jVXrbAqfLf8y/rUTEMlmFLl4Mp4zDkTXYsF39vdi3mRARIY2H/rhlB44LXbR/7eGJ6f0rKDYHRSk4oZP2AdGm5/l4zpxb3H5ZaA27jqHzSa4O6YNAu+SNgwUXOkduC3nH1TeVBEZhWQBGnx99/jtgiDeJasQvRZroDsqlBta2a8ucCmQva3yWvac6Al4wUJZlUx0CRUYeP55f0l6U5+XxauTaROBjrT43ZqX+KsSyNUJHWrer752UJyWPjvuOYkqdKVwHE+FiFBa7d4h6HQ9drPIk6srHV73s0wm4UX/Trr6RHq6Q8DiK216TGwQ9NFX2S+OYaygq3+IOhiBHLqhwm0X8IXq37J1cmvlwtONM9HcRV2eICYTxnfeqLNoWQ2ynN/mYZeXmg2nfOm1qSehNoa6D9WLobiFKpwI1pUr0fjhIy5VRFhcnNKnApqk7anh29z2ZQyIzMsJXB0qC/EmMsDFNRYsdtT1aEm8sJJiKuJ4Eexk4nzlHU1R8SwQlubH5g+Jb7D+LNoZojN1mDmCFI8U6FdRjo4VBReN8A8bXJgopY2fPIWaA2pwf2UKZt29V6vVJOc1QLaUA9zleZSvxq11WdzYhbMQY4ehtZdPdi+7GMKwkhSLBnEG7v1YDkpz2N3douAduzpsc7zI3eIxI1TiIXn8awDCMWJO4jRTioDOL4egaxtKEIJtsEmOPC6oF+FckYpAFlh2uSH3HlgEKviK8dtnrFcdUPI45IVFyzYlBdah/twQizmBXuiCiohwPBlw+yB6foaLYuC1BiDtNHNR5nDhpnuRMqrJD/bzjPht6hzyEhlprKhE75Qn2CIVE1skVszewaT30dKc/tI8+8Ou1k/2qX5ntrRh0hiqy+vQlpnyCVK09T+dJgBJlUDcI4HJwQaJ9h3B8t7dWC2g7LkeQ2aFQ1kf4yYPNTNIlji4iivjkcXt7wX/tw9ruH6ru1o268QMgj4ApwlhFLZhkR8xCft8RxgWF8mlP3IwD1vyzMn2zuReVhWTbReqsT1m9KskLvF0rYpw/HmopIYc8GvAkO2HbdugeMX/vo50I7mw+0l5o2csj55ry4l8oEU1+sMC1ZwvkDdaXVi18USg+B/mKX6/9c7Aypip08MoJE6Ha0uQtS80iXtqc5826CJhyu0WxkWO8shxn6vfK/xBZB+iz9BR4h6Lj2hn2WWTn/ex+lFabYhOIcy4cfqCVH1/5P16SL1cqQteZODOpKUzjfxial4Ep0iqyUF266/yGxoC6/5w4ehQKbbQ42dIec8HKObVa/Hu67MGizN2eKfRb4/ASh8heXopnH4mSDTnWy9ExMNW8peHqZd4xHbvIDJ+J8lozU8wHL4bEefOEo7fsTZ8Ou+tapkQDqWkq2I02i+cdtbefrdsIJXVpo7TMBAOfb7x3UYlcK+cEodphJCUI/20wkNlDOXZIl6gfEHpbyQih9P4EdSe+pAoPfD929pgM/8Zt7B45WOIZ/MyQHDaELpEhk5FtlKgG35A6o7Grsu2b3hWqOcJ4ySCpS9l1vCwVX6TIIrfTzG28TNa0uKBn6MtgvzaxPubdUHhH/2thAeZcAK40hfvGw7fFxngSLUV/94/cJT0lq0b9riQQ7WRdyPW4F0kJPaexsmrXx9MiHAf+P4eqUEGYWM9npuHSHZDWOQIYBmFJWZ63DBkzPxHzL2GVeVjdVLbMBjeNZdjMkjxiUqgd7jCYEHh1fKG9hv7fSVnRRODkOdGTBW95e5wDZ9W+dOfEgnUOyERXo6iCkzPYtqgkUtHyiVN4xf+Qh/mlZ7nGTXMgYL1PI90KX9b6P5nzQNxgY/TsFgfzjLZmyec/6LNM8k0KWz17o9llGkCXYO7eYAHkI2nFy8LCi5taTrC4mSARXhPn1AbNwJSMrAfZJcMYPuYHeCv3vWjHlrIjJnUmrYL9wsTGg3y+MyfIXXdU73xw0wNQOIUsg+BWxMhyuXgAS+RmiaC5V4bKouJrCF0ho5uChafJolOWUtDWsiTDe+2eQ8sKCgnOHtlxa7qQwNxsXsgL9DnG2H7WG+KVL2KYbhGmFy0QxYJvEKGR2xCKYdN1mPbJH/H+DE6A8jV7Vgsn9gyY5dzCdZHwZ1TgOhMmON+hqq7qNLhOjW4zsOPJR2D6U3LnL6B+1g/sN7NyKr/Bcb81RUxr2EQrjeHWmPM/ngNzJiVoxANBLN43J14kUubtUSI30+bA31CfeljMef1359l8DVUJ8OdY0SxF+UEEQqUykmNUBdvVI6INlCvqhOLps6HyW1Yx9cGErgtDvWjousItfZMpz0+g+AqmLWHlPbTdPdySJLlCLFQ+fVot/gd+tnISpmfMFDYgtwmZYVxUoIYEzuUL9iOLVCrpCR92hm6NYXjdae21EYoMFO1xf+HFQwQQyeeov/FCg1T+mcEFFk69cLOn963tUTB6GA5azTKZRd012BTnO4ycVtWAj5fn6c6wLok2IWDzD/8S38hRHR16xr+JBrsCWuO9j5FHP2TDAqVdkVKsgJxcUe8glm+Rz67m/eTik4jD8/GdppwCvUrVgwdcsRGOjAacrPxWvaaPzgR9TXwFSufB+gg9MLRMVf8H33gtDHS4/TXvGq1WRNpeJvUqXKvWgLQ+VvFe1C0GgPVQPrbQflG/jrHgZ1UHsgW/sPyQfmvZGx88o/5P+zf0txl3l9VXG7yp6UrQAVL0V6HV69QtVC1emWI6bo+13sH1pvePOPs/EI7ogNMSN6BwR8A4pClkTYQD/02HHLdP1WfVCo9ItNuu8EmB4E9hs2FfuQXSlQ28NMIgaebkUwJuHUw9YXllF6QfTcOf3wVjIBABOgYJB7Zm42/RbH1dOejVsqG6dB7hryvnI8n/lAh1iJ4lVXAKJkR0Vvi+0IYVJl/TFkCsxOPdbKEmGQcVbtFd0I9i2cGQV7k86wvFLeCfLQLNDo4hZDUV5Ul1Y2LMoRaBuJ1iwCq7pm7O4jPADbSHJ+vuKFc/ri5XrpevYrCGPgSdg0QtWNxAEQdlVb/nvLGup4AwFZcD8uFZFYNrCcnB+f+tRL+7/hMFEJ53I2alkSyg5buPv/kInqLIEHhanC1G57DihLOCzwnb+zU4/igWwJ1G3JtMIAVqvMlr2AtsOTd0HE34CDAm0oqf5VZKl1rHSDOEjKVR1FRP3/DP/tbBKYTxOgOyI3wEMMUTii5STItAZLH0dupgcCLOmfKQybt4ba37crCYPUYpKpBBhD4jnfOwAyqN+4vBXDasgpP2BATD6D/Z3J0bAuHu80fWBxFI25Fp2x3fWZX1QynAXrH8d/rygknNeHEkMTd85oVf8GyGjW8iT3TaPZ4010bXQbvVU5Z1w7rxqs5XFQCAjLMHrIcAHxijPes8xKBK3CLg0MQzxRnwD1T64u/YQeCV8CK8rYp2FZCRrd/3o/xHabZA4zUIqEzY7YO+nk2k6V3xS8qB9N/4wsKfKoozyMCRm4Ezt8jeFjWMVIJIIaPlt8xTLnWoxgObijqHFvaA5BZfUT45ewrgxai81oO57HaCwxL4op+EjuW7HHkfwfch34bYzxNHXmQXcQk8TW0054cbLyL8QLWo3FdDZwYZ2WOnyo+VWNkEmBHzv2TtPLGlZ72fUp/dIGRtpsYrNa00it+re0nmtYqGsjyxsE0H/g2EsoxiZHIZsE7FY7D4EsaWjGm9iiwUz9bvq1x2I3OeDK7hEstiMOhyFwJQx5zcQRt0UtvfYG8Kf2ulZklPXptGzLZdVHgyjXTW5cDqtNrW7v8peYLYMRhyvCfeCAfib6EtfO2eVj7A9CdPhDHXxfSNikzWLTJwOFdP1sNkkps5JNlNn2LCJTa845mGt5mwa6fqe4NUHhsn7pTrl5shRKE5v6VbBjB/9JzDuMDmbuTooCucqyBCcVRFRp9Hb9bfLbym7989vp54HERKCLXtLs6einGQzVrWlVCLEhhVHwha2ncBajv8PulW1+FCBWkZJRZnB1TDEjUPeiixgPIE7VMoXKCjJiXgyRZe7TfFVq07EYKcva0d0fQG+RmTrwlfRzWsxlzR4n1hVXJHCz0CHMWtJYQLSUAJKYEbOpkyXFCgGtPJw4jEbbORENO0AUsIlSnw+eJwxrlI5/KnlY9SRlGm7w3Qqt/uJUZHK00OoL7QpM3HiQv+9WF2N4gCwZQhHDy7n3k4eZo4qm0MWWmoVhqW24fNP2lEhlVZl12y1iGCQVkXFhgQ1HiZ8k2wzRJOps67x2Pi9jsMsEtHOfIdN1rzBnJuelSBhd7NSEghT4IW7f+ZC+UnBr7wc1Bze5jijc85jUvJ0mlBYzJmbodwc7ceTaxYTBrbtOsuquSd8Or7YozCh0Rctc2wpbThd/BD1q4Fx6TV/Nn6d1GPwpELiI0zopoPZdT5LiyXw8LxTR7+cpf+zPtvrA+c5o4ihyuyvcdp0pq+B4RmOLLss8rewkV/uYN1H/HdfKub2M8rIgnFnhlvHiBuzdd5R9ok6xetzGIfXXfdz+D9qOnSikapOuEYZD3iOsApQPt5gFRXzTueoiZch5azLNtFDnkRiIXi4MFH2t4S3EtqEdqA1ciwAkyBMdiXwcLOJmMAkXIsICEqRiL9agVoV3Cj5bPucF4K6JI7rRDbOswPmozEFn7x517ZSXmy/mN2UfXOuqiMD236sBJIQ3gq3BeZP5LrMYYM77kEhfAIozHkSgPkheefcnO1GCHceKBRi76kKnOZff19V2/O750loJTNgpLM4R650chmzC7jCDLmYE+ANENffHgeyIix4O7PIqZxfgVwhkx1itcjJnFt3mjvo89OjvPnsaBoeREy5FGhiUG1/ARkb34BS/1+2R2LG52qDl42knXLN0tOmjhEdzckfXxUdIJvwhqPyOw6JT2+UPayyrZ/YZf5hHnfrCRducK3vtj9mIaQhfjVUtxxunUi5HJWMjERJZYeLcF5XHWwPNTXMi5z9Qy0rojOrW3WgFm56ALyh88/aA+F8DRw3maHGf7o7yfA7PIT4PWHQGmpl9zEZjnBKcVHBh8rC/1pp9cKWJVdxh3blzkcZHDnoHb4nLLCI4X+b4u/qN0HYfHo7rrAJ7QaWeSdpskAJarTVMdgFmro40Tth6BKJY04cjH3yb1Z87CIgnQdQTbXz5bSyy+nOnirLJfvh6zU6cL8d2MKPCwY6bBCzaaaWMWm5eXvyG6JGh3vu1qKLkBLfFGqLiOU3B43VupGbOCJcMdA5w44i+cWtuCX77zoeFFvfjUZJXekN0hOblxyahoTivfYA0c+lno8RKYyVxpnRLijKblb/tptxQB4LtCQqFT3lEWJ3vzlgTwgRD2X2P3kwOXbLHKR0K7WMt+Ugj0qj9AQuMj73mb6q2eSkcjQHaXFTe2bxkUGHY13luB0s23LehuR2AD+jvJ9j1cR0JPLBqCf3eNm20hLxV8qbtgvjinQd3ztwdhfWjBB91OKdzh+3v8kKGTcLEhibzUVUSi9D0ieEmQyFK6Ecgg9uYqwU7/JOEA7S9Alw/VgZQF/h1wbwS6DwOwsPWo7yvbJxUnCjwC6fUZLvybdGly5xdcEiTxI7JSkuEG3Y1D1hV3i4U1Luow2/jCMIV/7wzDw8OOR2tuU4Fm3sZqH/bdygLD6vruo8n5gzO0qufHjkMPxocMXU3eGFzdDHeMv43Q/A9qGmYlLgEBjr71m0PWGCnOxwgxiXXOAuhr232K0SmrOiAG+Dj3BmhacFyLsJf31U6Q/Hej/CS6TGWxuu7jKO5hXAGSCZmsXDGUAGc3WExj6nHvcmKug87U8bGXJOPeszoBOfRey9TA1ptYUzf3zsj+TUGzvdq4zxJpWU36qBGBa3S6mWcPGStbDHDK5uLf5rxWCfc2RDVnyRr8sTGwC0j4XtwYijlAJ9/xb85tt6ZpprBlxdxVXDeHnm9eGgT+gtygsm6AOl+OXo/8uagKZ8X96ObTHcddqvjYYGTnIzXoJS3BKlDg4Y1Z2H6jzasPNgEkyZ0s1L9gq7qDCC7L7e2oRvhBp84L9WtGCro2ABstw2HX+6DhaLC/li4GpYoXfA7Tp5DxYu5Vmbjj1/0w7IFgzkIj911G/Yub1WhwXcyVsfiHZwSBxKcI4fLkUoBUtGbAZR0cpxYLuOmMnxGcOnkLC2dRat+8o5ZtmJvBstvrFVTVaDmdy+M08Hbo4atFVkds5zRa4CJJtNXUVCD80GkvxtDtYTcDrD1GT9UJFLxZv28Vd0miIpV2QXV0+S/fbsUP/nNf7IJIPT4sw5axMEnu3Xxs8dSg72O+3uwzaeyKc9Oe03c2v2wRvG5A0PymE9TYDXimBejhBRj2c80QLBxe/Tru6uO4FQ7uG10BNf41yjpcEcILob5UnYyqybJJLwax15AP53ucNQbUddYiq+1e7RyQdec4C7cFKapeES5KdXyBCCLfXlPMgdiy3SVcfhF7SPJRuk0ftoi2y/FHpJK1O854wOp6Js2vQEh69Qi6IBuWHy39B0/ZPwAetIY0ElJ90Omm4rRNAzfRxtl0IutNHNRdqZigFOExp+3prXipxfh7stDtnTKzEpwTTyph5Kyw8SwrtLkF5fu3GsTyEquAG00kb8CsXaqjjuHkXeaMvjaOP+LxAqTLNdJ+HyN3dybISxc+WFIS47f8F+Ak2DcmRljXEXDsmIq3WOQobmdEv8X0CY+Aw8EaNM7kcyDAxWBdKmycpBqzsqI/LUNb4Gx7KydGry0apPkJglJTp0vD0RHaMger6qUAiX0ovBttKw2b/dboaBmZHSEWZ+yzpPkJ/dXOG1NncfXB66PrVtKhEuish3x1wBTX5BPPLEMWyKzQtgbvg2+VdbLMANtwzrs0pTD1LGD3QYtPh3kY/O6+8WVMfM6gkHm90m/GhQnp007HV5P+p+hCrWLTP81nrhAeDpWDLdGZo426NOvLkMy9n/hOdK4GYXZiZmpeh7X3+b2kW8yC6n98kU0M6vVEO+7pCf/cA1mZhEH058lFQBYjI9cbKkNTXb8WEV0FjjfgqYYJ3kXlcYkiWsL1YYX8MA8DRbFiqz5v9U4b+YdqTAhvgxmbmK4G46dDStBu6gbYiWxdWovoFfJ4CggoeDtkzQPSetc2V2DAY2ZbFYL+aP6NUPMIkMfie32FksvTKFmJP5fWLCKyuzRDmZwKR7zTbiGUNApXoRIpQoIDiTN26ppwyc9u4f7oEEhNtdSrNet/b0giDxGPGBVGl/dlkRgenOffY7rNiawUteAJPvKIT7iPDlg3IRyt5aWAZ7o3nYulu/y3i5Au2MTsPrJll+6P6wV7Rfw0CGys0P19nbKKNql0Fi7fHIeEO71NJraSWGtURxm2l9axVTrxIJQbo0jivjJ4hlReCjA77cMmSnvNfLMlN4YGcdDXC7xYaok4PT0GINXBeKM36BnbKr0tdk7VuZj6KjwwBBg8Sv/SvuVCXnza4wt3T7qNuqIjB5Q77sOpJlOr2FmR69YZ4c/+aXN1yax4+y7fsu5qJj4QWlwO0ZlMnOF0f9yGIKb4WguWTu8hvJN+QZ/v6AYGlbNImJ1LZtCxGp+7/GPO5IkEYSFlL/fwwY8epC0ozAuAb63ZatBLOJfxiTb1vh79i0SXZ3WTZ8RmDBy+E7uWsnDsPMXmizoskOcxfJVDxCTkxQOanGBVIogTxlMBc3uL/Nw4xLG5QtgTZqiYmbfdO1UDXn8yeZzr8qG1MOLI0rKIiO4xGq/EpZeJ1iGKrxS8vWA7naQPG2DS3S1HwKpyWia27KaU7cATGJWxpgKnb6tszhKV1QKf3DkCA+lhfDnEL19v2iCu5NLTSxhAAxEvHT0hEHTx2BszNuBVoRjUJc7BI6AAPpGIiCxaHZKLmW4mJrBkkvA87/hCW5CllItzWddtN8RizGqmRvZGtJeSmtpVQ9eDV2sgo8LdymG6ERyNP6OnpyMkdIqRFsY25fRNKpYePKmn0Zxu7q2BGxNKRlbheKaFe3XSkeBAlhqnP4WCIrCcuPE61UOOu39g0wG86k2ZpTLxREkFdQ9Yfc/ECQ0sPbMYfNsixuazbOGenD28BjC6TGT3wkjAOGtExly63kFNp8/am+nOM/WabR5jA4xGJMGjFRi1W960NMrjviX7Vnb4+RIRkhQJwmnSnXlQdbJms72V03N/q501NUSq07Ty4HtjG2ipy+QGwm72h3ywOku3AJ54PP7ywoB3ra/xEQdF9HALHVD5EAq+ZQgkPOgMA7XPVEAO0mLGRJZ8qxORlWkTHvzbmzgsOxW3s6OKNnUo9vsHbYqq0DD6Gg0zUiGSo9cM5yMDWV96I/tjz1Ws2MrjY8Ab1xFgYmUzKUqapHcfyyPX4lUnOaU07x0FfqSzOczXMpSqxqRmlanoV/CG3W98oAbpC5nII1AggNbIIZXyl3c3jlZdIoP1dJXiydaElA1DVUES1NaNtAeqebyUgBBXPYlSoqgoM5qVu1VUeMt9ygWIHvHOFKAf3G9YaG+RMPsJniG8EqWhG9AYZZXKUsYPGWXgWeFQQUT+EAIe22kdKTFMqFqZZXu7DLvPA+Hza1xTzPQ+e9xC6uSb5cMDr+uE1zNJ1djGNHBGEcJj6KGVNty+F4Eucoh9vZU4PzSG7Y/nwjfGKzdTNQpBj2acrfg81/zB0m20i76pM0E/wreR01ixDSTu4OaVH2wVT3wtYb3kXSQxZ2rQ5OcQ82KC5TrDNZe28VM4rTdwu8ABoiAZldylCHKeD2jUVeFUUTlTbqKdRTa2Zqi4aF+JCRHQ7gJqXpNy+SDZ41S9+RJUQAybP/8zFzftdDnpKpKArspla1SXwoJTzENg9XhKO36B+I/HKILy1v9OwhKJDCZbiXXcGvk225ADrWzw9b9+1NLetJ2joyjzmD4r9ITUzlnCSYBSVIiOIhvX5XlGJX6X0OHS8tA82fwN9x8cMk1gFrLxMWhaGTuiMkGu0H74KIrd8CXoujdrz+ffLvwpf7OiDIZGSidJ1U+4kbkXkawY4s6toYuJsupMWx0PozRFzIKRoMedsoRtrTDKcOuOkOidUOIFxtXuCDVxIxwACnrfQpoLiwhe5uf189C41ahvF53UEQ9G9VEQSRkyCsGY2gHtXa+0x4o0dC0qKOlQhvdLRt9hKRrpcvBbZ7dxD671DnSKGLjuLqjN7oBuwgQJLbnixb+5iWdWmqZJ6SovUOm99gTyRpk1hQvM6QO57w3h9RNlaMhf6MNsbkeqGYSM4CFuZjeZbDAinWfr79g7HWj4k4T0jlyIJ8fT7d8KpnicJKcYMdFF4r4JLcpwiH/Yj3QatNLCgzuZ0j3gWKVGx2TwQZPAlkfKtzDID7ArqWd/ZGn/HG8S/DEg7y9fUzdnc4FfLFrAOKKfOYi4XPB+Cio7ug5ZP5o/ZF2QI3I8c13bVJFvjKZbHijegNvkS34XjAuUvFrOVKhGg3ogMzROTwbIIzaBWBM08qoIU6mI0sAw1op6BUhpczOu3CT0l95lshy28nofrFJT6BLxTtoWetRoXA1J0D1LdfZ8BOt71bLfpJ5tJfYSHeCdc+NFm+69qbelwRk/0Wce688qK6VoD/BRWS7aEWwvw/Q7WIwAP8ObdBzg7kK7zhUECKTWrbu+5k0bKgCY7UcXO6L4uHxO3c8OGDSxPdGseo8s+XzMEW+eUFYgJs8fLRQb4YKyZHhPPA/vthgRqcJyP+qLjYfVKhPPoHA8sTJUbd73TnvPCTUSTlQwygkzYhS3RfqHaprWlzg8WThH/BzP4uGdpi03OGpyOTQMv0ye9SlgSVRGsA/VEY4WlqfKvpfJvLejkZga8I9HXspTI2663mTRyzYknz1Av5pn5tclDuwKXNy1nzVhUomonHgpV08VtNktijCicdDX5bjKG4AkWCStDloLNrPacXQ7aneoSI+RxIrF3f84xKW08vZ3ccyhcUOoBW2qICI6Bbt2G+6mkHLzH3En0NbeGwIZEp+yC5eINmHICnnvOjhjo3vbJl607xyBXF3oelSxHRwyQc+pL+tjphV3P5nuWHsT+oyKVvezjEBPGMvt9ypqSr9IsDyNYZ+mEqImujHhUzWoIJqUMMsvPPbkLpP86R9RbBruvaRAn8+9L8msuhrPQTzR+sUmsi6rk5k2rrupQEbjy51V2NRa6xqEWSXd/BtM8WX+v7aLigJjP++73or3yiasFhcJMg6ZhaP9t0RFIikpY8/829AuTolTQmHakwIb4MZp2S1zrnYXPyFc9y7IMoWJITQGe+3rclkMCS5RD4NogBAw2Dnmm3EMoaK+SDt0sPCSoMFMRUUFwdn7kJun9N7TUYywjKIlCqAhEW6EHSNTKnmPz0AEKJXQVdaqj4SPzA6J04UKVnq35YFd2/nn8VJLFDkSXvC5RSXAFTDLfsyPlOx4Sfe12nIy+be0bhlpuMSawRu0TsTDIE5nVpsJjvRHR5aBWsm1Xtmb8mHbifRAUfOKU3MZ+BpwwMBKV3PMmUynrB4Wy1+Aaedun4DdZ2cC17ByCwadqxqn9aJmt390IZpfaUc9AQfYNl1TmBnrbzCb3YlwnFua/qXylgLF9p5ZppxdkdmcvDLY13fSM46xrmgBqW+4iXOCjt6KA2erfwH8EQaxzxOUdHv8twsdFL3zmh9b2NVb0GD8KUNqKgagv8V6aMinTZA2mxbpOfxrv5pYGHQEPRVwT4LgTEc7OiKnRspBdErC454rHpmgWxItMq3nVPDsoWXsZmWW7pAXJBIL7hi9qcJYgxZj8IKYVNVOCdABTkUpzFk41EmXN3KM+aYJS1UftpCUtf9FhyaKAjNdIVcouxSgIbc/s7HNyeG7DnBnIIbsuaT0w4ckmDRq582wcgoVZBXFVBu1h+S3llSTrVRpu5w9Iff5DKqoKGlybWDYEJ3JQuUesdw9sPp2pJ+qaf6pUhChYDw/vpjtXdzziN8fj8bqbjnkNZ39xLW14Nvc5Pka/GRv4PbX89vcyl6XjwPsOy3DEmPaweB7cJBgZMqXH1qLbr3jnXVaZDwe5AJsiYorphlLEoA+l9S6SdsgjyUowYFiH8nXxdiUMiDFIS1cvGXKxbeahePEcVEchBJVaC2esusxa73103crV57l1B+wJ/XvzJL2gLhVG74QpATgKrFK6argYAcgnRFco+eZf1Ggvbq5wi5ohQ161SOXAgVh7cMTlpBxesHa6enQatDQlaERoQe4AcBM9y7gtnxtLJPpzRVcdPA4eL8dwCmWijM9XyKBEI2Jyn0zZ8tXQwsk40P5IXUs0E2GF4QGLnnJ2TipuwIA9UIMeaNsij4qZO6Bx7MQIjtdNfS7Q1ilejbGb2w+FwsiRByKBH5fW87pZMZbS7al5ZyyisLoWpOu1DTJ0TMxFBrPOrRJ92P/iFgDYp+IjgyUeDtoZxpZHRRsewqcXG/Ey1JYM39XrJIf/+/J3ls7mFMom6Tp8yBW/q+XCdUTOKHlECQdBDlkO6+586zw+IkAqGBu/jTmQAPkkKF7azUmuDAE/wCDE8sN2W8/89+jbhy07L30ghQraoEu36XorEgFtSmlftXP44EGcYJgCMJ6Hv9sBJ3oGkw46rmeHFi0K6jiqaFMmKjBF2qXMYWnT0bqer7QSgGBq+d2f3ZQwWGnZu78vkkb1LmRxwSKnibxWH4YLP4//z83//JUjhNOlFS6QWom4yuw+YbF2UXrsQ71b0u+Qohl1/dQVoHr+tUPjhNHDOoUQsI7dZvBul2/cSMzo4nLMfYUi82bFVC5m0MifSmjEjGKVQGR98VNxyeRQlKQzVDYjCF8vkGuOtAjvFrjJ0Ulv2K0QXlWHeBDCROr/j7WpYinHdqYfeNDU5o7TT13yrDlPla08JX3kIaD6DHSPfK6zDH614ThdrSqA3qaLAczaAuakTSbcwHWGF1PwfHBxoDI55ZMOxTvmftmz+UwBApcT7Aoo0DLCDsiypogyQ4IE6Pq0BaIMkfgcaiKJPmvxDRLvNAHI4iDTZtM+GBHPxBXCW6a5T/keimUKFNlcY6UdT4Ue3QcMnMP9tP6LWR4Gw3K8wmwwkNW38dicLICe9uEDx/j4YYJSIDj0hlw37Ih4Mp9/1+t/URI+lnN53gV2gxzNBBxd5ajGKa5Ig9YonczpyAADbxFLmCBCGYaBx5i/0SvsaaHGdXr6NeZox7OdX1eo/EfdkF+SM8P3/RDjbyVaLgJaxSyX4qUSISPPwMsvYisGOywgAIZe/1XfzhRa91j9v0UptIqSvEdZWAbsNBisrC8hi2kia5ZDPXwAaQpmVVGYqd5PyahuetOWOL7KZWrEyF4MgFqDWhBPTr7a+OztmIm/HNELfyt9bFv0YqRgYCbLRPm0GXSlP3ORmiieHdIqOGgM27uru21onImZTjJ2mun3EF2msUG59Flbc3VTlZkiVhSMiIhDG9VzOm2L0DjYlUAJ4Os/1AfyhdX/Nigjab6MrqKh85smfl+qBHBOESCR3HLWWPfUthPbHN5L7AJZRprwqjfT6i/wQt5U+Bbb2VeDbUr+8crCblz4ntJ2CKgpTtZwQgy+6+pGP9tS1Gfl00aUT8TO2QsEjSqQ4MwrpS3lXUAlj56XJ1686yovDxoLJKiIqdCwO+dTYJu6qklYEEq8f00GeqXM4x5ItO6/miBY4B8SkjeNq9+SGfNVANudqtQ1W1q2iPcm3/eOCA+HBgn2dOwI4a55u/2PwHEaHcCvhrzJkqILcf3Vpc3hwkC5c7pUFRIaOtFb4U1G5ftwofnFycAtCcvqH0p+bRsDuO+7J7IHon4BgO8ee8KOk8zVCZxClWffBEOTaaBwQgHn5H3e1erqueq7nQlGXbUIozrMBSpEgkPDmfaCLdgycD0fRWELYLVon3/EWueeaEjXI0agtTRDZc7RU+RgKF61nSB0PqV1b5mtesGVGpOQ7n5Kilc4sKx3K0fas8caxND/VntZ706lO6T6yj5QgHCPBqRXn4J5Lv2xWftbzO7NaciOm3DkRZWRc2J2ho+uLsDqfuiUJVFnWO+0CwBWNaWfhF4F2D/Fcai9CMfYg1FOuCzDZWQ1S1BjGJU0TMlkwGpVq6b2pmawNALXvJ9YxvSAs+ic4bSBXp5HkB02K2NrCM/UIhZunZCASZEXzsZEIJAUkYsSu2K6soOmoOjQXj1BvsEXkUXwwdYtizXLLupGHbdafYlyKWqW8w4COT4a3oWduEyI42i22bHIxcX0bZVsj8w0YKx6bT/ahPxCU0BSVleHcZlxmu/AbyIynsCJTakaXcttbD0tCeyZIR98fsitOZ2gKM+mtVY5xWWF+/6GLo/pHiLeliRxmHzPAlY74cYQQ1zs7/9uu1Czfl+YoPrIfBhoHu+h7wsxqaE1DKRyCjeOwiHDzlVx2QamNb5Uf565B8G3JsoGikUbSA5O5tqmsBpqXwfrEA8asI8ENWMgH2olupRGrukv6j3J4GyCm482Xzc8GE8tX3D3uZU8ysan9PC8j67Eiv6kGoKuvvulh2MZm4Miio6TGH8xjekRvbFP2eFtW3FlW9Mz33BTxRHoFW5sBo0+hDGo+OCZb0lUA9YhY34LLJiX8i7TsDIRCiGrLYPIgNfIs4ZDYw4KrYS1off/F4OAo4ALS2M6XK3QbVW80KvKMjZQdm4RUqpEz37EdMwHo5SLDA3IanCpnNOEbd2egrds9yPlRHnZ001xwmoCOoRPoq57npvMFZMs7DXP/lg0tBNEHAajW6w0QGPdq21gFqrz2MZQ02sNU7RNQmPhnawJlmfgeP46MHk3QB53ZVLw7o8IEZcbJa2Ye7K5WRM2E/K6SyUqIF19m51XCw+wZHfms/JbT+CU4f2YSE288CGGgzCMShQ0l2nzv2t1FAjbGJEexKh/sShSWdPxN2shXPIYueLBFDQ8pbOHLZGyQ94KqLGt1U7SHtakFADrdbvrMx1l+VP8GPDodLee4RyT+3oDKrizJxgu2LCpokuo2wfpRYhaJoPchLOlYEiwLTgAwYy/CAIFwnQhU/DRD/g0jgGAytC1+9RrJhAXkTcSGcRXOzc1MWj1OGU/xHagfJzcg+QwXdt0Hb+rlCDoFwmr1cABcXc0rHaQVdHeezw9O7INqn/NsuVyvMhQmSC+2nhPgE1zN05pjZndadel/DIB/WKH3NXLJjoBiDDUDvOjSUg827/kXSFRdj3CNelMczCf3brc0tI0i+Xac6A4DTwGjWxv9iYY9koxW4BnmieP7o+9Ky/Vp8V8bCZwh1KWj1pefk/hGL2k+s1TbMD2lm7ZzRzf7x+gWORMD0mfpgq9R8XA3jg6DYU/z4c23UhkRpsyeLv9vvf39dFcMi8z2CVpeMJeQmHutlZo0pSZ9pdsn2ziqW4bl+PUyNKexJOj1ezr/zwYHJZ0IkFWujEBKFfHVfPCDeVdyfA/na/HRLuqTILDDOVDCApjVmy1ly/ThHbt7+oxaMXs3XSn0g3Lubyu2fxINSp7xInvVVR4Htb1x8VS/PmJfVVrkaKmPMlIDJf4NbfLn5StJVwDjKYh6XP/pw7lvpT3YnPqRwYwp2heIZgDPO3zyfS92Fjgukhmr8u0R1RbMY9grZYyntt0HY+9YooNXwMqAL/pNT6VmoGS8gnv56lZdQOGJdVQm2YnGNGXgzgn/5PbY+LrzqGHnyed4YLmnQzPgTuGbDTf3YL5fJ2HugI0RcdBNRqItF61J1NjDdYvShLoUPEAsedg6KOi9A9FWyYW8CvQ7rKAjTblhGgSesIK6iWK+caErV2xXjv5AdyXu7PmfScyIuULzr6qi9A9D1mBoWljfhQ7JARNi/0jBMsyMfdhuhvcl1zNI9+RlKqUs8s1HsH/SA4FH0bZL93UzCtEM2fUogw9ZJ2mWbpSIZsJpPpl17mPd9eQepiuDNd2bch48Mq7CJYSPHp0z19RFN/iuTF+A4e/mwY4gJ4KVVN7Yp7+lbLKuy4z5EixRpVgI+KMKBMEGEpIwOSxGZ8l8ID2C0Wz9V9x1izge1zmQjOncP8zyRNigiUYXImbwqU5gDGzc/Vl9QQFTqta/6dIkGnuEdouTAR0thuMC500fGApo+RN03AgqDDUc/I3244EVHcwumzupEWi+AS6ByLmGM1CFv3bAURI3xgFD+Uu0o8ELLPV0vMqzikcovquCEhHVTiZAdqW6gIPBb6I5RRrFKhJiHX3ghlWx6Uum/63nXMTuHIG6w/uvlOGYVPA93WLhhVBPanRbOZLl6fne+b8bwqanC/32QUQekaTvh95eahzcVfXDQxpuVdwCY+dbYrhbXZLoakVNWoJHXY41zyyB31nOFnkqnTNOQRn8CIoCqMCYvVFGF0I3S3BmWkdjX7jNn1iV99mMpVVA3tKc37Ml/m/JzKvEyHpgcJaZQkrufymLIEQqawyfLBstqgeBI9SFEn6CqxH/bog5IuSZ8ldgfaL4ocY8tMIxrF177EjRYFcffD8ToCclZouxf/gPtS9XDcz89cEDCR/HhF1N2+yqmbA1YqTYP6w1v3hDCIjxo03VLCY3mbwHwTeWurQD7xOt33qBTVPzZ1aXJzox62X1rCN2JdzyRi1YAAAAAAMPhihgAAAAUrASZwAAAWhUogzRAChuBAfkIQichggAAAAAAAAAw7RPVWOCuyxhpTzflbIygM9T3BaDIAYWhIyAieXR1v+UFZU7l+W2WO4wuy8oWVT6Agpk/L+mf2OQM+kBfW2VpYoNDaWcX5w9Ygx0jc38rS86lav2fhk75cYAAI0dbDo8cWoEET8Z4m1lA5Ft2Y43g+qVk2r3m4jivxTDneXe//AkWOfESV8xN1zD0cPWIMdI3LE8XZHCT/Ph9WqfjRqo4uicJT3ISBkJMmzFY4pXtqFSamrEMtituV0kyRZ19fkN6AiB+9znVcQ1a4DryL+ELnbe+3/Yv2v5MK9iVLuzk7iAerO5tSh8u0qYNcbsN0z1rC4C8CyWBnksQHPqofzVjiUWVEReUOstkgw46Jh9bVUrfX7WomHB2x3Es1t6X7iocj1u18EH4xUkmqTxcMmAmRwSGiFLHHLYoA8S9fN+ptJplYewtDufccAyXT6Xa6YAM+v5duq/FIWSIiqHKqGzLbt0uxIbMSl37vFFDfRsI2RCw91gEE/EbaWGhhrI7q8N58TJQSj46x1ljJLF2dP7swXL1hckjxOLF1x0Oar75bV1YBRWeec7zZsCwWphy1U7JZ1zsaBkNNHpPfXYJH9IAQS1/+s93uec6CrLaJkmgNeEYgcPNmL1UstcdSMlelr4pUQQKRelVF2bdNjF/DuyyMwunMIBCkwR5Xz58nbxwKG8h3TziKQTgC3SMJvrBpaQ/VEzMWInWMpa4b7gNjOtsXQ+PcvluMZmQSxjmcIu0ePzJJLTQKBunhi5Q1OnP90yOcrE44vf/NKF2w8OTVq2PAmx4YOAmR+xT384ncEnYZWGZLGEbHFT+VWr01hwLozcWRjVNLM2mDzDxAAQi9eF1tPeYmWDg2RKj/s8Ho8eH/mq4ELNfone23z7pjPhJOsMu8vIc5BA56ZNWW0yyV6WvilRBApF6VUXZt02MX8O7LIzC6cwgeR9bmNyPt1yYlhU3kO6ecRSCcAW6RhXGFp7KWTtEq6cXaWsPSYz+8MRudx+Qd/2hvVHxf0fQpnV6I0cWJoyQMuRgN/On/ANVWu6PbRnKyrxSc+FaKS+G0yZ7lQyXYkU3jJym/rgmIp7sYRscVP5VavTWHAujNxZGNU0szaYPMPKERjBdDQjCbc59VAyVm9F58pdWkltPUknHqGAGP7EoTlY8Yy7D6eBKmr9nx0NJpMYwp+0JgESGJbM4D0m351D9HEfTVxhY4bXmAH5LGIhZreZPnQ4OWc184y1RBTPnZJTNPZdvCaKrFxG1FUt5ps8r7uvW3Snc5im/5PzTC6m9HlST0ExBYmT2JE2BMx9MKzBpwgQ/XGH7AYA32ycw38h7kDp0knl/Tc94aqwMtqx343cnE7bKUbzXGORWs0vDfa2Bx/v8ToHOQBtSqJkSAJZzsIR1zuL/dCk9bn4+jUpmvxnEsK3lGEmjteLZPgCnDMngQoa50BzhCu2zhJEvJ4usCI/l6wOR0LI6XX5IrXHRUVnDb06OmoO0ZRwUisKbVKZ4RpZUJptqyoEyDaUPRvP3qkkMlNlgzsq4jQpX6i4joymYYiakpm5ubOeKwMmoNYrjDiePWVQAkvHpV0JG2sYF27z5AOUMYkj0098feJSnIlmPj/mJktgGK1ArWkSn97Nvy5mbNucZRzpdCeojGw69q8tCKbuTmhEqM5ut9ORXDBu0yfU2V6Iu6zhMy+RUMbjBVPhh58yZ7hF1jj/VLJadV2Z1ShNOEdM7M9Q+jIHaJe4+Qa7lFUn7WL0m2CzVx9OhbMzKeeohH4aa3Ol0FBEyYoRJOf9ouJDrwmm839Md+JzvlMHYZzg060uYFMFBPMViUNCbggeVAd9moTygpMpQTn2jBim6ZJadyN/LGKGE+c2qsrIr06+18REqZKJlnmqBdwnaiK1eQEgHjmrcdFFgWji0h9pOEMBKW8cfOh0Dh1P6j/s28dw1KoVivfhR6Mxb3fLSH01nf1ueLjMH/Ga1lBqocik2vEd5S+TZYQgsZ2GaBRc1o9avd/hf6oUh13ucjh+uT5EPDwwu8xVXOfzODQqc2szhGUbA0tHQIC0FJ+qY0ig+qFMH25GHvu5bjsM4Dp/+mscienIWvKnEPBaRe+Zvzfzgml5zHzrcDjbPie6HUQV5/p/UswvaumhOBpfJ4qn9bYMnBzr2GmiBx+poQFOd51S07CEhi60g7zqRURTJ4eliBBMAK0IHbZDflzdl8qCGwdm3kAeFVxHPO3EU5ShLJYEm3+tloynJ5zbXG9U7gDux8SvCeoDZglk/2Ko5TuGTp4qcj4O/t4h6S/HJ33pD9UGuu1LS2kjtUgraQEEzl+Zp3huCThEWjQxClCAsBtiYoU3wWYttgfTixySJb6V6syzEGmel9JEgjNngV/jlA+i3X+n+odG6q9HkZz53ArlNFMvlvvin6XIwMtzaBVkMQRmTG7VTn82B1JJ8KA4ABW+wyyuoIy94BIM2pWAs+Ybg9IFlpMoqQoObrt6v8D844yc/KjEUKRbkLhDEMqoHEhtEICmDhGFqqJv8PwXzQaVi7aXRRRKjIdJFjEcWRtFW08yv3722ZgKs96TgECFSuHzs1i1DkHRIIUOcvQOybJ6ymU5JUh4fv6od+zIjQnxQ7chx4qK4XepL1Rj6ni2QFUvdnGU1UbMx9ypAIbtp0QanwYGl+W1InYPs66GbdukJE0UPDKz8lq7fv+b7yUl1OHDKyMBVJ7KRqOpjrZqJf/DnD0st4T0Wr7wuNJ6aUQ8TCeWvC5SGDI7zhcZPKtQWardM9yhgTcY/1Mb8+A2kPHBYa/fIobfz+OHCNeAp9bzQn4vRWCwdTZLEVLsVe36JTP8n7N6kRj9nD7xYNkI6eXQcuVerFSYt3WtDAuFTsdZKyEe69bkU8KMpt1dBkZ40hqtEZvPH62MeUH9Ehla9BNiJ469jMpJDKLBz3kb6CWTX2cCGpCQ2XX66OlZgSlv9BE5ZGPRK8xRvO03eTeUj5fSt1hOV2fK18Il0Ul5RuWaLezrshBSDwACghfRoxpHRB32kAwar5cjQCLuoGR6YMAYYpTtgW0oNP9/VDv2ZEaE+KHbkOPFRXC71JeqMfU8WyAql72vz/fZ2t+xd6qqEOmhEy6+FYXbtTqDCj3lV8Nwbtb2OcEn5LV2/f833kpLqcOGVkYGFlbCxsXrZqJf/JmzEduvxF/UyrNFv/jjZIr3SQAwyolSFgyMfBfheMqGghV/pPVAkCX6Su5dg2sJwuwXNDAgjfZiGKhazj6oulcKjNvYmikelMvc/i2A87NfAw+i/d/Ip1Ep+10/tv5UuP5Bc15136FRr4Bc+kdqSf8Zh8Jpc777qzvvN8nvM4a0wQNiBSVBNpXMzXS2paVV/J0Q9OXYYWSnkGMoIn2IsHPeRvoJZNfZwIakJDZdfro6VmBKXhDK0Co9NVpGY+v2UTguBj0W+/3QfyLgHzsW+qGKXlG5Zot7OuyEFIPlMBi6AIQ8eCQYfTLu8x8kEtu64RYZI8gaBSh+8KvCVzxiJdjkm47Mt38ULwI04U5bEbtAcvrTw1TvZ3Cdk0/9awO1pB7vo0RBoDboRtmzfdmohcPwHPSXyLSxrITObo0z50HqdtLnI660OHIkKrLvQOEl8hRK4DlybBaBikSCEw97uRqLNL6YhtPVKAvUecnAzpmceGHfQpJlemjaOE9Z3jgCYU+jZTIheA4u94eGirZaIYiAFfxFNJZDVPXB1KLLj++BHQvw9RlOswoeNeKs6a8Z/PNpNkp3cFR/QuF+FqMJ7SNYJjYIyMAr02ka3DoWgs5JQk+FsNoMdj4Nxp4CW/ThDElyPYNavH7RiEr9wTdfxMa5eNgwn+iIxiQlPwE2VknDteY17xeH0ybzTYlAMe1Saz3QCfz75efvXYiTiZmAdkgIhIcAbX0pGYQo/kIq7NG1SDRKgH4VWyvnKxaLNdV944CffV/94CeiCGaLIPTuqrBaC5XLfNqdCv0JCyLGikqEzMCWIc6kZa8DsridSnVnZZei0alGb06rwz9nPCsgln/aVxCPtv6q/SCFMXd562dvJ3huekEYftz1RUcaKw5D59fuNKwNaVYmXs70b9L3IyeDuwiHAvuzb2TdVbcS49C7G0WTVJebUWo9bWquoRIGtXeCNf9eZvTmJJ7NXP+JgDAfbsmYFV0G7xWwpLgmDtkxEFRZviDn3TwxCaGITYSzhuqGhiaNWXs6PQConkYvwoZfiSVrkikRLxV1OuspCmen0CGx6/+zW/rtPEAeC/+ibBDGN5LxPA+yZQTDMjRhzfWqy6e9KNKws9IrBSykgf+9drsu7a9c15HHkdaKSdydOf4FQY3deZG6TaDRuYz7+KEacB6fuRTAMdjBACBG/aZCaDu20OJKdNvKJ4JmlYCAGoExGAvlhm13C/5kvrWKO5Qs9GG3tKe38msVfn6piYPm01zH3tri8TepGPQYkLhZw1DOrgid+rc7l1nhHcWAADsFSdhV+/9ylu5vMi9lNoGJmOC1z0j98uwo1wIAagTEYC/YAtRF1TEH1dok3KC9hYTpf93oB8IsQJG4VdIwtGfke/2lh6KYh6NUHoiqX/8I+dSU61BoZSs6wABZYAETtc6HCk0PwkhCDDBo3BbVuD+1cIkAAAAAAA4eObbKaxZS+k1O7p2jD3TSPe+NrvC3hAB2GC/2U9KlAqqwDDcBJX0mCQ8BxAAKV6uLquajY9XnMTm45ooUrELingjwAPxSW5WwdXnRpNPAp3CYSo0k1ohNst7YyzHiS0q4EtqpVWYxwatJLscKjfpsDFTO2CLiwRpnINPh2tXMZmuBDLrHT5bSCERaBYCFE+0C7orYQfLBRGqXNqDK1eFqhKWepLDBhirYr4Ob6Lz5Lsug1LwEbRhbK5NuMLW04FRJFkhGVLE59DwqCbJvOenErtIACVJCn6u5oOUhv514w3ahPPtmUDDYk0fDEK1RaFIWBayFE1fQAf3LqtobSYVeCS+qpXxk5FrxKBii3BpdK28zeLtIxgAOxs+SJZyxOUx2iwED+T3aiHP5KJ6eCOh4ZkgUYaEgbUai8ptNZrRkOuRXO3Ajte0YL3FtU3WBzD9gugrOETH5Qcq2GY8uaVgO03P7scuxl/QUydn6FJqqgFxWe4nUwiNSK1PijLWmRuZGdLqEld+CsrHQUXvkUNgFnWXjOsUeUAxAAPYzs4urjsHpb9kDKJFnZKF0kx0T4rNjUfJcE8+mRlld+S6gpHwcABcYAAAAAAC4nBZs9AHwOsn5SsKRyz1d+Zwm/AqhyQ10haDvj95/ypGIgtJfC7OgwZkSYWzJY2lk1PV0/H1QlZh/+dGxEm5U2cZFcxlL8CSUtTF3n1fPhZLwGpasWBuNl3mUBWvtXMyfNaw9vGYO+1ud5CsxhRW+kXhgv0gc9LjSOhIFILbV1mjugNWr+cnGXUSw5EpgFPgqXFITPOZBaE4GV549q03sgErvOvzog+EE5otLFAI8o8JGLYTWXwADnO46p498HcZH0v+ZHApBVeAvQc4a2eH7c4qqrQ1uhLPTZjp9qx113cQNhSAnOGasBgaoRcJU/t+fhvM09xIorlhAocmimkhDOFzFoVc+GPEkj75kAIAoCA5+fxTQITdzzCpbwpVQlRvfDEUqZTEUa4RDOWoa+ctNEGtrYeRPX17Y9KopUG2cYjukNBglatDSaUzUrwwAWsMb1Q42oRMS5JMtutCoE8UmM1k0/cmzuZpM3ZQZhgANqFt08cQ2ho/C+ZszXqilGO0MFtE6ckVJC5NOBid9xMVLlN7k7TJusUIKEQduQ2u4pGYvOWF9i/3h0bO7DnTnUOPTsfrBFlEdYZtn4mQ5lX+H/dlRPKg3x9eIBfpTSPd3y0vqmTItpLIUbMJBly/+DkeaCg/bqWTd1iq4HodBgfuOIU//uvy13kul6rKya4ZsoRMOOZzNokZLu0m6xXrhlTUSS9lxrbyWWLp4O8e1epMWD3Q/oJPFcWW3Q5m51WwyPSPN/XJI46J5T0Gbz3LRJpTTS4xGTjSiFTqjeowFfJ3dhdpaDjNIgC/E1o2tinmVmtajoYECcSq6YKmn5ld31Szk57nYx683K2JpGUhXFnPV0XhyyiKAJnUL4JkvwE8KJqyvEKGOkPKUP2bkWLbLBenKBjfqL2TxligqJfSS9mLH3i6dm3NtrYfgvF9RK+RBnAPV9h5OJVr3PjXN2R/elRP08yMU86o2HNy9HypvM+rdLI96pDbqZIv7b1K8CBhDvNhg0eGXNbvnruM3zP6qkGD99ZQt1AQYRPRamfVB/4kanWoEgSNRJqN2EP2bt216wuH4mL8XQpas7G/Xmh/XNnl442vmJh61dfzNnyZ0OxgeOflTIfMq605gS3UbMD2+0f8BdEojVQHRI62eSGZxfkocuBR0to2O8yJgaNDfeP1Sn49kvV7ar7tezdRO9Nm8c8OQPD6kJpnIqDLl1B4thPSKkOLrKYePzBPPVmITV8qGzZPQ7G2jTzAIPGp1NjSh+7E9LXZJ2yVHE9fIaueiYIA5/zlG4QHREvkfqqqCGLWLZDSVe8GzhVxty4ut6kJI39IvuB5gKF5wSnk2iegW6OIE7MBXZaaJci5w3ZIo+cZrWWpBbYdr90TokI367dpzOthhBaw5ueeT+grhdk/dASF8XRNnSbSz/y61hmHtWS9k0CwDufqz8lI9TyzhPkQV3SPplPjjWiUhE3Lo7KPlrDNlAzW9Q/2V0gOmKQRuKNz/FNZrpKr5umKC1rdJ0E1Tckf/AOCtsbn9YfacGNBJewmbZkmLWxRpkAoXq5NVxXTpB3HhApfiiUZklpPNFSL5V1KtNAXLGU6EjfBJaWVcF5Fd9E+JPbXCpD7Wf8lgbG4dPjtKEkWfkldapqFBdKdh1Kh2eKkIe+9yMsPHikwlx1k2vhF7J6hJW7kUTZAX4KGIaAPaSlkr0d8ojtOwUOXQDh9/ysMGfbUeZj7TmQPZ1KeNSpAjWv5lPrA/Zuu6bojHjd+Wdqxqb23h7va+atpKpeEpOkkADWBGTBoJweOIc8alJc3svAkak+f81MXG+9G1gC6RQ/nCEZj7ACBBNS9PMM8+/eEy+fV/QTmgqB082YK3u+mweCqqZYIIlKE4RCO2O/rhrZ24n6zmKHxDxiqrTkLpkFXquVsbVwUwEa7AItmsx1djaF0kZnkpkTvtMVqXaOdX1qFAcu06ADitBpmuknAEbfHiNMAQ7bb9fCEUlykNbFaer8JDH3gKUSGOhgu39OUpwN9KYCI0W+f89kmldww2lZz+p3elG1bRV7+PCr2ropkQCgBjngUQHF55cfiW7FvP/+UrVdE40gB3/2BCh7J+hSZ/7+g5uWtxh5vcOm8dJpBiahaKUb6jnVZBNFy/QRhjvvNd48NRXoopglOnjf/8GP0uLlrLRuAsYAiFg7FVPevISk5eccNK3ntF+qCtz97mceWVHh8eOu/W00WptMFONbR2xV3H/CEPxEc1DtzYzI/qBXViKbkQenRtKWonZWhPIAentSj9aabnF12mG8zXGtWyzRTW0ybXFG/7Dxqw2dT/gCDWgFSRfdrlN827/MNsfHKKT9hRq/1S2OUVXP5TvXIF/lu4cLoXVGyp5PW88eFe975MqlLMOYcpKqETwtXOaAZ38wJFhDV7I9Q+Y79/PbikGjITxE4PNtjErvcfpyHYFdfTJFi7mWY2WaWLDqTrxc0pbI5SZYSXZcVRWUeiIj5k20CwzCk1XOlzoia0fsI5WxJU+4dwHtR0O6zUDuL5tYj/X5z8rH6VjjETZVbZ1lkQ8EeM5ckN4Y8ztX9adt4cAKtXVxGfsb3poyP3ZYHfykZe0RgH4Pg+YGdX2iM2ZmNzbFXNewO+UDAw3snW4egLD14kjkOy+H8kDtlqCzjX2mjWreQ41AUiPMeq4K8++jIZRvLIz4bbCod/I9L1YG1Y4NV7gNk2oYuba2KxP/jzOzS3CSLrCwh4gXuhmRXJhu1+2QVK6oEj1uUEz9tDrnbYTSwamRrQTaPAzOu5eUqdLXb1PzkRdBTtiSNDiRrx6MYszCBdb5qco/xlET/F6IBLuWhrLeUAGUKY8NnLrPvcclG6y5svO8moLhyJB6IXdbuDj6Yu98tBDhm5kLbQAhZKBkZ7po4grsyTXqVUKpMBB7Rj+gFTgAScGePs1RQxq7M2TNHpn8EeaNWrYyFN9hC48DW/MTDMh5Bd5yvNvgcCJjl1ac8l/0h52gWptSvq2H7tS+bgxh70COr/OJnoa+oFMugui7VuHX2hnNxMpmxwH+pbnziMJ9yr0p6hRcPN/kRWwhY/xh4h15Pkdb4xclOgVz664F/1tCx4yq0r7j+P986F/cFo3u+pZqY7rfuVtGN/uQxWoF7StIltnLspuXkonVAmoRs/6nmvHo5iyA4kCA9IT226krKQi070edy3uBhT8yA7zGXwEifY+fG1ALh2jahMSadcizbYouhV9FetLrRIIKZjvvtmF3FGfF7vl9284owZ7sR0JvFikk51QiaxvnMXlv1sz/NOw2F8ohWNwOPmo/0mVu0E/nL/hlFLZ3V7hXXdbAtWmxQSg+9/6nFZ5ohyYu9s3fnHQ2NMzAnw3TFV0v9CpYgdzlrkhkrgIP4qFId3p/NM4/lCFgpY+OAIRCoomRCoYRa1LhL/yVYQoFgRkN/ivxKhM4Lh747NyOeLUHGrIpsAfWpONdHAitcZmczKgcuOq5xzlCrTguZ6UcpsV8xTCydVOEjcaNzLyEGCaRin9h1Glzae9xcXSOCeJDyxGiOqxR00VirCiI+LPS5Uts25hO6q3DlkCj50w25K7OmhDp3qmhhpWPKlu+lnlVOmckH5c46lTimn5phL2lZx+ahJXEhhkelizEWFZmfQbEOgxp0FS6BJK60LXK4gedN2hrDJctb8idN4I6y8ZvfXba8XkwM35FcJqqtDc9ATwZKM9M0gAAA2nYAAgKwACIrAA1ZVJvvCr0sZCW2aU9xrKKvvMCw7Jih8opWdu2xBN3+mt64pxXre+4BgYA1TtsDJrOqlSl+RU01imEWgboIw2vSpwTsXKQpdtuk9cBvyC6B0JRsG9dqv0DaOdPEa+zjiO5SQitYFlgN10i9waIfeXXsD478g8AGgF90qhcGE22XtZyoYvOlJpmM3m+1NO/AVGt9HBNefHNIXHuI4MnJzRCPWibZsDGJ1ZHi/HosquZYWCq+uVCA1F/nf/PrTqfwoUIp6QKCCZT58+TU/IAES7CJr1sraNCb7WLU7jMOqwIs4BT9n72gOd9sw+VcyE01ukLWoG4daoJ7/+PujOFSmBUKhm/Ruq0DwJdn6YF5vYxHqtngtLgUtj9JxpkWZXl7mLg3FWSSSzSHGnNoJLrvkPmKupj8mGgQMz1cg5CZqKmk9hjWI98Lflynnx9HQWAptYT2VucGDRj346woWz2kLFRyXTxcNstChmYaTXc7R3WO1HlC/Rx8jDh+lxNziSIrKs8Sv3yXcg8EUIKpag9AfjJIum3OkolkCSRmcXbc2c6LVDgm9e1TbCiTzhqDabK56f9nkGcRBZBsQdmLNJ7Pnn8Jc5GZlxmuMBl2pTf7plznxck/iwo3Z6WQVYVVQRirWKQeeiEKyu6iB7OFUHUp93ULuLdOZmRP8JA9JoMkf1fUkxZ2UEKOvh8Og7Xqli0njq+EQA7DL+2c0rtEvRUnXdbZxRqOJkxELFYSbCycbLa0Vx9BRIROnd+MMzzjDMz6HsOU8U7xItH5XrAnP96NsZZlAFYmZizLfb0W4SHOUmpNpnPgBU69VztGMpbNC8E2ZKgnpC3rSM05UW79IWyWiT5aioLHpvnBPNYGDZIiXG4ahgsmXb4hrHT7cMI1M/sG7/DYfGH/r5oj3g8DcjSQF1Xi/346r+ROdknkw2Q9Qgcb8L1iyFVYqv+CEFH9Lfun9tVfWIZ1nr2wswIbzfCNaa1mgx+XfknVv+4ufBRaqS9XmMHmXx2v25Jxd8XVnLsytwYahZeOy5uGNbbXEfR+ZcplpXf02D8vRWsZxQ/IUgkXRvRmhsXd2sE/t6hMqEIITkWiwaGBpX/aw5k7l8wvUjHs5x4tvP6559hf3UzSL9hrkBQU0+94+tXikZNPnYVv/IuMl2x7nkoXuNOwZ75Kr5Cn4GE7x2zW7H8asqZJPWBrTie63PbdjJm0+K4g0CagkB85vTw5JVMcF55RtYQXrHpJAYSxqtMJ5DctlIHdZaic9MOBDPSe8mzGZHfdvunUriTBbRCijzY9zMWPxgHjwVaudXvL+9wMNnxik9uN8bsDkiSGX5zQ25Hl2D8OVkoWIUuCLz007N8V9zL5wrNy0ZKIEtN5FIFo2Z9n4vH4O6V3aY/RdF5g/fZQfRSb3kpWtP2MOXv6u2UjtaY9pvjXbGnDihR7577Jg0wtD0J7v54U/aEwTRtwGd7PiAMfUgfek5/ph/2U2VvBWyH92/nKIp6MSUPcZQgV56Ug2KWOyk78p5I3eawMTyJ6Ji/VjnJBVv41ZoyqESGma+Pbr2eRJVfikX0ASiCnOJJNWDGmKs0jxDGB0CGHbNvlLYO6z6lOAf3r1PaYFt/aQI7xspzUSwgjQ5aZIF+qX2+AUNLcNiNN6jYA/L8bS5oIFQsTCEng8Cf+ZQtsUnINE4cM4BHYUQsZKn3WaTAyNp+YX58zsKNoBSbn4FcHeBrptt/NGizcW0jQAubkTwxhEPKhkcNKki+urRLrkXeHdradn9j3PYCY3ZHky9Xq5aO7WAfP6hKn0VMf0cLfqU/3R9eJa6NdvtoNQ+ptppd36nJInwRTtCPR6ce7Xxt7VdHdL7YRj54/lo3Alyz3WluzwwHqjas+IsykdF1ZIEiXhUcBVVlsgDV+eLxQ+/NBDXAWOn+yZowo1w3sMmS5XePJ5tVCDVCPbCuBtMOwqTHhVTe3wB2Nj73iLdXkHFH5pG0D/XaKvdizbrUxE9ayz5g3el6QvJFTWcjOzrgfHawVAtT/iGDcN2Lol2FYyHxX104XA9ubgLvIqHIgrZGBOC035b2K6McAi9nHTinr2VcNvPIP21XQMw9JH5XayCF3b4eddTWO3kVjVRwE1yLlrSI68sC1GR5yvT9TO4l7HQsuhXgO6Am0SYOnIk2Fc/uMjcDZTwdUFB6n3YoayvEF1Y4q0VbslKJ2dZpX7+iT6T+iF/Z2yEdEzQU2hTAODWIABlVDld5D65Rrg//EH8V6acQyQGsfJifjQXewnMPO4yqfQ2OmSZBKAzu4L9Gq4R5ETV4v5aPtMBAT2vMc+BBMb4yo5hm+kAhzLq26bGvYt6/GMENVjaiqXXHOS5GomUsgpXUbs64lXCjO8ZlPDf8ClraDXif20Ikbw0k74zz87LhsYRpWUyuuI4EzpyXM6DPW0VjyMxtNAihG7wMY4fOtWpuQ/9UYkj/YjDF33kRMdlP6Uj0b2EB8yn86A4MAP2W2GlvzUvHR5T+HU2tj760AOtNTVvg6luH1IM2CwqGnd0zRlXq6uTjRQApHYzflL/EWApa57gsrG6YFDo0yBtWWLng7QtanoJwl2s3OqKwGg07ixH6eHvDvV+/tuSxmCDB/s/EaguZDhlOGD5VSC7WBpyI03Hq12jgrvqlwHbNqYd/3OW3gVmLH+8HYbEXuC9gKl0CQChsbn9v2T+IaePCI0vECCtgOSeqB83TtWk7xk66LUfdVXhvKDBQp7SMjMZx4aVjohZU9uMTkBR1EpRSWRps9SsqBnc43A/lHSavp+6yOwO8Wj65IUx1r3zAKrlB8BLYAkdNuCb8AFBOqNeNdoEC9CMcCd8TvQXORbVGFr3Tg+yUr1At0/O/IBHZ5qLeOJcVAnyyuYx+dmOWWyZzhPCMmmRyPR7IaalP0FDyBJ1MadRmIUzlWJI8rIpmOxBU1813+ZwsHVsC+eHV9xoAn4O+yPOHxGRJzM15y2U8P2DcBucuDuIJaMirA9s3aYwu5l2uGGjXwK+DSpIUTIefQv1014WOj31frkzGWHEfxhGp+Hgb4lTznRMkW+zD19GGxuD6WUCtt+zsEOv5tfdsTGCEFlfACM9lLWyw7bzMoSohlh44zzuSFpvbaeW40YaIu+yBcP93vM+V3gxMWhWpS/jYUzvPXF6OAQ0itADtZ6RfplP2LB4hX3sapn5/uZ0TBxHCRwmM/3MUJpH6SF7QBVTH68uVvabAwyq9c2JAr6UJ2hPicd4nrlxJW0fxsIT0DL3hOsJDj1TjUM37FDLYw6jTYqVPu7XV9f/gl1QX75wrDoEIbM63s8CPstmgtCm8w9VIIrDAy0ShL1DbokjnhFxcKJ5R7Kr955PnOWGrikGyYDmY8OdBBEvtsk6yPVCx/Uv4ve5DxH2SelGkXfzsd/MwT6QlVNLdL3SOwwH1T2eUvsYHGUmeiNpmAwzGqty7Yj7J0tjM07bwsIkeKnes5QHlOdDxWcfehqvnYjkjKiHaD2xjQbWhOoZ6Siqj2zSw+PqNQxnDFBNT0b0bDRsoJfOpDu8V4v1olhUNO7prmkdFADVtsdWvEwgdtAQQTct/RIW6T41izAcWFQsb2LZxMsF3uej+SPcB/dFuL2DHCG4yWm2HwMOQQSf01ouf69HsgVLxhUyjtI7rp/GSxBqjiqjOtakIThTeAYS4RvMQsr2y1IDcXtVMNQf7s0TA/duHA+pBGdrxxEKghVkASgx23VFo7ma9Q8efRqTHFqPIFg0SlkMT76T/yf/+ElNkkYSE5dlrUIjSslb0K4ZmBdgIRHLnHDkOrVgvtc+N4rl3Lf5yZTZTXKNJuMBq241kDTanv0X7niAk2K7atiWZOTV+ck1AdqL1T6K26Q33fUTeGqskMuU5+K+lDn30q4YoDjOPqJc90Whn1mc7igDmZ20eqShNcC1I1oLBud2Q1MpVE2dkO0viU5tcxJefQ2FsAvPsiO6slB/85/2qbcmjoixDuUTgidScyXrCECYNjMi2Yxgx0CBWjcT0pAd+T83VS+Oa7ppugEc+YhjbECsb1zNXFgnZrryGFyIXsIb3i63mF2Xvnk9Rydvt8AnQflfIca3elJpPcVnIu29WdqxAdXro1HbhbIgOMNufqvozsavPHOVz7ad41QQHo2zC4U1aIhgyezcn33TszbFTpZmmWLr5FETzNvJVJIfYxiMa5XHynOun80cab30jzgm/kTURG56CjCXM8E8rsdUSUAo3rufpzHRxjnzd2B0CNt7N/Ehcwo62fen/G+JRbBptJYHRbAvyotgivcdE0yGUfXP7katGP3u7uTEU8LERsCqB5PqjLYwc9Dm2Erz0vtJh+Cx0xQ6ILRG4Vz6Dsxob0ybaFxREObsTN0fnqGcMExZefQG4mdlr3IdlTTw3tAWe3iFod0BOUzS8jSzKYfzWSHq45oiEYD2w2qkt8xMhPFhj87NtbMAmWOjcKpJqmicQ3n6K55MUSGcztk1G00IPqpRe+12tsyrjIM5iAK/t+NUZTXzkaJ7gNzbxljXnwday/2u0psYHNxxq9PBpSeF0rjFQsHWjHgGE572G8AssbxJh61hfLsh60H4td0ZKYEMAPPUYP/WOmpiusAVX7WT/iz755cp2KL1MTqZjtVGrn5nIijG46JCUm2X2qEWt7dvWoFsASoiwj6W9lne4mOM1Gm2bmfcX7fXF/QgDboYuNroRjkzBppK0rtRx/fIoyBoRqTKPPqP3k7UNMffWHBZ+lZwCdha9E+d+nIrdjdHAsWX7V3/LofLSdr5l22zm8/OPR6pOvMJQhK9AQgjC/HbtLBKc9UwywS3vqDqLschTP3xvsBclXeHO91JQq/lMM30Ts2San8wTT1vk+XeXRM6D9dam2dWtWPyUh3k9gwYyiUuOZTFrtPD/T43Y5wtOkKqwWgcmuDnrTOiHZ/K43j1kyicT0dj35MpDFA/fOD+9cXMJ91oByV4u759plsC7T9h04g9f2myyiz0VZtg2ZyfnDHkSbae2oPpS24E7tcwOikZAtukfNgeMmGu7d2ozpC359oVDhBqlajoHMXsAm8PCFuSO4AWpq3aJSQNZI7QCpNF405uURyCxZr/jecC1N6Ys5jGDU2MA1xO+VG47UrsZyZ9EBSegSJj5Q0SSfJoEBojZLysJ+GTgOQrXgn09jSYjQjul2aEaWNiTaArn+dYc5Ov7WJo3mmkuh2RAfEzKTVr9jkQE9aijIfFdfTbKvegs4rvhKSTa3QO3yNUuip6OMlhL/FOD9DQ4O6SyAfsngIdTvGkukjNGRCqA2F+tK/Pd6ZbiFCVRsnO7ttVNNCjBH4jKFHr2SNyzpMCQzNzmOy5eXuZix+akde04X7XOFDzpYX02R9fu2TF3U2PSWBwv4znWWqLbUtgVDUdiwOysCmeXBZUa5PvRB1kaGii9SgNakkDqNzTx044LXTnz72nrM9gs3aYpDXTwZJiVxOQlSQ1vripDq2fTp/Kubv7N4UNfd1dpbihYA+agGRwomGUjEI21qt8oBOYq+OWpMjdhr0GBV4csnS8K1cz8fqadUiV0bGZO9ce11JTm57zRdU56wxKRTZArd5CX1v1UmrVtTvZvBOQizWpOdEtgxZvyw5o2OL6wTGimjPHs8S95wfCoxuui3vkxlaPaJTIuh/LuubKkl0hZiDEM6hH4/kmwNR/3pwhzr38uxrFYokNBI/bLXjI+iAO7wwj87wc+aBI1ZdYYxcy7gEmBFcGigo2IxcKRGS1Su8PJ2NNJ0uZNFjfcVv9HaeaUxSKH/9O/0ekAfU3M2rDfmCyQZMWCEEsr8KzXLswSVkmaj4Dc18er4FTbPBarPdcnF3uje9MQ9KtmignnvLigSRi6UthFtuwiK+RTsxQpsWnPkIoXB5MKi2VO6VSW/L6Fc/CXPAmKL3qpQX/PbmwGEzznzYHHfCRd5+QYcgQTYfnT6Imjv+qmkcYVD5cRRScrIlQ3DY58/7aYIKTGi2dw2i+CB1ZLTZgGxwXiPuT+4ST0TMa5m9JPOPGjHPalSNsFJc9uG8SD+CKnuXFVXUY16KMaeKjw89vr2tZQ9cf0Urw4Q38xQ3J7R6MBLK2wLd4GumU2S4P9UXuU6B78i+bhrihGdpviTtRak5ilg+amW/5TjhRcr40Ibs8nPUlKzHJDC1M0/uzR8vmK4rpa0MDVBipApFMMnZjA5YygSPykc3ZLBQUN9HY8Q31yoKuLubIM8Q38NxPIVaNolqU+Vj/4NEz2OXWMz181QMPJbfhXPGIl2N6vO/WPi/lhVHN7r3O0Uz8HRmjs7ElAS4KFlaFJIn+WMeHOvMaLZ3DvwR3S93bJch1GEL7rXqiymZ7u3L/0OChQlQ9kiixkFwIzotD1DR1OFcxE8quFFXgIMzWw6pP1GQ+iJUxYkMT3/7aYEdFrHyhcnJd5fFDMEXPxQLEiQehUOdBUVI9v76T5oph1fnajhI2Xyc/hsnOP8M5nO5LiRY5Or3Owcdu/7bDbcLoA87euBAHKVKmR5U0ueucv9GpFQlTxcsNrZUhHSwJAdk21ZTNHdJ0Hn+yRkMk6hevOyCpez7H3be/LWYpBmtHTboBN9ZNx6AEIMCptj6twnAVvIeAQCXS5Qg0hOElyTBF4lI/6gBP3RiYnqKJnoKLJ1BCcvIgkxIhaK5Zbl0x73F5bOzfE4P9G09nYqOi9LEoHc6B1ijvbasG5xvi0oKIaGZ/7gNCBUFlOnWkDKrmcpEfZAkgOIiIeo1TDmvEy4wVXFzqjsMKm2GNinGGfFVRTwNOagceAubdFvdocJfBMFbomxMmCu2xp0RE1qTaXI7dwrM1TEASbfyHFyAO6Tzhd1+Yjd6gMQ8hfCGk6fxaac2l9Dfcq8Zr+xlzLDcIY602gTSfYDhWK6rqCD8yTf1tuDaRRvGtkXFLNsqC3yEyEKk88WACiN5TnQgSwZMx0bBbDFpkt5eegEJaSFh67UWhdJf+CNrMLlhO1ypI7bi5F1iB+TaqwH4LSte9fq/vTaMdj49xO5lw8ZV0Vcb/4rhgqUBWf1zQFufucycn06Kl72Gb1GP//5V4+ENHyeQUKu2WsczjR+qy0xPGljK1XqH5vBLQIwmET7Rv4I+1kowc03PRwuAfPGD3nnl+sf5PCESegSLIktLQPzpVbRfZpR8JwQQPslEvlZ9xTmNhBXihqSRiPotuk4Svl3LgD9Y/F+9oMMgslGK0N7zBA1s6goEF5lNFoapWPCwiDdShY/rlaFqVss+TdngRdCQTsuwXARNaqoFmdCT8kOrlaR962p0D3HmdCV4ln4CYEwQKeoCUabAaqMNRhAsVmlJt36jodca9268CPj1FC38RGh3QvEEJehhZ/JGjqVrbneBLrC4lUWYxC7p28D0jKnN0Tt5F90Nz2T/TofdWTYukLPcXT3C6oanjrkBcyXI6QuEH5mKNv4IDgLLR1Gu0VmhXhBIxIr2jqd6cP8XEAdLS4ZZtLxm6prxBLq890Eg6mL+bfJPx0bYe0r6w/R0AG/u7owQdKO7qn04VaIl8mAC4fbhqW2FrrZhaTh0Q0ck7/BHgXqQGxMri6cTzyMBnRk87jhSIjRCfgu4v4zXuT5xGdhcwwD17pJ9bCJZmFcDcs5XxI5QS57cP9yMkQuDAy8bLoXIfmgIu+Dtv6erz49vLqPA5+/GObKeUD16jNYRuy3osr6dp+vcwBPYqxtrxiGv3RVJULjqUbB69B/YP/o3aooQVrh0vHrVIKmM2jGmWaWhOHrmo6AX2sykuVs/zG1K0nW4daS7J3WyvIdSnzsyulJQ1yHSgYy1GRu00jyTvcZ++ftNNWfVxicqLUF0o4h6MULZIj2GHKtmlGdoixiXSsCkle0LFUFqTGxC9gHURtcQdrSwO0OTie60r259skKS4oivF2ynhBRKO57avQ2NEtnB1Ci3D4M02da3sBh+ut42ZvioKznAd0uI7Ik2q6iokYPRIGruybav5xaHEk8bkWskVNJdabKnGszfG/Nrh7ctvC1h9hYynfaNYVNsMbFOMM+Kqingac1A4zI+QeRax/y31aRkcy93KMflB/5UmrB+6CLliZN6zNUxAEpCu6B4uVl/WnZdUL0Sl4jQkmo7j1QeDioQ1Jo+KKGxeA5/7geN2iiBKbukospkZPcTti5tS29VUC2FlnBlIaW9zIIKyGakdr2WXZC//PrFLB6YoXEEIUmYrith+krgfFLsajXwxqBnFA+2EfzOwF0bh+wPFlrYPs/rfeoI/W2U/o+6+RV4ycjhWrPJIqtUWPZvh57fX5OC/MpVnRxL7/dg2myEQAKGKBTFxhsqhuT2j0YCWRo5AgKfcoX5QIDuqk6Ckzv84bWVnkyXJs0smeo4TT83E6+Wyt1CG4TbJIcckQjU5YxzNo3CBERZ6dT1mzykkGQki7STjRWh2Wz75hSV9JWGxI/bLytqQ+8+t/o0WjUuDxPElmcB/F+Tb0AJ7lC3vPYGnob/ZrzKbUTtIVc2Tsrw1NGk8Q2/+uvS4HlSUJpZ4U7d8eyismlOBDuvBJMOD6LdWPIz9GU5RagXCBH+AlQt03+3KOcdGBfwx9FSwqo+YCrJnEiwvnRqNF1sAEE7H4q3w3a0PDUYFshnc3vHvw79KcU4mXA+9nlI3Hp7WoWUONd+rgQNUdF60VVT+lkHZg7WW5hbd3v+nC/aSLIktLQPzpVbRfZpR8JwQQPslEvlZ+Imk0Pf1lGvx4Ivjd+08AHyp5CrQRGut3OQfJ9ft8z7jkof0+WfNOGcpI2k32tZr2pjsrXOt5stn/r8SUDxHO2VcXPdKPLPBrLVBJsbujw3XuH1tn19Km88beysfrc7VSJTMtHm60mBUN0oXgYPQ26T5gYOzid8tTqhGiodPOtWC1+vSHir5X20l/Lsz7UH1ZTkV0+pRh6sX+vfO7C4Mvg+wLMqs7+V31RNvJbQoYYq5kfN8TVWh6km59pD1M529DjWVuKNzoBynCUrkLdhQARGIsIysEYF3xl6/wDmfIKliEOaJxZLnYZRCynCKtWwmBHTyFH6eCi5+aENcHV5gLMxY6E68Id0tvNZ+Uf2RMPS1PTEmy1BgDLditHfh1OcSEfc6Qxo8F/s3UtsJlyZd3UKoV1tf33duHSgFw/h37arD9Ex7rz3WzbFqexfcSmlX55AAdcXrvVB6IwOIqd5uIdU63115gF7ucuegWoW4retwJIpEiWv8awtI49jfYq7nx+K+b96XfL3Web0y3TCoup+Fvv2Al0W3XYZGy8E/EDC8RLW51UPwTVPJtEE3tr2G3OFjS93wn/0w5s3EHhG/zvI8srWA7uOJSfyfDeEY+OxNQzgJx7irQB+mdJUuDmHyRHm2FCOjN/RBwasypZkVeQ7cpDAlKPkLGe8nrOyN8yYR86MWxlW/meIAjE96KB5qKUWiSJYHwpQM5Lv4Y66SgBvCfQOlXM+6LfoA2lPNRzWcCmWp34T38ruea9u+2yLpHL1hdPNOs57fLDMUSzhuB05mf5OTabDh0PZIadNKHcfxjSWsZHF1yHNj3haoNpyeLfhK1wM1OrTBOSFLpImjvOOsVo/mAO+qwIardfTnxKsWTwJ0uB3G5+lwSzbXZXKKR2/CLqchWvXRbA+Yox9Xr1WtNiPbRQtfG70sEqUhHCSgsN/8gxk2TYVRsJrejA83jNkiUyvTTo67rAH5C6KoWUWXSJt/mdcOdPU60U8NAQzBzdE0bkeLdQ8ECU6LnunULfpI8NEXEIq44v8wnH7KBnNcPuwTZavxFxTZceYmRkWrDWYQElVzAfGhhOXXcMFJvO3ODWMf059Sx+YE6WTbcKBMlwKqgxbLDrmzTg9j4ovYoXRL8wv0z7sGD9UmnBHATY9YLkeiS19ZS3Iaf1NczyzMMVJ4a/D86fvl7rRos+p9wCw0AlXA8JRj2X468fvpMCdZEuKh2tO6dAymtJR07TsGdZgQZSnGUrIgqLQlpgBgr3nzU3KwXHchPVrdbKw4bAueH8CwB1iZ7byYnHuFjDKGdxNDpO6TWGCqzd8G3LIj5aE/XERbUG7VfoL7ulhfeD2QDyKppW4DI/3EbTS4xaYZcoZX6UPESnepcXp94//lTnJQui37pG1sD8lH7gsR3jeZZVO4AHUeRMul12WEBiJK/zit1T3LcTX7KejJ6fOisRTdIYqW5TNrrlzRXd+sMBBEvenBqSI/DrEXTIZaVvjuwd1OqAAu+7mSZDu0yk2XISjJz90g+Sci+oG4JYGCKq7wmPUITeAxHEZn+/hLlFlqhbJ3c6Ef28KYoTiTbSH8aoZgU7H6/DTFZnFOu30tJHtRL86s6F6mKIWVePeBUyEevuqUreSMScsurb+OwoABpmMAP9YAAAjymCOoeqGUMKLpyLwTxFWmSnojVL9nhwE2I+nUELnCiF5zWpUBVBv8+YOoxBx0M/JZTs+CfpZmA+2EH/AQHv/vRyCQSx/q1JxcDzNY6RDaLjImYYjS5nrSJRx/lTBfdiInNWpYVnzVlBB2Lt/CViZnd63RJo03fO0PQfwbMGRoooOWjY8i4dl1HhcMcxeIUjz0WPHWLdqGWuIXVVHCn2qpeAfQkKH5nIlEjkSBNikV9h7iaNCearPOyDRa6saw01LA8ceyTaXRNBN58SaQnnKDki/fy5Nyinx8+JuKNVhiO5qhakzGLu/f0IFQG9sQtfv0b/f9f2+eLL9flB7mZL8b20douq7Pdjz+o9ndH1brVR/ucQz/p5cOrKE1yohDfag74Y81KyFUHxo19FlmdMrGGRBfusY3e9fYtZAhp9wEDLkg9nKYax0PUz1KoECNPWzspiF7cTKRaAmenjG0NDAJ0JA85iPJLVKw7u41M7+JQBrAPq9eeSQyTT6FLfk0loi7TLDoNGUHPitGakg0yjL/0MCCCMVJyOFfmNFlrXBeC614vtmTtt/mw15Vu3hPKlIVGP592Uhdlwee8UvnX1FKwPPeq6dRapP9j53gmkQz0KY6aVzLTFMR4o2yvGHrl+qs17z1Q6nazkx+q+y0o7pmP0yEegiR3SYUM5EgV6eqpLrMCv/a7SmiaDPjyo9lKHU0UUHLRx1gtkOuCW6k62UCqYamWJQabUTaQehDTwnxVQufcycKgR1qTLz58ylyj6NSCcGHMTf4Y/GwAKNiJ+B0oegel5DGaXpjOyoqiZtlfO8ASG9z9hMzuNI6z9KpAUv0R7W5im3Yy3MF8eLFHMHZ2M928N1CbfCPMK3mF4pwBHSm3OJeBVlwlsLlb0XzR9HTWr2wgzxOM3Neq+t5GPyYhCg9TvTR+kadlQ4IGmde6QCZ2WfqSo9izaJ6+FLK6OsR9RTis8BbJpkxYGom8P16id0TuDAFWuMLU0gB3A+ZMIWbJ4o+r43z0hHASNM1iTvkZy/hWF1lSkFykf2YoLlFAPx9o+07EiegcUucqjQKyPnBXKsYiOnHh+IdCS2cgGSmxpzDM3BI03qXm9eDoTjYxKxYtbZj5dO+gSl2iGRJZPPUIe4tPEljcb6GJJehyTJtvzO5zHgc/TpD+jZ9vGsjliO07MVQ8XFOUyrrq+2oh4lnVjunKzaFx+vSX0CAdY6DTTMd+2Q6D3vhFg5mqDEC+4zgB2yRpo+EJ9FcSSTs2YXVccftd4VnkkC0VyumTQptE3PfzpgpdZLpgzwzE+ymPc7VN94Ve88irbKxq3lDf9+RQVPF1Sm9x2D6HPD+8P+taWAsh2jxoNed3vjWOf89GwcCHDcgsV1wOrs+VxtQmDE+Qm9Q6tVhydLdZ6IAbJtfUwiTmiDr1ZotaV80DCMnlJN2uzS/89cEzUk2WG6nAWcQPAM+viqPG9gEMvZwpAtKF6uKCdR0M3Iv/EmfPxbwW3Lp1zWtnw15/W+RY6UUMMsVxF9GvRAagE0H+S8K7WJer9aoHjkyknAAFVvVjqLgYZ/JhooIIsIP1U6AdpV1Gg13HoMOrJ0wQz+JqjT4R3GUyCnnPIPJlMkRXr6OOL443CsNU0FfWQ+I3Jw04J1pM6GQY+sSUURqIzOcQh8lssivR6KJwVQAAAAAAbrO17YbCnDQEQDluq/RNxeu9b1QPZ1vUWbp2EilE3Id9sOCMZz+J93PBjV9DG1oOx+Cc8Wyp8C0usSRKzkd0eprPzqxXVEXoZERm+ru9NI5Cy5vHhbb/h8g6S7oAu8MlAy+TUtxTtVEMGRl1Z2w64u9kbZYwngAAAAAAAYGAAABjG/d/8Di/L6xzi2UhppX/BV1pmf+yGqy/fh9BWWhY4x/rZzQ/02ldipw+1svpFYo2okcuFMxl6VOKp/pwCqLxgQuE4n5BNkr+PRWuvujT6jE2cu2Z2ruY4y9CVj2KCmUgN/hVT1SWGcVBuVO2K4b4iKojXwt7Px7x7N1P1UP3dzZoSuvuhQvYePIw3osCwK0iJTOwMFl+kWMM2mM5grUXUva0viRHISeFkb3eca5fR5eMKilGMHNjgZH90Q7kPVqrLx6mLiOQ9R/S3cT+BLI+jYd6TGdms9OOzia6U7tOvgKKqjujkHeVApcJKcoJYBfn2T2GvvQzibR6Ha3NX22hLTADBXvPmpuVguO5CerW62kLMdkIYNp/2Pl+V2nmPBelDGTk9FcJyE8cIjAzX65yaVvKSf037jW9/lo4ngXBqsboLwiLQ4xZhCsJNE4bKw4Sty/T/EqSq+VTEBuD/a/CGifA9HQtdLSnnLtLxs5bJpwex8UXsULol+YX6Z92DB5c6aHSXVQTYnX4e03cwNo0RjpMWFs9ZmD6k0yrHEy2irn6C1gZ7jdKr8TqnqBxOy9gI5aNiEJ+ihp6Bikkf5i+IFFyk1k4L+npEhri674NrA9e80MbXe+JA52wN191N/5AuMuySwHklE0WKWpxPW9vye7OVNFLQktc9vjT3D5PEuEXfckU9Djc7IEUDEIt8D37nrTengHPUEvfT3Jqu+92fgkt9/g3jIyIymcIRxgSJkQNOhRZW9bOek7YwuJG6hb9q3f5oFqd+ajXDAnv7vz/FkfzZ1Tw1nZKS9qwladyR7g6HBPBnLDmY9VNNXah3xmVZBu9xnJ39c/vPFmQQ6nyg5+4j2axnpQC8GohOVOkCCcD/SKe51/0mJm35jzIAaZBsp2OxNmDFhs68ODfy2yF1JZJDPPs2obV8fqtr0NsVJR3Y2yy6+npKflfDgG1ebJttbwldhtEZR4f0AZC4iCkVkGHpXsuQi5+Z7XqxHF6cuWmBysYumggga5rphB00Fm9v3qy/kjOEii+kFmkps4qug0+n3eTc0AeROFcBbzdxAnE8WrGtI0w9LbuIgcC6717pD/iHXLb2c0x88MbX5Xs+sZfeCFM+NUsILDv2APqj6pHP4nOBK6VqavsNijy5vIc961YB27tyJhmJoxiyZXdhJSxhCB2/raOwyu2VopurjIfLOsImpk13kJQJDHMO86MCgzlYYydAHqH8TtdGdsDW/gJLnHRbnFBdDpjgBh/Dhvdb5mAWdfPhqbsNYsVg4TI4L3ZhYN6DTc0gNZHOso9Bd4rUAgkUFBU0jIyRFO/Ha6JR0Pix6hT5P9Tlm/11UvlPXB4pwh7FmdQIFKu/+rZ+3iBtvm1PxR04VOEbhHSwd54InEOpbP8HrXMAGV8immMzQ7xPLR7S48cZOZs8FVyQwjsj3ut8NYqKYoaLQ332zZI658ZBDorVBlc5rPS4GJ8r9n0YrEJltDdS8UMgc35n349FpMVKE+dSfNMEyYFzttAVgqT9hAmB0XVrkZZYlvVjxGI2SfyMeQUWYSbw1jZJM/JPN09yIwu1CIEIpQC8w2t6ZADkSRHls3bsWZBrZbZOivWg9APl/8byy7R/2360ejVTBEiJUybLZyOAjVIEAIcT3Yu2mrpkwbqWOkZPSizd7uldOhmcBcsgvfDz/6oshxpqdKJKE6hzElZsL2cvpDkOp5erpws/e/BzFQWAkrddNbzqUAt+PG8iguHaNrUMoXQHKnveF0HDFzVUwWhAVTgC6iwW809evyLpbAlvnA5/tn8OP1Z/lZVWOLk03CqhgE1hD+zLzs2efpX+za+nJ/V8lxt/pyJlk/nUydKwMcrvoMj0tCmUXI4gXPzKD8uRPT0ct+7ZqgkXXVHuFuZ5eJORYdLAHjOdxcMj1TOOKh45DirHeMSE+TzthtvDGwja5CWpVI1b2z8jmKqJa+iEzAs0pyY4qYlN2FlAgQ6nq4uq5qNj1ecxObjmihWKG6CveEMub2zT2y0FFoY6P4hwTdCDxJjfkSOaQLH1zr4PmdgAIqzvsGFqBlEwyKDgV1dIrmRWkYlgtxk8cAXB6JhPaPNW93eUlv+KIaGFPvWhTQFvyNXbiE2U0Vuq5lrjzd5PTN8+eltUAGr4635XTPQWHt70VzEVym6K8d1g+N7IITk/y7bhnwtZ3ZJXOBOBZ54pQRTaVwJI9rchcpTGCGTXdMvk7qN6vtZEM6GbOoIofRI6hxfPoTkzRRhH3f252HeoAj3B9pF8uSYc/+zXB7tvF+fPTESHqR/GmQ3Onb/3MBz9rbFZtwO/guayltiQH3HtTPswSAnAtM3goHthlb9W0oJAObMdRnVEvyxINZKB02ZzMGxSqSRZDqiPFVSDJForS++khvOb3BQeHDO5KY/o9vd1miKff26RwSkUfTI+dauKF861gEcu6IHUiFpQgk3JHKBD723SPYPtWc2Vs2XTaXj5TjeL07FvMe8oXKXHr/sg9jvruVMTVZGMaVPkvZgdiurwh8jxhVSrr6rVxP3QZr/AqV2wjM4E+BeN0dVvSmWZKofva1HlTh6IrUb4E9/YUCbZNtXN7i5IUsiL22ty7cRjVBEI+8s/lA7vzRCRqA6sKWdtZ1oHV0b8GMViBdTojKJ9bzj6pipQnzqT5pgmTAudtoCsFSfsIEwOi6tcjLLEt6seI9QJktrBs7gSM15fbmShOeyjdGBS3wn7YEtceiualmNbgvCD9/0RKnhnbHhoSVcTXJ5NBs8HrDYB9Pcy94oztLxEdQawSSQrmiAUOEP96wDNTL/O/jde8+7b9Aw2bV747lnCUEBo18KSM1l+RdpEV5Fvq2jS+YQw5hZQWJY2k/lpvR+RBLw7Sl2Ax940SjtsK+x1dFY7ehV8YNnzlEBDaHQKpD+UU+yNMl7cEsVDns4um85943U8z84kT9kOJn0m3GGyZ32IrgpbsXqZRcKIxNa7+oOLvIP2h1JICQHCf4PYYU9Bg5qDsI+7+3Ow4p+9CjhVwW++fhto+RgwdQBUBGURMep1gt7RTRKQWprKgOHM6BGW9klJ5V9UBL86ree8k8R6C/Wq/bSoLzoCZnegk98hW2EfHWhKxEPXGhbYQjVbnR+7XHB3wZgXAZiInbr//IHtvj6ByaDv3M83YgbR3HS4JLdIFefG12EQAJnGB2nWOCRdMR3sPsTzZTvfgzhmZEN7+ODQi9uXNLCTcMXcKDCdgIyQ3hAXPQJadSs85BSmtLeyuBZwp/CRoe3SesA2xs+vJ8H7WayNeA2v0i89u1tjxyT55ctFRR30mAUvoCIHapp5dsAwgrTWZ63E6jgyztr8JzjOoPMz6GrgGh9lc0jVf0yKg7hRtQKx+RFMRglE0ZbgrVXFX/iKgDOshnCW8uRzckRzwybyrYNk1iB5OJCNqvt7bTpCHuGEoT+IHudDQBcsfNeeofanpoBPQ5MLcJHr+5zcP6gt4RFJ9WW//yAwwCh0St0i+8MRKpEbrPendtjn3ffw858UbGZN2Xgn/yppws4x0i53B879GxYB4wE2bYpTagp9ijd4UjIks6A71oYZUUZmxu+rrieVE66ahr+8N8qp5uii0t/22i5pGA2Hx1jHeESl4AW2w+D4IMV2h8hqMZwxn9Kl5h43og4RcuubM1VbQfkrS7eTUgg9o18jBXP7LvqAb9lwqKPULtQsUPkksiVfdmXFC/ER6ernSRR4F5DG1JCKUKaUaPkK1+fwzlACSdRLEsqQQ7hgQ/e8XWfmerlEqK/vS4jSn40nI9y5rWaDUHjsCx1bup+QJnbzy1GE1YXD+5vgJImUg0LUmOZzZRmWfX3YD+2X0D+/duuTHCWjarQ4T6InoDFqzeCusJEGg1/p5Yjyf/w58O9Rxen7zi0oouHtgiICPCNEjWIi2I6CRUX3lLMLLbff14ePZ5b67HSrA2HNq5DNhialeaLuIGtxUMmG9wrFRmPlbjQnPR96dbiYWmKr4DE0Ya0Ok8YPpuiafvyzatrsrWsr6JrPgwwS1xEAuPP9/AqQ4Kii+t1vUpfPOffpAET/v6TrMYfQV0xPnppcRTK4/cHOgpY4Yss5oSTv7w6OystzmR3iLXX+VCTlxBlTmAG+BMAXga+HQXQAA76cOTDrC6P+1ITBR0oITvDwcuALTJL5zdQOWussKUwhQY8+COJQz/9Tp23vVMkc93OGbmnd9DtNisA+xZ6+nrHAGp3Sw41Ca1HyyMJ+8jarWTkw863fMs/0qkxBuJlcnsr+qlx9/gEtgSew9BzdP/FwLMpNrWc4hwDnF1+b1111PhXJcQO+0jivXSG+0A1K0W5/wAb26wM+MaFFQX0Rpc6cSTtY4fF6lThnQUI6BgGRhrIXBPyHR0BBrKXPkXZt+EaCOQdO1z901qrsSdZwFpYcKNRpT4K9ovAWRa38FXFxRbu+XDQfMrewPPQDddnt474NCGJfNCuEQYDAthmsQUksljPc0/eT5q46AIGWRLvK32FhTtAGAYg63djL0qvLjQEBWRRRJ2rxxCeZFKdAFs6Mu8IDr1YC6FuFhT9Wl3xdVj/7ewxL5ud1luG3WL8b4TvnDeRMEnUQWChy5hUxZMYFKxQnPYa4zuKsCn4oRZPiqgCdF05Dk+q+yyP8zN/1Mewm2tvMBImF1Ji3WU3LDJvtedZBurt2kVi4Zc+ZukgDbmzhxrz40FZ/n+zkNaWexdPw5GIc++A3quqeRrU7CgEd12nXidu97Wj8DpQ9A9Mn92Ng1utqbzrF2D6cdwKAu7V3lC9ly2ecbEoqSPpvonVukrpAbPZqiVYjxgBldqia/b4eTA6sD1AuUdoyhAMkKFd5/3Hqj0lxeCVhjFgEPGbHh0S6oUlTVE392K6oQPy6PA0X+02lcVzmz3jL7OChcpHpLAzWYK2IoXPJMe18kA+Bw++pM0GgrOXun9iQrP4SKouqPJBIom3tF4JNJFzMnouovXXvgFxPjm8py+tWKDodpRQOzZ4iMm9xMQGo2UJGEjZnFQlTUsWtyqeMn7jAfEerHQCmr2UoRJHHPIv8jwyW6YbHImaQDZfoXGSXx/NGbIuq80JC2fVDaHJ/XXfrw2WUcKI6oZUK+BFx7gRzGL09SAkMW6eCpVb5C+kptm5bZPLhOnHOW4UfYrKsMvkAbienix1DLBWAKpf8078tHd1sfzbBceiWhry54dGyBz2lI8GpolHBDk0ZgqYF2Kq/l781KDHvleW0TdqVSgMpexkLiXkaA22XhUaunEXka/CAp9g765kJDqofApv8pOtoCm9amgEv92glFt+tEPZotRzkyK4OeB2YtmJYUPLCCLo6HVUuKsZGWBXO03QqjblZ4fyGL5Ank81IB2JxQ5umat48IodocBl9INMlrVCmb/WekbJC/BG4gl1itQGrjv2SKBy7yrShEjG1qteyXfWrFB0O0ooHZs8RXBzTTrOYOZAuGZCZATH84kGgsbwUsDI55sgfMlzDIjpKsp8xxDiX5UgiWHJEAF9iQAhz+Mxaw6ijiP80feO5VizZGNcY6t/0exn43WOdlo2acE+qkb2Md0sbb2Tn+yvv1bOPkmTbfmdzmPA5+oSPLASb01Hz17zQTNBLNY+V7NCUuJtG7G0zOAQ20EbK+7R/5I67528yPp7vJ87nxTLZiHW0IdYztt+Lkz//3awdIaDH5FQrdKRWOkB8u0k1a9iLvjMHHGHhodwqRa+2qe1h+gxUXUfxGs0K3YCQ7231HVBZrgXTxFe1sT+DGNcu8R1/RxhyYVEwUC8kfBZMMo//QY5o4jjV7qk8cTSOCLAhWyvu3sr1qwX8dboXZryBHFTct2Ra2xDJhzQuZRFWZ4p3trKdy1AkFtHBpjDmsRuVraTN+cHtTiVIh/5sTmkCaMx7ShQxQ6Wnyk3WcqOcdfm0XC9h3BS04R6zA8QK6nNyscP4uTkbJ/pGVn4YjsyTMhbrDUrdgx+U96as7sckduIsvGE+stA6W2/Vyt7Qi7zxAgDw9mj8SPEfsDEjITOqZKqKDnCTTtEGaw8mQKwExy0OdzH5taEfEjFmvDnZjuOKYIYK9hdyzDHOutcl2yb5Wn556fHLrTegUYEVI/cC0nb3E4a6FRDelNQJnRE616v5/tvZOEd13VS+3Lnecu/zzAVMOhKERYFokYBC456QaGF6gcROs7SoPqYL5jwhIqIUwMzPF0O8d2X8hJl7ThNCFXJY8UZQ9Q3aSctTF92hzVYfzQjQcyLVNZtlpZjcO1wlqfUkvjLmGDeU4t+V9v11MQ4W+WH+9IYDr5CCnRDF/N5vIvAc4G3o9IZJfB/y7Pt9GcMHqlQmeGw0wzGm32EA+RGCY6hX4o4ws5wTEcZmmONQe1n7N4eY4QVjS9mSzJ3wQCsYdzA+y4vPeYakoJsfiY0M1VixSAxUjCXHllqv30Sngb/n70O4skE37w1u7qpi1h5ljKCZt0vdLLjmBhuAVmTUZ6U0BgiW6ruWJ+2QWujlqK79XcuCc33wyPmPJHokiAGpZRGXlPAmvU6OREP7JXZGuYZU48lbIQDtM8lfipU8CfnAdJlf24n0wZjQFKF7i6hXArmXGaGIemOoi3LslIMpKU2njayR4k9v1T1T0xnNWY9XPOyQhqDPwp96NK3rUJJrYBXL0jWiy8mUo+EFAxXOLfXr0GlZDODub4ue7uUsmt+jg0eSAgmCD34NRoWLpeeousFjURougeMUln/McEGy9S9yEJRzA0CqsjER5a2MTShGW6MTsyxjTNPEcrNChE5lLJUaGkQGhCGaUPXrKoTlwe5O8WQoHNikOJ5XDOFrBEjr0QyhHTkei6UwKJ60zhXauQASg920Z39UycDBIZRIs7JQukmOifFZsWUMNfZr9gL+oHtdHbY4e+Hs0P+AI4HA6eXaMDQfYq/ny+lnJM7nYNBQeEffndD3+jz2uPuRK4tQh6D0r6ITLYGOHtCZIaDWB1bOG3UJCj5ZzP8i1AWHyDHgXDBXIs5BNkKqZa5M59K4hxtVBg3iBaeKhwTPXoR790zDNINN5rSa/uVjQe4KwEDtqo5FEATg01odqvKeglmy1tstPmZV+eiqhJ8mCwQxLmLcsJHck3fQWR/b0baHf78bwd7tH6G1Cv27t6brc0xIkF+TCK7spznd74nRkDIVmkDofvMNSUE2PxMaGad/LSWEBjCE4Ip81G+Omsc86BHqk7sMs+xZNmnnp1888Fr0gvSOEkiWwftypvglq2nW/BpyhK+wgA1E0RiYPQgJ1OxPSoKQ1Eh3vUeSqHOPbxsOBhTBZrzK+O0Na5fnVQCDz1vhvykAcl8z/Z1Gp4GcCASDxmgnLzl6Q2DMp0Uc3VLKeIHpNXccYgVvr4nPMgdykEyqpXATfEKCrw5VHEZ0LAxxERJ/92GKKgkhzl0fbjjtcb1+zxxM5qrvS78zAMrnaQVtP0/+XEOzEbKw1HCY4qNTlyoNIqoU4sYXG2jKGanOi7wti8dH2nzXy8ShFOI+JA+I29iCug27Ot9D7O/eoIBZZFgwX/LNTLcsG/l4YPdkVSHDkATCvencRv9trqxSHJZGK6vRp7xK8R3D3YewItqRB/jlvlR30ac870xFGcPbaGslNgE8lR3I0ovHsq3oi7Sq3eTnAApnBKM19NS5hepoVZEzSLpTADgdqv84gZaR0dFTEOJsI5E1U2XN5fPWn0Yo0big3N8WhW40xdCAOib2y4ViZvgY6T9Du3IysDwhxOHemF1ddA+OezLUpKxmheiLkrzC9R5xJEUQjCo1dOI+8a9Ewl6aa/oCEh1yPTKX+yH439JfCab/XKrTRqy7EquRVKXxnxK9SxSYvyhDxNVBDDvouEQQiZDTNz42Mej4V9ZvagDgdjx60wNlI1PxVNVaEHqNa6f6FpGVUAMH+zrj2t6JVYIXApEM7j2Yd+qN9p/PzEoZWi2xfj3T5Cz59QbyyQKaLAKSiIiQ2Bio+pTEBIGp9wApNcfCP/7jxSleZ0LozkiSJowdSBBLhy6DINvjG/+yKRuFEaB7zOBH9JuRY5Ta+SRpIZ60DZ81RVSVoXygwXVckim51MQ3D9Hv9rtco/PikAnO1W1H0j2hfRkEr6COEJXcdgdoAzrItzLa8625Wx9cGhnxVCT5MFYa5szVDMeu9AcX67C5uh9a5LWfLI+mZSQ+Nrrc/TaL2I7Jrh9QlRoaRAaEIZogwpCaD+P7IxHNlmr/FC+JVNTHlv0v+RZTYCGqZsX6uvXrKoTlwe5O8YggsShwdVw2tmAKdGwzt9SHgJTuR22RdwkZeBe0pjaRC9XmSsaoo+rv3ealueOJAieIc3vR2FFpZK3JW8DOoBwFgBhYm66iDsnR4oTS1zQIR5mei7uLEYbu0MaMnHEFuC6kAL2a1vSExuD01D3hdRMQw43hmz6OGDg8p1+CzYp40Ezl+hqGtDTcctWyFER9WlMKeqC+KnljkdkXHL0zXI9CcFadNRm3lNc4+yRC8B5u721/KOPwEHIjSffec8Gi+kpFtx7EYEmV8eBGFhuZnf9oSTpoIpH698nNSr3LBBr5yDBGH+f10PABFzz4Mwe96Yf2EZ1QTMAP/OmGsQ3J+1L//fB2bkX8WOx0Gk7auRiyUatKJa0H+qOLLp2RNlYGFbg+i99z1LxvCnpSt9uKt2+X6LfVm53miZ4T9060C5NAbrwA56sPYBc7bVNWb8+FCZMM1kC4EDOE2kMg1rLr4FmRiR75NEFupQMCUTXwKagDPuhiVbhTiQmrTPDby7c8TfpnbuRDkx8aMXpR6rSz9DqjMD4tYFg8Pfof7ATAY/N2rQIkXkbOmyZJLfQO6EYVGrpxDeVWjt5OZZalkYgl5YBCocDnB4YyNv0Q/XMfihcbTKd/YQGAmw7fZ7JqclZU1wr7oE+bXeN/tWqnvtleTM18uM7E/5+OUG70oheGh8/4yMae5NiaLtJhrsJ1JvWrDlNiCdndyWW3Ygyk5K8qoLprU/aiqtenVtwDuLdTrJaFcswQhMJQMV6IXkxVIdd5S0SM9KPHUErH6jmqoDZJCOwXG6ee1Q1CL4DIxjVFRqOBkGYrH9gAYyyCUZbjRFzwlcljDwj79rbDvRGBLESPJs+O4wf5w3kQsuTU5ThSYYmB70VMHquETgdoGIngabzUauAVKjWUf2/vtTuf4ot1t38VhZ3AQ/JJd6jyT0BEcXAUntTyMdP67pPGJY5T0NfKTmHjqlI1TFbgrxl7dd/e7lS9PyrKB5ohHNJziG0rzeveUfy/VZquE6JFpHbXPUSodk0xDqILMhYp10+HRb7FS5UiRRwNc5/uCG8oKMzkNMx6AFkMnhJOMAPDfjq3D5eT+0SgdZCefI661sUHQ3RlTQ8LXGSM1upH0BPxPIUG8mQKdcBTjYw4a8TVF1gj8z2TruEiIoADE+8Yc0+3CZ6f4U1YJY6HblN/hu4BOrWkFQZz0nHgDbZMhrXYEYlH3n/wG4GaYqqC5rmfWDkN5o/Y1x6n3MYF4rNpTa2338Va/5ob63HIxG40Q+GeS+HxKkAzg086kxZYBZLUZVtE4oJIoCXTOwAE//p53Uzzt+tLIBW3InJoDMifALfU/5zqkmgiRiyEfynuYgnO+gv/ShCk+N6sS0ugw9i5xdohhgjiVd+Fn/G3pa+x0iztYOMPDBpSUPljBlOToVhbnHni5GsaJcjY1rB0Yds9z/aaiWesKNsTUG5IQ9q3jwJgQK8VB3WJcEmfUPpVJo2I2x2BzLV3KSEFmbgzF06+GyQZn3RjPYk+12a8hxp8B53mlyazbq/FOxSw+iL9HbiEGHpVnjZUglUdY7gqew6fg0xr2ANMg0HmM42Mh9ZFckoFWeTuuspouN1ZLjY7d71vX2jVBqf5ydcjK5NQcByWseBpKpIdjv0RsEtN1VYLii/vFErtU/j29mHbfiowoD2itHgLIn9LvEU5c0g5iaeJywU1FreA1DYnBY5eM88FGd2Nx8Qy+iISGJS5ML+ldO4Q+LpYuaj1WlST5mt8zQH4zdsvBzl87SYg8QHnZXoyhUQ1Unc3aAE53Ixqolpw/6PeWdvsWSlUEeREIXjhpaYZAG9OfWAS/z51FTm0gjbvzJIZseV7dYoQRPCuYlDrI1YOIDcVXz7HIeXbNGGBIP/NnpEDrrFCsKvC0frZINiSAxZE1y8JSBmHrcip7E+I5kO7djTVZM+zq+DVHqesDlX76oIS++z6DPpcqHfANyQcrD7wp4f1SmoRSspXMhWGTN1pJ5Tu+6aS4rdJtq/EtOxD0dA5UsTl081l1J+l0AiukRlUMbanydWZZrlb9SzMeqahYogej3lnWpWsvP0OvlUdcGLd+SqibMqOoWzPGk+g1bUrYCZbg5zc8lwPfgCR3gcGYSwpGTkujERypqZpir4gsGTaAqJr0GQUpZphkMcY85G4VpS12wLyTG40d05VyzCbSeWlpIbpW8QpRSri9jhktwv13wJazKV7OB4BpSqrE0hCIONcCSzwV12TAX3mUx2viokwVKjf9xIk4Pmx7lrcpW9DxRdCXL00W634ag5hYgKcjUbwa7G4ErVjCFk8OWGAfmaFz5vULaOzzyHhUTIxRXz8GRUncnHDup1d3AhF8gH+DXjDLArn1c4Gw3RMUwR6bhbCkHjJ+Jj+Vw54eIQecP0KCFOzdfRtcOXcVg6MAWifKW3KcMkmxS3tQqwTQeB0by25Hkp7Gtzcoo0uXBSbtGKHghysT35IRhVcJnfco/LOXunaAGCeAEFlOc5Ae5i2UgIQn+4EzkYIeIaCKG81RMbjdd32DyZKLpVKz7KabkN7ynqcKqk0Sh9+YUne0KHOhWLjWrStFMlpk2+ihR1uNtihcFwFqgjeWpQqyimA2LY6qh/0K+Qlh9TMCVjXN8TIKK7EICgI4grrEjA7BJW/x+e8cpcbKyC/TMTsU4YBnNJMM0KIQPNPcJKBd4fuc0ctNOHASJM+cT608IRVBqRzyiAE/tc8eBYUWP+8jnwy+qIwEDrT8bFsqS6BHFAZNel7Bfv8ACwHGsSLn3heZjt9AtT2qQxhJG3edRvimY1EiBYLOkZq7yFRf92mtryVWqNM/eWQ3e6IsE/7r5lOHAV52ZgeVdioPm9C2F3SscL9ruF2SpUC4AnFZ7TGQxoZHi+CO7bV4fX9Q6R25KyLhEh8xoRTWeBxFcESZMpcZ7stxue5HjOYReNLprcAKWlG5Pmr230lEahrHABVbaV3mJexoh7xPItM1pZrVdiG06UK2XGiOt3Z2aILzHUDh08EWRkaWt3PyRU6+CrU/ZPmjOLhUn8h9TqXwj9b1WZdXNBQ83BMWMlVmaobp5n941s6dPmnFU8yIXEt/3X1oKbQUBfsFIa4d3OWVIEBqLmAvEPNo+NHjQ6Qf5DrP58WZ+xtZdIzooJWfSmbxyU7cDzepbPSCg1FBe1+nXQNZAZjyWM0bIreolBoBUVXhpLXdJpfAvRn5fPGD6L2enAN3bDtX5eJ9aWtBE3BlGNBQ0bSQMhvT6pd2cI5NQOxO+cyVpd4bR6YZ7nIA695/Ab/9xIXa1a5vjtBxXWObGvdeXNu18Eqv8P1923cM0UisVx7f1ZK8e5v14GUpqaOTH8PoX1G2thVfIYgHthXUXbGCmgN93/YQJO5/hWKuLkOMJlUGXV1lIx8rc11a6yyNPKh/9ZOT8vbnufn4Sv/oYQgDqZ5BzusYzL0aDuufcLRgusN23j00UP7pl+Rt8344P6B86XESRin8tq1/6GE7zn7E5q17NkCY3lML+VhRbq/SXrAzPoao21Lis35TJ8otIEQdRc6TReeSXEGBOLChrpaxxD0Ez6zOv8NC0RQVka9pOqiME2T03sPZzn4EtZlK9nA74fQ8/ECrM3y5le5dqrUhNGHlEf/7rfaxvXKMFqdVB62XiymwcJdrzexMSO3V2iToibHdkQkbYdKBcTDYL00147nS6sJCiu7e/TGlozkqE8nrVUQbGYhpNkHVRf6DyajFOFqOBWShHDm4xHnvucgeBloPz500NCUH29v+faVmpPCJcCa8Zau71+eca0Vz1Zjruesqrxx4ssEsuyMJ53NUvXyqSJqVT2FM9AQvB6G7lc/fov2H/tcetqqmhR6RObSjusO3MFzxl751rcZN1Y0RgXd/cDebLqeBsn9xHa3yVwfqCvJYoPhftKiOtgiC6n3qc7k+92GnVFkDNMRbvq9dWTnkIvTLTp6aKHy3W6ktIxK+nXlwMITHGBIBWZHEHWoDn7W4UB9SpHV0tlFpzyFfjEUx3TL9vB8yBv6HZ6jiDH2RdfJvbh86JCgnvhTxdRytwpIoT9LuS3V6T+vqIrgnh0b/bgc5FQkNDzfuGszAP2mXum5EuN48HKJYmaAwghmm7FU4hWXutbd5VA8yVC5d+xJtC/b/0zYlWZyIXRemBtjDbaZrgITLMEX5/i1O/5HB73qgNxRtiQ1R3qATmo3PHSDcbZZ485S2wbM5Qs0LLQMTy8WlYhZ/uzatbcmhqCAXxD7PZxtRMHpEiyb1mTXFTWEvtXb0bfAKQLEzLQ2HxJKqB4drNIGVwk05ZtkST8h0n6TSn/0q7q6RrRsMo9lSS25svj/B9xc28Nmrx6KhwhjRX0a52LVRC1AawvFGRzNq9UQlDF3H+59QpcSVQWrqLx9XBTlCnHNThoVRV+tnIFe+mQUruWumRB1QKBFeJRHztLAAofJvDZ2oAY2oaJy4uCrcwRfCLPkXCB///sKRHoOQtDDA3w0eyiZcpeUDSoMQGGWHzUCQhVc4ihZlTDTcSIaAWgXenReOYhg/80VHdKMLEUWmo+c/Wqc520nI7D4yn5ymmOtGESv1jmNqExpLfKFvYsWeckFsYp6OEaTU5kAp4hDf2IwJGwPQdcuJe3qwuWVr5ADLUA5hoh9n2ivr1aGgPpXu6AkfHjF5b9dGP4ls2HQevIwdjY/8fvGxx80++NHMw6apxhF1H4OJ0zmwNVpGol0BsLAcQDg5plLYdwrkT+2aFXKZXnTvWDDQ8NNexVqfnAt8bA/ZlKpNAlkSBHnmvT/yq+iqEf/aQSqxZ9oT/1XMbTYD/9zGvFiTUw3oPmwZc73viO3EuGdaJD+jntKRYy/HdN3W6RW8vu3IlFbUe05dP5EX8Ts94XSPbV9ztWZ34WIRI4sZdJiAHQVdwh8nIpv5PZOwY5dUfpsDmS9gIcu9hvAKg5OQIyyoA0Uk9XxTrf7S+q0XNIgB39CHkugzoS8Qhr1fEUNyZv1YXFYdSxNpwjf68MzgRupnStL0gb9S/9j8phY7aQJpAtaa0XTIN+W/Ki8X79eAblx9SaI3bamcL+xC4GMcTP785o5PUpdg1qvMC9O0f//7CkR6DnP/RGu5HB+YnTQvHy9ale8j06KnOI4arFpPZzf4lXfmvbua3InPNDOw3Kg3tb60SXYgdmljNMnL3ABOgvjN02MlZfrCGCjEToykHs52nCBJYyIVFyqLmZxszmrxjf/rkPd8mgSYtKk/X28YGZKo/ezTBwGtY9knVMAg2idxsvi/g2Upr8QvrYqW1shBlzvfRHsPPz2gR7YjcF3i6IrVYYqhbeeoTXYQy1NeO1S4gvuEAeRlKe0e8bAy9GE3hfWS9vSPA3dia47lxynGdLm+YKaHSwxS11RFZZnQBKIKc4kk1YMaYjTfa2l6RwA+ui3Dwtl5ayRGhy8YtHdS+qFd3FsHzGTuhLGyFrCFHG+h7p3joM3hDeNG+Ko5ADvKJbXiI+FKaYRAXuh2Do3ixC8ZaybnOhpASIKvuKLZn6rCOMskoT0z5vF40jLmLJ6B3oM2TDuCdNDqVnCRMmlO9PMrYaoyOOaz2j6DNsCRzwgIXtmHPhpZjtyHtn2bPcXWHlavufphrzfMVWhncvEPbW5U7jG/YqXwY1Az5BW9x012yxw6m61SFN47Ri2oeowr9QLqxQL2KlnBuwGI+dnYib4BhkCUNDyDf8pb0CbxvgiCQ0CIrTM9RcTqdXkasmO5KmjXuwennVqLsUw86+LI/amNzOJJNWDGmIMmNhPJnoideExoTa66fqOW6E/tuTEtNhvQQQM0fTecw2N/J1fHp9n2G1QzKghBNc0C1Rwhf01k30AwPZOHCQ+Du+khDHrPqKvsD7ZPnL3xBVZmWN5iLB9HG1LCRx2Gn+QG/Ib4c/axaAsV2prNgeIEdmoivtvB5mzg7W100ZHyeGoDhaey0yg/X3aUVsg7ZoW3rox16eztfqA6TgcqkrkVWY1jjgfJcO6TP8+PMHTHHAvjTzKLqZkpu8w827P5PDyGe5WrD1uE6u1SjPdIGut2g6DzE0Z/k1Y99zklnoVS0Hr5o2S1oQ+t7y9RQfHCi2Rk+fddG9ALvDbzJhCTf2kyCerJGtPeQj1e/bec9rhSyP5XL5D+gFgVPh4eIZ3PW02m4Iot+XxXkttvPNsRBNgL8pean8xEmkTuKYlOJZUt2cIHkKDtmM2wtH90RmIxP15eD9NkRfXry3WP9347xlJNMpd3XuVhzOr25HTztD7KA0IutG0PYg2KsDgiESxfQznIm5bgoG1OkuZyzM1on0pORWqoxpzLpc3Q+PsXHZrmSkL0peXLPpJA6QwqShZ6oBMHhiwlv4ryW+jsRKQVSeLFT26g33HESOWophCfz2mWUYKLeoKA/nHTzFcYLiNmRMqQzeR4Hh0zhO5ZYkmXfDmskLdm/DGOGa6U1W5LLE48TU2KK9Up6yW5dW6qwd9sEn+Jf5ozkPA32m7i823FRbHoG69c5U7aXByAh8GxJA4aS7vMrs6nkRByZkYwhvhwb2QdXKbChEqf87YFjw8vUpZd5WPM9Nb4UA7oUq154QCHyr2IDaZ10iBxF//KHLBfR8ghS5WEllIl25wA5myeTiRitaZcpDQtDrQlliU4oqoSdTmzVnKmo4iYxWNG5i3o0tBlcM+5bS79cosXW8BywIvAvLDR7SW3SeiNo1KgzibB4hTxV7oUVmfFn+tj3R/TpIXtAFSahiGO/bN715K47ihf47c2fIG9wUIhIOApYS907epOBm8a3Y4C3YzDB+psOSMHn6qSfpaNXpcjifIDbqNJY6n9+PjMWt4/DzNXTfcO/5wtqHETW5SArsxZVhBlaRMACPOo0w0BLnkXlf7DRT2hPTNoeTdRL7u36+17U0hQaInWQjMRm45+6q2ScmCXGb45UUWiXIUPyMQOi5DMvPM4qhUpX6GBuxntU59Wfs9pBmqM5YXEjyUGPDfy0jLbGTXBJS8g62N/OGyUDQGTmmfzmIFhUKl4kJAIBPULuBO4cp/HTtAwfalY30ggmqe6QMDUbzkoriyEi91TexnfC6nP9hT7/ItKbBCvLh1J65/js7CBAIcD5s6/Db4X5/M8AW7hhwcE2KOssdIiZAKWFBjxxMgaWXhl9ISQh1egeq6pnsVbQ6PijsHpwI+abRTnGNAj9BQjr/zhgjfJY7U55Z7tN9HCW7wttZ5M1Ug3Uu4Yvc7BiXcYZsVGl+O87I1FVD7Wezzs9zChMP3pWV88yHXgxUVCc7V/6ADuBt8sCWRRY9vgRvPdi5C5THK0M2mkubxQfpUhBIxKk/RwuCBT9ksS7fi00UofBw6bRGB8C/V82NDAyS3gF+hgDNg+Zgk4Ssu3NG1tc73YjxE3U5maRUcBnCaspFozhFvfBY3T/yXQJJSHVWa3aHNLW/9i15V8Umr9i11WYDRgppvz/3D3FbVfoohGZFK4inOd4C4b9kL/GoVRoKe+wU27ww9snr0VdVXvYx8bemYeb073X6suCpnRrLsMFzwdnDD5qO5J9ZX9HZ++rasrQqjhc3v/oaX+U6Ob2bzihqNyIUX/RuJ7dORlO05Vl5PbdnMpp8YiOVIHbY3UIEJYiZU972ODzWsDN8Qfy91ipcf3KlCyEykp20em6Y6aHA/ge66CaiYmT/QP5Zf+wesO/rK/F6kUflq4WtPcJCqWgy6kPw4VgROyOxBjVOyi1fiKh+wRbOHT+OUHJBKAcnS047P7JVi4Wc/hQJfTP9W93uZrJyLhoqZO5ExFFniBdtFm8Gd15Z8NNJ/6U0MPhty+dN61nfeSTthLs6cnn+If04HlMK1CbH6jsqAqjcJ86gikHSfhunzUlohM7ES2YU6E0MKFF1bNzsgaKf/RfSfxpiKPyCi2TBvlktcup7DBK14VZcjhs3Bfzpht0oYSCtCaJAe4F50LQFn5RAJXqvjdVTFYMw58NLMduQ9s+OHvCkOY/poGXmwVobC8MC35+FsoZGIwWvBhMUEvOArv20ZVZo44Oe2jm6QgLao/EDoJlP1xRwCqR+RGtBpF9g0u5b272r4CZbIXr938CICKUnaXmkguLBXPZ7CBL1q6x16InfhSylkgix3WS7/c6we7ebMIQvaDPS9nzCiIAgQIUhjQk4b5WLA6heG8Ytnd6Yl338JcaH45uXgXLsH0rUStk2Rod7XtiJoblCycFD6HrSmoeKDoG1K/ZmVyr8Yfh/7096NlrjfOCtbjf3I7bzTMtauxcvqDEt2pt58IWuXnvcvabJJkr64yvj4JvQH1ex8c7JCEJ87nPuQIwlK4LYgPHmL2OMCEoPje3RgqMs+lmIKPzPQ4Ff+Ca2DnCqiX8Hr6mCSM83BEk/3TJZ44eu0N54lJpNR9kB11yC9fd0y3k6m/nRrO23s3ocZEOZqrpTnxOoLFCMikUg1KVWXDP/gHcbwyNkLoglRG+LgJ8O0AUAZsAkaSmH+kB5SjXNhM9U3Y+e4Whxb1dZxfweMfVNwYn90x6VKQ9vQ4SxyBTKVYrnjsjxFFYzLLOTDNJavh9dLo2SrM9Jouzqq50oth0mnPI6tTQXXPHrKZYcxH2SGw2cIVQwF5hFkr5vawwBXNKc5cUTrJeeDS2tconIJeWUCeXOAalni5DkXR+RCoFQWc1uFHXS5wbwJPodsr0c77YPoLlp1axrIPiPnphrh81qEWn8nPV8vfD+WkOn/S8+6yzBuYf8YEvZ6zNqFO6ps/BAl3qqCliF4y1kphBqWbP9DsO4sPz+jtTCKipHlLaqseR6D9tLv0tPfKXhuolj+UyiZ10DRKf+dCDVZOR/hq2O+vGdKiMPeV2nEs+B4uXGT7HXFxG8IisiOb/MOgvEIMAkxxMEm4k8uUi/unxGO/erUWj2TB5dBCGtR9bK/2XC6+Fq/eNTygm0UdtFwKqNTqy4f0PAycfdKEsOKiUJX6HlCmw+KR3v6nFv0sx25D2z4HtG6sEpUPWaKenx1H18EVrgYpjWg0WxToXtehV/Y6M1aVEzZqME1tVIB55ysvN1P1l6rg2LT4tJaBzB5yca+ZXZvlT+Cdd9+AX6Z0ZYnclWbdS27OTOeAsM7CAHb1z+c5Ch43b9BSUZRHkaVYEQNruncjnRks/TyQ9lMi34bQosOOB3kxvTb0FAA3Ih/ABzMjlQ8qdkAAioTG4V2c1XHxRT4jTBnXZIAjnM1CIeT2Z2kaApDYCSL42j0L16M/O+tPLeYYM23gRLubTM6ic/+XZD36iyO54th4lgiK3Ol/2nH72eqb62a0r+3PtkhSXFEDuQNBTUgpG0r0+lNmFeZsWIeIo7AmhIEQWUjjbE42JiDWLVXCrHS8yCzsbQmxrerwCKJ/HUOpdBtSeLXXdBkKK9lXC+Gcj9VS180tIcC5hroewqXkCXPfNGkfcEOfEFNeAzHKE8Y37h85ZhMnFNu8mrKeNcl1GhpvsQlaX1w6uuEcVpUaUmvElDz6Q1ZxK2HaJz77DVHRpzY16FCC+EQKFhTT9WeDBP0FEbvQTv3dOeGDUBxcIpE5KTW4HPScbkrdfODNxYBN/KpB8tOXyG/j862qgepRatBFWUBCILxB+yC4BQmN0RF8Ma4YQXNAcibrM/wK42z4x86ke7+tO6mJm5RiOjE+LNWv/9zmxryj1s9XwKm2eC1We65OLvdCupeXoPBt8pnc6XfSG49HV70oV7aG6QDa6yn7HQbVAS9WyYgmgFCpbwWB62Q/z5cnrrrpj52ZPJNiifQ35nWOLbATbvoH8aCklAJ/iyVah9K07HvgCMvWmneVN7Sk6tqR06aM5kw1malt6GwK3IksCeTfMOS8AtuYhJdHAsAZTBC6wszLdNiVrrGT2ptzku4o57WU8665ZJ9hCa6yJNXH8jfnOLX3Z8EAamqo9yZdC+gK2hrNitNkems/u8aNpw3Fu66wmyEiTF5EU4SW7LF8nDcwXlGF7MeJv+9DEGvJ+tKVDZ6dtFd8KNUQPovFdTxuGICnNobXPKMvL1C9G/rZ6HBWQnyLwiTow7ex9bzAY9IDCXxHcKjWHEOTMIscUZb07eZ0I+XNio31nHeIPJ2xxYN74q6ABKNCGb2F/awP9XyUCqvJCoirdTp55vLG1MRm1z8Y1U+uq5OK58ak4/3Zzc8JHkE9BCFr1NG27qw/CNtXBAnk6XVme6P9+c/Nr7JScKbcXGi/xjQhIb1l7AnFzgLDDKLP6m+bSNJNZFedlZwPBMDsQXXAT/bHpuAyAnNi+jag4avffXyR0gCU2fbK5z/VylfbkZZ/twFwXns3XZv74keoV9rIUlxOuPypNpSQw64KVWeBURGOKsRXq+lqAhwyA9/mEG/slWJG/VgFkbFubkHHccUrDYh6VtellEaav6cn7ls5qjW8HAE3IEmrl7a3hzf8tz60LyL7SosRu2RWMCELXWh6U/llmUHzK679mTkuIlyw1GKRZe3pzFAY9gTpGzTyRFakzg7ajkyjQbfAN4vFU/TzMipkDgr253x4sgMb8xUj4shnE6YXQ+21S7pJ+BbcHNTzSD98thFXPyaNbJkexVzG4sC4lF43TOiV7i4x075joBNJ/buUNG951j0naxzLR7mbtW6MxWG/ZXE2ReQLsEInAK6I7hvt8X7ZQTlgcPSO130llcSZWVHKB5b0nYA58ZdSH/YN+Qj6jLNgJjXfLOe/h9KsQc54GdMc9rA1qrs08Qt+Sh+vupMH9iByfaXh/ECwKO9lX3wvMvAbWyfU5MUIezUqmTRJ5BR3hPTaqrUA0u5ftCu1SUv3qgl/HxzcGipvEkKwV12WAE6qqcypDpiK8twt69hQRlyog3470TSdbuJOtUQDDRqJ5YzJYeKRodHlgUlD2/ZRoOjHjH1U5bxRhxNDJotd5pIsFRwrjoN46xYiFBJsdItpcQKcESBxymBkv/X8ukxyeDCfoHuGoAx83C0jPyZbPiLWWr5N88ihxrui4X9OTzAGSS/4dMj/u6pf+JPOvKay+1nycz9I6p2Lj9ziB9Dx6OPBjY31QUebUA3l+NvzbsWyEYSWsTQdziEkpq1AzrHn51L2UqZxswp3tdxwlR7OHZs/k7Z6S5d7KnAY6HWPg8BqvtgP7snKDgYzzuMMUqGxsX8/DGvInVD30zUq6mvTS1s2BDD2pEkMKI3DNfPcP3MwFlUTP/kKJJEZ7GOTgjNG/Hh4sPVhD05ll/7jyNVtcZpYAeL4RGnbzQbnh7klQVO+jsTdrd3hoKQGZRgccL0E7Pe5lusY3lNKunT96yf46hc9akUWuS3GijHL6RXlpNjgrdouINEgZ0Y/8lmwJGIwsReCubDBTBF5/teXoY1jHxjih+QAS79ps/AD3evzqjW1i5rc3DJB295of/N5l8eps06spNWYB420m8xMhqBWo3pfMbH0+CIAAwcl3FHPP8bVsODnF57RpyQZhUbjk6pW1vDAOXBZAhDSJiOSQ/LkN7wT+VfgcZ2ngry+7mj6x61YjwJOwyu3oZlp00LF6TN22tnUUS4X9l+uOFKwHteN+Yko5H7GqmWOgSajAv+5tu8Z67FRkI72O1NszpAEmdlpo2ETPUjrRmRqlK4nEZHPVl8JQpFsJLZFrcEPaTamAriaXvv+QGt7YPEnnEEI0uPou9Ef55+e2wvXZMJoepI3nGHBiE4SlHeEAm0iTrFwYhq0RMTVcueFThcpxo22T0r1YQKoSrokSTJScgJIQI49BqMbAwj0i2JS/i/ttUqiop8FlqoLhjm4T8EkbCawKMsq3AuUem3IjIrWp351aRvRRVDO0NDMiKGdOsongwOVVYy1/MQar+3nNmnmGds5bZYrVYV0V6dAYQtjVPDahdQ87AKvF561bHXnwkQOaxGJZnYztV3uxpQUISvSG9IyeH11RRyo9WtZJL+bm1MwK4UfefePysrLweUet7XKCzuywlVBTMWGZLsDgL8Vs26llLVh+LRmdQ1nRADp68Q+waSc5NjI7YtKNBpKck/2C6Z+nXSjN8eDpsLRqUFvYt2eauw0TPfA2gEDuMXLHtx3+2DIop8gWIfup3uwvVB6S27h5NUKonC5o+9vHEkilPtGT1212BBX4i2Q3CEea0RVitVmLSBveObQajVbmzBrXibMkwjHLeJ+YcBZNDGjMtE/Gs4s8KqDmEq4JAb8gQZtaJKbBSnG0kUIpDMoYDuyxaclduxuKD4HinSTCu3Lqfl3NBrxkdWFVY7BRc80XduzoOZULTtg8CjVjoBXzmUvYXsqXieMC2av58Cm5ZVSOa6LYfX3LOcuRly7sfZ+BHoxKOx4o2nF3AqJDy5TGMHsxfX/m6X3hPnuNxgoR2IrW9E+WWJ8knbMfPYaUyiJ4cpi542c7HkoqJeEWyeExr+m6IH9H1aqdgmpIlBMC//KWQ3NlpSzuBTjfmrOmKYAzy+ZqT4cu4Na2cM+ZF4rHH7doQA+C8HLt7SyWjPSQmIpLE/okvPD12pCTSJTQnX0jTEGm4R5A/2HsZuQZBjajTHnEFknrK6RRERuUWOQ9Z913W3nP3KdEFZGqzN5HQZbsetDcK3Mo//i6jCM5xfzkchs7UhcyfKiqcda+tYwFUjv0KAsvMK9GqwovYt0Z7rCqgAp5TqKF3qlsnHg9BUB366dg841SR5RCcGuDO8/Jd9pEw+zINAIoqXCyD0HgAJuHU+b2DRwaKwlxn32i13VrNbhet56mbON0m9bk7sCMtBWeQYDxm+GOaRp+AkHHHEcUd8kC+uYGaOCNjQo6TzHh66dSLEwlUKTRFlmnE1TdjEMXMNdGv/HLyVDYLJNfqlHEgnVQTpp5dA3pnFKRPYkY5yNRMiTxLyQspG9EqroiLkxt0A4+IJZ69jtPBz0I9PwJiQ9HfZ4O+7fhZdUvIqUos0WoLIMcd8fWuQukbFR9gaOvEeuiO05SBSHd2VzMuDLihPg/QKQuDPdm3itLf4ZRqgpQfTBch9ktf0FltNEc6SEgDAFyzloGkN1XWG3qMXOjC+cRnKsjwmQPNoUFaE+hKkq8Mh7SElY4lOnraNyLoNpEiEaDbDoYnUMWQuzHWzKUzIGMpvWeCh2k47H9YWsYRhyRbNY8iggi6t6ijgq9+NlFTIIWWlEwcGvKXJP/sW0nrT311EdiZhsqebdcemIFV9G1MPxa0ijkEx34tH1cSZafgCd+29CqbXVtRqeFlF8huEaTaBppGRTgpM/rhakpzefo0KufUA9Z/YisIXCz/YNtC+zfRBu3iFGNZ1KItISCxMxhl1+g7sY4QMvyo3Qx0qr+YIgGclJUkJApj1pjteQDrY5Ovjr6KIjoRPve0K2RA+Wzb3K6xK9Ny2f3ZhmB7TGsD7DvRRkfvQI5nGjqWkooTpru52gZ5++yhXu29Fu4d0/zevYlYWSL4tNng3Mi5m1m4+X1yVeDWUsJeCMqr0KuqgnlAzxht6P23jfMXesCVdONMTMin6i1kkoJzq2q5Y3IjfnJnZJRPVgZa0dOW9WpGEy/JLPrIf2Z2pt7t4hmZlLGk99qtdeTqTDmjEO2OvM4zfzNZ+ZXgOXmJPevNxHgrzMPKh0i1bks/fUn3g+1yW9AzBNSvUnFjYD1qCm22+p4qSvCFSOBlC4rFKU+j7EVhRLuSfZK3t177ENQijiuoAeaE4jzGzfFbhLiNT3VBgHryGBE7IILA4vvcVmMov0t8+FuoR1zLOmT4sDlGsmxl3jtDJrIIfHzvDE9hS85avo5qNfhbXi04ozdUR+DiHQ6bJhrVYwopxmt74kRQOkYHAstoPJMeIU24wvfX++EfFA2uee7ZZxpycIZogGnoHabGQ8r3mZEJqJ0+zJCKsAwYkIi6DlqlKYX5BB7j/a3dzMUguw7nBNYAqTfXNidq+/QhMfEUuDjRexEW9rtNqo1h78ufCt8eADA2Ik5wHzL0TP+7GD7GRT4Jd2KP0la1q1umRtYZ3DQNF2a196hqu7SRVmV7yrk5euX5t+7HXroujtUb5Od7q/rSeO87wyAjzzfzmU/V5H4xPSNQItrOFb/bcPNnRhjUD3c8kOenMNbdwrnHrchtYCH0r52AAEIzksILpO7EFD2qJq+vbmg710gKI+XgA6OH8zk5OKh9Zz4BmMc9sXLoux0hD3OGHNkGhrknpqlv+J4xXuxmv5ME+1XVy4dzWuJdFxI/7NjFHXRLgN9gYJy/tLQhCiawhHvWSbPbIuNmTs/bROH0QYkTzZDVxcNK0x8RK8neKPEwzJo54igpgC06NK07s7Ny2Ug6izA3Sn437AUM8X7JqVweCxGtoVxiAn9sehE3Lnk0XJnYFH9zwq/kaqfzlerE4GU3ZEyd+2OCpTcLsbTUxbGNU2onj2lENha+zpeB+3YFydWQhXlkorB8m217fBUWk4QsyvdEvWHVdNG/+OrbFpU2/zW9phg73C2Hpre3K3feH2JIfkaRYUiccX32hPS7q+o4BrPTUYH3zlzAjJXIUbmQAxCtfVrdX1MHTW0+ILiFSDthMRgQW50jQjmx86F0qZ0xXC7dtCSUes178lMIwiC9zsDh9+RsMKOt99cKEHQiaHafxaNML+PRAlV2dXgC2+2070m8CJDwrHEfYS1/VfVqRvx7A79pNdd+8bT3uwV/7nyR/fHin1ogfqWz5WKFUMaLj4rmQxUjUmIDKifTvW+8vpFXIX6Dud9SwPbAqGSOS0n4d87reXGE7Inp9Ax/SxQRQSTEvEqAgbOZhOAIQzVhVKN+HdawE+QCPVAzmqBto6xDv2LzfSISZHBhTGaApFHIuCPJdU8u7pWvIO+OOQmofzIdaYptqwdJUcvW7fQ000S07/3y3TyNlH1rFNALdPNJb+mJb6zXwwADWF3iX/hOSnlMBYyRKx06OrMcto/DZvgsljwg2VweU0jLV00YKs7Et1gbtWx7cnTICTK1Ot9K0jH8AHCGC3twOyKumFWeOWbTXFWx97fws6PRBU2LuLAsd/0TIz+uPdFWcPHazHMvgIjxF6HZS2CH6zS2Y70D+/3m6cFAy8O+iNdSKrfU6y+xJW/7lhjJHI7vkWiJJQc3Vw6CUybe7SejFN7HGRI2+/7+hGlFwlrrAViyo5mFFt0xqYZEQYyGVZ7Td1QXzaGcLnRH8kPwe6EtX+lYr3BvjO7/v7pAr+0NLtjw7Lxen5rY6C9+znvWfaOPOYUMblo1z8j7pe9JWvsCf6ICrFvw6dKbVWfXZn3io7W7i6BCsj3+nBNtIUT6lOrusrM20PojzM2vPs/R1H7BtBtDWZJ7nVi2g3YmwE2Dip/w7NA00QmbeKDqtF3YaMBxFY6zP4omu3reDPaUQ4IMk0lAcgnDH8jEDyyYf5QrV9Qqu8kNSWCiT657P8Rr6M6UftdersH9zh4F5wiotzhV9MXysiwsh9mfUpAz/+b5G84v2fJc2ZTD0lq3O314GcFeTCHQ8o6HGHvmL50YVke8dLZtqo64I6UN0WipDzwHpmhCMQXG8DEG0+cK28Q4fSpbebt0ZiyJUEg0BDzUodHuCvjsb3VPXQyL9ODoPWOngwZKDtE1DfgyEBRdCxws3FC/uinwesKhUHVTG/TV7CS8GsizHDqmXV/8ikxfbjtx4GSMZgijSO30YmvwPRHqGVQz8B/UdNlkSU7t68si2uYpK8Yc31iLJd2HnTiaXyajKAm1ZNiXTIUVOT3DJ+E5KgOv2CZApalhsV+BhMNeuj/Qi3zwcbyx8p+K+djPLD49aTdh/2692KxV5p4hhDYiu/ko5Bv5qqinhTvztedKCHEia6HN9qurlw7mtcSgQ1/qitt5+KFs0fnK3C12Y9yQA0lej94arQZ23m7djg3Y+qOK0jSVg42joiik3xUX/HIjo3tcd7eSlld53iuoKqoewFGfVKeU9s852DcVYUIPoAAAAAO5J2/T04dwGv/ZA8z+DWeZdIK5d5ZafckwOgYId92LsdN1JByJkqrt4gf5l6xEdgIr5cCpxqjbkVZhSVemv+M7UMfL+B3DjVJg6gS3XWrAeLcNz7nSOAXaT3yu06aZcS+yiK/9ghxrPeZ9eYzVDRi23XZY4c1ZLiMZ0tjCIEQD5eD8uUBKMrVfGajGLW4SR8u3GKByYPoZi+ijQ0aUyzVuDsvDT87dT15PVt6P7Nd49gdhuMLI3z34AdZHZcIyo7YSUiN0HAosVkyoR27pfa2gW1v6V2ogrFzimGBKGEs5iteV7w3Xd5Pz7tywDnpcaR0JCTlRneFIBKM6t1kO03jbewzrvEY1yGD9Vd7D232MhlOUk1GjuoGZ/Jo8sVmIc0BC9nKXDThlykMC/L0zsi5z4A3wbdZy+RmZCnVHJ2mxOfd4hmAnjTAkX1sUKtkWi73oKPSbnp00ouGA7xNfB8eo04QW13/Q+EHEwUnZ+RWuaXId70cm9vv66+Q5rWKLzfMApKpZCxwpC8vEp3AWdKOi58CmOugHcFvaqYGT9X6cMZcs0GiisDHsukDJx1GamRAX0oiYSE369ep1O6bZsFqTFJpXHDPyKABIcRdQnzEm+B+EPz5UWQp3DBUhY1Hv7y7aSLPzsbm9fF370q3x10PcXbWFsp9bLFp5pojofMkuCKtJxXgXBWiHvgaV3qgRXCyKgqwRDecbMgLj8IJK88QBuDl9LeTAMOmlRpNqyiUF4x5v4rd4U69pbBHI/5wOvqsGmG9nbkVW5ToEkzvoskj38VbptnPI51fu5b56tkgY85Bkq1T0dOlCoIhs7kbMeMw72SpzfHB5Idfo0zdnuV4XyvkqLbZlcJsbPWisrTDPhp3SkqDTGiwOYcJTmPgqDdjgkoVLQgL8PHCxW3ogPj0iV310+Ypa4KPOvUis9HV56n/en83d/+myiPeXVBA/qotaqYJkUA+jgO2Fr1M6vwbuHxujmRwICYaxz7fchhoZ/+xxaustJ9kly1RME/P+sfsZxKAO1bv6ljLb56ix5xdyaiURK7abBGiCD/9vBHURn35i1NB9StyF5/f1oa+d2IJrFOyfmsxmZAVZf8QP3a+ZqFDSam+fx0ahEMki9N7amUCcGUYTNzFZVNz7Th1fLFmvhcNClsfoYZkWo5/Y3nEgJN7FCd9kumLLjIqFQfFfAucET5ad23lGxDRquAkIToiQBGOWQfX8Zus0JxhvOlVwF/RunPcn75wzGEHBYkSOxNIo4hJEje9r11BfikgvSZz7YbBHLBEgGTza6lAGC2qXeO2Na5svim1lb8R4i8haGax+b/WP3eY0hfzv+eEnbMaKYPVoOkY+oprnM4WT4Cpk+UtZIZ/o8/8jvsFw4fSu66cYrm32hgTkk0glKs9cv0Tyr6Cl7cndTbzXR/EazQtMtIGZHhyD63UQE/zfE/AaVVpL6Jp4Jb67c7/LY3qdaVz+tjyoZvQbPAfUAZKmspYEg6J5rz4UfIC1S9v83tuTCzUkA4tCftwq5wdaYcwLdKT7pvjI1CpxU7ZaaHo82h6FQxQTwvKRTIAAAAAAATvjVdL1ySf7nyswZJdet6ptTlJy/fDSfUpn5MW3Y2JnvsWE7HpaNnSQh5dd2f+4TQwXx4qiZ1b7RTJ3z2s7K7pMdEuWlI00ElIrTqSIzwpXVTxsVdqbeupPLga/028gtUVt5tTvPExEnczeoQZGJ8lcFEXHHxFj4QT0JEVCkBz6i5TIRyN7dma9Ok5vhhfXKw7zKSmeM2e6v4dC+HuC4WMR0saB3jaKcquk4f2BKFewiatzcOJB813rJGp2dTLzwEfTe6Hg+wDicNvBEUo3fsJZZR2wqCmZCvdQpr+xZ9s9XrCReWsj2oOyhMv6lL4tL7QZ3+LR3xGdXulMaLZb4srfGLfZIaOdjSyqvjCEvs+yvNFAuer45qeOlfTJwKhneQvuCB9U1p9qX3NSkcO00cgDrWWHroFPAKtQSBJ6fd0mVB4zTV91vzhHVwdY900dG7QzSx3kZlGojv65tGya5dc98vfE9v+fiqrlAMkVoPtCeVZQCO1QCCEuDHtHA/zZt27EC0Bz9raw8SLCHVtSKO1CZgBNyZQtgi/OEFoTv4XCAswCsnaYeVr8Fi5eHemvQaAVjN1DoHE1rrgY98SpRaarkSFpl/DeqcGK16nF59O+g8ATQ3Xl8Ou1xNyQdiJbdckxsYKWA4WWGGEM+ZuWvHbVhkOaiVD8kC0VlilJDVslUu6TE2gD1Zuo47gnXKLiyokGLDN6GMV4+17xbVCLvHdaqPpRzg66X4UQsvaHDBZaLvuJ3SuTFxR6Y4bfSq8eKBPXj8wBe3d0GlojEmFl4v6Ch4yqsdBycOQUFEpcWZHlAzbA6LUgCCM9/MGCg53SvxS6J4x6dhISI49L0q8W8CH49N44erc/uESqWH+4IqR7GDxuOqFD5doC5hDmIeOOeIZrFWMW+okvtoYwxRUMska0YCMRUB76kNUfpY+HKu+fKPkARktnG6Q+f/pX40mMekS+vMcPLkt6cVdSyt+2257ZDMs74FInA1NHmGEx2AnQictsnLWxzJuhtyWrM+C0asVgk4Li2k3/ly+M9R26Kqr2I9gecpNzgXsQ/I/lsRvYVaSxJN2xYeJaZY765LVYLcq/190pHLDCx+MsaTyDDwKE0daoZyXyq61Xlr/8JLF4aqsxgQ0HTEEYt1GyQXOCOrG35zzUDaVc0pam7PZ5oQnBzSBaRkyPVtmzdeGiRR+Ltn5lJzSrRGwSJ5COGbu0ivnv2ZjztKV+HAQ05SaoPjCp5k825RhPXpmvwN94KFTdeqghAzkoJ6WQYakG+eXMAwHJwRIOKv50RN2CuQFuAF4Qad5svBeplxx8x2mqgfbcQolBWAV4uqTx5fDBLdLe2EHoNfKDp8DYdP+Vnc0K2twxUAgDbcVPrrj8qCBO1n7absLYGDTboo68fJV/jhz/1DfT6kDpRhsv7IHCIEyB4PWi7gZya5+6+zuF1UWf6uQe1wFTTfRHnAqK+JjxyDQHwkrHq3efYR+fEcc+MkM+89ZHt6czEhJhLGmmDnwnqKhSXG3fuu225xrbbZLV2+PnfaKkFF24H8q6ilXVRy4VFFwY/zvrAORBItQs1pMvjtObMUfMTIOl1IaP4EIhnsDQuM8OxnFLPSmjoTGO2xkdD+79ygElwUQiS0rk9k03rF3pNqIQkQfsAIRxgwtIttuD9LIQImGmV5k3KT/Z8k04CoDKbtzzwWNgiMMv+dkYjZ++LMNy0CdjXf7wSu+zqrkaIkvpcjOcH1lDJrff+AjERIeu4ktMJ2/w8/YzU8iMwly39ciUc7bjxw9GJSr65hzIhh4pPhIyw2QOtJ8day7b1BHGCHly9U/5QVF6yvlGwyiZt/6D+Dm1xfEY5esKcYJKkSOr/YiVBIN3tbiVnoMRIamDiVWf6erIAlJRDn078MWvtYIbSElz7OQtZq1uYWHHYD8Kxfnh9pkhnodsqJIorlonyVxQONATiQ1N8+n5voexx1v1PjD8Pq5Me5+63CT4etD1QjoLgGG/Bxs1k49HG3vE3l6hLt8NJwVyg3iy/J/dtYMmJMMSKt3Aqk/oRBxYMjnjD/QSM6aqo17EN/Gqo8o3ZPIPmEQFmlUmU8GIv5izBz9ra361S76zyV/Blii8zexGM2n790S7KsTsW5R3PGY+x7kEMDOpwVmtQDtZ62ewd5p0HghrUagAAAAAFeTXLwlIGYetyKho07FwJZ/npoQvIxjPwFJ1bRqa89rSXX+6/kvyyPT0Qzfh0Y9O3vA4FjjU7MQD+Ezo3tmhDBzkT6q7fWVwde8YzNiSYyNoS3/ebJ/p6zTlYlms+bz9gLKTVEYRjVVlzX5gcav2b2EnslMQD2ap51LQM8EfgF+fwJbrplyXlPwkGu6Mr3/CiHz2AiGuIKUNAVHIjYpm4KE+mIKrcmGaz+eZ1y6w0lj4t7qN+hzy8+He3vkgTvIS4+VEMgdonoGWXm00rRVZd6OmSlMRPTIKlm4QMKSkKJaZXrZfNve5eLXDZogjRTnpzqi1JSiT7cLVNs+8uC/ngYqKMFx422jCUSYDJQN9vwXMMjef53GobzruiSylIdtSfzkVyl1mlaM9DXn2qTLQx3/hPbDp+ihP9R2F9x1vtR7GUCjQMjNhlndJZYzvvJA1dQ3kB+db0G4yWm2HwMOQQdcFwMh69o27jjcwo+qtZhsrWlhNlVbpMROAaAMVdbADOC/HEtIHzqvCS0RBk713QWqf+wrYVSE6qFNJLo42XhHeDLgLtBj0eR/Oja6nQHZwHuP78XIX58wtJR7isIG0+V7inrI9Jxio5rP3IrT1v+Fxdb1Ib7LoY0EfA/+SiXd2FlnScIsOYr9ltbVAnArZHeUNxs+Mjc2Q1D2rreWMnl0LaT1rEkvVcBFpjzpGVAoVXRFkCeeAdqezLFzRvsKkBOeQW+Vm0hCcEZwEBaWkGm7ADfp5eLDTbsWuBOblzRLF3jRPbNKnxE8tbhyw6OJ6IGygC3hcrUnFPKSEFmbgzF06+GyQZn1gAAAA2tcOTQe1iB6ZnHT+CmoToRevH6HpWWsiL+wFCbAHtEJTs6xIURr8Pn0oKqXIAk3A0erT7HhL5DZ4tX/hsR05Rx+KP/74HAZHa8vboQpuKFYK6xNWW06LHo82QUkKA+G6hlto0pZ+LWZZZuuA3CwreUI4a30msa04hTvWfgWe80/EmmcOjfRtXkAXa4FEH/t6NhAMA1j3PfypIJFHxRmHuQIzya9v2vcKbkzL3BckP2MqBhc7adir7YKmAXxHTA3mryZm0uKTwHfQK96rMDdAgyELnjyiYLl4sF3XUZO3fiM9ZJjarSXXCuvzJDIZtJ3MdyqpJGe3GQhx6JfgrxL+Bzwm5RPHDrPtY3BmnH4Ivd8Ed43lIT3NYGhmdZYAqHI46ydVBjGlxCfJOG7TdOBQw43+WR1PQkDzhVuAZKX6nP67iN+umzkbRmzwYasoiO3TQoux57gkbDWDEG+d3GJUGy0o/s2PT4UIpL/Jqx77nJLPQqloPXzRslrQh75fK2OPl1mt/6OT8uW0T9suoc+hVQEur1elBiYlVsIjeY2fF2ZS7TQVcZ+1ZLRZH8rl8h/QCwxZrz26M84uSYOj4WnFQnaGpS7cRTIYrr9SM0F7PPiRIFaTdwPbP+SbaB8yQQC6J9b8HXUIytE4pxe5I3qHA2a72GPP8zNbCPhzlONwaShf7N5je1AW0ZC/km8+iV4bYJ5fKcnMJKLf+MU1ox1w/Nd8GFp5RkIBJPSwrpqrGdRuBkCd9ZVJREvHrZc2KbS1YDUX6UPiNzNB9txNWtQ8VuDbeW24nsGjASS7HTAKigLamF2n7SxI/ctEjhO8y0YXkFxjPBQnrT4YxGoVOG6Ae14oJVa9M8uTXVbDtFP7aaYFsmUbiA5mm4KrDhU5816N4Ux5EMUq78MUo10x0TuFXK2Ksp1I8UXzTTtzDJQdLhRDqPQgD0a4XB0Hg9DoKdnmO4whsDQs7ujfxETUp3cUAzpWzDdoJN/86HAGX5FsciSqPoBR5fl+T+PnioMA4zos5IgIzzgEHsBsJ8RWZ8Wf62Pcr+1CZA3sEpk8AVgkTUdh6iEcOqynLUNU6sjS8zxtSLHRxyrIiXEPLUeMOEzimOioyzwxu339todv8zuku1Ky0IBR8GCj84e/ew+eTkZfupfBjKhIVHJLTwSbR13LsGqpYNEsyf0PNyG76sMNiJVXGcCNUT5J7wxP2ZDEAI2cAJyZSPFH6OvJoxuM4XuP7ScHuBpuXYH2xbvRqWhKwgLCARtpTADB/kEUFdNcD1k0N3c/FKGrK9lpC8q/brJqIhRWuiYH9L7JQTYT1Jupf4UZ2p70L2NIUDyBUD92kL239LHx3bp10e8niMxbQ/bBuDzLAnX2zIthfE/wjJLQ2XXCdbRoZ6DVzHi1owuLJ2V6eza0Yuj2uTA4gaSDGsey/nQEKBb7HHFCa0PNg/1/M1Oxf2XwVEDpTgQqIne+6gRu5HO8O9Xh25O5oI9DTKjNz1Ns7k5SES1bb5IZn0g2jKLl9Fc8+z7wzhMruXsP6JFFfpHiGMDnoupYqzCnrDTb7YGxVIC/kf+XGeTmiqhiUq11M9rrtvHEl8kxFreUkvKwBiZE3vaO3tFFGFDDEhgqwSO7Ne5pDvTmIiTWMv+YtdMCD+RlB9oLEaJXP91H44KsBGVNVb46or6qgkt7plOQcyUf3mahOdq/9AB3AzDb6HwiVMez0jzvRNEGspQyEJoHeCtk07gs4iATz9tokxNgyAnqJkv+LiaU/CGh2zxBcW1w/cq6D8sRiVgAdK1QSy8m42GvZy5UBKyWIwyNuGOIQCH2dCvyzC8Rl0GxDrHMgioqz3tLC84z31+/zYE45oKGO1QZKTM0P3XGzVFeG0Z3z835sBbmjR/2NJ3xy7InaoZW/7TX2b5dEgXydhRurxIRXO0ryLNauQQC+IfXva66hqq3GgAAAAASfCeiIvhjXDAmW5uPy5EOyguHl40XRfOL4KzphOqQJ4YGkTvOhSLHw45w6dki2yWrTv52m7aXYVbAwFiwEy08iOwQRAaAKtW+PsSqrZcg2LaR63NurN8wG/6V8IR8TKJU2X5bGG6ml720e69hqWtiiq82fldPsZi817jd1S/8SedeU1mCzidsz9I6p/3FKT9Re14sizfIByZIHjoXDC11iLCo2C8b1hlnbqDMMgA9WGszr23cKOpZG/x0RNVwX7TvokUZ9DPPahYIRgOt1hSFNzEic2tVdR5RjBUGS+lghd8stpjQNod3V4VDHVhHXYaCQqe5+VGN10W98mMrR7RKZF0P5d1zZUkujnGEE2ZdlP/5Pqvmhs+GZuVP3s01VC2LrBRlvMop6W+4DcuaHxDxfwKmHbNuKU2D0hMdip1Ict1p2M1uOAmweDOHIsQydVJuHwMj2GOUcgSVmVUPF8sGFde2upbSyGkoEKGNibHgI+4kS2KUqODFYiiD2rUJD78x3i84Rf1F1iEviWoJgciPDT0CLNmFwqXrfxLkAn2eaiVwzCxWcvY+VGPaK6ovAVYJbISy+YYH/O1n9MeWM4uXhCq9u9mCeCrF2Nz+R3B0TfablDzSytYZ1f4RE42GJxoXjcXUzPo38rHqBQvC3uvMobJ+WykDtV/tQ3xEOsQvSuKu+18p49U2b2+g7z+J3tW6khXuGGQ2YiR3aCqGkRHa0QkT/lkHIjkZS/DTdYeti/T8UzUoEsbnL27RSjL/j/cnWaV7OVsM3W6roBMcZmiNRXDNFNOAGhmq+obWRGCYFarGtA4zm1HMIAkksYwE453QcVe2kV7kLfjLnYxrpMOj00JSnj4GtmOuAN3PZMYPpsIuOb1w4r3rFLcKSF38gXPJprU6R6UYUvkv46GCncsq44Cqbhz4eG63zRCNcRuECIiz06n7fn6geoAAAAHynuFae57edNTo0nGZEF+Sv3V2IquJRe5OuWGZPVqmqL8cWqR5dIDEoEpIA3PQ4MmgAtjOIHlmaOnuekGuMtTkjSD4P+iUfSUlfap1CILMnNbQXq4S9a9ZFbWTWEx+zkxv4L3oqf87nNfm9m7Yw6jBN31W+korIr9r02fPLvk2OKo2jt/yPdrwsPp9nsSMxHM7Iadzsm+lHgkEn+nEFzOJ9g3QxbLWWN7NPhrC/7Iabx+iY89+MYTdiDMtqpjC/D1bukbg/gy69UXAEFEPIiGqym2vODNMqMQCxUzuAlq3UM/EI/FwG4iTvH7qFbwtDz+v+cNzCN52FSMVzB8RA47v0m5nnzm50BiAt/WaqPJa8ekw7ciloDSt0sE4b/zxjU0Hn88BDNLBBo+Fk2Gx9c6rwMkdl57ZtPGkl6/RRyDSrfWNAR5vCB+R6TeVvQFXnEIdyB1REf2+kJl0a6r3UK80tNjzm4AhXSKvLMlmgDZ3ynlLiRG8b6MmhTCdxaERtFTnZNtHMXJa3zMWOxErwY5ug7gauxGT/7iszW47oBmzE/dsK5F3M3uG+j1amqDYBpquiBspMY3Yc/IPmu0loW/vCLGmgsvydT5qHnAimolo5BQAAAC/mo1zBO9wBJ8ctCPDq+0wqMHQ8bisoZ5xubNU3I983zooFZTN2oTbA+hNrHskhspfPUd7tqSqsxsaGDiC1ZaATtbd1tBWTRbO7l1IA4DXdtTH+IurcYIIFmSLOtT+RA3qFv66JduK6+Jkei64J/sVvkj9AFUsPQkhYeNodfWILNQMFRLS614hhoAD6vZj8awri3a2PqbWcDPZJtArGVNCUcv3ZGNEB6ys18hfKYjD1XepwzpSE5Gd74IoZnJH0m3OlAhgaLJYtxZkHzPasYYM4i0gxEGlNvDzGiQJpcuj9uNbEAcQKAH9vIAAAEK5lBJr9cISRm17QCDrjvGLYDFG0Af1A2Tvu48yPb/PPdLPv7fRNWyLSB9PffxLjbCRfe8HVa035Qi4+TnpPzZDAMS1uq0LE5Zx/luY3iRWr+Zrx3eikKcSSzz8qn9/n09j8PfoAuIb0iMDh38jgJyoIXHWtu0U3i0Ofiin+fAbLr9PQ2uzh/gGnjR1i+/CbL2D6HLLxB4mjMjLetjLB+HGWSYmj/BkJWRkFvnwG2F54SN2PFXhBfvb7wSHdDQ+9f9aAns/f/KnswAX+KBQJaX0sS4mOsjjoeIuuKeReOT78QVEX3RKpnmoi+qX9pmjWQwo5HU20wz83klgna9wKO4SLq4u9uFW8VjcMJIuiX/nohqYhJScMLLTHedzGiQKzHO3dbyqb0f27UVJLxCPcHGCpEruj6fBcmf3CtaodTpFNKFNsh5gPzXE1AfaxS1bdcmg0qh3MFIFjWtGEgroQ0QM8AQN5tNA+ryc8/6lWRm53Iy2QaxGgINt7DnVPJla1EBzGDD25RhKRAWT6nappll9i8chCLh3T7tn71vB5DpIL/2t3eFuomcFn6U1taTtV1tIxDic6iPc8kiNhCELF43L/hSDdfsxy+Ajw4etw8GvcSrmQLl4TzOGs8FpHzkAx0JaJbidPVk5HpyRdC5RxaKaXVjE+epkNrtDdkJdF0iQR4jdPa1uzrGVZ98+Qo4PmRdOF9sHFAez0geKnJ9Isv+i62nt5CMuKqR/2j2XuN1HV5CH7N4VGQaamTddx+8uXufGuih1YWH4A3z/1erixDSKdIDfBF4aOctP8GsTfyuJZ626F9lLzjKhTO55HUQmyq0mWLhOXC+B44+lABhlSDU2emybrfJA7elcNedHJGR2sEqT/Lr1QnDTtGQR9P9gFJISpcp9sstT+Iy89rYcIZWF9X3n1Du8b1LuGMCPcWVjMO+MVI8yCn4qAuvk0/ZwXSFU+RkdBsWukpuc2ADUr0YELilAKNl2SF4qGaEAAAAAAAAAAAAmDHRYQAAAAAAAAAAAC/QfcPiNy7wqIlAXFj1n6LdFIn2SSbwc61Yr9BSVRzZra09h1yjRDVCKN5ID34HPxLwHr3COf9CtkyPUw6AzcYXYfRfH4kCy6YhGCfN8CrRC3HvsgT9fsFT81LYA3tWRymF8rSxK77pb0jBVDzX7QaOXmot9EqrTQgCvMwbpewdxyBOwcHTgAD6SHxq89jpffuonpGpDB3BcphjHIGOqPRGEgAbMiKGSJgPakTzCEuywnxZt/Aa2l6ylHM23xHLylcPjidpagHsORHBi5gkKdmNG6bFeRIcADUTZkD/kyo0v55pVen4/oKZBRQW4CRlTQiBFlfg/8kAPVDbSovIu3a2jNOz9IUo8lPVVNghXmiFHG8mmvRWKthrXq9mrecHOtSgHn4C04BlVnzXnKmNslqEI7fhEoJcNP5C8YkeM1gx3QkEAjc+euvGc2wgGFFOFFX2wtoEXFaAbAXF5/Bhr9zKpJ/G5d5NFpDV68JMOOb5oDUzqyK/WprAQXnSpQe8VWcr95uTi0UgnRojx19VFHdVXNEgMOIjDfPvLZ6xtFBp8UjT+S7oz5fAvBlGWRzA3AF5YGdEOQkB7t8F00cFpdx4uIcmkkEXDTyYDPfmTBmVDwLjj/drOu+Duvmum7i1qO6Q7TzPOaWUDHTSPqpo68UxNKrmcDFzvXBJKnisZyUcseBHaDGJGxxlq9VKUF4Yz7D8mjFp/Ey6Ht09F0+5hc8P7LrZY03k7iYJZO6kGpJQkWiu6svCJXbE24AQLKCSFgEcA0sLI24gKkaFa55AEKp9PpHXqg/0XWxgTmel8kZqQzLkmEkI93JT9TGNd7i8FYL0SE1PsG64PJa4gWUCkiMQp9IH3oTqECY29oo1Jxfu8P7F4tFk3DNyGy3ik5l6hJBi8pKVWqEkQZQCLuIPj3y3KSj8QZEB9K4kXLLBUKLT3Hrqwgxc7dkacPygEOTRQ3FM8TfKwianx07WYbKVLHXnWedSxQUcrEgPei3jOOC2EDESialNEi5MP3m58zS7cPUuhLxObRvvRIPTMlEb/chwQZ7eLTpR6PzRCRup3Ehyup15yabqmawi0tPkFy9jx+s2pmfAbFy8RBu6PtsgkO1tEZADQnkSkxbTPjClw/Q9gaYuPFQtlKReQExDR/hfIKpKmaLp8PqjU7Ensk9YROt+dFHy3yXBnPadYJ2MQr8zdHT15sOlydV+Y0uVNI2sIHeTWo7G08oHS3gqAABmBcCBWrHQ3SSdlXhArUViDZN/++76dAAA;" vertex="1" parent="1">
          <mxGeometry x="-3060" y="-1730" width="2480.87" height="1320" as="geometry" />
        </mxCell>
        <mxCell id="rocCJiblD5CJ1fYKdtZ9-2" value="" style="rounded=0;whiteSpace=wrap;html=1;strokeWidth=0;strokeColor=#FFFFFF;" vertex="1" parent="1">
          <mxGeometry x="-970" y="-510" width="360" height="60" as="geometry" />
        </mxCell>
      </root>
    </mxGraphModel>
  </diagram>
</mxfile>
